<svg width="669" height="425" viewBox="0 0 669 425" fill="none" xmlns="http://www.w3.org/2000/svg">
<path d="M42.0004 48.2174C244 49.4874 448.07 50.1074 626.78 48.2174C647.16 46.2874 662.13 61.2474 658.78 80.2174C661.18 163.507 660.91 252.307 658.78 382.407C661.86 400.847 646.4 412.097 626.78 414.407C502.74 413.187 376.4 414.827 42.0004 414.407C19.8604 416.287 12.9104 404.467 10.0004 382.407C10.5304 268.307 10.3004 157.397 10.0004 80.2174C8.41037 62.0474 22.2904 50.6274 42.0004 48.2174Z" fill="#E9ECEF"/>
<path d="M42.0001 48.2174C240.83 47.8174 439.75 47.7174 626.78 48.2174M42.0001 48.2174C186.16 49.4474 331.09 49.8274 626.78 48.2174M42.0001 48.2174C20.1701 48.7274 8.60013 58.9074 10.0001 80.2174M42.0001 48.2174C21.0601 48.6574 12.1801 59.7074 10.0001 80.2174M626.78 48.2174C648.73 48.6274 660.45 58.0674 658.78 80.2174M626.78 48.2174C649.79 49.8774 660.34 60.8574 658.78 80.2174M658.78 80.2174C656.21 179.267 655.73 277.797 658.78 382.407M658.78 80.2174C658.98 180.697 659.47 280.307 658.78 382.407M658.78 382.407C658.52 401.767 649.29 415.427 626.78 414.407M658.78 382.407C659.15 403.387 648.19 413.857 626.78 414.407M626.78 414.407C458.16 414.947 289.79 415.497 42.0001 414.407M626.78 414.407C399 416.767 172.19 416.537 42.0001 414.407M42.0001 414.407C19.2801 414.727 10.8101 404.567 10.0001 382.407M42.0001 414.407C20.2201 416.087 11.8901 403.057 10.0001 382.407M10.0001 382.407C11.4401 314.117 11.1901 245.857 10.0001 80.2174M10.0001 382.407C8.64013 294.017 8.53013 204.917 10.0001 80.2174" stroke="#1E1E1E" stroke-width="2" stroke-linecap="round"/>
<path d="M450.804 171.054C464.954 171.424 477.924 169.564 505.954 171.054C527.684 173.414 532.944 180.424 533.534 198.634C537.164 219.494 537.604 235.344 533.534 264.034C531.824 280.094 521.224 295.104 505.954 291.614C487.454 291.884 472.114 292.664 450.804 291.614C435.324 292.324 425.954 281.904 423.224 264.034C422.864 251.124 421.654 235.614 423.224 198.634C424.844 182.664 430.234 173.484 450.804 171.054Z" fill="#A5D8FF"/>
<path d="M450.804 171.054C467.584 171.214 485.764 170.154 505.954 171.054M450.804 171.054C464.484 171.764 477.324 171.584 505.954 171.054M450.804 171.054C434.314 171.764 422.724 180.764 423.224 198.634M450.804 171.054C433.504 171.164 423.614 180.684 423.224 198.634M505.954 171.054C526.004 170.244 534.994 181.684 533.534 198.634M505.954 171.054C525.894 173.024 534.204 178.024 533.534 198.634M533.534 198.634C532.084 216.404 533.964 237.524 533.534 264.034M533.534 198.634C534.644 212.644 533.574 225.764 533.534 264.034M533.534 264.034C534.704 283.434 524.654 291.304 505.954 291.614M533.534 264.034C533.614 281.864 524.074 291.524 505.954 291.614M505.954 291.614C486.794 291.384 469.754 290.324 450.804 291.614M505.954 291.614C485.164 291.774 461.964 292.024 450.804 291.614M450.804 291.614C433.224 292.434 422.834 283.874 423.224 264.034M450.804 291.614C434.314 290.924 421.564 280.424 423.224 264.034M423.224 264.034C422.444 250.234 423.314 235.004 423.224 198.634M423.224 264.034C423.224 243.984 422.254 222.924 423.224 198.634" stroke="#1E1E1E" stroke-width="2" stroke-linecap="round"/>
<path d="M26.1887 49.4081C183.239 48.7281 342.389 50.4481 642.679 49.4081C652.759 49.5881 658.789 57.7481 658.689 65.4181C662.189 69.2281 657.399 76.5181 658.689 97.4281C655.569 111.598 653.329 115.318 642.679 113.438C508.869 115.548 376.869 115.088 26.1887 113.438C18.2387 112.918 8.06869 108.048 10.1787 97.4281C8.64869 91.6481 11.8587 81.9481 10.1787 65.4181C7.98869 57.1681 13.3687 49.0481 26.1887 49.4081Z" fill="#FFEC99"/>
<path d="M26.1886 49.408C227.999 48.728 430.159 48.488 642.679 49.408M26.1886 49.408C175.359 48.538 324.619 48.298 642.679 49.408M26.1886 49.408C15.8586 49.788 12.0786 55.458 10.1786 65.418M26.1886 49.408C14.4686 47.788 11.2586 54.848 10.1786 65.418M642.679 49.408C654.809 50.848 660.039 56.458 658.689 65.418M642.679 49.408C654.019 47.178 658.629 54.048 658.689 65.418M658.689 65.418C659.109 74.258 656.789 83.6181 658.689 97.4281M658.689 65.418C658.859 75.848 659.579 88.7681 658.689 97.4281M658.689 97.4281C659.009 107.788 653.419 112.958 642.679 113.438M658.689 97.4281C658.419 108.008 654.369 112.968 642.679 113.438M642.679 113.438C497.349 113.218 351.339 112.968 26.1886 113.438M642.679 113.438C428.319 113.258 214.679 113.358 26.1886 113.438M26.1886 113.438C15.1286 114.888 11.8286 107.498 10.1786 97.4281M26.1886 113.438C13.8486 111.448 8.64863 107.368 10.1786 97.4281M10.1786 97.4281C10.2186 88.1881 10.6186 76.758 10.1786 65.418M10.1786 97.4281C9.38863 85.4581 9.84863 73.718 10.1786 65.418" stroke="#1E1E1E" stroke-width="2" stroke-linecap="round"/>
<path d="M39.1918 81.3125V72.3325L38.5518 71.4525C38.4852 70.8792 38.7785 70.4392 39.4318 70.1325C40.0185 69.9192 40.8652 69.6992 41.9718 69.4725C43.0785 69.2459 43.8785 69.0592 44.3718 68.9125C45.1185 68.6059 46.0452 68.3992 47.1518 68.2925C47.1918 68.3059 47.3118 68.3059 47.5118 68.2925C47.7118 68.2659 47.9585 68.2392 48.2518 68.2125C48.5452 68.1859 48.7918 68.1725 48.9918 68.1725C49.3252 68.1725 49.5585 68.2125 49.6918 68.2925C49.9985 68.2925 50.2852 68.4392 50.5518 68.7325C50.8185 69.0259 50.9118 69.3325 50.8318 69.6525C50.8852 69.8125 50.8652 69.9725 50.7718 70.1325C50.6785 70.2792 50.5452 70.3859 50.3718 70.4525C50.2118 70.4925 50.0518 70.4525 49.8918 70.3325L49.6718 70.1725C49.5918 70.1059 49.5118 70.0659 49.4318 70.0525C47.6318 69.8659 45.3518 70.2459 42.5918 71.1925C42.4985 71.2459 42.3118 71.3259 42.0318 71.4325C41.7652 71.5259 41.6185 71.5725 41.5918 71.5725C41.4718 71.6125 41.3452 71.6992 41.2118 71.8325L40.9518 72.0925V73.3525C40.9518 74.3792 40.9985 75.1392 41.0918 75.6325C41.2118 75.6325 41.3185 75.6392 41.4118 75.6525L42.4118 75.7325C42.5052 75.7459 42.6118 75.7525 42.7318 75.7525C43.1718 75.7125 43.7585 75.5925 44.4918 75.3925C45.2252 75.1925 45.8252 75.0659 46.2918 75.0125C47.2118 74.9059 47.7452 74.8525 47.8918 74.8525C48.2252 74.8525 48.5252 74.8992 48.7918 74.9925C49.0318 75.1259 49.1652 75.3059 49.1918 75.5325C49.2185 75.7592 49.1318 75.9592 48.9318 76.1325C48.7318 76.2392 48.3052 76.3459 47.6518 76.4525C47.0118 76.5459 46.6385 76.6059 46.5318 76.6325C46.1318 76.7792 45.4785 76.9659 44.5718 77.1925C43.6785 77.4192 43.1052 77.5725 42.8518 77.6525C42.8118 77.6525 42.6585 77.7125 42.3918 77.8325C42.1385 77.9392 41.9985 78.0059 41.9718 78.0325H41.8318L41.2118 77.9125L41.0918 78.0325C40.9985 79.2992 41.0385 80.2259 41.2118 80.8125V80.9525C41.2385 81.7525 41.0718 82.2459 40.7118 82.4325C40.5652 82.5525 40.3252 82.6392 39.9918 82.6925C39.6318 82.4392 39.4185 82.2259 39.3518 82.0525C39.3252 81.9859 39.3118 81.9125 39.3118 81.8325C39.2318 81.6459 39.1918 81.4725 39.1918 81.3125ZM50.3362 76.9925C50.4295 76.4059 50.6295 75.8992 50.9362 75.4725C51.2429 75.0459 51.6762 74.5792 52.2362 74.0725C52.7162 73.8325 53.3362 73.7125 54.0962 73.7125C55.0295 73.7125 55.7962 73.8725 56.3962 74.1925C57.5295 74.8992 58.3362 75.4925 58.8162 75.9725C58.8162 76.0125 58.8229 76.1125 58.8362 76.2725C58.8495 76.4325 58.8429 76.5659 58.8162 76.6725C58.8029 76.7792 58.7562 76.8392 58.6762 76.8525C58.2495 76.9192 57.8162 76.8525 57.3762 76.6525C57.2695 76.5859 57.0962 76.4859 56.8562 76.3525C56.6162 76.2059 56.4362 76.0992 56.3162 76.0325C56.1962 75.9659 56.0362 75.8992 55.8362 75.8325C55.6362 75.7659 55.4429 75.7259 55.2562 75.7125C55.1495 75.7125 54.9762 75.7125 54.7362 75.7125C54.4962 75.6992 54.3029 75.6992 54.1562 75.7125C54.0229 75.7125 53.8562 75.7325 53.6562 75.7725C53.4562 75.8125 53.2762 75.8792 53.1162 75.9725L52.9962 76.0925C52.5162 76.7325 52.2162 77.2259 52.0962 77.5725C52.1229 77.9725 52.1229 78.3325 52.0962 78.6525C52.0695 78.9592 52.0629 79.3125 52.0762 79.7125C52.1029 80.1125 52.1562 80.4659 52.2362 80.7725C52.3295 80.9325 52.3829 81.0925 52.3962 81.2525C52.4095 81.3992 52.3762 81.5725 52.2962 81.7725C52.2162 81.9725 52.1562 82.1125 52.1162 82.1925C52.0895 82.2592 52.0029 82.4125 51.8562 82.6525C51.7362 82.8125 51.5895 82.8925 51.4162 82.8925C51.2295 82.8925 51.0362 82.8125 50.8362 82.6525C50.5162 82.4525 50.2629 82.0792 50.0762 81.5325C50.0762 79.4259 50.1629 77.9125 50.3362 76.9925ZM66.37 79.4725C66.2633 79.5525 66.1366 79.7192 65.99 79.9725C65.2833 80.7459 64.59 81.3659 63.91 81.8325C63.2433 82.2859 62.5166 82.5059 61.73 82.4925C61.3166 82.5459 60.89 82.4925 60.45 82.3325C60.01 82.1592 59.6633 81.9192 59.41 81.6125C59.29 81.4259 59.2033 81.2992 59.15 81.2325C59.11 81.1525 59.0433 81.0325 58.95 80.8725C58.8566 80.6992 58.79 80.5592 58.75 80.4525C58.7233 80.3459 58.69 80.2192 58.65 80.0725C58.61 79.9259 58.59 79.7859 58.59 79.6525C58.59 79.5059 58.61 79.3592 58.65 79.2125C58.6633 78.7592 58.81 78.2992 59.09 77.8325C59.3833 77.3659 59.6766 76.9925 59.97 76.7125C60.2633 76.4325 60.6433 76.0992 61.11 75.7125C61.2033 75.6459 61.27 75.5925 61.31 75.5525C61.87 75.0992 62.63 74.8725 63.59 74.8725C63.79 74.8725 64.4233 74.9259 65.49 75.0325C65.5166 75.0592 65.6033 75.1059 65.75 75.1725C65.91 75.2392 66.0233 75.3125 66.09 75.3925C66.1566 75.4592 66.1633 75.5525 66.11 75.6725L66.37 75.9325C66.77 76.1059 67.0233 76.2725 67.13 76.4325C67.7966 77.7925 68.3833 78.8859 68.89 79.7125C68.9433 79.7792 69.11 79.9325 69.39 80.1725C69.6833 80.3992 69.8566 80.5459 69.91 80.6125C70.0166 80.6925 70.1433 80.8059 70.29 80.9525C70.45 81.0859 70.5833 81.1859 70.69 81.2525C70.7966 81.3192 70.9166 81.3592 71.05 81.3725C71.0633 81.3859 71.15 81.4659 71.31 81.6125C71.3233 81.6525 71.3166 81.7059 71.29 81.7725C71.2766 81.8259 71.2566 81.8925 71.23 81.9725C71.2033 82.0525 71.1833 82.1059 71.17 82.1325C71.0366 82.3325 70.7433 82.4925 70.29 82.6125C70.13 82.6125 70.0166 82.6192 69.95 82.6325C69.8966 82.6592 69.8033 82.6459 69.67 82.5925C69.55 82.5525 69.4633 82.5192 69.41 82.4925C69.37 82.4792 69.2833 82.4325 69.15 82.3525C69.0166 82.2725 68.9166 82.2125 68.85 82.1725L68.77 82.1325C68.4366 81.8525 67.9766 81.3725 67.39 80.6925C66.8166 79.9992 66.4766 79.5925 66.37 79.4725ZM60.55 80.0925C60.79 80.4525 61.15 80.6325 61.63 80.6325C61.8566 80.6325 62.17 80.5792 62.57 80.4725C63.2233 80.2325 63.8166 79.8125 64.35 79.2125C64.87 78.4925 65.1633 77.8592 65.23 77.3125C65.23 77.2725 65.2566 77.1192 65.31 76.8525C65.3633 76.5725 65.3833 76.3792 65.37 76.2725C65.1033 76.3392 64.7166 76.3925 64.21 76.4325C63.7166 76.4592 63.3366 76.4992 63.07 76.5525C62.7233 76.6059 62.37 76.7725 62.01 77.0525C61.65 77.3192 61.3766 77.5725 61.19 77.8125C61.0033 78.0525 60.75 78.3925 60.43 78.8325C60.2033 79.1125 60.2433 79.5325 60.55 80.0925ZM73.8098 76.5725L73.9298 77.2125C73.8898 77.3859 73.9765 77.8059 74.1898 78.4725C74.7231 77.9125 75.0965 77.4059 75.3098 76.9525C75.6031 76.6192 75.7298 76.2792 75.6898 75.9325C76.2765 75.5992 76.7831 75.4725 77.2098 75.5525C77.4498 75.6192 77.7031 75.9192 77.9698 76.4525V78.3525L78.1098 78.4725C78.3631 78.2059 78.6898 77.8125 79.0898 77.2925C79.5031 76.7725 79.7631 76.4459 79.8698 76.3125C80.2698 75.7659 80.6498 75.3859 81.0098 75.1725C81.5698 75.2392 81.9898 75.4525 82.2698 75.8125C82.6565 76.4659 82.9098 77.3925 83.0298 78.5925C83.0165 78.8325 83.0298 79.0859 83.0698 79.3525C83.1098 79.6192 83.1698 79.9125 83.2498 80.2325C83.3298 80.5525 83.3831 80.8059 83.4098 80.9925C83.5431 81.3659 83.5898 81.7059 83.5498 82.0125C83.5365 82.1859 83.4498 82.2992 83.2898 82.3525C83.1298 82.4059 82.9631 82.4125 82.7898 82.3725C82.4965 82.3059 82.2431 82.0592 82.0298 81.6325C81.9365 81.4325 81.8498 81.2392 81.7698 81.0525C81.7031 80.8525 81.6365 80.6125 81.5698 80.3325C81.5165 80.0392 81.4765 79.8459 81.4498 79.7525C81.4365 79.6592 81.4031 79.4125 81.3498 79.0125C81.2965 78.5992 81.2698 78.3792 81.2698 78.3525C81.1765 78.0859 81.0698 77.9525 80.9498 77.9525C80.8965 77.9792 80.7965 78.0592 80.6498 78.1925C80.5031 78.3259 80.3565 78.4659 80.2098 78.6125C80.0765 78.7459 79.9298 78.8992 79.7698 79.0725C79.6098 79.2325 79.5165 79.3259 79.4898 79.3525L79.2898 79.6325L78.5498 80.5925L78.3498 80.8725C78.2965 80.9259 78.1965 81.0525 78.0498 81.2525C77.9165 81.4392 77.7965 81.5792 77.6898 81.6725C77.5965 81.7659 77.4831 81.8392 77.3498 81.8925C77.1231 81.9325 76.9098 81.9125 76.7098 81.8325C76.5098 81.7392 76.3831 81.5859 76.3298 81.3725C76.2498 81.2659 76.2098 81.1392 76.2098 80.9925V78.8725H76.1698C76.1165 78.8459 76.0831 78.8392 76.0698 78.8525C75.1498 80.1459 74.4365 81.2392 73.9298 82.1325C73.8098 82.2925 73.7231 82.3725 73.6698 82.3725C73.0965 82.4392 72.7631 82.3592 72.6698 82.1325C72.6298 82.0659 72.5765 81.9325 72.5098 81.7325C72.4431 81.5192 72.4098 81.3992 72.4098 81.3725V76.5125C72.4631 76.1525 72.6365 75.9725 72.9298 75.9725C73.0898 75.9725 73.2565 76.0325 73.4298 76.1525C73.6031 76.2725 73.7298 76.4125 73.8098 76.5725ZM86.2661 76.6525C87.2261 75.4259 88.2794 74.6259 89.4261 74.2525C90.1594 74.1592 90.5461 74.1125 90.5861 74.1125C91.4127 74.1392 92.1327 74.3925 92.7461 74.8725C93.3594 75.3392 93.6861 75.9792 93.7261 76.7925C93.7394 77.4992 93.4527 78.1459 92.8661 78.7325C92.2927 79.3192 91.6527 79.6392 90.9461 79.6925C90.6794 79.7859 90.3927 79.8325 90.0861 79.8325C89.3927 79.8325 88.6261 79.5792 87.7861 79.0725C87.5327 78.8192 87.3661 78.6925 87.2861 78.6925C87.2327 78.6659 87.1861 78.6659 87.1461 78.6925C86.7061 79.3592 86.4927 79.8659 86.5061 80.2125C86.6527 81.0792 87.1194 81.8125 87.9061 82.4125C88.6927 83.0259 89.5261 83.3059 90.4061 83.2525C90.5394 83.3059 90.7727 83.3059 91.1061 83.2525C91.4394 83.2125 91.6594 83.1792 91.7661 83.1525C91.8861 83.1259 92.1127 83.0592 92.4461 82.9525C92.7927 82.8592 93.0327 82.7925 93.1661 82.7525C93.6327 82.5659 94.2527 82.4459 95.0261 82.3925H95.1661C95.2594 82.3659 95.3461 82.3859 95.4261 82.4525C95.5061 82.5192 95.5527 82.6192 95.5661 82.7525V83.4925C95.0861 84.0392 94.4927 84.3325 93.7861 84.3725C93.6394 84.4125 93.3727 84.4859 92.9861 84.5925C92.6127 84.6992 92.3261 84.7725 92.1261 84.8125C91.9394 84.8659 91.6861 84.9125 91.3661 84.9525C91.0594 85.0059 90.7794 85.0259 90.5261 85.0125C89.3527 85.0659 88.2261 84.7659 87.1461 84.1125C86.1594 83.6059 85.3994 82.7259 84.8661 81.4725C84.6661 80.6859 84.6994 79.9192 84.9661 79.1725C85.2327 78.4259 85.6661 77.5859 86.2661 76.6525ZM87.8261 77.6125C88.1061 77.6125 88.3461 77.6325 88.5461 77.6725C88.6661 77.7392 88.7794 77.7925 88.8861 77.8325C89.0061 77.8592 89.1461 77.8859 89.3061 77.9125C89.4794 77.9259 89.5927 77.9325 89.6461 77.9325C89.6994 77.9325 89.8394 77.9325 90.0661 77.9325C90.3061 77.9325 90.4327 77.9325 90.4461 77.9325C91.1394 77.7192 91.5994 77.4192 91.8261 77.0325C91.8661 76.8859 91.8661 76.7592 91.8261 76.6525C91.7994 76.5325 91.7261 76.4325 91.6061 76.3525C91.4861 76.2725 91.3727 76.2125 91.2661 76.1725C91.1594 76.1325 91.0127 76.0859 90.8261 76.0325C90.6527 75.9659 90.5261 75.9192 90.4461 75.8925C90.1261 75.8925 89.7994 75.9859 89.4661 76.1725C89.1327 76.3459 88.8661 76.5192 88.6661 76.6925C88.4661 76.8659 88.2127 77.1059 87.9061 77.4125C87.9061 77.4259 87.8927 77.4592 87.8661 77.5125C87.8394 77.5525 87.8261 77.5859 87.8261 77.6125ZM96.4636 80.9525C96.4902 80.8992 96.5502 80.7992 96.6436 80.6525C96.7369 80.5059 96.8036 80.3925 96.8436 80.3125C97.5369 80.4325 98.1236 80.7259 98.6036 81.1925C98.8569 81.3792 99.1569 81.5259 99.5036 81.6325C99.8636 81.7392 100.13 81.8059 100.304 81.8325C100.49 81.8459 100.85 81.8525 101.384 81.8525C101.917 81.8392 102.217 81.8325 102.284 81.8325C102.577 81.8325 102.957 81.7459 103.424 81.5725C103.557 81.5192 103.637 81.4259 103.664 81.2925C103.69 81.1592 103.65 81.0459 103.544 80.9525C103.29 80.7659 102.63 80.4125 101.564 79.8925C100.51 79.3725 99.9502 79.0925 99.8836 79.0525C98.5236 78.6392 97.3369 78.0459 96.3236 77.2725C96.2569 77.1792 96.1436 77.0725 95.9836 76.9525C95.8369 76.8192 95.7169 76.6925 95.6236 76.5725C95.5302 76.4392 95.4702 76.2925 95.4436 76.1325C95.4302 75.6125 95.6836 75.1525 96.2036 74.7525C96.2702 74.7259 96.5302 74.6459 96.9836 74.5125C97.4369 74.3792 97.7702 74.2459 97.9836 74.1125C99.2236 73.6192 100.404 73.3325 101.524 73.2525C101.55 73.2525 101.624 73.2592 101.744 73.2725C101.877 73.2859 101.95 73.2925 101.964 73.2925C101.99 73.2925 102.057 73.2992 102.164 73.3125C102.27 73.3259 102.337 73.3392 102.364 73.3525C102.39 73.3659 102.444 73.3859 102.524 73.4125C102.604 73.4392 102.657 73.4725 102.684 73.5125C102.724 73.5392 102.77 73.5792 102.824 73.6325C102.877 73.6725 102.917 73.7259 102.944 73.7925C102.984 73.8459 103.017 73.9125 103.044 73.9925C103.124 74.4592 102.997 74.8392 102.664 75.1325C102.597 75.1325 102.384 75.1392 102.024 75.1525C101.664 75.1659 101.43 75.1792 101.324 75.1925C101.217 75.1925 101.017 75.2125 100.724 75.2525C100.43 75.2792 100.204 75.3125 100.044 75.3525C99.8836 75.3925 99.6969 75.4525 99.4836 75.5325C99.2702 75.6125 99.0702 75.7059 98.8836 75.8125C98.6969 75.8792 98.5702 75.9859 98.5036 76.1325C98.4502 76.2792 98.5302 76.4059 98.7436 76.5125C99.3569 76.9392 100.264 77.4259 101.464 77.9725C102.664 78.5192 103.484 78.9192 103.924 79.1725C104.364 79.4525 104.744 79.7925 105.064 80.1925C105.397 80.5792 105.604 81.0192 105.684 81.5125C105.777 82.0059 105.57 82.4459 105.064 82.8325C104.744 83.0859 104.324 83.2792 103.804 83.4125C103.297 83.5459 102.89 83.6259 102.584 83.6525C102.277 83.6792 101.804 83.6992 101.164 83.7125C100.497 83.7392 99.7836 83.6392 99.0236 83.4125C98.2636 83.1859 97.6169 82.8659 97.0836 82.4525C96.5502 82.2525 96.3436 81.7525 96.4636 80.9525Z" fill="#1E1E1E"/>
<path d="M152.773 80.2915C152.626 79.9315 152.486 79.4248 152.353 78.7715C152.219 78.1182 152.086 77.6182 151.953 77.2715C151.913 77.0848 151.866 76.7048 151.813 76.1315C151.759 75.5448 151.679 75.1115 151.573 74.8315C151.573 74.8315 151.559 74.8248 151.533 74.8115C151.479 74.7848 151.446 74.7782 151.433 74.7915C151.299 74.9515 151.159 75.1715 151.013 75.4515C150.879 75.7182 150.733 76.0448 150.573 76.4315C150.426 76.8182 150.313 77.0982 150.233 77.2715C149.926 77.6848 149.506 77.9182 148.973 77.9715C148.466 77.6382 147.979 77.0315 147.513 76.1515C147.459 76.0582 147.366 75.8515 147.233 75.5315C147.113 75.2115 146.986 74.8582 146.853 74.4715C146.719 74.0715 146.646 73.8582 146.633 73.8315L146.433 73.6715C146.313 73.8982 146.146 74.3315 145.933 74.9715C145.733 75.5982 145.619 75.9515 145.593 76.0315C144.993 77.6448 144.293 79.1982 143.493 80.6915C143.479 80.7048 143.433 80.7515 143.353 80.8315C143.273 80.8982 143.219 80.9382 143.193 80.9515C143.179 80.9648 143.126 81.0048 143.033 81.0715C142.953 81.1382 142.899 81.1715 142.873 81.1715C142.859 81.1715 142.806 81.1982 142.713 81.2515C142.619 81.2915 142.559 81.3048 142.533 81.2915C142.506 81.2648 142.446 81.2582 142.353 81.2715C142.113 81.1915 141.826 80.8182 141.493 80.1515C141.359 79.8448 141.346 79.5182 141.453 79.1715C141.813 78.9315 142.239 78.3915 142.733 77.5515C142.799 77.3915 142.953 77.0315 143.193 76.4715C143.433 75.9115 143.606 75.4982 143.713 75.2315C143.833 74.9515 143.966 74.5848 144.113 74.1315C144.259 73.6648 144.373 73.2382 144.453 72.8515C144.519 72.5848 144.619 71.9582 144.753 70.9715C144.886 69.9848 145.033 69.2848 145.193 68.8715C145.393 68.6048 145.566 68.4715 145.713 68.4715C145.806 68.4715 145.946 68.5115 146.133 68.5915C146.413 68.6982 146.633 68.8382 146.793 69.0115C146.966 69.1715 147.139 69.4048 147.313 69.7115C147.326 69.7515 147.359 69.8182 147.413 69.9115C147.466 69.9915 147.513 70.0648 147.553 70.1315L147.613 70.2515L148.873 74.2515C148.873 74.2915 148.926 74.3315 149.033 74.3715C149.179 74.2648 149.359 73.9982 149.573 73.5715C149.786 73.1315 149.933 72.8515 150.013 72.7315C150.359 71.9848 150.579 71.0182 150.673 69.8315C150.646 69.7382 150.659 69.6382 150.713 69.5315C150.766 69.4115 150.853 69.2782 150.973 69.1315C151.093 68.9715 151.159 68.8848 151.173 68.8715C151.226 68.8715 151.333 68.8848 151.493 68.9115C151.653 68.9248 151.799 68.9448 151.933 68.9715L152.153 69.0115C152.179 69.0248 152.279 69.1048 152.453 69.2515C152.639 69.3848 152.766 69.4915 152.833 69.5715C152.993 69.6782 153.106 69.9515 153.173 70.3915C153.239 70.8182 153.279 71.0448 153.293 71.0715C153.306 71.2982 153.313 72.0048 153.313 73.1915C153.313 74.3648 153.373 75.0782 153.493 75.3315C153.599 76.7715 154.026 78.5582 154.773 80.6915C154.799 80.7848 154.919 81.0048 155.133 81.3515C155.359 81.7115 155.479 81.9315 155.493 82.0115C155.559 82.1182 155.526 82.2648 155.393 82.4515C155.259 82.6382 155.193 82.7382 155.193 82.7515C155.006 82.7782 154.806 82.7782 154.593 82.7515C154.393 82.7248 154.206 82.6315 154.033 82.4715C153.753 82.3248 153.539 82.1382 153.393 81.9115C153.246 81.6982 153.119 81.4048 153.013 81.0315C152.906 80.6582 152.826 80.4115 152.773 80.2915ZM158.265 75.5915C159.225 74.3648 160.278 73.5648 161.425 73.1915C162.158 73.0982 162.545 73.0515 162.585 73.0515C163.412 73.0782 164.132 73.3315 164.745 73.8115C165.358 74.2782 165.685 74.9182 165.725 75.7315C165.738 76.4382 165.452 77.0848 164.865 77.6715C164.292 78.2582 163.652 78.5782 162.945 78.6315C162.678 78.7248 162.392 78.7715 162.085 78.7715C161.392 78.7715 160.625 78.5182 159.785 78.0115C159.532 77.7582 159.365 77.6315 159.285 77.6315C159.232 77.6048 159.185 77.6048 159.145 77.6315C158.705 78.2982 158.492 78.8048 158.505 79.1515C158.652 80.0182 159.118 80.7515 159.905 81.3515C160.692 81.9648 161.525 82.2448 162.405 82.1915C162.538 82.2448 162.772 82.2448 163.105 82.1915C163.438 82.1515 163.658 82.1182 163.765 82.0915C163.885 82.0648 164.112 81.9982 164.445 81.8915C164.792 81.7982 165.032 81.7315 165.165 81.6915C165.632 81.5048 166.252 81.3848 167.025 81.3315H167.165C167.258 81.3048 167.345 81.3248 167.425 81.3915C167.505 81.4582 167.552 81.5582 167.565 81.6915V82.4315C167.085 82.9782 166.492 83.2715 165.785 83.3115C165.638 83.3515 165.372 83.4248 164.985 83.5315C164.612 83.6382 164.325 83.7115 164.125 83.7515C163.938 83.8048 163.685 83.8515 163.365 83.8915C163.058 83.9448 162.778 83.9648 162.525 83.9515C161.352 84.0048 160.225 83.7048 159.145 83.0515C158.158 82.5448 157.398 81.6648 156.865 80.4115C156.665 79.6248 156.698 78.8582 156.965 78.1115C157.232 77.3648 157.665 76.5248 158.265 75.5915ZM159.825 76.5515C160.105 76.5515 160.345 76.5715 160.545 76.6115C160.665 76.6782 160.778 76.7315 160.885 76.7715C161.005 76.7982 161.145 76.8248 161.305 76.8515C161.478 76.8648 161.592 76.8715 161.645 76.8715C161.698 76.8715 161.838 76.8715 162.065 76.8715C162.305 76.8715 162.432 76.8715 162.445 76.8715C163.138 76.6582 163.598 76.3582 163.825 75.9715C163.865 75.8248 163.865 75.6982 163.825 75.5915C163.798 75.4715 163.725 75.3715 163.605 75.2915C163.485 75.2115 163.372 75.1515 163.265 75.1115C163.158 75.0715 163.012 75.0248 162.825 74.9715C162.652 74.9048 162.525 74.8582 162.445 74.8315C162.125 74.8315 161.798 74.9248 161.465 75.1115C161.132 75.2848 160.865 75.4582 160.665 75.6315C160.465 75.8048 160.212 76.0448 159.905 76.3515C159.905 76.3648 159.892 76.3982 159.865 76.4515C159.838 76.4915 159.825 76.5248 159.825 76.5515ZM172.663 75.8515C171.783 76.5982 170.983 77.5248 170.263 78.6315C170.236 78.6848 170.063 78.9782 169.743 79.5115C169.436 80.0315 169.229 80.4115 169.123 80.6515C168.976 80.8915 168.763 80.9782 168.483 80.9115L167.603 80.0115V79.3915C167.669 79.0448 167.743 78.3715 167.823 77.3715C167.903 76.3715 167.956 75.7782 167.983 75.5915C167.983 75.5248 167.976 75.4648 167.963 75.4115L167.883 74.8915C167.869 74.8382 167.863 74.7782 167.863 74.7115V74.6315C167.863 74.4182 167.929 74.2448 168.063 74.1115C168.209 73.9782 168.389 73.9182 168.603 73.9315C169.029 73.9315 169.329 74.0648 169.503 74.3315C169.596 74.6915 169.643 75.1582 169.643 75.7315C169.643 75.8515 169.636 76.0048 169.623 76.1915C169.623 76.3648 169.623 76.4582 169.623 76.4715C169.729 76.3915 169.943 76.1915 170.263 75.8715C170.596 75.5382 170.803 75.3182 170.883 75.2115C170.976 75.0915 171.089 74.9315 171.223 74.7315C171.369 74.5182 171.509 74.3382 171.643 74.1915C171.776 74.0315 171.936 73.8782 172.123 73.7315C172.189 73.6382 172.269 73.5715 172.363 73.5315C172.456 73.4782 172.543 73.4515 172.623 73.4515C172.716 73.4382 172.816 73.4315 172.923 73.4315C173.029 73.4315 173.136 73.4315 173.243 73.4315C173.389 73.3782 173.536 73.3915 173.683 73.4715C173.843 73.5382 174.009 73.6848 174.183 73.9115C174.356 74.1248 174.463 74.2715 174.503 74.3515C174.556 74.4315 174.663 74.5982 174.823 74.8515C175.236 75.8115 175.443 76.8582 175.443 77.9915L175.823 79.6315C175.823 79.6715 175.863 79.8048 175.943 80.0315C176.036 80.2582 176.083 80.3782 176.083 80.3915C176.109 80.7515 176.023 81.0048 175.823 81.1515C175.783 81.1648 175.683 81.2048 175.523 81.2715C175.376 81.3248 175.263 81.3515 175.183 81.3515C175.049 81.3515 174.969 81.2848 174.943 81.1515C174.916 81.1115 174.823 80.9648 174.663 80.7115C174.516 80.4448 174.396 80.2582 174.303 80.1515C174.049 79.2715 173.883 78.4248 173.803 77.6115C173.763 77.5182 173.703 77.3182 173.623 77.0115C173.556 76.6915 173.489 76.4715 173.423 76.3515C173.143 76.0315 172.956 75.8582 172.863 75.8315C172.756 75.8315 172.689 75.8382 172.663 75.8515ZM184.839 75.6515L184.939 75.6715C184.992 75.1248 185.105 74.7582 185.279 74.5715C185.425 74.3848 185.545 74.2915 185.639 74.2915C185.679 74.2915 185.725 74.2915 185.779 74.2915C185.872 74.2782 185.952 74.2848 186.019 74.3115C186.099 74.3382 186.192 74.4048 186.299 74.5115C186.419 74.6048 186.499 74.6648 186.539 74.6915C186.752 75.0382 186.839 75.4582 186.799 75.9515C186.799 75.9782 186.672 76.2915 186.419 76.8915C186.325 77.3848 186.312 77.8915 186.379 78.4115C186.445 78.9182 186.632 79.3782 186.939 79.7915C187.192 80.3782 187.212 80.8048 186.999 81.0715C186.945 81.2048 186.845 81.2715 186.699 81.2715C186.619 81.2715 186.519 81.2515 186.399 81.2115C186.292 81.1715 186.165 81.1182 186.019 81.0515C185.872 80.9848 185.772 80.9448 185.719 80.9315C185.239 80.6115 184.932 80.0848 184.799 79.3515C184.265 79.9248 183.752 80.3448 183.259 80.6115C182.779 80.8648 182.125 81.0848 181.299 81.2715C180.859 81.3248 180.425 81.2715 179.999 81.1115C179.585 80.9515 179.279 80.7915 179.079 80.6315C178.879 80.4715 178.539 80.1782 178.059 79.7515C177.872 79.4982 177.719 79.2582 177.599 79.0315C177.492 78.8048 177.412 78.5582 177.359 78.2915C177.319 78.0248 177.292 77.8315 177.279 77.7115C177.265 77.5782 177.265 77.3315 177.279 76.9715C177.292 76.5982 177.299 76.3448 177.299 76.2115C177.379 76.1315 177.419 76.0048 177.419 75.8315V75.7115C177.379 75.5115 177.465 75.0448 177.679 74.3115C177.705 74.2582 177.779 74.1715 177.899 74.0515C178.032 73.9182 178.125 73.8382 178.179 73.8115C178.299 73.7848 178.512 73.7982 178.819 73.8515C179.125 73.9048 179.292 73.9315 179.319 73.9315C179.425 73.9582 179.505 74.0048 179.559 74.0715C179.625 74.1382 179.665 74.2248 179.679 74.3315C179.705 74.4248 179.719 74.5115 179.719 74.5915C179.719 74.6715 179.712 74.7782 179.699 74.9115C179.699 75.0448 179.699 75.1382 179.699 75.1915C179.699 75.2182 179.679 75.2648 179.639 75.3315L179.579 75.4515C179.312 76.0248 179.179 76.6248 179.179 77.2515C179.139 77.5982 179.225 77.9582 179.439 78.3315C179.652 78.6915 179.912 78.9982 180.219 79.2515C180.859 79.3982 181.252 79.4715 181.399 79.4715C181.679 79.4715 181.959 79.3982 182.239 79.2515C182.452 79.1715 182.652 79.0648 182.839 78.9315C183.039 78.7848 183.199 78.6515 183.319 78.5315C183.452 78.3982 183.599 78.2115 183.759 77.9715C183.932 77.7315 184.052 77.5582 184.119 77.4515C184.185 77.3315 184.305 77.1182 184.479 76.8115C184.652 76.5048 184.765 76.3115 184.819 76.2315C184.819 76.1648 184.819 76.0648 184.819 75.9315C184.832 75.7982 184.839 75.7048 184.839 75.6515ZM198.466 80.0715L200.546 79.5515C200.839 79.4848 201.006 79.3582 201.046 79.1715C201.192 78.8382 201.326 78.0515 201.446 76.8115C201.566 75.5715 201.659 74.8048 201.726 74.5115C201.939 72.9915 202.012 71.8515 201.946 71.0915C201.746 71.0115 201.552 70.9715 201.366 70.9715C201.259 70.9715 201.079 70.9915 200.826 71.0315C200.586 71.0582 200.399 71.0715 200.266 71.0715C200.159 71.1382 200.012 71.1715 199.826 71.1715C199.599 71.1715 199.406 71.1382 199.246 71.0715C198.966 70.8848 198.799 70.5448 198.746 70.0515C198.732 69.9315 198.846 69.7515 199.086 69.5115C199.326 69.2582 199.572 69.0515 199.826 68.8915C200.132 68.8648 200.446 68.9582 200.766 69.1715H202.286C202.526 69.0915 202.652 69.0448 202.666 69.0315C202.692 69.0182 202.779 68.9382 202.926 68.7915C203.072 68.6315 203.199 68.5448 203.306 68.5315C203.679 68.5048 203.932 68.5915 204.066 68.7915H204.946C205.092 68.7648 205.239 68.7382 205.386 68.7115C205.532 68.6715 205.619 68.6448 205.646 68.6315C205.672 68.6182 205.732 68.6115 205.826 68.6115C205.919 68.5982 205.999 68.5982 206.066 68.6115C206.132 68.6115 206.266 68.6182 206.466 68.6315H206.946C207.226 68.7648 207.466 68.9915 207.666 69.3115C207.866 69.6182 207.926 69.8982 207.846 70.1515C207.659 70.2315 207.486 70.2982 207.326 70.3515C207.179 70.4048 207.039 70.4515 206.906 70.4915C206.786 70.5315 206.686 70.5648 206.606 70.5915C206.526 70.6048 206.432 70.6182 206.326 70.6315C206.219 70.6315 206.146 70.6315 206.106 70.6315C206.066 70.6315 205.979 70.6315 205.846 70.6315C205.726 70.6315 205.646 70.6315 205.606 70.6315C205.259 70.6315 204.952 70.6515 204.686 70.6915C204.646 70.6915 204.612 70.6982 204.586 70.7115L204.166 70.7915C204.139 70.8048 204.106 70.8115 204.066 70.8115C204.052 70.8115 204.026 70.8315 203.986 70.8715C203.959 70.8982 203.946 70.9182 203.946 70.9315C203.826 71.3982 203.652 72.4182 203.426 73.9915C203.212 75.5648 203.052 76.5715 202.946 77.0115C202.932 77.1315 202.906 77.3582 202.866 77.6915C202.839 78.0115 202.819 78.2515 202.806 78.4115C202.806 78.5582 202.812 78.7715 202.826 79.0515C202.826 79.0782 202.866 79.1248 202.946 79.1915C203.039 79.2448 203.126 79.2782 203.206 79.2915C204.659 79.1048 205.612 79.0248 206.066 79.0515C206.079 79.0515 206.172 79.0648 206.346 79.0915C206.519 79.1048 206.646 79.1248 206.726 79.1515C206.819 79.1648 206.932 79.1915 207.066 79.2315C207.199 79.2715 207.299 79.3315 207.366 79.4115C207.446 79.4782 207.492 79.5648 207.506 79.6715C207.546 79.7915 207.532 79.9448 207.466 80.1315C207.412 80.3048 207.339 80.4048 207.246 80.4315C206.846 80.5782 205.879 80.7915 204.346 81.0715C204.279 81.0715 204.219 81.0782 204.166 81.0915L203.506 81.1715C203.452 81.1848 203.392 81.1915 203.326 81.1915C202.872 81.2715 202.492 81.4382 202.186 81.6915H201.566L201.046 81.5515C200.819 81.5648 200.532 81.6048 200.186 81.6715C199.852 81.7515 199.612 81.7982 199.466 81.8115C198.986 81.9182 198.586 81.6715 198.266 81.0715L198.466 80.0715ZM212.104 77.5315L212.144 75.8915C212.144 75.5048 212.111 74.9115 212.044 74.1115C211.964 73.8048 211.891 73.6248 211.824 73.5715C210.944 73.6382 210.271 73.7848 209.804 74.0115C209.684 74.0115 209.511 74.0582 209.284 74.1515C209.057 74.2448 208.864 74.2782 208.704 74.2515C208.611 74.2115 208.517 74.1515 208.424 74.0715C208.331 73.9915 208.237 73.8982 208.144 73.7915C208.037 73.6715 207.951 73.5848 207.884 73.5315C207.831 73.3982 207.811 73.2115 207.824 72.9715C207.837 72.7315 207.884 72.5515 207.964 72.4315L208.624 71.8515C209.317 71.8382 210.351 71.7048 211.724 71.4515L211.864 71.2915L211.904 68.1515C212.211 67.8182 212.591 67.6982 213.044 67.7915C213.404 68.0715 213.604 68.4182 213.644 68.8315C213.684 68.9115 213.711 69.2448 213.724 69.8315C213.737 70.4182 213.791 70.7582 213.884 70.8515C213.897 70.8515 213.957 70.8715 214.064 70.9115C214.184 70.9382 214.251 70.9582 214.264 70.9715C214.531 70.9448 214.871 70.8982 215.284 70.8315C215.697 70.7515 215.997 70.7048 216.184 70.6915C216.371 70.6782 216.711 70.6848 217.204 70.7115L218.124 70.7515C218.697 70.8315 218.911 71.1648 218.764 71.7515C218.537 71.9782 218.364 72.1048 218.244 72.1315C217.937 72.1582 217.624 72.1982 217.304 72.2515C216.984 72.3048 216.584 72.3915 216.104 72.5115C215.637 72.6182 215.324 72.6848 215.164 72.7115L215.124 72.7315C214.777 72.7448 214.384 72.8315 213.944 72.9915L213.844 73.1315C213.844 73.2915 213.831 73.5582 213.804 73.9315C213.791 74.2915 213.791 74.6048 213.804 74.8715C213.817 75.1248 213.857 75.3848 213.924 75.6515C213.924 77.9848 214.044 79.4382 214.284 80.0115C214.551 80.2515 214.791 80.3782 215.004 80.3915C215.124 80.3915 215.277 80.3715 215.464 80.3315C215.517 80.3182 215.597 80.2982 215.704 80.2715C215.811 80.2448 215.884 80.2315 215.924 80.2315C215.964 80.2182 216.024 80.1982 216.104 80.1715C216.184 80.1448 216.237 80.1248 216.264 80.1115C216.304 80.0982 216.351 80.0782 216.404 80.0515C216.471 80.0115 216.517 79.9715 216.544 79.9315C216.584 79.8915 216.631 79.8448 216.684 79.7915C216.737 79.7382 216.784 79.6782 216.824 79.6115C216.877 79.5448 216.931 79.4715 216.984 79.3915C217.037 79.2982 217.097 79.1982 217.164 79.0915C217.151 79.0248 217.171 78.8648 217.224 78.6115C217.277 78.3582 217.317 78.1982 217.344 78.1315C217.491 77.7182 217.757 77.5182 218.144 77.5315C218.331 77.5048 218.471 77.5382 218.564 77.6315C218.657 77.7248 218.744 77.8915 218.824 78.1315L218.924 78.4715C218.831 79.1248 218.731 79.5315 218.624 79.6915C218.357 80.2248 218.151 80.5915 218.004 80.7915C217.871 80.9915 217.624 81.1982 217.264 81.4115C216.904 81.6382 216.351 81.8715 215.604 82.1115C215.564 82.1248 215.411 82.1782 215.144 82.2715C214.877 82.3782 214.671 82.4315 214.524 82.4315C213.911 82.4048 213.457 82.2048 213.164 81.8315C213.124 81.7515 213.004 81.5448 212.804 81.2115C212.604 80.8648 212.464 80.5648 212.384 80.3115C212.304 80.0448 212.284 79.7648 212.324 79.4715C212.311 79.2315 212.277 78.8848 212.224 78.4315C212.171 77.9782 212.137 77.6915 212.124 77.5715C212.111 77.5582 212.104 77.5448 212.104 77.5315ZM222.113 75.5915C223.073 74.3648 224.126 73.5648 225.273 73.1915C226.006 73.0982 226.393 73.0515 226.433 73.0515C227.259 73.0782 227.979 73.3315 228.593 73.8115C229.206 74.2782 229.533 74.9182 229.573 75.7315C229.586 76.4382 229.299 77.0848 228.713 77.6715C228.139 78.2582 227.499 78.5782 226.793 78.6315C226.526 78.7248 226.239 78.7715 225.933 78.7715C225.239 78.7715 224.473 78.5182 223.633 78.0115C223.379 77.7582 223.213 77.6315 223.133 77.6315C223.079 77.6048 223.033 77.6048 222.993 77.6315C222.553 78.2982 222.339 78.8048 222.353 79.1515C222.499 80.0182 222.966 80.7515 223.753 81.3515C224.539 81.9648 225.373 82.2448 226.253 82.1915C226.386 82.2448 226.619 82.2448 226.953 82.1915C227.286 82.1515 227.506 82.1182 227.613 82.0915C227.733 82.0648 227.959 81.9982 228.293 81.8915C228.639 81.7982 228.879 81.7315 229.013 81.6915C229.479 81.5048 230.099 81.3848 230.873 81.3315H231.013C231.106 81.3048 231.193 81.3248 231.273 81.3915C231.353 81.4582 231.399 81.5582 231.413 81.6915V82.4315C230.933 82.9782 230.339 83.2715 229.633 83.3115C229.486 83.3515 229.219 83.4248 228.833 83.5315C228.459 83.6382 228.173 83.7115 227.973 83.7515C227.786 83.8048 227.533 83.8515 227.213 83.8915C226.906 83.9448 226.626 83.9648 226.373 83.9515C225.199 84.0048 224.073 83.7048 222.993 83.0515C222.006 82.5448 221.246 81.6648 220.713 80.4115C220.513 79.6248 220.546 78.8582 220.813 78.1115C221.079 77.3648 221.513 76.5248 222.113 75.5915ZM223.673 76.5515C223.953 76.5515 224.193 76.5715 224.393 76.6115C224.513 76.6782 224.626 76.7315 224.733 76.7715C224.853 76.7982 224.993 76.8248 225.153 76.8515C225.326 76.8648 225.439 76.8715 225.493 76.8715C225.546 76.8715 225.686 76.8715 225.913 76.8715C226.153 76.8715 226.279 76.8715 226.293 76.8715C226.986 76.6582 227.446 76.3582 227.673 75.9715C227.713 75.8248 227.713 75.6982 227.673 75.5915C227.646 75.4715 227.573 75.3715 227.453 75.2915C227.333 75.2115 227.219 75.1515 227.113 75.1115C227.006 75.0715 226.859 75.0248 226.673 74.9715C226.499 74.9048 226.373 74.8582 226.293 74.8315C225.973 74.8315 225.646 74.9248 225.313 75.1115C224.979 75.2848 224.713 75.4582 224.513 75.6315C224.313 75.8048 224.059 76.0448 223.753 76.3515C223.753 76.3648 223.739 76.3982 223.713 76.4515C223.686 76.4915 223.673 76.5248 223.673 76.5515ZM233.25 75.5115L233.37 76.1515C233.33 76.3248 233.417 76.7448 233.63 77.4115C234.164 76.8515 234.537 76.3448 234.75 75.8915C235.044 75.5582 235.17 75.2182 235.13 74.8715C235.717 74.5382 236.224 74.4115 236.65 74.4915C236.89 74.5582 237.144 74.8582 237.41 75.3915V77.2915L237.55 77.4115C237.804 77.1448 238.13 76.7515 238.53 76.2315C238.944 75.7115 239.204 75.3848 239.31 75.2515C239.71 74.7048 240.09 74.3248 240.45 74.1115C241.01 74.1782 241.43 74.3915 241.71 74.7515C242.097 75.4048 242.35 76.3315 242.47 77.5315C242.457 77.7715 242.47 78.0248 242.51 78.2915C242.55 78.5582 242.61 78.8515 242.69 79.1715C242.77 79.4915 242.824 79.7448 242.85 79.9315C242.984 80.3048 243.03 80.6448 242.99 80.9515C242.977 81.1248 242.89 81.2382 242.73 81.2915C242.57 81.3448 242.404 81.3515 242.23 81.3115C241.937 81.2448 241.684 80.9982 241.47 80.5715C241.377 80.3715 241.29 80.1782 241.21 79.9915C241.144 79.7915 241.077 79.5515 241.01 79.2715C240.957 78.9782 240.917 78.7848 240.89 78.6915C240.877 78.5982 240.844 78.3515 240.79 77.9515C240.737 77.5382 240.71 77.3182 240.71 77.2915C240.617 77.0248 240.51 76.8915 240.39 76.8915C240.337 76.9182 240.237 76.9982 240.09 77.1315C239.944 77.2648 239.797 77.4048 239.65 77.5515C239.517 77.6848 239.37 77.8382 239.21 78.0115C239.05 78.1715 238.957 78.2648 238.93 78.2915L238.73 78.5715L237.99 79.5315L237.79 79.8115C237.737 79.8648 237.637 79.9915 237.49 80.1915C237.357 80.3782 237.237 80.5182 237.13 80.6115C237.037 80.7048 236.924 80.7782 236.79 80.8315C236.564 80.8715 236.35 80.8515 236.15 80.7715C235.95 80.6782 235.824 80.5248 235.77 80.3115C235.69 80.2048 235.65 80.0782 235.65 79.9315V77.8115H235.61C235.557 77.7848 235.524 77.7782 235.51 77.7915C234.59 79.0848 233.877 80.1782 233.37 81.0715C233.25 81.2315 233.164 81.3115 233.11 81.3115C232.537 81.3782 232.204 81.2982 232.11 81.0715C232.07 81.0048 232.017 80.8715 231.95 80.6715C231.884 80.4582 231.85 80.3382 231.85 80.3115V75.4515C231.904 75.0915 232.077 74.9115 232.37 74.9115C232.53 74.9115 232.697 74.9715 232.87 75.0915C233.044 75.2115 233.17 75.3515 233.25 75.5115ZM244.966 79.8915C244.993 79.8382 245.053 79.7382 245.146 79.5915C245.24 79.4448 245.306 79.3315 245.346 79.2515C246.04 79.3715 246.626 79.6648 247.106 80.1315C247.36 80.3182 247.66 80.4648 248.006 80.5715C248.366 80.6782 248.633 80.7448 248.806 80.7715C248.993 80.7848 249.353 80.7915 249.886 80.7915C250.42 80.7782 250.72 80.7715 250.786 80.7715C251.08 80.7715 251.46 80.6848 251.926 80.5115C252.06 80.4582 252.14 80.3648 252.166 80.2315C252.193 80.0982 252.153 79.9848 252.046 79.8915C251.793 79.7048 251.133 79.3515 250.066 78.8315C249.013 78.3115 248.453 78.0315 248.386 77.9915C247.026 77.5782 245.84 76.9848 244.826 76.2115C244.76 76.1182 244.646 76.0115 244.486 75.8915C244.34 75.7582 244.22 75.6315 244.126 75.5115C244.033 75.3782 243.973 75.2315 243.946 75.0715C243.933 74.5515 244.186 74.0915 244.706 73.6915C244.773 73.6648 245.033 73.5848 245.486 73.4515C245.94 73.3182 246.273 73.1848 246.486 73.0515C247.726 72.5582 248.906 72.2715 250.026 72.1915C250.053 72.1915 250.126 72.1982 250.246 72.2115C250.38 72.2248 250.453 72.2315 250.466 72.2315C250.493 72.2315 250.56 72.2382 250.666 72.2515C250.773 72.2648 250.84 72.2782 250.866 72.2915C250.893 72.3048 250.946 72.3248 251.026 72.3515C251.106 72.3782 251.16 72.4115 251.186 72.4515C251.226 72.4782 251.273 72.5182 251.326 72.5715C251.38 72.6115 251.42 72.6648 251.446 72.7315C251.486 72.7848 251.52 72.8515 251.546 72.9315C251.626 73.3982 251.5 73.7782 251.166 74.0715C251.1 74.0715 250.886 74.0782 250.526 74.0915C250.166 74.1048 249.933 74.1182 249.826 74.1315C249.72 74.1315 249.52 74.1515 249.226 74.1915C248.933 74.2182 248.706 74.2515 248.546 74.2915C248.386 74.3315 248.2 74.3915 247.986 74.4715C247.773 74.5515 247.573 74.6448 247.386 74.7515C247.2 74.8182 247.073 74.9248 247.006 75.0715C246.953 75.2182 247.033 75.3448 247.246 75.4515C247.86 75.8782 248.766 76.3648 249.966 76.9115C251.166 77.4582 251.986 77.8582 252.426 78.1115C252.866 78.3915 253.246 78.7315 253.566 79.1315C253.9 79.5182 254.106 79.9582 254.186 80.4515C254.28 80.9448 254.073 81.3848 253.566 81.7715C253.246 82.0248 252.826 82.2182 252.306 82.3515C251.8 82.4848 251.393 82.5648 251.086 82.5915C250.78 82.6182 250.306 82.6382 249.666 82.6515C249 82.6782 248.286 82.5782 247.526 82.3515C246.766 82.1248 246.12 81.8048 245.586 81.3915C245.053 81.1915 244.846 80.6915 244.966 79.8915Z" fill="#1E1E1E"/>
<path d="M597.427 61.1462C601.567 61.7262 606.677 64.6962 609.307 68.1862C611.947 71.6862 613.437 77.6462 613.227 82.1162C613.007 86.5962 610.957 91.7362 608.027 95.0162C605.107 98.2862 600.037 101.036 595.677 101.786C591.327 102.546 585.547 101.846 581.887 99.5462C578.217 97.2362 574.957 92.2062 573.707 87.9562C572.467 83.7062 572.727 78.2662 574.407 74.0562C576.097 69.8462 579.897 64.8662 583.817 62.6962C587.747 60.5162 595.547 61.2162 597.967 61.0062C600.377 60.7862 598.477 61.0362 598.327 61.3862M595.237 60.0262C599.497 59.9862 604.307 63.4362 607.367 66.5862C610.427 69.7362 613.107 74.5562 613.597 78.9462C614.087 83.3362 612.797 89.1062 610.317 92.9462C607.827 96.7762 602.847 100.576 598.667 101.936C594.487 103.296 589.327 102.886 585.227 101.106C581.127 99.3262 576.177 95.2962 574.077 91.2462C571.987 87.2062 571.477 81.3262 572.647 76.8162C573.817 72.3062 577.387 66.7662 581.097 64.1862C584.817 61.6062 592.707 61.8262 594.927 61.3362C597.147 60.8462 594.517 61.1562 594.427 61.2662" fill="#E9ECEF"/>
<path d="M592.227 60.1662C596.467 59.8562 602.437 62.5762 605.927 65.4762C609.407 68.3762 612.187 73.1962 613.157 77.5562C614.127 81.9262 613.877 87.7562 611.727 91.6662C609.567 95.5762 604.437 99.4062 600.207 101.026C595.987 102.636 590.557 102.716 586.387 101.356C582.227 99.9962 577.517 96.6362 575.227 92.8762C572.937 89.1162 571.947 83.2162 572.637 78.7862C573.327 74.3462 575.957 69.2562 579.357 66.2662C582.767 63.2762 590.607 61.6362 593.067 60.8362C595.537 60.0362 594.077 61.1862 594.167 61.4662M592.027 60.9862C596.217 60.3862 601.797 62.0062 605.307 64.6462C608.817 67.2862 612.137 72.2962 613.087 76.8062C614.047 81.3162 613.007 87.7862 611.047 91.7062C609.087 95.6262 605.507 98.8162 601.347 100.326C597.187 101.826 590.287 101.926 586.087 100.726C581.887 99.5362 578.327 96.8862 576.157 93.1662C573.977 89.4462 572.557 83.0462 573.027 78.4262C573.497 73.7962 575.847 68.4262 578.967 65.4062C582.077 62.3862 589.597 61.1462 591.727 60.3262C593.847 59.5062 591.597 60.0862 591.727 60.4762" stroke="#1E1E1E" stroke-width="2" stroke-linecap="round"/>
<path d="M585.544 67.7365C571.894 59.9465 523.644 28.2565 504.334 20.1665C485.034 12.0665 475.214 19.4065 469.694 19.1665M587.234 67.0665C573.514 59.3865 523.024 28.9165 503.824 21.1265C484.624 13.3365 477.384 20.5865 472.024 20.3065" stroke="#1E1E1E" stroke-width="2" stroke-linecap="round"/>
<path d="M485.964 11.6565C483.044 15.0865 476.684 14.9265 472.024 20.3065ZM485.964 11.6565C481.724 13.2165 479.134 15.4865 472.024 20.3065Z" stroke="#1E1E1E" stroke-width="2" stroke-linecap="round"/>
<path d="M488.264 22.6466C484.714 22.9866 477.714 19.7666 472.024 20.3066ZM488.264 22.6466C483.354 21.1966 480.144 20.4766 472.024 20.3066Z" stroke="#1E1E1E" stroke-width="2" stroke-linecap="round"/>
<path d="M349.769 20.5921C349.769 20.4854 349.716 20.3094 349.609 20.0641C349.545 20.0001 349.508 19.9681 349.497 19.9681L349.337 19.8881C349.113 19.9414 348.633 20.0321 347.897 20.1601C347.172 20.2774 346.671 20.3894 346.393 20.4961C346.201 20.5494 346.047 20.5761 345.929 20.5761C345.801 20.5761 345.657 20.5548 345.497 20.5121H345.401C345.359 20.5441 345.22 20.6774 344.985 20.9121C344.751 21.1361 344.527 21.3494 344.313 21.5521C344.111 21.7441 343.972 21.8668 343.897 21.9201C343.78 22.0054 343.588 22.1334 343.321 22.3041C343.055 22.4854 342.863 22.6241 342.745 22.7201C342.372 22.7201 342.185 22.6188 342.185 22.4161C342.121 22.0641 342.249 21.6961 342.569 21.3121L344.089 19.9041C344.601 19.3174 345.172 18.5921 345.801 17.7281C346.431 16.8641 346.916 16.2348 347.257 15.8401C347.364 15.6801 347.54 15.4134 347.785 15.0401C348.031 14.6668 348.207 14.3841 348.313 14.1921C348.431 14.0001 348.575 13.7494 348.745 13.4401C348.916 13.1308 349.049 12.8374 349.145 12.5601C349.241 12.2721 349.321 11.9734 349.385 11.6641C349.385 11.6534 349.407 11.5574 349.449 11.3761C349.503 11.1841 349.524 11.0774 349.513 11.0561C349.759 10.7148 350.009 10.5388 350.265 10.5281C350.361 10.5174 350.425 10.5121 350.457 10.5121C350.671 10.5121 350.852 10.5868 351.001 10.7361C351.151 10.8854 351.22 11.0508 351.209 11.2321C351.209 11.2961 351.193 11.5308 351.161 11.9361C351.129 12.3308 351.103 12.6614 351.081 12.9281C351.071 13.0988 351.055 13.3228 351.033 13.6001C351.023 13.8774 351.012 14.1014 351.001 14.2721C350.991 14.4321 350.98 14.5494 350.969 14.6241C350.98 15.1574 350.98 15.5574 350.969 15.8241C350.969 16.0908 350.959 16.4908 350.937 17.0241C350.927 17.5468 350.921 17.9468 350.921 18.2241C351.028 18.3308 351.156 18.3841 351.305 18.3841C351.327 18.3841 351.385 18.3948 351.481 18.4161C351.577 18.4268 351.652 18.4374 351.705 18.4481C351.759 18.4588 351.817 18.4748 351.881 18.4961C351.956 18.5174 352.015 18.5494 352.057 18.5921C352.111 18.6348 352.153 18.6881 352.185 18.7521C352.196 18.7734 352.196 18.8161 352.185 18.8801C352.185 18.9441 352.18 18.9868 352.169 19.0081C352.052 19.1148 351.743 19.2908 351.241 19.5361C351.199 19.5468 351.156 19.5734 351.113 19.6161C351.06 19.7654 351.081 20.0374 351.177 20.4321C351.273 20.8268 351.321 21.0508 351.321 21.1041C351.332 21.2001 351.353 21.3494 351.385 21.5521C351.417 21.7441 351.439 21.8934 351.449 22.0001C351.46 22.1068 351.439 22.2294 351.385 22.3681C351.332 22.5174 351.236 22.6454 351.097 22.7521C350.98 22.8161 350.847 22.8481 350.697 22.8481C350.559 22.8481 350.425 22.8161 350.297 22.7521C350.137 22.6241 349.929 22.3628 349.673 21.9681L349.593 21.8081C349.583 21.6694 349.615 21.4668 349.689 21.2001C349.764 20.9334 349.791 20.7308 349.769 20.5921ZM346.617 18.8321C346.607 18.8428 346.612 18.8588 346.633 18.8801C346.665 18.9014 346.692 18.9121 346.713 18.9121C346.777 18.9121 346.916 18.9121 347.129 18.9121C347.343 18.9014 347.497 18.8961 347.593 18.8961C347.7 18.8854 347.849 18.8748 348.041 18.8641C348.244 18.8428 348.409 18.8214 348.537 18.8001C348.665 18.7788 348.809 18.7468 348.969 18.7041C349.129 18.6614 349.273 18.6134 349.401 18.5601L349.513 18.4801L349.577 17.6961V16.9601L349.561 15.5521V14.8161C349.391 14.9228 349.215 15.1574 349.033 15.5201C348.852 15.8828 348.687 16.1334 348.537 16.2721C348.324 16.6241 347.977 17.1041 347.497 17.7121C347.017 18.3094 346.724 18.6828 346.617 18.8321ZM352.813 15.1361C352.845 15.1041 352.904 15.0454 352.989 14.9601C353.075 14.8641 353.133 14.8054 353.165 14.7841C353.208 14.7628 353.267 14.7361 353.341 14.7041C353.427 14.6614 353.523 14.6401 353.629 14.6401C353.779 14.5868 353.939 14.6454 354.109 14.8161C354.28 14.9761 354.392 15.1521 354.445 15.3441C354.488 16.1548 354.653 17.1308 354.941 18.2721C354.963 18.3361 355.021 18.4961 355.117 18.7521C355.213 19.0081 355.293 19.2108 355.357 19.3601C355.432 19.4988 355.539 19.6481 355.677 19.8081C355.827 19.9681 355.987 20.0641 356.157 20.0961C356.36 20.1388 356.547 20.0854 356.717 19.9361C357.709 18.7521 358.365 17.8614 358.685 17.2641C358.813 17.0614 358.984 16.7041 359.197 16.1921C359.421 15.6694 359.624 15.2854 359.805 15.0401C359.901 14.9441 360.136 14.9121 360.509 14.9441C360.648 14.9654 360.765 15.0508 360.861 15.2001C360.968 15.3388 361.021 15.4881 361.021 15.6481C361.021 15.7121 360.92 15.9788 360.717 16.4481C359.928 17.8454 359.187 18.9761 358.493 19.8401C358.44 19.9041 358.355 20.0214 358.237 20.1921C358.12 20.3521 358.035 20.4694 357.981 20.5441C357.928 20.6081 357.843 20.7094 357.725 20.8481C357.619 20.9761 357.523 21.0774 357.437 21.1521C357.363 21.2268 357.267 21.3174 357.149 21.4241C357.043 21.5201 356.931 21.6054 356.813 21.6801C356.792 21.7014 356.749 21.7388 356.685 21.7921C356.621 21.8348 356.584 21.8561 356.573 21.8561C356.573 21.8561 356.547 21.8721 356.493 21.9041C356.44 21.9361 356.408 21.9468 356.397 21.9361C356.387 21.9254 356.344 21.9308 356.269 21.9521C356.205 21.9628 356.152 21.9574 356.109 21.9361C355.928 21.9361 355.805 21.9254 355.741 21.9041C355.677 21.8828 355.581 21.8188 355.453 21.7121C355.229 21.5094 355.027 21.2854 354.845 21.0401C354.664 20.7948 354.525 20.5868 354.429 20.4161C354.333 20.2348 354.2 19.9628 354.029 19.6001C353.763 18.8214 353.56 18.1121 353.421 17.4721C353.347 17.2801 353.112 16.8374 352.717 16.1441C352.696 15.6428 352.728 15.3068 352.813 15.1361ZM367.332 19.7121C367.247 19.7761 367.146 19.9094 367.028 20.1121C366.463 20.7308 365.908 21.2268 365.364 21.6001C364.831 21.9628 364.25 22.1388 363.62 22.1281C363.29 22.1708 362.948 22.1281 362.596 22.0001C362.244 21.8614 361.967 21.6694 361.764 21.4241C361.668 21.2748 361.599 21.1734 361.556 21.1201C361.524 21.0561 361.471 20.9601 361.396 20.8321C361.322 20.6934 361.268 20.5814 361.236 20.4961C361.215 20.4108 361.188 20.3094 361.156 20.1921C361.124 20.0748 361.108 19.9628 361.108 19.8561C361.108 19.7388 361.124 19.6214 361.156 19.5041C361.167 19.1414 361.284 18.7734 361.508 18.4001C361.743 18.0268 361.978 17.7281 362.212 17.5041C362.447 17.2801 362.751 17.0134 363.124 16.7041C363.199 16.6508 363.252 16.6081 363.284 16.5761C363.732 16.2134 364.34 16.0321 365.108 16.0321C365.268 16.0321 365.775 16.0748 366.628 16.1601C366.65 16.1814 366.719 16.2188 366.836 16.2721C366.964 16.3254 367.055 16.3841 367.108 16.4481C367.162 16.5014 367.167 16.5761 367.124 16.6721L367.332 16.8801C367.652 17.0188 367.855 17.1521 367.94 17.2801C368.474 18.3681 368.943 19.2428 369.348 19.9041C369.391 19.9574 369.524 20.0801 369.748 20.2721C369.983 20.4534 370.122 20.5708 370.164 20.6241C370.25 20.6881 370.351 20.7788 370.468 20.8961C370.596 21.0028 370.703 21.0828 370.788 21.1361C370.874 21.1894 370.97 21.2214 371.076 21.2321C371.087 21.2428 371.156 21.3068 371.284 21.4241C371.295 21.4561 371.29 21.4988 371.268 21.5521C371.258 21.5948 371.242 21.6481 371.22 21.7121C371.199 21.7761 371.183 21.8188 371.172 21.8401C371.066 22.0001 370.831 22.1281 370.468 22.2241C370.34 22.2241 370.25 22.2294 370.196 22.2401C370.154 22.2614 370.079 22.2508 369.972 22.2081C369.876 22.1761 369.807 22.1494 369.764 22.1281C369.732 22.1174 369.663 22.0801 369.556 22.0161C369.45 21.9521 369.37 21.9041 369.316 21.8721L369.252 21.8401C368.986 21.6161 368.618 21.2321 368.148 20.6881C367.69 20.1334 367.418 19.8081 367.332 19.7121ZM362.676 20.2081C362.868 20.4961 363.156 20.6401 363.54 20.6401C363.722 20.6401 363.972 20.5974 364.292 20.5121C364.815 20.3201 365.29 19.9841 365.716 19.5041C366.132 18.9281 366.367 18.4214 366.42 17.9841C366.42 17.9521 366.442 17.8294 366.484 17.6161C366.527 17.3921 366.543 17.2374 366.532 17.1521C366.319 17.2054 366.01 17.2481 365.604 17.2801C365.21 17.3014 364.906 17.3334 364.692 17.3761C364.415 17.4188 364.132 17.5521 363.844 17.7761C363.556 17.9894 363.338 18.1921 363.188 18.3841C363.039 18.5761 362.836 18.8481 362.58 19.2001C362.399 19.4241 362.431 19.7601 362.676 20.2081ZM374.164 19.0081L374.196 17.6961C374.196 17.3868 374.169 16.9121 374.116 16.2721C374.052 16.0268 373.993 15.8828 373.94 15.8401C373.236 15.8934 372.697 16.0108 372.324 16.1921C372.228 16.1921 372.089 16.2294 371.908 16.3041C371.727 16.3788 371.572 16.4054 371.444 16.3841C371.369 16.3521 371.295 16.3041 371.22 16.2401C371.145 16.1761 371.071 16.1014 370.996 16.0161C370.911 15.9201 370.841 15.8508 370.788 15.8081C370.745 15.7014 370.729 15.5521 370.74 15.3601C370.751 15.1681 370.788 15.0241 370.852 14.9281L371.38 14.4641C371.935 14.4534 372.761 14.3468 373.86 14.1441L373.972 14.0161L374.004 11.5041C374.249 11.2374 374.553 11.1414 374.916 11.2161C375.204 11.4401 375.364 11.7174 375.396 12.0481C375.428 12.1121 375.449 12.3788 375.46 12.8481C375.471 13.3174 375.513 13.5894 375.588 13.6641C375.599 13.6641 375.647 13.6801 375.732 13.7121C375.828 13.7334 375.881 13.7494 375.892 13.7601C376.105 13.7388 376.377 13.7014 376.708 13.6481C377.039 13.5841 377.279 13.5468 377.428 13.5361C377.577 13.5254 377.849 13.5308 378.244 13.5521L378.98 13.5841C379.439 13.6481 379.609 13.9148 379.492 14.3841C379.311 14.5654 379.172 14.6668 379.076 14.6881C378.831 14.7094 378.58 14.7414 378.324 14.7841C378.068 14.8268 377.748 14.8961 377.364 14.9921C376.991 15.0774 376.74 15.1308 376.612 15.1521L376.58 15.1681C376.303 15.1788 375.988 15.2481 375.636 15.3761L375.556 15.4881C375.556 15.6161 375.545 15.8294 375.524 16.1281C375.513 16.4161 375.513 16.6668 375.524 16.8801C375.535 17.0828 375.567 17.2908 375.62 17.5041C375.62 19.3708 375.716 20.5334 375.908 20.9921C376.121 21.1841 376.313 21.2854 376.484 21.2961C376.58 21.2961 376.703 21.2801 376.852 21.2481C376.895 21.2374 376.959 21.2214 377.044 21.2001C377.129 21.1788 377.188 21.1681 377.22 21.1681C377.252 21.1574 377.3 21.1414 377.364 21.1201C377.428 21.0988 377.471 21.0828 377.492 21.0721C377.524 21.0614 377.561 21.0454 377.604 21.0241C377.657 20.9921 377.695 20.9601 377.716 20.9281C377.748 20.8961 377.785 20.8588 377.828 20.8161C377.871 20.7734 377.908 20.7254 377.94 20.6721C377.983 20.6188 378.025 20.5601 378.068 20.4961C378.111 20.4214 378.159 20.3414 378.212 20.2561C378.201 20.2028 378.217 20.0748 378.26 19.8721C378.303 19.6694 378.335 19.5414 378.356 19.4881C378.473 19.1574 378.687 18.9974 378.996 19.0081C379.145 18.9868 379.257 19.0134 379.332 19.0881C379.407 19.1628 379.476 19.2961 379.54 19.4881L379.62 19.7601C379.545 20.2828 379.465 20.6081 379.38 20.7361C379.167 21.1628 379.001 21.4561 378.884 21.6161C378.777 21.7761 378.58 21.9414 378.292 22.1121C378.004 22.2934 377.561 22.4801 376.964 22.6721C376.932 22.6828 376.809 22.7254 376.596 22.8001C376.383 22.8854 376.217 22.9281 376.1 22.9281C375.609 22.9068 375.247 22.7468 375.012 22.4481C374.98 22.3841 374.884 22.2188 374.724 21.9521C374.564 21.6748 374.452 21.4348 374.388 21.2321C374.324 21.0188 374.308 20.7948 374.34 20.5601C374.329 20.3681 374.303 20.0908 374.26 19.7281C374.217 19.3654 374.191 19.1361 374.18 19.0401C374.169 19.0294 374.164 19.0188 374.164 19.0081ZM387.051 19.7121C386.966 19.7761 386.864 19.9094 386.747 20.1121C386.182 20.7308 385.627 21.2268 385.083 21.6001C384.55 21.9628 383.968 22.1388 383.339 22.1281C383.008 22.1708 382.667 22.1281 382.315 22.0001C381.963 21.8614 381.686 21.6694 381.483 21.4241C381.387 21.2748 381.318 21.1734 381.275 21.1201C381.243 21.0561 381.19 20.9601 381.115 20.8321C381.04 20.6934 380.987 20.5814 380.955 20.4961C380.934 20.4108 380.907 20.3094 380.875 20.1921C380.843 20.0748 380.827 19.9628 380.827 19.8561C380.827 19.7388 380.843 19.6214 380.875 19.5041C380.886 19.1414 381.003 18.7734 381.227 18.4001C381.462 18.0268 381.696 17.7281 381.931 17.5041C382.166 17.2801 382.47 17.0134 382.843 16.7041C382.918 16.6508 382.971 16.6081 383.003 16.5761C383.451 16.2134 384.059 16.0321 384.827 16.0321C384.987 16.0321 385.494 16.0748 386.347 16.1601C386.368 16.1814 386.438 16.2188 386.555 16.2721C386.683 16.3254 386.774 16.3841 386.827 16.4481C386.88 16.5014 386.886 16.5761 386.843 16.6721L387.051 16.8801C387.371 17.0188 387.574 17.1521 387.659 17.2801C388.192 18.3681 388.662 19.2428 389.067 19.9041C389.11 19.9574 389.243 20.0801 389.467 20.2721C389.702 20.4534 389.84 20.5708 389.883 20.6241C389.968 20.6881 390.07 20.7788 390.187 20.8961C390.315 21.0028 390.422 21.0828 390.507 21.1361C390.592 21.1894 390.688 21.2214 390.795 21.2321C390.806 21.2428 390.875 21.3068 391.003 21.4241C391.014 21.4561 391.008 21.4988 390.987 21.5521C390.976 21.5948 390.96 21.6481 390.939 21.7121C390.918 21.7761 390.902 21.8188 390.891 21.8401C390.784 22.0001 390.55 22.1281 390.187 22.2241C390.059 22.2241 389.968 22.2294 389.915 22.2401C389.872 22.2614 389.798 22.2508 389.691 22.2081C389.595 22.1761 389.526 22.1494 389.483 22.1281C389.451 22.1174 389.382 22.0801 389.275 22.0161C389.168 21.9521 389.088 21.9041 389.035 21.8721L388.971 21.8401C388.704 21.6161 388.336 21.2321 387.867 20.6881C387.408 20.1334 387.136 19.8081 387.051 19.7121ZM382.395 20.2081C382.587 20.4961 382.875 20.6401 383.259 20.6401C383.44 20.6401 383.691 20.5974 384.011 20.5121C384.534 20.3201 385.008 19.9841 385.435 19.5041C385.851 18.9281 386.086 18.4214 386.139 17.9841C386.139 17.9521 386.16 17.8294 386.203 17.6161C386.246 17.3921 386.262 17.2374 386.251 17.1521C386.038 17.2054 385.728 17.2481 385.323 17.2801C384.928 17.3014 384.624 17.3334 384.411 17.3761C384.134 17.4188 383.851 17.5521 383.563 17.7761C383.275 17.9894 383.056 18.1921 382.907 18.3841C382.758 18.5761 382.555 18.8481 382.299 19.2001C382.118 19.4241 382.15 19.7601 382.395 20.2081ZM391.771 17.7281C391.845 17.2588 392.005 16.8534 392.251 16.5121C392.496 16.1708 392.843 15.7974 393.291 15.3921C393.675 15.2001 394.171 15.1041 394.779 15.1041C395.525 15.1041 396.139 15.2321 396.619 15.4881C397.525 16.0534 398.171 16.5281 398.555 16.9121C398.555 16.9441 398.56 17.0241 398.571 17.1521C398.581 17.2801 398.576 17.3868 398.555 17.4721C398.544 17.5574 398.507 17.6054 398.443 17.6161C398.101 17.6694 397.755 17.6161 397.403 17.4561C397.317 17.4028 397.179 17.3228 396.987 17.2161C396.795 17.0988 396.651 17.0134 396.555 16.9601C396.459 16.9068 396.331 16.8534 396.171 16.8001C396.011 16.7468 395.856 16.7148 395.707 16.7041C395.621 16.7041 395.483 16.7041 395.291 16.7041C395.099 16.6934 394.944 16.6934 394.827 16.7041C394.72 16.7041 394.587 16.7201 394.427 16.7521C394.267 16.7841 394.123 16.8374 393.995 16.9121L393.899 17.0081C393.515 17.5201 393.275 17.9148 393.179 18.1921C393.2 18.5121 393.2 18.8001 393.179 19.0561C393.157 19.3014 393.152 19.5841 393.163 19.9041C393.184 20.2241 393.227 20.5068 393.291 20.7521C393.365 20.8801 393.408 21.0081 393.419 21.1361C393.429 21.2534 393.403 21.3921 393.339 21.5521C393.275 21.7121 393.227 21.8241 393.195 21.8881C393.173 21.9414 393.104 22.0641 392.987 22.2561C392.891 22.3841 392.773 22.4481 392.635 22.4481C392.485 22.4481 392.331 22.3841 392.171 22.2561C391.915 22.0961 391.712 21.7974 391.563 21.3601C391.563 19.6748 391.632 18.4641 391.771 17.7281ZM397.878 22.3841C398.144 22.0001 398.683 21.1788 399.494 19.9201C400.315 18.6614 400.971 17.7281 401.462 17.1201C401.76 16.5441 402.304 15.5788 403.094 14.2241C403.894 12.8588 404.459 11.8241 404.79 11.1201C405.046 10.5121 405.227 10.1334 405.334 9.98411L405.414 9.50411C405.478 9.26945 405.52 9.14145 405.542 9.12011C405.776 8.85345 406.027 8.70411 406.294 8.67211C406.646 8.64011 406.939 8.81611 407.174 9.20011C407.27 9.52011 407.264 9.90411 407.158 10.3521C407.062 10.7894 406.923 11.0561 406.742 11.1521C406.592 11.0774 406.443 11.1414 406.294 11.3441C406.144 11.5468 405.947 11.8668 405.702 12.3041C405.456 12.7308 405.222 13.0774 404.998 13.3441C404.027 15.1468 403.136 16.6988 402.326 18.0001C401.526 19.3014 400.582 20.6401 399.494 22.0161C399.398 22.1228 399.291 22.2614 399.174 22.4321C399.067 22.6028 398.966 22.7414 398.87 22.8481C398.784 22.9654 398.678 23.0561 398.55 23.1201C398.507 23.1628 398.443 23.1948 398.358 23.2161C398.315 23.2268 398.272 23.2268 398.23 23.2161C398.187 23.2054 398.144 23.1788 398.102 23.1361C398.059 23.0934 398.027 23.0614 398.006 23.0401C397.974 23.0188 397.931 22.9708 397.878 22.8961C397.824 22.8321 397.792 22.7948 397.782 22.7841C397.771 22.6668 397.803 22.5334 397.878 22.3841ZM406.726 18.6081C406.779 18.1494 406.88 17.5414 407.03 16.7841C407.179 16.0161 407.28 15.4774 407.334 15.1681C407.494 14.5814 407.558 13.8401 407.526 12.9441C407.323 12.8481 407.158 12.7468 407.03 12.6401C406.774 12.3628 406.667 12.0908 406.71 11.8241C406.667 11.5574 406.742 11.3228 406.934 11.1201C407.126 10.9174 407.36 10.8161 407.638 10.8161C407.776 10.8161 407.91 10.8481 408.038 10.9121C408.102 10.9761 408.272 11.0774 408.55 11.2161C408.614 11.2801 408.678 11.3121 408.742 11.3121C409.019 11.4508 409.19 11.5201 409.254 11.5201C410.427 11.7334 411.542 12.0374 412.598 12.4321C414.134 12.9014 415.28 13.6428 416.038 14.6561C416.059 14.7201 416.102 14.8054 416.166 14.9121C416.23 15.0188 416.272 15.1041 416.294 15.1681C416.326 15.2321 416.336 15.3121 416.326 15.4081C416.326 15.4934 416.294 15.5788 416.23 15.6641C416.006 16.0801 415.638 16.4214 415.126 16.6881C414.624 16.9014 413.835 17.0774 412.758 17.2161C411.68 17.3441 411.019 17.4348 410.774 17.4881C410.358 17.6588 409.952 17.7281 409.558 17.6961C409.014 17.7494 408.608 17.8508 408.342 18.0001C408.299 18.0428 408.267 18.1121 408.246 18.2081C408.192 18.3468 408.155 18.4908 408.134 18.6401C408.112 18.7894 408.107 18.9281 408.118 19.0561C408.128 19.1841 408.128 19.3388 408.118 19.5201C408.086 20.0428 408.16 20.5494 408.342 21.0401C408.352 21.1148 408.347 21.1948 408.326 21.2801C408.304 21.3654 408.278 21.4401 408.246 21.5041C408.224 21.5681 408.187 21.6481 408.134 21.7441C408.08 21.8401 408.048 21.9041 408.038 21.9361C407.686 22.2881 407.382 22.4214 407.126 22.3361C406.72 22.0161 406.518 21.6161 406.518 21.1361C406.539 20.4214 406.608 19.5788 406.726 18.6081ZM408.614 16.0481H408.774C409.062 16.0481 409.59 16.0908 410.358 16.1761C410.55 16.1441 410.955 16.0801 411.574 15.9841C412.192 15.8881 412.667 15.8188 412.998 15.7761C413.051 15.7654 413.163 15.7441 413.334 15.7121C413.504 15.6801 413.622 15.6534 413.686 15.6321C413.76 15.6108 413.862 15.5841 413.99 15.5521C414.118 15.5094 414.23 15.4668 414.326 15.4241C414.422 15.3814 414.518 15.3281 414.614 15.2641C414.624 15.2534 414.63 15.2214 414.63 15.1681C414.63 15.1041 414.624 15.0668 414.614 15.0561C414.56 14.9814 414.475 14.8961 414.358 14.8001C414.24 14.7041 414.128 14.6241 414.022 14.5601C413.915 14.4854 413.787 14.4054 413.638 14.3201C413.499 14.2348 413.419 14.1814 413.398 14.1601C413.024 14.1068 412.443 13.9521 411.654 13.6961C410.875 13.4401 410.342 13.2908 410.054 13.2481C410.011 13.2481 409.931 13.2428 409.814 13.2321C409.707 13.2214 409.611 13.2214 409.526 13.2321C409.451 13.2428 409.392 13.2801 409.35 13.3441C409.318 13.3868 409.259 13.4988 409.174 13.6801C409.099 13.8508 409.056 13.9414 409.046 13.9521C409.035 14.0908 408.955 14.4268 408.806 14.9601C408.667 15.4828 408.603 15.8454 408.614 16.0481ZM417.224 17.7281C417.299 17.2588 417.459 16.8534 417.704 16.5121C417.949 16.1708 418.296 15.7974 418.744 15.3921C419.128 15.2001 419.624 15.1041 420.232 15.1041C420.979 15.1041 421.592 15.2321 422.072 15.4881C422.979 16.0534 423.624 16.5281 424.008 16.9121C424.008 16.9441 424.013 17.0241 424.024 17.1521C424.035 17.2801 424.029 17.3868 424.008 17.4721C423.997 17.5574 423.96 17.6054 423.896 17.6161C423.555 17.6694 423.208 17.6161 422.856 17.4561C422.771 17.4028 422.632 17.3228 422.44 17.2161C422.248 17.0988 422.104 17.0134 422.008 16.9601C421.912 16.9068 421.784 16.8534 421.624 16.8001C421.464 16.7468 421.309 16.7148 421.16 16.7041C421.075 16.7041 420.936 16.7041 420.744 16.7041C420.552 16.6934 420.397 16.6934 420.28 16.7041C420.173 16.7041 420.04 16.7201 419.88 16.7521C419.72 16.7841 419.576 16.8374 419.448 16.9121L419.352 17.0081C418.968 17.5201 418.728 17.9148 418.632 18.1921C418.653 18.5121 418.653 18.8001 418.632 19.0561C418.611 19.3014 418.605 19.5841 418.616 19.9041C418.637 20.2241 418.68 20.5068 418.744 20.7521C418.819 20.8801 418.861 21.0081 418.872 21.1361C418.883 21.2534 418.856 21.3921 418.792 21.5521C418.728 21.7121 418.68 21.8241 418.648 21.8881C418.627 21.9414 418.557 22.0641 418.44 22.2561C418.344 22.3841 418.227 22.4481 418.088 22.4481C417.939 22.4481 417.784 22.3841 417.624 22.2561C417.368 22.0961 417.165 21.7974 417.016 21.3601C417.016 19.6748 417.085 18.4641 417.224 17.7281ZM423.987 19.8881V18.1601C423.912 18.0428 423.875 17.8721 423.875 17.6481C423.875 17.4241 423.912 17.2588 423.987 17.1521C424.147 17.0348 424.334 16.9121 424.547 16.7841C424.76 16.6561 424.995 16.5174 425.251 16.3681C425.507 16.2188 425.694 16.1068 425.811 16.0321C426.259 15.7654 426.819 15.6321 427.491 15.6321C428.28 15.6321 429.038 15.8028 429.763 16.1441C430.499 16.4854 431.107 16.9548 431.587 17.5521C432.142 18.3094 432.275 19.0188 431.987 19.6801C431.304 20.8534 430.291 21.5948 428.947 21.9041C428.776 21.9681 428.584 22.0161 428.371 22.0481C428.168 22.0801 428.003 22.0961 427.875 22.0961C427.747 22.1068 427.544 22.1068 427.267 22.0961C426.99 22.0961 426.808 22.0961 426.723 22.0961C426.179 21.9788 425.8 21.8934 425.587 21.8401C425.384 21.7868 425.166 21.6801 424.931 21.5201C424.696 21.3494 424.52 21.1521 424.403 20.9281C424.296 20.7041 424.158 20.3574 423.987 19.8881ZM425.507 19.8881C425.582 20.0374 425.704 20.2028 425.875 20.3841C426.046 20.5548 426.195 20.6561 426.323 20.6881C426.568 20.8161 426.92 20.8801 427.379 20.8801C427.806 20.8801 428.248 20.8214 428.707 20.7041C429.176 20.5761 429.608 20.3628 430.003 20.0641C430.398 19.7548 430.622 19.3921 430.675 18.9761C430.686 18.8481 430.691 18.7468 430.691 18.6721C430.691 18.5974 430.654 18.5121 430.579 18.4161C430.515 18.3094 430.456 18.2294 430.403 18.1761C430.35 18.1228 430.275 18.0534 430.179 17.9681C430.083 17.8828 430.014 17.8134 429.971 17.7601C429.064 17.2588 428.376 17.0081 427.907 17.0081C427.672 17.0081 427.448 17.0561 427.235 17.1521C427.139 17.1841 427.038 17.2534 426.931 17.3601C426.622 17.6481 426.419 17.8134 426.323 17.8561C426.291 17.8881 426.227 17.9468 426.131 18.0321C426.046 18.1174 425.971 18.1921 425.907 18.2561C425.843 18.3094 425.779 18.3788 425.715 18.4641C425.662 18.5388 425.63 18.6081 425.619 18.6721C425.555 18.7894 425.518 18.9228 425.507 19.0721C425.496 19.2214 425.496 19.3601 425.507 19.4881C425.528 19.6054 425.528 19.7388 425.507 19.8881ZM433.646 17.7601C433.561 17.6428 433.46 17.5414 433.342 17.4561C432.382 17.2214 431.945 16.8481 432.03 16.3361C431.998 16.1228 432.03 15.9308 432.126 15.7601C432.222 15.5894 432.366 15.5094 432.558 15.5201C432.665 15.5094 432.814 15.5361 433.006 15.6001C433.198 15.6534 433.358 15.6588 433.486 15.6161C433.486 15.5521 433.481 15.2641 433.47 14.7521C433.46 14.2401 433.454 13.8614 433.454 13.6161C433.444 13.3708 433.47 13.0028 433.534 12.5121C433.598 12.0214 433.636 11.7121 433.646 11.5841C433.625 11.3708 433.646 11.1734 433.71 10.9921C433.774 10.8001 433.892 10.5761 434.062 10.3201C434.233 10.0641 434.329 9.91478 434.35 9.87211C434.585 9.58411 434.921 9.44011 435.358 9.44011C435.561 9.44011 435.833 9.48278 436.174 9.56811C436.59 9.73878 437.001 10.0001 437.406 10.3521C437.822 10.6934 438.265 11.1201 438.734 11.6321C439.214 12.1334 439.577 12.4908 439.822 12.7041C440.121 13.0988 440.286 13.3334 440.318 13.4081C440.372 13.4934 440.404 13.5841 440.414 13.6801C440.436 13.7761 440.441 13.8934 440.43 14.0321C440.43 14.1708 440.43 14.2668 440.43 14.3201C440.398 14.3628 440.35 14.4588 440.286 14.6081C440.233 14.7468 440.169 14.8534 440.094 14.9281C440.03 14.9921 439.94 14.9974 439.822 14.9441C439.577 15.0081 439.374 14.8694 439.214 14.5281C439.15 14.3041 439.118 14.0641 439.118 13.8081C439.065 13.7548 438.878 13.5574 438.558 13.2161C438.249 12.8641 438.062 12.6561 437.998 12.5921C437.924 12.5388 437.652 12.3041 437.182 11.8881C436.713 11.4721 436.377 11.2374 436.174 11.1841C435.844 11.0881 435.556 11.1468 435.31 11.3601C435.076 11.5628 434.926 11.8401 434.862 12.1921C434.702 13.6214 434.702 14.9014 434.862 16.0321L435.07 16.1441C435.55 16.2508 436.19 16.3574 436.99 16.4641C437.801 16.5708 438.409 16.6668 438.814 16.7521C439.476 16.9654 439.945 17.2001 440.222 17.4561C440.265 17.6161 440.233 17.7708 440.126 17.9201C440.03 18.0694 439.892 18.1494 439.71 18.1601C439.54 18.2028 439.342 18.2241 439.118 18.2241C438.83 18.2241 438.393 18.1654 437.806 18.0481C437.23 17.9308 436.889 17.8668 436.782 17.8561C436.409 17.7814 436.1 17.7441 435.854 17.7441C435.588 17.7441 435.326 17.7814 435.07 17.8561V17.9841L435.054 18.3361V18.4641C435.012 18.9014 435.065 19.4614 435.214 20.1441C435.374 20.8268 435.46 21.3174 435.47 21.6161C435.47 21.6908 435.433 21.7654 435.358 21.8401C435.284 21.9041 435.188 21.9734 435.07 22.0481C434.964 22.1228 434.894 22.1708 434.862 22.1921C434.756 22.1708 434.66 22.1334 434.574 22.0801C434.489 22.0374 434.42 21.9948 434.366 21.9521C434.324 21.9094 434.276 21.8401 434.222 21.7441C434.18 21.6374 434.148 21.5574 434.126 21.5041C434.116 21.4508 434.089 21.3548 434.046 21.2161C434.004 21.0668 433.972 20.9601 433.95 20.8961C433.748 20.1708 433.646 19.1254 433.646 17.7601ZM440.388 13.1041C440.452 12.9441 440.564 12.8161 440.724 12.7201C440.894 12.6134 441.07 12.5708 441.252 12.5921C441.316 12.5814 441.374 12.5814 441.428 12.5921C441.481 12.6028 441.534 12.6241 441.588 12.6561C441.652 12.6881 441.7 12.7148 441.732 12.7361C441.764 12.7574 441.806 12.8054 441.86 12.8801C441.924 12.9548 441.966 13.0028 441.988 13.0241C442.009 13.0348 442.052 13.0881 442.116 13.1841L442.212 13.3121C442.254 13.4188 442.457 13.6534 442.82 14.0161C442.894 14.1228 442.932 14.2508 442.932 14.4001C442.942 14.5388 442.905 14.6508 442.82 14.7361H442.468C442.286 14.7681 442.1 14.7574 441.908 14.7041C441.726 14.6508 441.481 14.5441 441.172 14.3841C440.873 14.2241 440.713 14.1388 440.692 14.1281C440.51 14.0214 440.388 13.8721 440.324 13.6801C440.27 13.4774 440.292 13.2854 440.388 13.1041ZM441.412 21.2161C441.39 21.0881 441.358 20.8108 441.316 20.3841C441.273 19.9468 441.23 19.4934 441.188 19.0241C441.145 18.5441 441.118 18.2614 441.108 18.1761C441.086 17.8881 441.086 17.5841 441.108 17.2641C441.268 16.9868 441.534 16.8854 441.908 16.9601C442.046 17.0241 442.185 17.2268 442.324 17.5681C442.324 17.7921 442.34 18.0268 442.372 18.2721C442.414 18.5174 442.452 18.7254 442.484 18.8961C442.526 19.0668 442.585 19.2908 442.66 19.5681C442.734 19.8454 442.788 20.0588 442.82 20.2081C442.82 20.2934 442.809 20.4321 442.788 20.6241C442.777 20.8054 442.761 20.9814 442.74 21.1521C442.729 21.3228 442.724 21.4134 442.724 21.4241C442.713 21.4561 442.697 21.5148 442.676 21.6001C442.665 21.6854 442.649 21.7548 442.628 21.8081C442.617 21.8614 442.59 21.9201 442.548 21.9841C442.516 22.0374 442.473 22.0801 442.42 22.1121C442.132 22.1654 441.897 22.1014 441.716 21.9201C441.534 21.6001 441.433 21.3654 441.412 21.2161ZM444.88 19.1841C444.89 18.5441 444.928 17.6854 444.992 16.6081C445.056 15.5201 445.093 14.7628 445.104 14.3361C445.093 13.8134 445.114 12.8374 445.168 11.4081C445.221 9.97878 445.232 8.93345 445.2 8.27211C445.285 7.99478 445.445 7.85611 445.68 7.85611C445.978 7.85611 446.224 8.02678 446.416 8.36811C446.416 8.50678 446.421 8.63478 446.432 8.75211L446.496 9.90411C446.506 10.0214 446.512 10.1494 446.512 10.2881C446.49 11.2908 446.421 12.7574 446.304 14.6881C446.197 16.6188 446.133 17.9841 446.112 18.7841C446.122 18.9334 446.138 19.1628 446.16 19.4721C446.181 19.7814 446.197 20.0108 446.208 20.1601C446.229 20.2988 446.256 20.4801 446.288 20.7041C446.33 20.9174 446.384 21.1148 446.448 21.2961C446.522 21.4668 446.613 21.6374 446.72 21.8081C446.73 21.9574 446.693 22.0908 446.608 22.2081C446.469 22.2934 446.293 22.3361 446.08 22.3361C445.834 22.3361 445.642 22.2934 445.504 22.2081C445.322 22.0161 445.184 21.7761 445.088 21.4881C444.992 21.2001 444.933 20.9761 444.912 20.8161C444.89 20.6561 444.88 20.3628 444.88 19.9361C444.88 19.4988 444.88 19.2481 444.88 19.1841ZM449.515 17.4561C450.283 16.4748 451.125 15.8348 452.043 15.5361C452.629 15.4614 452.939 15.4241 452.971 15.4241C453.632 15.4454 454.208 15.6481 454.699 16.0321C455.189 16.4054 455.451 16.9174 455.483 17.5681C455.493 18.1334 455.264 18.6508 454.795 19.1201C454.336 19.5894 453.824 19.8454 453.259 19.8881C453.045 19.9628 452.816 20.0001 452.571 20.0001C452.016 20.0001 451.403 19.7974 450.731 19.3921C450.528 19.1894 450.395 19.0881 450.331 19.0881C450.288 19.0668 450.251 19.0668 450.219 19.0881C449.867 19.6214 449.696 20.0268 449.707 20.3041C449.824 20.9974 450.197 21.5841 450.827 22.0641C451.456 22.5548 452.123 22.7788 452.827 22.7361C452.933 22.7788 453.12 22.7788 453.387 22.7361C453.653 22.7041 453.829 22.6774 453.915 22.6561C454.011 22.6348 454.192 22.5814 454.459 22.4961C454.736 22.4214 454.928 22.3681 455.035 22.3361C455.408 22.1868 455.904 22.0908 456.523 22.0481H456.635C456.709 22.0268 456.779 22.0428 456.843 22.0961C456.907 22.1494 456.944 22.2294 456.955 22.3361V22.9281C456.571 23.3654 456.096 23.6001 455.531 23.6321C455.413 23.6641 455.2 23.7228 454.891 23.8081C454.592 23.8934 454.363 23.9521 454.203 23.9841C454.053 24.0268 453.851 24.0641 453.595 24.0961C453.349 24.1388 453.125 24.1548 452.923 24.1441C451.984 24.1868 451.083 23.9468 450.219 23.4241C449.429 23.0188 448.821 22.3148 448.395 21.3121C448.235 20.6828 448.261 20.0694 448.475 19.4721C448.688 18.8748 449.035 18.2028 449.515 17.4561ZM450.763 18.2241C450.987 18.2241 451.179 18.2401 451.339 18.2721C451.435 18.3254 451.525 18.3681 451.611 18.4001C451.707 18.4214 451.819 18.4428 451.947 18.4641C452.085 18.4748 452.176 18.4801 452.219 18.4801C452.261 18.4801 452.373 18.4801 452.555 18.4801C452.747 18.4801 452.848 18.4801 452.859 18.4801C453.413 18.3094 453.781 18.0694 453.963 17.7601C453.995 17.6428 453.995 17.5414 453.963 17.4561C453.941 17.3601 453.883 17.2801 453.787 17.2161C453.691 17.1521 453.6 17.1041 453.515 17.0721C453.429 17.0401 453.312 17.0028 453.163 16.9601C453.024 16.9068 452.923 16.8694 452.859 16.8481C452.603 16.8481 452.341 16.9228 452.075 17.0721C451.808 17.2108 451.595 17.3494 451.435 17.4881C451.275 17.6268 451.072 17.8188 450.827 18.0641C450.827 18.0748 450.816 18.1014 450.795 18.1441C450.773 18.1761 450.763 18.2028 450.763 18.2241Z" fill="#1E1E1E"/>
<path d="M162.746 185.08C243.806 180.64 327.876 179.43 386.426 185.08C396.166 185.06 397.676 185.19 395.786 194.43C397.646 201.73 396.556 206.14 395.786 213.14C395.266 217.27 392.616 221.75 386.426 222.49C324.366 222.36 258.936 219.08 162.746 222.49C158.946 220.34 153.036 217.7 153.396 213.14C155.556 209.86 154.966 203.04 153.396 194.43C156.396 188.45 155.376 181.78 162.746 185.08Z" fill="#EADDD7"/>
<path d="M161.385 229.29C213.995 227.39 274.735 230.49 303.835 229.29C310.195 226.28 308.545 232.63 310.535 235.99C311.145 241.53 310.315 242.01 310.535 249.38C310.485 253.11 307.935 258.96 303.835 256.08C269.795 255.05 233.345 255.09 161.385 256.08C156.555 254.4 152.955 252.83 154.685 249.38C155.595 245.5 156.545 242.75 154.685 235.99C153.545 228.23 160.435 228.59 161.385 229.29Z" fill="#EADDD7"/>
<path d="M166.986 264.889C202.396 266.839 232.696 263.859 293.446 264.889C296.526 265.999 300.246 269.299 301.056 272.489C300.716 276.679 301.066 283.509 301.056 287.699C300.676 295.649 296.936 298.459 293.446 295.299C252.246 291.769 205.826 292.239 166.986 295.299C160.196 294.289 157.716 294.969 159.386 287.699C161.546 282.679 158.396 274.779 159.386 272.489C162.906 266.719 160.656 268.309 166.986 264.889Z" fill="#A5D8FF"/>
<path d="M166.986 264.889C211.546 264.469 259.366 264.049 293.446 264.889M166.986 264.889C196.996 263.649 227.256 265.069 293.446 264.889M166.986 264.889C163.586 263.079 159.486 267.479 159.386 272.489M166.986 264.889C163.886 263.039 161.076 268.099 159.386 272.489M293.446 264.889C300.396 264.779 300.786 265.439 301.056 272.489M293.446 264.889C299.866 266.059 301.416 267.069 301.056 272.489M301.056 272.489C300.956 277.779 300.706 280.749 301.056 287.699M301.056 272.489C300.706 277.619 300.466 281.709 301.056 287.699M301.056 287.699C302.766 292.569 297.126 295.609 293.446 295.299M301.056 287.699C301.986 293.709 298.076 296.969 293.446 295.299M293.446 295.299C243.366 293.049 196.106 295.089 166.986 295.299M293.446 295.299C262.496 295.369 230.436 295.969 166.986 295.299M166.986 295.299C162.446 296.319 157.986 292.789 159.386 287.699M166.986 295.299C161.346 295.889 161.566 293.579 159.386 287.699M159.386 287.699C159.426 282.179 158.286 277.379 159.386 272.489M159.386 287.699C158.986 283.789 159.886 278.349 159.386 272.489" stroke="#1E1E1E" stroke-width="2" stroke-linecap="round"/>
<path d="M204.605 280.805C204.774 280.695 204.951 280.64 205.138 280.64C205.214 280.64 205.493 280.695 205.975 280.805L206.685 281.135H206.723C206.613 280.839 206.495 279.875 206.368 278.243C206.368 278.15 206.36 277.803 206.343 277.203C206.326 276.602 206.313 276.154 206.305 275.858C206.305 275.553 206.313 275.169 206.33 274.703C206.355 274.23 206.398 273.837 206.457 273.524C206.474 273.388 206.491 273.295 206.508 273.245L206.127 273.181H206C205.975 273.181 205.924 273.181 205.848 273.181C205.772 273.181 205.717 273.181 205.683 273.181C205.649 273.181 205.598 273.181 205.531 273.181C205.472 273.173 205.421 273.164 205.379 273.156C205.336 273.147 205.286 273.135 205.226 273.118C205.176 273.092 205.129 273.063 205.087 273.029C204.926 272.911 204.846 272.83 204.846 272.788V272.141C204.846 272.124 204.875 272.086 204.935 272.027C204.994 271.959 205.045 271.917 205.087 271.9C205.73 271.917 206.212 271.997 206.533 272.141C206.702 272.166 207.028 272.209 207.51 272.268C208 272.327 208.364 272.378 208.601 272.42C208.838 272.462 209.146 272.526 209.527 272.61C209.916 272.695 210.263 272.805 210.567 272.94C210.871 273.075 211.159 273.236 211.43 273.422C212.351 274.141 212.783 274.792 212.724 275.376C212.774 275.68 212.732 275.985 212.597 276.289C212.461 276.594 212.318 276.835 212.165 277.012C212.013 277.181 211.793 277.406 211.506 277.685C211.607 277.786 211.793 277.951 212.064 278.179C212.335 278.408 212.525 278.59 212.635 278.725C213.117 279.444 213.248 280.057 213.028 280.564C212.791 281.046 212.432 281.431 211.95 281.719C211.476 282.015 210.956 282.188 210.389 282.239C209.704 282.357 208.977 282.416 208.207 282.416C207.565 282.416 206.952 282.387 206.368 282.328C206.309 282.328 206.131 282.315 205.835 282.29C205.539 282.264 205.37 282.247 205.328 282.239C205.167 282.222 205.036 282.201 204.935 282.175C204.833 282.15 204.732 282.099 204.63 282.023C204.529 281.955 204.457 281.867 204.414 281.757C204.305 281.258 204.368 280.941 204.605 280.805ZM209.425 273.663C208.986 273.528 208.271 273.418 207.281 273.333C207.383 273.951 207.446 275.181 207.472 277.025C207.531 277.033 207.565 277.038 207.573 277.038C207.709 276.97 207.95 276.945 208.296 276.961C208.313 276.961 208.377 276.97 208.487 276.987C208.597 277.004 208.698 277.021 208.791 277.038C208.884 277.046 208.947 277.046 208.981 277.038C209.497 276.995 209.929 276.919 210.275 276.809C210.63 276.699 210.96 276.509 211.265 276.238C211.611 276.035 211.692 275.634 211.506 275.033C211.303 274.712 211.007 274.429 210.618 274.183C210.229 273.93 209.831 273.756 209.425 273.663ZM207.89 280.767C207.89 281.004 207.882 281.144 207.865 281.186C208.719 281.22 209.29 281.228 209.578 281.211C209.789 281.194 209.95 281.182 210.06 281.173C210.17 281.156 210.33 281.131 210.542 281.097C210.762 281.055 210.935 281.004 211.062 280.945C211.197 280.877 211.337 280.801 211.48 280.716C211.633 280.623 211.751 280.505 211.836 280.361C211.92 280.209 211.971 280.04 211.988 279.854C211.844 279.279 211.337 278.902 210.466 278.725C210.263 278.64 210.043 278.581 209.806 278.547C209.569 278.513 209.298 278.488 208.994 278.471C208.69 278.454 208.457 278.433 208.296 278.408C208.22 278.408 208.005 278.458 207.649 278.56C207.632 278.644 207.658 279.017 207.725 279.676C207.802 280.327 207.857 280.691 207.89 280.767ZM218.921 278.014L218.985 278.027C219.019 277.68 219.091 277.448 219.2 277.329C219.294 277.211 219.37 277.152 219.429 277.152C219.454 277.152 219.484 277.152 219.518 277.152C219.577 277.143 219.628 277.148 219.67 277.164C219.721 277.181 219.78 277.224 219.847 277.291C219.924 277.351 219.974 277.389 220 277.406C220.135 277.625 220.19 277.892 220.165 278.205C220.165 278.222 220.084 278.42 219.924 278.801C219.864 279.114 219.856 279.435 219.898 279.765C219.94 280.086 220.059 280.378 220.253 280.64C220.414 281.012 220.427 281.283 220.291 281.452C220.258 281.537 220.194 281.579 220.101 281.579C220.05 281.579 219.987 281.566 219.911 281.541C219.843 281.516 219.763 281.482 219.67 281.44C219.577 281.397 219.513 281.372 219.48 281.363C219.175 281.16 218.981 280.826 218.896 280.361C218.558 280.725 218.232 280.991 217.919 281.16C217.615 281.321 217.2 281.461 216.676 281.579C216.397 281.613 216.122 281.579 215.851 281.478C215.589 281.376 215.395 281.275 215.268 281.173C215.141 281.072 214.925 280.886 214.621 280.615C214.503 280.454 214.405 280.302 214.329 280.158C214.261 280.015 214.211 279.858 214.177 279.689C214.152 279.52 214.135 279.397 214.126 279.321C214.118 279.236 214.118 279.08 214.126 278.852C214.135 278.615 214.139 278.454 214.139 278.37C214.19 278.319 214.215 278.239 214.215 278.129V278.052C214.19 277.926 214.245 277.63 214.38 277.164C214.397 277.131 214.443 277.076 214.519 277C214.604 276.915 214.663 276.864 214.697 276.847C214.773 276.83 214.908 276.839 215.103 276.873C215.297 276.907 215.403 276.923 215.42 276.923C215.488 276.94 215.539 276.97 215.572 277.012C215.615 277.055 215.64 277.109 215.648 277.177C215.665 277.236 215.674 277.291 215.674 277.342C215.674 277.393 215.67 277.46 215.661 277.545C215.661 277.63 215.661 277.689 215.661 277.723C215.661 277.74 215.648 277.769 215.623 277.811L215.585 277.888C215.416 278.251 215.331 278.632 215.331 279.029C215.306 279.249 215.361 279.478 215.496 279.714C215.632 279.943 215.796 280.137 215.991 280.298C216.397 280.391 216.646 280.437 216.739 280.437C216.917 280.437 217.095 280.391 217.272 280.298C217.408 280.247 217.534 280.179 217.653 280.095C217.78 280.002 217.881 279.917 217.957 279.841C218.042 279.757 218.135 279.638 218.236 279.486C218.346 279.334 218.422 279.224 218.465 279.156C218.507 279.08 218.583 278.945 218.693 278.75C218.803 278.556 218.875 278.433 218.909 278.382C218.909 278.34 218.909 278.277 218.909 278.192C218.917 278.107 218.921 278.048 218.921 278.014ZM222.351 286.095V285.943C222.419 285.782 222.609 285.283 222.922 284.446C223.243 283.609 223.455 283.063 223.556 282.81C223.776 282.251 223.907 281.807 223.95 281.478L223.772 281.465C223.654 281.456 223.582 281.456 223.556 281.465C223.319 281.524 223.133 281.554 222.998 281.554C222.744 281.554 222.503 281.469 222.275 281.3C221.81 281.114 221.433 280.632 221.146 279.854C221.087 279.609 221.057 279.351 221.057 279.08C221.057 278.801 221.07 278.556 221.095 278.344C221.129 278.133 221.167 277.875 221.209 277.57C221.26 277.257 221.294 277 221.311 276.797C221.387 276.517 221.594 276.378 221.932 276.378C222.076 276.378 222.216 276.412 222.351 276.479C222.563 276.623 222.647 276.797 222.605 277C222.596 277.059 222.512 277.207 222.351 277.444C222.216 277.858 222.165 278.475 222.199 279.296C222.207 279.541 222.322 279.752 222.541 279.93C222.77 280.099 223.015 280.213 223.277 280.272C223.379 280.264 223.472 280.243 223.556 280.209C223.649 280.175 223.742 280.124 223.835 280.057C223.928 279.981 224 279.922 224.051 279.879C224.102 279.828 224.182 279.744 224.292 279.626C224.41 279.499 224.487 279.414 224.52 279.372C224.673 279.194 224.808 278.974 224.926 278.712C225.053 278.442 225.142 278.234 225.193 278.091C225.243 277.938 225.315 277.697 225.408 277.367C225.417 277.325 225.43 277.262 225.446 277.177C225.472 277.084 225.493 277.012 225.51 276.961C225.527 276.902 225.552 276.843 225.586 276.784C225.628 276.725 225.675 276.678 225.726 276.644C225.928 276.534 226.131 276.479 226.334 276.479C226.571 276.479 226.77 276.56 226.931 276.72C227.108 276.974 227.028 277.351 226.69 277.85C226.529 278.171 226.263 278.653 225.89 279.296C225.857 279.338 225.806 279.427 225.738 279.562C225.679 279.689 225.649 279.761 225.649 279.778C225.37 280.514 225.184 281.076 225.091 281.465C224.99 281.744 224.804 282.251 224.533 282.987C224.271 283.723 224.055 284.307 223.886 284.738C223.81 284.89 223.755 285.047 223.721 285.207C223.696 285.376 223.67 285.588 223.645 285.842C223.62 286.104 223.59 286.328 223.556 286.514C223.539 286.742 223.459 286.903 223.315 286.996C223.188 287.047 223.057 287.072 222.922 287.072C222.787 287.072 222.677 287.047 222.592 286.996C222.431 286.675 222.351 286.374 222.351 286.095ZM234.057 280.653C234.091 280.518 234.108 280.399 234.108 280.298C234.108 280.196 234.133 280.099 234.184 280.006C234.192 279.981 234.213 279.883 234.247 279.714C234.281 279.537 234.298 279.439 234.298 279.423C234.442 279.076 234.615 278.59 234.818 277.964C235.021 277.338 235.161 276.923 235.237 276.72C235.262 276.619 235.3 276.458 235.351 276.238C235.41 276.01 235.444 275.862 235.452 275.794C235.461 275.727 235.473 275.583 235.49 275.363C235.516 275.143 235.507 274.987 235.465 274.894C235.524 274.522 235.71 274.293 236.023 274.209C236.074 274.2 236.133 274.213 236.201 274.247C236.268 274.281 236.353 274.34 236.454 274.424C236.564 274.509 236.624 274.551 236.632 274.551C236.674 274.619 236.704 274.678 236.721 274.729C236.746 274.771 236.767 274.839 236.784 274.932C236.801 275.016 236.818 275.084 236.835 275.135C236.903 275.448 236.962 275.909 237.013 276.517C237.072 277.126 237.131 277.575 237.19 277.862C237.207 277.913 237.245 278.048 237.304 278.268C237.372 278.48 237.427 278.64 237.469 278.75C237.486 278.801 237.512 278.877 237.545 278.979C237.579 279.072 237.6 279.135 237.609 279.169C237.626 279.194 237.651 279.236 237.685 279.296C237.719 279.355 237.757 279.406 237.799 279.448C237.841 279.482 237.896 279.52 237.964 279.562L238.053 279.549L238.548 278.699C238.658 278.488 238.759 278.26 238.852 278.014C238.945 277.761 239.034 277.477 239.118 277.164C239.203 276.852 239.271 276.594 239.321 276.391C239.372 276.188 239.436 275.9 239.512 275.528C239.596 275.147 239.656 274.894 239.689 274.767C239.689 274.589 239.706 274.369 239.74 274.107C239.782 273.837 239.808 273.596 239.816 273.384C239.892 272.877 240.061 272.572 240.324 272.471C240.586 272.454 240.793 272.576 240.945 272.839C241.097 273.101 241.136 273.363 241.059 273.625C241.059 273.642 241.013 273.803 240.92 274.107C240.827 274.412 240.776 274.581 240.768 274.615C240.768 274.657 240.755 274.708 240.73 274.767C240.713 274.826 240.7 274.894 240.692 274.97C240.683 275.037 240.67 275.126 240.653 275.236C240.637 275.346 240.62 275.443 240.603 275.528C240.594 275.613 240.59 275.659 240.59 275.668C240.286 276.733 240.095 277.456 240.019 277.837C239.918 278.192 239.736 278.699 239.474 279.359C239.212 280.019 239.055 280.416 239.004 280.552C238.784 280.983 238.543 281.279 238.281 281.44C238.121 281.499 237.951 281.503 237.774 281.452C237.655 281.435 237.537 281.372 237.419 281.262C237.3 281.144 237.207 281.034 237.14 280.932C237.08 280.831 236.996 280.683 236.886 280.488C236.784 280.285 236.721 280.163 236.696 280.12C236.586 279.858 236.454 279.482 236.302 278.991C236.158 278.501 236.061 278.179 236.01 278.027C235.934 278.086 235.858 278.192 235.782 278.344C235.714 278.488 235.66 278.619 235.617 278.738C235.583 278.847 235.537 279.012 235.478 279.232C235.418 279.452 235.38 279.592 235.364 279.651C235.262 279.888 235.199 280.065 235.173 280.184C235.148 280.294 235.135 280.437 235.135 280.615C235.144 280.793 235.135 280.979 235.11 281.173C235.059 281.807 234.886 282.125 234.59 282.125C234.488 282.158 234.416 282.175 234.374 282.175C234.146 282.175 233.998 282.044 233.93 281.782C233.803 281.393 233.845 281.017 234.057 280.653ZM241.65 279.905V278.535C241.591 278.442 241.561 278.306 241.561 278.129C241.561 277.951 241.591 277.82 241.65 277.735C241.777 277.642 241.925 277.545 242.094 277.444C242.263 277.342 242.449 277.232 242.652 277.114C242.855 276.995 243.003 276.907 243.096 276.847C243.451 276.636 243.895 276.53 244.428 276.53C245.054 276.53 245.654 276.665 246.23 276.936C246.813 277.207 247.295 277.579 247.676 278.052C248.115 278.653 248.221 279.215 247.993 279.74C247.452 280.67 246.648 281.258 245.583 281.503C245.447 281.554 245.295 281.592 245.126 281.617C244.965 281.643 244.834 281.655 244.733 281.655C244.631 281.664 244.47 281.664 244.251 281.655C244.031 281.655 243.887 281.655 243.819 281.655C243.388 281.562 243.088 281.495 242.919 281.452C242.758 281.41 242.585 281.325 242.398 281.199C242.212 281.063 242.073 280.907 241.98 280.729C241.895 280.552 241.785 280.277 241.65 279.905ZM242.855 279.905C242.914 280.023 243.012 280.154 243.147 280.298C243.282 280.433 243.401 280.514 243.502 280.539C243.697 280.64 243.976 280.691 244.339 280.691C244.678 280.691 245.029 280.645 245.392 280.552C245.764 280.45 246.107 280.281 246.42 280.044C246.733 279.799 246.91 279.511 246.953 279.182C246.961 279.08 246.965 279 246.965 278.94C246.965 278.881 246.936 278.814 246.877 278.738C246.826 278.653 246.779 278.59 246.737 278.547C246.695 278.505 246.635 278.45 246.559 278.382C246.483 278.315 246.428 278.26 246.394 278.217C245.676 277.82 245.13 277.621 244.758 277.621C244.572 277.621 244.394 277.659 244.225 277.735C244.149 277.761 244.069 277.816 243.984 277.9C243.739 278.129 243.578 278.26 243.502 278.294C243.477 278.319 243.426 278.365 243.35 278.433C243.282 278.501 243.223 278.56 243.172 278.611C243.122 278.653 243.071 278.708 243.02 278.776C242.978 278.835 242.952 278.89 242.944 278.94C242.893 279.034 242.864 279.139 242.855 279.258C242.847 279.376 242.847 279.486 242.855 279.587C242.872 279.68 242.872 279.786 242.855 279.905ZM248.598 277.938C248.607 277.879 248.611 277.79 248.611 277.672C248.619 277.545 248.628 277.448 248.636 277.38C248.645 277.304 248.657 277.228 248.674 277.152C248.7 277.076 248.729 277.021 248.763 276.987C248.941 276.835 249.194 276.725 249.524 276.657C249.583 276.649 249.643 276.661 249.702 276.695C249.761 276.72 249.807 276.75 249.841 276.784C249.884 276.818 249.934 276.868 249.994 276.936C250.053 276.995 250.095 277.038 250.12 277.063C250.12 277.139 250.133 277.266 250.158 277.444C250.184 277.621 250.197 277.756 250.197 277.85C250.205 277.943 250.18 278.052 250.12 278.179C249.977 278.382 249.871 278.759 249.803 279.308C249.786 279.604 249.786 279.926 249.803 280.272C249.82 280.332 249.858 280.361 249.917 280.361C250.036 280.294 250.201 280.12 250.412 279.841C250.624 279.562 250.742 279.41 250.767 279.384L250.843 279.232C250.852 279.207 250.869 279.131 250.894 279.004C250.928 278.877 250.966 278.792 251.008 278.75C251.161 278.59 251.457 278.48 251.896 278.42C251.964 278.42 252.027 278.442 252.087 278.484C252.146 278.526 252.188 278.568 252.214 278.611C252.247 278.653 252.29 278.721 252.34 278.814C252.4 278.907 252.438 278.966 252.455 278.991C252.556 279.346 252.607 279.613 252.607 279.79L252.772 279.955H253.013C253.241 279.761 253.453 279.554 253.647 279.334C253.85 279.105 254.091 278.805 254.37 278.433C254.658 278.052 254.848 277.807 254.941 277.697C254.983 277.621 255.169 277.355 255.499 276.898L256.133 276.264C256.193 276.213 256.256 276.183 256.324 276.175C256.4 276.167 256.484 276.167 256.577 276.175C256.67 276.183 256.738 276.183 256.78 276.175C256.975 276.319 257 276.589 256.857 276.987C256.104 277.968 255.465 278.767 254.941 279.384C254.543 279.968 254.045 280.552 253.444 281.135C253.148 281.414 252.789 281.554 252.366 281.554C251.985 281.418 251.693 281.122 251.49 280.666L251.402 280.59C251.249 280.674 251.025 280.873 250.729 281.186C250.442 281.49 250.188 281.689 249.968 281.782C249.943 281.782 249.888 281.782 249.803 281.782C249.727 281.791 249.664 281.795 249.613 281.795C249.571 281.795 249.52 281.786 249.461 281.769C249.402 281.752 249.355 281.731 249.321 281.706C249.093 281.562 248.907 281.245 248.763 280.755C248.712 280.552 248.678 280.323 248.662 280.07C248.653 279.816 248.657 279.592 248.674 279.397C248.691 279.194 248.691 278.962 248.674 278.699V278.344C248.674 278.336 248.662 278.272 248.636 278.154C248.611 278.027 248.598 277.955 248.598 277.938Z" fill="#1E1E1E"/>
<path d="M159.587 168.076C198.707 164.146 238.967 165.246 311.057 168.076C313.687 170.316 311.217 168.576 313.247 170.266C313.787 170.906 313.117 171.866 313.247 174.656C313.717 174.106 310.507 177.466 311.057 176.856C253.397 177.796 196.807 178.036 159.587 176.856C159.287 174.476 155.647 178.516 157.397 174.656C156.887 173.056 156.887 171.206 157.397 170.266C157.387 169.986 155.977 166.416 159.587 168.076Z" fill="#EADDD7"/>
</svg>
