<svg width="245" height="418" viewBox="0 0 245 418" fill="none" xmlns="http://www.w3.org/2000/svg">
<path d="M70.0668 45.2041C107.737 48.3041 148.587 49.0741 202.537 45.2041C226.777 45.9241 237.267 55.3541 234.537 77.2041C234.207 151.344 233.317 223.564 234.537 375.454C236.157 399.204 221.687 409.884 202.537 407.454C168.977 405.334 137.207 408.544 70.0668 407.454C50.2668 409.034 37.3468 399.784 38.0668 375.454C41.9168 283.404 38.3868 194.914 38.0668 77.2041C35.9468 58.2441 47.3468 42.0941 70.0668 45.2041Z" fill="#EADDD7"/>
<path d="M70.0668 45.2042C108.197 43.8442 149.457 45.5242 202.537 45.2042M70.0668 45.2042C99.4968 44.3942 126.907 43.4642 202.537 45.2042M70.0668 45.2042C50.4468 43.5942 39.5368 56.4542 38.0668 77.2042M70.0668 45.2042C46.7368 47.4342 36.9668 54.3942 38.0668 77.2042M202.537 45.2042C225.047 46.2142 234.857 55.5642 234.537 77.2042M202.537 45.2042C223.947 44.6542 234.267 55.7842 234.537 77.2042M234.537 77.2042C233.967 179.984 235.407 281.884 234.537 375.454M234.537 77.2042C233.447 194.204 232.307 311.474 234.537 375.454M234.537 375.454C235.347 397.614 223.487 408.904 202.537 407.454M234.537 375.454C236.437 396.094 222.207 405.464 202.537 407.454M202.537 407.454C170.637 409.394 140.587 409.424 70.0668 407.454M202.537 407.454C161.157 408.954 118.557 408.454 70.0668 407.454M70.0668 407.454C48.2368 407.964 39.9668 397.504 38.0668 375.454M70.0668 407.454C49.1268 407.884 39.1468 396.894 38.0668 375.454M38.0668 375.454C39.6568 299.524 39.2168 222.864 38.0668 77.2042M38.0668 375.454C36.6668 258.294 37.2368 140.434 38.0668 77.2042" stroke="#1E1E1E" stroke-width="2" stroke-linecap="round"/>
<path d="M53.0598 44.2329C88.0898 45.1929 127.66 44.0329 218.62 44.2329C232.02 43.7129 232.52 49.5129 234.62 60.2429C232.98 72.3529 236.18 80.5429 234.62 92.2529C232.44 105.353 227.14 107.903 218.62 108.263C174.99 109.623 136.24 109.003 53.0598 108.263C41.6698 111.253 37.2998 101.783 37.0498 92.2529C35.2198 89.0029 34.3698 81.2829 37.0498 60.2429C35.6598 46.4629 39.0598 45.4029 53.0598 44.2329Z" fill="#FFEC99"/>
<path d="M53.0597 44.2328C99.3997 45.6228 142.8 46.1428 218.62 44.2328M53.0597 44.2328C112.01 43.3328 171.82 44.8328 218.62 44.2328M53.0597 44.2328C41.4297 42.9428 38.7597 47.9528 37.0497 60.2428M53.0597 44.2328C42.3697 45.4428 35.0597 51.8028 37.0497 60.2428M218.62 44.2328C229.6 43.9228 234.69 49.0828 234.62 60.2428M218.62 44.2328C229.01 44.1428 235.64 49.1028 234.62 60.2428M234.62 60.2428C236.37 66.8828 236.45 73.8428 234.62 92.2528M234.62 60.2428C234.2 71.5128 235.3 82.8828 234.62 92.2528M234.62 92.2528C234.23 104.373 230.93 107.663 218.62 108.263M234.62 92.2528C232.96 100.933 227.76 107.533 218.62 108.263M218.62 108.263C162.96 110.983 107.83 110.283 53.0597 108.263M218.62 108.263C155.94 109.123 94.4197 109.363 53.0597 108.263M53.0597 108.263C44.2897 108.973 37.3897 103.303 37.0497 92.2528M53.0597 108.263C43.4697 108.373 35.9997 101.303 37.0497 92.2528M37.0497 92.2528C36.5097 83.0028 38.8997 77.2128 37.0497 60.2428M37.0497 92.2528C37.8697 82.2728 37.7697 74.3928 37.0497 60.2428" stroke="#1E1E1E" stroke-width="2" stroke-linecap="round"/>
<path d="M50.9996 78.7305V71.4491L50.4807 70.7355C50.4266 70.2707 50.6645 69.9139 51.1942 69.6652C51.6699 69.4923 52.3564 69.3139 53.2538 69.1301C54.1511 68.9463 54.7998 68.7949 55.1998 68.676C55.8052 68.4273 56.5566 68.2598 57.4539 68.1733C57.4864 68.1841 57.5837 68.1841 57.7458 68.1733C57.908 68.1517 58.108 68.13 58.3459 68.1084C58.5837 68.0868 58.7837 68.076 58.9459 68.076C59.2162 68.076 59.4054 68.1084 59.5135 68.1733C59.7621 68.1733 59.9946 68.2922 60.2108 68.5301C60.427 68.7679 60.5027 69.0166 60.4378 69.276C60.4811 69.4058 60.4649 69.5355 60.3892 69.6652C60.3135 69.7842 60.2054 69.8706 60.0649 69.9247C59.9351 69.9571 59.8054 69.9247 59.6756 69.8274L59.4973 69.6977C59.4324 69.6436 59.3675 69.6112 59.3027 69.6004C57.8431 69.449 55.9944 69.7571 53.7565 70.5247C53.6808 70.568 53.5295 70.6328 53.3024 70.7193C53.0862 70.795 52.9673 70.8328 52.9457 70.8328C52.8484 70.8653 52.7456 70.9356 52.6375 71.0437L52.4267 71.2545V72.2761C52.4267 73.1086 52.4646 73.7249 52.5402 74.1249C52.6375 74.1249 52.724 74.1303 52.7997 74.1411L53.6105 74.206C53.6862 74.2168 53.7727 74.2222 53.87 74.2222C54.2268 74.1897 54.7025 74.0924 55.2971 73.9303C55.8917 73.7681 56.3782 73.6654 56.7566 73.6221C57.5026 73.5357 57.935 73.4924 58.054 73.4924C58.3242 73.4924 58.5675 73.5302 58.7837 73.6059C58.9783 73.714 59.0864 73.86 59.1081 74.0438C59.1297 74.2276 59.0594 74.3897 58.8972 74.5303C58.7351 74.6168 58.3891 74.7033 57.8594 74.7898C57.3404 74.8654 57.0377 74.9141 56.9512 74.9357C56.6269 75.0546 56.0971 75.206 55.362 75.3898C54.6376 75.5736 54.1727 75.6979 53.9673 75.7628C53.9349 75.7628 53.8106 75.8114 53.5943 75.9087C53.3889 75.9952 53.2754 76.0493 53.2538 76.0709H53.1403L52.6375 75.9736L52.5402 76.0709C52.4646 77.098 52.497 77.8493 52.6375 78.325V78.4386C52.6592 79.0872 52.524 79.4872 52.2321 79.6386C52.1132 79.7359 51.9186 79.8062 51.6483 79.8494C51.3564 79.644 51.1834 79.471 51.1294 79.3305C51.1077 79.2764 51.0969 79.217 51.0969 79.1521C51.0321 79.0007 50.9996 78.8602 50.9996 78.7305ZM60.036 75.2276C60.1116 74.7519 60.2738 74.3411 60.5225 73.9951C60.7711 73.6492 61.1225 73.2708 61.5766 72.86C61.9658 72.6654 62.4685 72.568 63.0847 72.568C63.8415 72.568 64.4632 72.6978 64.9497 72.9573C65.8686 73.5302 66.5227 74.0113 66.9119 74.4006C66.9119 74.433 66.9173 74.5141 66.9281 74.6438C66.9389 74.7735 66.9335 74.8817 66.9119 74.9681C66.9011 75.0546 66.8633 75.1033 66.7984 75.1141C66.4524 75.1682 66.1011 75.1141 65.7443 74.9519C65.6578 74.8979 65.5173 74.8168 65.3227 74.7087C65.1281 74.5898 64.9821 74.5033 64.8848 74.4492C64.7875 74.3951 64.6578 74.3411 64.4956 74.287C64.3334 74.233 64.1767 74.2005 64.0253 74.1897C63.9388 74.1897 63.7983 74.1897 63.6037 74.1897C63.4091 74.1789 63.2523 74.1789 63.1334 74.1897C63.0253 74.1897 62.8901 74.206 62.728 74.2384C62.5658 74.2708 62.4198 74.3249 62.2901 74.4006L62.1928 74.4979C61.8036 75.0168 61.5603 75.4168 61.463 75.6979C61.4847 76.0222 61.4847 76.3141 61.463 76.5736C61.4414 76.8223 61.436 77.1088 61.4468 77.4331C61.4685 77.7574 61.5117 78.0439 61.5766 78.2926C61.6522 78.4223 61.6955 78.5521 61.7063 78.6818C61.7171 78.8007 61.6901 78.9413 61.6252 79.1034C61.5603 79.2656 61.5117 79.3791 61.4793 79.444C61.4576 79.4981 61.3874 79.6224 61.2684 79.817C61.1711 79.9467 61.0522 80.0116 60.9117 80.0116C60.7603 80.0116 60.6036 79.9467 60.4414 79.817C60.1819 79.6548 59.9765 79.3521 59.8251 78.9088C59.8251 77.2007 59.8954 75.9736 60.036 75.2276ZM73.0368 77.2385C72.9503 77.3034 72.8476 77.4385 72.7287 77.6439C72.1557 78.271 71.5935 78.7737 71.0421 79.1521C70.5016 79.5197 69.9124 79.6981 69.2745 79.6872C68.9394 79.7305 68.5934 79.6872 68.2366 79.5575C67.8799 79.417 67.5988 79.2224 67.3933 78.9737C67.296 78.8223 67.2258 78.7196 67.1825 78.6656C67.1501 78.6007 67.096 78.5034 67.0204 78.3737C66.9447 78.2331 66.8906 78.1196 66.8582 78.0331C66.8366 77.9466 66.8095 77.8439 66.7771 77.725C66.7447 77.6061 66.7285 77.4926 66.7285 77.3845C66.7285 77.2655 66.7447 77.1466 66.7771 77.0277C66.7879 76.6601 66.9068 76.2871 67.1339 75.9087C67.3717 75.5303 67.6096 75.2276 67.8474 75.0006C68.0853 74.7735 68.3934 74.5033 68.7718 74.1897C68.8475 74.1357 68.9015 74.0924 68.934 74.06C69.388 73.6924 70.0043 73.5086 70.7827 73.5086C70.9448 73.5086 71.4584 73.5519 72.3233 73.6384C72.3449 73.66 72.4152 73.6978 72.5341 73.7519C72.6638 73.8059 72.7557 73.8654 72.8098 73.9303C72.8638 73.9843 72.8692 74.06 72.826 74.1573L73.0368 74.3681C73.3612 74.5087 73.5666 74.6438 73.6531 74.7735C74.1936 75.8763 74.6693 76.7628 75.0801 77.4331C75.1234 77.4872 75.2585 77.6115 75.4856 77.8061C75.7234 77.9899 75.864 78.1088 75.9072 78.1629C75.9937 78.2277 76.0964 78.3196 76.2153 78.4386C76.3451 78.5467 76.4532 78.6277 76.5397 78.6818C76.6261 78.7359 76.7234 78.7683 76.8316 78.7791C76.8424 78.7899 76.9126 78.8548 77.0424 78.9737C77.0532 79.0061 77.0478 79.0494 77.0262 79.1034C77.0153 79.1467 76.9991 79.2007 76.9775 79.2656C76.9559 79.3305 76.9397 79.3737 76.9289 79.3953C76.8207 79.5575 76.5829 79.6872 76.2153 79.7845C76.0856 79.7845 75.9937 79.79 75.9396 79.8008C75.8964 79.8224 75.8207 79.8116 75.7126 79.7683C75.6153 79.7359 75.545 79.7089 75.5018 79.6872C75.4693 79.6764 75.3991 79.6386 75.291 79.5737C75.1828 79.5089 75.1018 79.4602 75.0477 79.4278L74.9828 79.3953C74.7126 79.1683 74.3396 78.7791 73.8639 78.2277C73.399 77.6655 73.1233 77.3358 73.0368 77.2385ZM68.3177 77.7412C68.5123 78.0331 68.8042 78.1791 69.1934 78.1791C69.3772 78.1791 69.6313 78.1358 69.9556 78.0493C70.4854 77.8547 70.9665 77.5142 71.3989 77.0277C71.8206 76.4439 72.0584 75.9303 72.1125 75.4871C72.1125 75.4546 72.1341 75.3303 72.1773 75.1141C72.2206 74.8871 72.2368 74.7303 72.226 74.6438C72.0097 74.6979 71.6962 74.7411 71.2854 74.7735C70.8854 74.7952 70.5773 74.8276 70.361 74.8708C70.0799 74.9141 69.7934 75.0492 69.5015 75.2763C69.2096 75.4925 68.988 75.6979 68.8366 75.8925C68.6853 76.0871 68.4799 76.3628 68.2204 76.7196C68.0366 76.9466 68.0691 77.2872 68.3177 77.7412ZM79.0694 74.8871L79.1667 75.406C79.1342 75.5465 79.2045 75.8871 79.3775 76.4277C79.8099 75.9736 80.1126 75.5628 80.2856 75.1952C80.5235 74.9249 80.6262 74.6492 80.5937 74.3681C81.0694 74.0978 81.4803 73.9951 81.8262 74.06C82.0208 74.1141 82.2262 74.3573 82.4425 74.7898V76.3304L82.556 76.4277C82.7614 76.2114 83.0263 75.8925 83.3506 75.4709C83.6858 75.0492 83.8966 74.7844 83.9831 74.6762C84.3074 74.233 84.6155 73.9249 84.9074 73.7519C85.3615 73.8059 85.7021 73.9789 85.9291 74.2708C86.2426 74.8006 86.448 75.552 86.5453 76.525C86.5345 76.7196 86.5453 76.925 86.5778 77.1412C86.6102 77.3574 86.6588 77.5953 86.7237 77.8547C86.7886 78.1142 86.8318 78.3196 86.8534 78.471C86.9616 78.7737 86.9994 79.0494 86.967 79.298C86.9562 79.4386 86.8859 79.5305 86.7561 79.5737C86.6264 79.617 86.4913 79.6224 86.3507 79.5899C86.1129 79.5359 85.9075 79.3359 85.7345 78.9899C85.6588 78.8278 85.5885 78.671 85.5237 78.5196C85.4696 78.3575 85.4156 78.1629 85.3615 77.9358C85.3183 77.698 85.2858 77.5412 85.2642 77.4655C85.2534 77.3899 85.2264 77.1899 85.1831 76.8655C85.1399 76.5304 85.1182 76.352 85.1182 76.3304C85.0426 76.1141 84.9561 76.006 84.8588 76.006C84.8155 76.0276 84.7344 76.0925 84.6155 76.2006C84.4966 76.3087 84.3777 76.4223 84.2588 76.5412C84.1506 76.6493 84.0317 76.7736 83.902 76.9142C83.7722 77.0439 83.6966 77.1196 83.6749 77.1412L83.5128 77.3682L82.9128 78.1466L82.7506 78.3737C82.7073 78.4169 82.6263 78.5196 82.5073 78.6818C82.3992 78.8332 82.3019 78.9467 82.2154 79.0224C82.1397 79.098 82.0479 79.1575 81.9397 79.2007C81.7559 79.2332 81.583 79.217 81.4208 79.1521C81.2586 79.0764 81.1559 78.9521 81.1127 78.7791C81.0478 78.6926 81.0154 78.5899 81.0154 78.471V76.752H80.9829C80.9397 76.7304 80.9127 76.725 80.9019 76.7358C80.1559 77.7845 79.5775 78.671 79.1667 79.3953C79.0694 79.5251 78.9991 79.5899 78.9558 79.5899C78.491 79.644 78.2207 79.5791 78.145 79.3953C78.1126 79.3413 78.0693 79.2332 78.0153 79.071C77.9612 78.898 77.9342 78.8007 77.9342 78.7791V74.8384C77.9774 74.5465 78.118 74.4006 78.3558 74.4006C78.4856 74.4006 78.6207 74.4492 78.7612 74.5465C78.9018 74.6438 79.0045 74.7573 79.0694 74.8871ZM89.1694 74.9519C89.9478 73.9573 90.8019 73.3086 91.7317 73.0059C92.3263 72.9302 92.6398 72.8924 92.6723 72.8924C93.3426 72.914 93.9264 73.1194 94.4237 73.5086C94.921 73.887 95.1859 74.406 95.2183 75.0654C95.2291 75.6384 94.9967 76.1628 94.521 76.6385C94.0561 77.1142 93.5372 77.3736 92.9642 77.4169C92.7479 77.4926 92.5155 77.5304 92.2668 77.5304C91.7047 77.5304 91.083 77.325 90.4019 76.9142C90.1965 76.7088 90.0613 76.606 89.9965 76.606C89.9532 76.5844 89.9154 76.5844 89.883 76.606C89.5262 77.1466 89.3532 77.5574 89.364 77.8385C89.4829 78.5413 89.8613 79.1359 90.4992 79.6224C91.1371 80.1197 91.8128 80.3467 92.5263 80.3035C92.6344 80.3467 92.8236 80.3467 93.0939 80.3035C93.3642 80.2711 93.5426 80.244 93.6291 80.2224C93.7264 80.2008 93.9101 80.1467 94.1804 80.0602C94.4615 79.9846 94.6561 79.9305 94.7642 79.8981C95.1426 79.7467 95.6453 79.6494 96.2724 79.6062H96.3859C96.4616 79.5845 96.5319 79.6008 96.5967 79.6548C96.6616 79.7089 96.6994 79.79 96.7103 79.8981V80.4981C96.321 80.9414 95.8399 81.1792 95.267 81.2116C95.148 81.2441 94.9318 81.3035 94.6183 81.39C94.3156 81.4765 94.0831 81.536 93.921 81.5684C93.7696 81.6116 93.5642 81.6495 93.3047 81.6819C93.0561 81.7252 92.829 81.7414 92.6236 81.7306C91.6722 81.7738 90.7587 81.5306 89.883 81.0008C89.0829 80.59 88.4667 79.8764 88.0342 78.8602C87.8721 78.2223 87.8991 77.6007 88.1153 76.9953C88.3315 76.3898 88.6829 75.7087 89.1694 74.9519ZM90.4343 75.7303C90.6614 75.7303 90.856 75.7466 91.0181 75.779C91.1154 75.833 91.2073 75.8763 91.2938 75.9087C91.3911 75.9303 91.5046 75.952 91.6344 75.9736C91.7749 75.9844 91.8668 75.9898 91.9101 75.9898C91.9533 75.9898 92.0668 75.9898 92.2506 75.9898C92.4452 75.9898 92.5479 75.9898 92.5587 75.9898C93.1209 75.8168 93.4939 75.5736 93.6777 75.26C93.7101 75.1411 93.7101 75.0384 93.6777 74.9519C93.6561 74.8546 93.5966 74.7735 93.4993 74.7087C93.402 74.6438 93.3101 74.5952 93.2236 74.5627C93.1371 74.5303 93.0182 74.4924 92.8669 74.4492C92.7263 74.3951 92.6236 74.3573 92.5587 74.3357C92.2993 74.3357 92.0344 74.4114 91.7641 74.5627C91.4938 74.7033 91.2776 74.8438 91.1154 74.9844C90.9533 75.1249 90.7479 75.3195 90.4992 75.5682C90.4992 75.579 90.4884 75.606 90.4668 75.6493C90.4451 75.6817 90.4343 75.7087 90.4343 75.7303ZM97.438 78.4386C97.4596 78.3953 97.5083 78.3142 97.5839 78.1953C97.6596 78.0764 97.7137 77.9845 97.7461 77.9196C98.3083 78.0169 98.784 78.2548 99.1732 78.6332C99.3786 78.7845 99.6219 78.9034 99.9029 78.9899C100.195 79.0764 100.411 79.1305 100.552 79.1521C100.703 79.1629 100.995 79.1683 101.427 79.1683C101.86 79.1575 102.103 79.1521 102.157 79.1521C102.395 79.1521 102.703 79.0818 103.081 78.9413C103.19 78.898 103.254 78.8223 103.276 78.7142C103.298 78.6061 103.265 78.5142 103.179 78.4386C102.973 78.2872 102.438 78.0007 101.573 77.5791C100.719 77.1574 100.265 76.9304 100.211 76.8979C99.1083 76.5628 98.1461 76.0817 97.3245 75.4546C97.2704 75.379 97.1785 75.2925 97.0488 75.1952C96.9299 75.0871 96.8326 74.9844 96.7569 74.8871C96.6812 74.7789 96.6325 74.66 96.6109 74.5303C96.6001 74.1087 96.8055 73.7357 97.2272 73.4113C97.2812 73.3897 97.492 73.3248 97.8596 73.2167C98.2272 73.1086 98.4975 73.0005 98.6705 72.8924C99.6759 72.4924 100.633 72.2599 101.541 72.1951C101.562 72.1951 101.622 72.2005 101.719 72.2113C101.827 72.2221 101.887 72.2275 101.898 72.2275C101.919 72.2275 101.973 72.2329 102.06 72.2437C102.146 72.2545 102.2 72.2653 102.222 72.2761C102.244 72.287 102.287 72.3032 102.352 72.3248C102.417 72.3464 102.46 72.3734 102.481 72.4059C102.514 72.4275 102.552 72.4599 102.595 72.5032C102.638 72.5356 102.671 72.5789 102.692 72.6329C102.725 72.6762 102.752 72.7302 102.773 72.7951C102.838 73.1735 102.735 73.4816 102.465 73.7194C102.411 73.7194 102.238 73.7249 101.946 73.7357C101.654 73.7465 101.465 73.7573 101.379 73.7681C101.292 73.7681 101.13 73.7843 100.892 73.8167C100.654 73.8384 100.471 73.8654 100.341 73.8978C100.211 73.9303 100.06 73.9789 99.8867 74.0438C99.7137 74.1087 99.5516 74.1843 99.4002 74.2708C99.2489 74.3249 99.1462 74.4114 99.0921 74.5303C99.0489 74.6492 99.1137 74.7519 99.2867 74.8384C99.784 75.1844 100.519 75.579 101.492 76.0222C102.465 76.4655 103.13 76.7898 103.487 76.9953C103.844 77.2223 104.152 77.498 104.411 77.8223C104.682 78.1358 104.849 78.4926 104.914 78.8926C104.99 79.2926 104.822 79.6494 104.411 79.9629C104.152 80.1683 103.811 80.3251 103.39 80.4332C102.979 80.5413 102.649 80.6062 102.4 80.6278C102.152 80.6494 101.768 80.6657 101.249 80.6765C100.708 80.6981 100.13 80.617 99.5137 80.4332C98.8975 80.2494 98.3732 79.99 97.9407 79.6548C97.5083 79.4926 97.3407 79.0872 97.438 78.4386Z" fill="#1E1E1E"/>
<path d="M85.5684 158.765C119.628 157.375 151.078 160.585 189.998 158.765C207.968 156.575 215.758 164.395 213.328 182.105C211.928 193.965 215.138 210.695 213.328 228.775C214.908 243.615 208.548 252.365 189.998 252.115C161.278 252.685 137.388 251.835 85.5684 252.115C72.3784 250.725 59.1184 241.005 62.2284 228.775C63.1884 213.885 61.5684 198.695 62.2284 182.105C64.8784 167.425 67.9684 160.715 85.5684 158.765Z" fill="#E9ECEF"/>
<path d="M70.1412 266.12C114.561 268.87 155.071 265.06 212.571 266.12C220.751 263.97 220.841 267.32 221.201 274.74C223.011 280.41 222.471 282.82 221.201 291.99C224.191 297.99 217.181 297.32 212.571 300.62C159.341 297.6 101.621 298.33 70.1412 300.62C61.2912 297.29 62.6912 301.1 61.5212 291.99C61.4812 286.7 63.6612 280.51 61.5212 274.74C59.4812 270.94 66.2212 267.02 70.1412 266.12Z" fill="#A5D8FF"/>
<path d="M70.1413 266.12C120.911 265.96 171.821 265.66 212.571 266.12M70.1413 266.12C111.691 266.32 154.561 267.3 212.571 266.12M70.1413 266.12C64.7913 267.64 62.5613 270.61 61.5213 274.74M70.1413 266.12C64.3613 265.65 61.1913 267.65 61.5213 274.74M212.571 266.12C217.391 267.97 219.631 269.94 221.201 274.74M212.571 266.12C220.291 265.89 219.601 269.36 221.201 274.74M221.201 274.74C222.521 282.04 220.751 285.24 221.201 291.99M221.201 274.74C221.391 278 221.721 282.06 221.201 291.99M221.201 291.99C222.701 298.03 219.131 302.1 212.571 300.62M221.201 291.99C221.801 298.92 216.711 300.65 212.571 300.62M212.571 300.62C174.111 302.31 134.601 302.91 70.1413 300.62M212.571 300.62C168.731 299.65 125.751 299.35 70.1413 300.62M70.1413 300.62C63.3213 302.48 62.8313 297.41 61.5213 291.99M70.1413 300.62C64.5113 300.68 63.4413 295.67 61.5213 291.99M61.5213 291.99C60.0813 284.73 60.3613 277.61 61.5213 274.74M61.5213 291.99C60.8013 284.67 61.7913 278.1 61.5213 274.74" stroke="#1E1E1E" stroke-width="2" stroke-linecap="round"/>
<path d="M110.468 284.393C110.682 284.254 110.906 284.185 111.14 284.185C111.236 284.185 111.588 284.254 112.196 284.393L113.092 284.809H113.14C113.002 284.436 112.852 283.22 112.692 281.161C112.692 281.044 112.682 280.606 112.66 279.849C112.639 279.092 112.623 278.526 112.612 278.153C112.612 277.769 112.623 277.284 112.644 276.697C112.676 276.1 112.73 275.604 112.804 275.209C112.826 275.038 112.847 274.921 112.868 274.857L112.388 274.777H112.228C112.196 274.777 112.132 274.777 112.036 274.777C111.94 274.777 111.871 274.777 111.828 274.777C111.786 274.777 111.722 274.777 111.636 274.777C111.562 274.766 111.498 274.756 111.444 274.745C111.391 274.734 111.327 274.718 111.252 274.697C111.188 274.665 111.13 274.628 111.076 274.585C110.874 274.436 110.772 274.334 110.772 274.281V273.465C110.772 273.444 110.81 273.396 110.884 273.321C110.959 273.236 111.023 273.182 111.076 273.161C111.887 273.182 112.495 273.284 112.9 273.465C113.114 273.497 113.524 273.55 114.132 273.625C114.751 273.7 115.21 273.764 115.508 273.817C115.807 273.87 116.196 273.95 116.676 274.057C117.167 274.164 117.604 274.302 117.988 274.473C118.372 274.644 118.735 274.846 119.076 275.081C120.239 275.988 120.783 276.809 120.708 277.545C120.772 277.929 120.719 278.313 120.548 278.697C120.378 279.081 120.196 279.385 120.004 279.609C119.812 279.822 119.535 280.105 119.172 280.457C119.3 280.585 119.535 280.793 119.876 281.081C120.218 281.369 120.458 281.598 120.596 281.769C121.204 282.676 121.37 283.449 121.092 284.089C120.794 284.697 120.34 285.182 119.732 285.545C119.135 285.918 118.479 286.137 117.764 286.201C116.9 286.35 115.983 286.425 115.012 286.425C114.202 286.425 113.428 286.388 112.692 286.313C112.618 286.313 112.394 286.297 112.02 286.265C111.647 286.233 111.434 286.212 111.38 286.201C111.178 286.18 111.012 286.153 110.884 286.121C110.756 286.089 110.628 286.025 110.5 285.929C110.372 285.844 110.282 285.732 110.228 285.593C110.09 284.964 110.17 284.564 110.468 284.393ZM116.548 275.385C115.994 275.214 115.092 275.076 113.844 274.969C113.972 275.748 114.052 277.3 114.084 279.625C114.159 279.636 114.202 279.641 114.212 279.641C114.383 279.556 114.687 279.524 115.124 279.545C115.146 279.545 115.226 279.556 115.364 279.577C115.503 279.598 115.631 279.62 115.748 279.641C115.866 279.652 115.946 279.652 115.988 279.641C116.639 279.588 117.183 279.492 117.62 279.353C118.068 279.214 118.484 278.974 118.868 278.633C119.306 278.377 119.407 277.87 119.172 277.113C118.916 276.708 118.543 276.35 118.052 276.041C117.562 275.721 117.06 275.502 116.548 275.385ZM114.612 284.345C114.612 284.644 114.602 284.82 114.58 284.873C115.658 284.916 116.378 284.926 116.74 284.905C117.007 284.884 117.21 284.868 117.348 284.857C117.487 284.836 117.69 284.804 117.956 284.761C118.234 284.708 118.452 284.644 118.612 284.569C118.783 284.484 118.959 284.388 119.14 284.281C119.332 284.164 119.482 284.014 119.588 283.833C119.695 283.641 119.759 283.428 119.78 283.193C119.599 282.468 118.959 281.993 117.86 281.769C117.604 281.662 117.327 281.588 117.028 281.545C116.73 281.502 116.388 281.47 116.004 281.449C115.62 281.428 115.327 281.401 115.124 281.369C115.028 281.369 114.756 281.433 114.308 281.561C114.287 281.668 114.319 282.137 114.404 282.969C114.5 283.79 114.57 284.249 114.612 284.345ZM128.525 280.873L128.605 280.889C128.648 280.452 128.739 280.158 128.877 280.009C128.995 279.86 129.091 279.785 129.165 279.785C129.197 279.785 129.235 279.785 129.277 279.785C129.352 279.774 129.416 279.78 129.469 279.801C129.533 279.822 129.608 279.876 129.693 279.961C129.789 280.036 129.853 280.084 129.885 280.105C130.056 280.382 130.125 280.718 130.093 281.113C130.093 281.134 129.992 281.385 129.789 281.865C129.715 282.26 129.704 282.665 129.757 283.081C129.811 283.486 129.96 283.854 130.205 284.185C130.408 284.654 130.424 284.996 130.253 285.209C130.211 285.316 130.131 285.369 130.013 285.369C129.949 285.369 129.869 285.353 129.773 285.321C129.688 285.289 129.587 285.246 129.469 285.193C129.352 285.14 129.272 285.108 129.229 285.097C128.845 284.841 128.6 284.42 128.493 283.833C128.067 284.292 127.656 284.628 127.261 284.841C126.877 285.044 126.355 285.22 125.693 285.369C125.341 285.412 124.995 285.369 124.653 285.241C124.323 285.113 124.077 284.985 123.917 284.857C123.757 284.729 123.485 284.494 123.101 284.153C122.952 283.95 122.829 283.758 122.733 283.577C122.648 283.396 122.584 283.198 122.541 282.985C122.509 282.772 122.488 282.617 122.477 282.521C122.467 282.414 122.467 282.217 122.477 281.929C122.488 281.63 122.493 281.428 122.493 281.321C122.557 281.257 122.589 281.156 122.589 281.017V280.921C122.557 280.761 122.627 280.388 122.797 279.801C122.819 279.758 122.877 279.689 122.973 279.593C123.08 279.486 123.155 279.422 123.197 279.401C123.293 279.38 123.464 279.39 123.709 279.433C123.955 279.476 124.088 279.497 124.109 279.497C124.195 279.518 124.259 279.556 124.301 279.609C124.355 279.662 124.387 279.732 124.397 279.817C124.419 279.892 124.429 279.961 124.429 280.025C124.429 280.089 124.424 280.174 124.413 280.281C124.413 280.388 124.413 280.462 124.413 280.505C124.413 280.526 124.397 280.564 124.365 280.617L124.317 280.713C124.104 281.172 123.997 281.652 123.997 282.153C123.965 282.43 124.035 282.718 124.205 283.017C124.376 283.305 124.584 283.55 124.829 283.753C125.341 283.87 125.656 283.929 125.773 283.929C125.997 283.929 126.221 283.87 126.445 283.753C126.616 283.689 126.776 283.604 126.925 283.497C127.085 283.38 127.213 283.273 127.309 283.177C127.416 283.07 127.533 282.921 127.661 282.729C127.8 282.537 127.896 282.398 127.949 282.313C128.003 282.217 128.099 282.046 128.237 281.801C128.376 281.556 128.467 281.401 128.509 281.337C128.509 281.284 128.509 281.204 128.509 281.097C128.52 280.99 128.525 280.916 128.525 280.873ZM132.851 291.065V290.873C132.936 290.67 133.176 290.041 133.571 288.985C133.976 287.929 134.243 287.241 134.371 286.921C134.648 286.217 134.814 285.657 134.867 285.241L134.643 285.225C134.494 285.214 134.403 285.214 134.371 285.225C134.072 285.3 133.838 285.337 133.667 285.337C133.347 285.337 133.043 285.23 132.755 285.017C132.168 284.782 131.694 284.174 131.331 283.193C131.256 282.884 131.219 282.558 131.219 282.217C131.219 281.865 131.235 281.556 131.267 281.289C131.31 281.022 131.358 280.697 131.411 280.313C131.475 279.918 131.518 279.593 131.539 279.337C131.635 278.985 131.896 278.809 132.323 278.809C132.504 278.809 132.68 278.852 132.851 278.937C133.118 279.118 133.224 279.337 133.171 279.593C133.16 279.668 133.054 279.854 132.851 280.153C132.68 280.676 132.616 281.454 132.659 282.489C132.67 282.798 132.814 283.065 133.091 283.289C133.379 283.502 133.688 283.646 134.019 283.721C134.147 283.71 134.264 283.684 134.371 283.641C134.488 283.598 134.606 283.534 134.723 283.449C134.84 283.353 134.931 283.278 134.995 283.225C135.059 283.161 135.16 283.054 135.299 282.905C135.448 282.745 135.544 282.638 135.587 282.585C135.779 282.361 135.95 282.084 136.099 281.753C136.259 281.412 136.371 281.15 136.435 280.969C136.499 280.777 136.59 280.473 136.707 280.057C136.718 280.004 136.734 279.924 136.755 279.817C136.787 279.7 136.814 279.609 136.835 279.545C136.856 279.47 136.888 279.396 136.931 279.321C136.984 279.246 137.043 279.188 137.107 279.145C137.363 279.006 137.619 278.937 137.875 278.937C138.174 278.937 138.424 279.038 138.627 279.241C138.851 279.561 138.75 280.036 138.323 280.665C138.12 281.07 137.784 281.678 137.315 282.489C137.272 282.542 137.208 282.654 137.123 282.825C137.048 282.985 137.011 283.076 137.011 283.097C136.659 284.025 136.424 284.734 136.307 285.225C136.179 285.577 135.944 286.217 135.603 287.145C135.272 288.073 135 288.809 134.787 289.353C134.691 289.545 134.622 289.742 134.579 289.945C134.547 290.158 134.515 290.425 134.483 290.745C134.451 291.076 134.414 291.358 134.371 291.593C134.35 291.881 134.248 292.084 134.067 292.201C133.907 292.265 133.742 292.297 133.571 292.297C133.4 292.297 133.262 292.265 133.155 292.201C132.952 291.796 132.851 291.417 132.851 291.065ZM150.847 281.033C150.143 281.63 149.503 282.372 148.927 283.257C148.906 283.3 148.767 283.534 148.511 283.961C148.266 284.377 148.1 284.681 148.015 284.873C147.898 285.065 147.727 285.134 147.503 285.081L146.799 284.361V283.865C146.852 283.588 146.911 283.049 146.975 282.249C147.039 281.449 147.082 280.974 147.103 280.825C147.103 280.772 147.098 280.724 147.087 280.681L147.023 280.265C147.012 280.222 147.007 280.174 147.007 280.121V280.057C147.007 279.886 147.06 279.748 147.167 279.641C147.284 279.534 147.428 279.486 147.599 279.497C147.94 279.497 148.18 279.604 148.319 279.817C148.394 280.105 148.431 280.478 148.431 280.937C148.431 281.033 148.426 281.156 148.415 281.305C148.415 281.444 148.415 281.518 148.415 281.529C148.5 281.465 148.671 281.305 148.927 281.049C149.194 280.782 149.359 280.606 149.423 280.521C149.498 280.425 149.588 280.297 149.695 280.137C149.812 279.966 149.924 279.822 150.031 279.705C150.138 279.577 150.266 279.454 150.415 279.337C150.468 279.262 150.532 279.209 150.607 279.177C150.682 279.134 150.751 279.113 150.815 279.113C150.89 279.102 150.97 279.097 151.055 279.097C151.14 279.097 151.226 279.097 151.311 279.097C151.428 279.054 151.546 279.065 151.663 279.129C151.791 279.182 151.924 279.3 152.063 279.481C152.202 279.652 152.287 279.769 152.319 279.833C152.362 279.897 152.447 280.03 152.575 280.233C152.906 281.001 153.071 281.838 153.071 282.745L153.375 284.057C153.375 284.089 153.407 284.196 153.471 284.377C153.546 284.558 153.583 284.654 153.583 284.665C153.604 284.953 153.535 285.156 153.375 285.273C153.343 285.284 153.263 285.316 153.135 285.369C153.018 285.412 152.927 285.433 152.863 285.433C152.756 285.433 152.692 285.38 152.671 285.273C152.65 285.241 152.575 285.124 152.447 284.921C152.33 284.708 152.234 284.558 152.159 284.473C151.956 283.769 151.823 283.092 151.759 282.441C151.727 282.366 151.679 282.206 151.615 281.961C151.562 281.705 151.508 281.529 151.455 281.433C151.231 281.177 151.082 281.038 151.007 281.017C150.922 281.017 150.868 281.022 150.847 281.033ZM154.364 283.257V281.529C154.289 281.412 154.252 281.241 154.252 281.017C154.252 280.793 154.289 280.628 154.364 280.521C154.524 280.404 154.711 280.281 154.924 280.153C155.137 280.025 155.372 279.886 155.628 279.737C155.884 279.588 156.071 279.476 156.188 279.401C156.636 279.134 157.196 279.001 157.868 279.001C158.657 279.001 159.415 279.172 160.14 279.513C160.876 279.854 161.484 280.324 161.964 280.921C162.519 281.678 162.652 282.388 162.364 283.049C161.681 284.222 160.668 284.964 159.324 285.273C159.153 285.337 158.961 285.385 158.748 285.417C158.545 285.449 158.38 285.465 158.252 285.465C158.124 285.476 157.921 285.476 157.644 285.465C157.367 285.465 157.185 285.465 157.1 285.465C156.556 285.348 156.177 285.262 155.964 285.209C155.761 285.156 155.543 285.049 155.308 284.889C155.073 284.718 154.897 284.521 154.78 284.297C154.673 284.073 154.535 283.726 154.364 283.257ZM155.884 283.257C155.959 283.406 156.081 283.572 156.252 283.753C156.423 283.924 156.572 284.025 156.7 284.057C156.945 284.185 157.297 284.249 157.756 284.249C158.183 284.249 158.625 284.19 159.084 284.073C159.553 283.945 159.985 283.732 160.38 283.433C160.775 283.124 160.999 282.761 161.052 282.345C161.063 282.217 161.068 282.116 161.068 282.041C161.068 281.966 161.031 281.881 160.956 281.785C160.892 281.678 160.833 281.598 160.78 281.545C160.727 281.492 160.652 281.422 160.556 281.337C160.46 281.252 160.391 281.182 160.348 281.129C159.441 280.628 158.753 280.377 158.284 280.377C158.049 280.377 157.825 280.425 157.612 280.521C157.516 280.553 157.415 280.622 157.308 280.729C156.999 281.017 156.796 281.182 156.7 281.225C156.668 281.257 156.604 281.316 156.508 281.401C156.423 281.486 156.348 281.561 156.284 281.625C156.22 281.678 156.156 281.748 156.092 281.833C156.039 281.908 156.007 281.977 155.996 282.041C155.932 282.158 155.895 282.292 155.884 282.441C155.873 282.59 155.873 282.729 155.884 282.857C155.905 282.974 155.905 283.108 155.884 283.257ZM163.127 280.777C163.138 280.702 163.143 280.59 163.143 280.441C163.154 280.281 163.165 280.158 163.175 280.073C163.186 279.977 163.202 279.881 163.223 279.785C163.255 279.689 163.293 279.62 163.335 279.577C163.559 279.385 163.879 279.246 164.295 279.161C164.37 279.15 164.445 279.166 164.519 279.209C164.594 279.241 164.653 279.278 164.695 279.321C164.749 279.364 164.813 279.428 164.887 279.513C164.962 279.588 165.015 279.641 165.047 279.673C165.047 279.769 165.063 279.929 165.095 280.153C165.127 280.377 165.143 280.548 165.143 280.665C165.154 280.782 165.122 280.921 165.047 281.081C164.866 281.337 164.733 281.812 164.647 282.505C164.626 282.878 164.626 283.284 164.647 283.721C164.669 283.796 164.717 283.833 164.791 283.833C164.941 283.748 165.149 283.529 165.415 283.177C165.682 282.825 165.831 282.633 165.863 282.601L165.959 282.409C165.97 282.377 165.991 282.281 166.023 282.121C166.066 281.961 166.114 281.854 166.167 281.801C166.359 281.598 166.733 281.46 167.287 281.385C167.373 281.385 167.453 281.412 167.527 281.465C167.602 281.518 167.655 281.572 167.687 281.625C167.73 281.678 167.783 281.764 167.847 281.881C167.922 281.998 167.97 282.073 167.991 282.105C168.119 282.553 168.183 282.889 168.183 283.113L168.391 283.321H168.695C168.983 283.076 169.25 282.814 169.495 282.537C169.751 282.249 170.055 281.87 170.407 281.401C170.77 280.921 171.01 280.612 171.127 280.473C171.181 280.377 171.415 280.041 171.831 279.465L172.631 278.665C172.706 278.601 172.786 278.564 172.871 278.553C172.967 278.542 173.074 278.542 173.191 278.553C173.309 278.564 173.394 278.564 173.447 278.553C173.693 278.734 173.725 279.076 173.543 279.577C172.594 280.814 171.789 281.822 171.127 282.601C170.626 283.337 169.997 284.073 169.239 284.809C168.866 285.161 168.413 285.337 167.879 285.337C167.399 285.166 167.031 284.793 166.775 284.217L166.663 284.121C166.471 284.228 166.189 284.478 165.815 284.873C165.453 285.257 165.133 285.508 164.855 285.625C164.823 285.625 164.754 285.625 164.647 285.625C164.551 285.636 164.471 285.641 164.407 285.641C164.354 285.641 164.29 285.63 164.215 285.609C164.141 285.588 164.082 285.561 164.039 285.529C163.751 285.348 163.517 284.948 163.335 284.329C163.271 284.073 163.229 283.785 163.207 283.465C163.197 283.145 163.202 282.862 163.223 282.617C163.245 282.361 163.245 282.068 163.223 281.737V281.289C163.223 281.278 163.207 281.198 163.175 281.049C163.143 280.889 163.127 280.798 163.127 280.777Z" fill="#1E1E1E"/>
<path d="M201.996 61.4509C204.876 61.4809 209.136 63.6709 211.496 65.8909C213.846 68.1009 215.636 71.6709 216.116 74.7409C216.596 77.8009 216.006 81.7209 214.396 84.2809C212.786 86.8409 209.456 89.2109 206.456 90.1009C203.466 91.0009 199.326 90.7509 196.426 89.6709C193.526 88.5809 190.556 86.2009 189.076 83.5909C187.586 80.9809 186.866 77.1009 187.516 74.0109C188.166 70.9209 190.436 67.0409 192.946 65.0609C195.456 63.0809 200.966 62.5609 202.596 62.1209C204.216 61.6909 202.716 62.1809 202.706 62.4509M202.216 61.8609C204.996 61.6909 208.946 63.0109 211.126 65.0109C213.306 67.0109 214.716 70.6209 215.276 73.8709C215.846 77.1109 216.036 81.7309 214.516 84.4909C212.996 87.2409 209.176 89.3909 206.156 90.3909C203.136 91.3809 199.296 91.6409 196.406 90.4509C193.526 89.2609 190.226 86.2109 188.846 83.2509C187.466 80.2809 187.426 75.6309 188.126 72.6909C188.826 69.7409 190.716 67.4209 193.066 65.5709C195.416 63.7209 200.706 62.1909 202.206 61.6109C203.716 61.0309 202.096 61.8209 202.086 62.0909" fill="#E9ECEF"/>
<path d="M199.876 61.3908C202.836 60.9908 207.266 62.6808 209.836 64.5008C212.406 66.3208 214.376 69.3508 215.286 72.3108C216.196 75.2708 216.466 79.3408 215.286 82.2508C214.106 85.1608 211.016 88.3108 208.196 89.7708C205.386 91.2308 201.416 91.7608 198.406 91.0008C195.396 90.2408 191.996 87.7908 190.146 85.2108C188.286 82.6408 186.996 78.6308 187.256 75.5508C187.506 72.4708 189.456 68.9408 191.686 66.7108C193.926 64.4808 199.006 62.8908 200.656 62.1808C202.306 61.4708 201.526 62.2708 201.576 62.4408M199.066 62.2108C201.726 61.3108 204.846 62.1108 207.476 63.5808C210.106 65.0508 213.446 68.1908 214.826 71.0208C216.196 73.8508 216.556 77.5608 215.706 80.5508C214.856 83.5508 212.346 87.1808 209.736 88.9808C207.136 90.7808 203.146 91.8208 200.076 91.3608C197.006 90.9008 193.446 88.5508 191.316 86.2308C189.186 83.9108 187.546 80.5408 187.286 77.4508C187.036 74.3608 187.826 70.2308 189.786 67.6808C191.756 65.1408 197.716 63.1508 199.076 62.1808C200.436 61.2208 197.966 61.7108 197.926 61.9108" stroke="#1E1E1E" stroke-width="2" stroke-linecap="round"/>
<path d="M200.435 60.7698C198.855 54.8798 197.165 33.4798 190.295 26.7798C183.435 20.0698 164.415 21.6398 159.255 20.5398M199.235 59.6398C197.615 53.9198 196.715 31.3498 189.965 25.0098C183.205 18.6798 163.725 22.3398 158.705 21.6498" stroke="#1E1E1E" stroke-width="2" stroke-linecap="round"/>
<path d="M173.025 16.0798C168.765 19.2398 165.725 19.8798 158.705 21.6498ZM173.025 16.0798C169.165 16.8298 164.975 19.3898 158.705 21.6498Z" stroke="#1E1E1E" stroke-width="2" stroke-linecap="round"/>
<path d="M173.255 26.5899C168.825 26.7299 165.715 24.3399 158.705 21.6499ZM173.255 26.5899C169.295 24.5399 165.035 24.3099 158.705 21.6499Z" stroke="#1E1E1E" stroke-width="2" stroke-linecap="round"/>
<path d="M11.216 19.1841C11.2267 18.5441 11.264 17.6854 11.328 16.6081C11.392 15.5201 11.4293 14.7628 11.44 14.3361C11.4293 13.8134 11.4507 12.8374 11.504 11.4081C11.5573 9.97878 11.568 8.93345 11.536 8.27211C11.6213 7.99478 11.7813 7.85611 12.016 7.85611C12.3147 7.85611 12.56 8.02678 12.752 8.36811C12.752 8.50678 12.7573 8.63478 12.768 8.75211L12.832 9.90411C12.8427 10.0214 12.848 10.1494 12.848 10.2881C12.8267 11.2908 12.7573 12.7574 12.64 14.6881C12.5333 16.6188 12.4693 17.9841 12.448 18.7841C12.4587 18.9334 12.4747 19.1628 12.496 19.4721C12.5173 19.7814 12.5333 20.0108 12.544 20.1601C12.5653 20.2988 12.592 20.4801 12.624 20.7041C12.6667 20.9174 12.72 21.1148 12.784 21.2961C12.8587 21.4668 12.9493 21.6374 13.056 21.8081C13.0667 21.9574 13.0293 22.0908 12.944 22.2081C12.8053 22.2934 12.6293 22.3361 12.416 22.3361C12.1707 22.3361 11.9787 22.2934 11.84 22.2081C11.6587 22.0161 11.52 21.7761 11.424 21.4881C11.328 21.2001 11.2693 20.9761 11.248 20.8161C11.2267 20.6561 11.216 20.3628 11.216 19.9361C11.216 19.4988 11.216 19.2481 11.216 19.1841ZM14.6671 19.8881V18.1601C14.5925 18.0428 14.5551 17.8721 14.5551 17.6481C14.5551 17.4241 14.5925 17.2588 14.6671 17.1521C14.8271 17.0348 15.0138 16.9121 15.2271 16.7841C15.4405 16.6561 15.6751 16.5174 15.9311 16.3681C16.1871 16.2188 16.3738 16.1068 16.4911 16.0321C16.9391 15.7654 17.4991 15.6321 18.1711 15.6321C18.9605 15.6321 19.7178 15.8028 20.4431 16.1441C21.1791 16.4854 21.7871 16.9548 22.2671 17.5521C22.8218 18.3094 22.9551 19.0188 22.6671 19.6801C21.9845 20.8534 20.9711 21.5948 19.6271 21.9041C19.4565 21.9681 19.2645 22.0161 19.0511 22.0481C18.8485 22.0801 18.6831 22.0961 18.5551 22.0961C18.4271 22.1068 18.2245 22.1068 17.9471 22.0961C17.6698 22.0961 17.4885 22.0961 17.4031 22.0961C16.8591 21.9788 16.4805 21.8934 16.2671 21.8401C16.0645 21.7868 15.8458 21.6801 15.6111 21.5201C15.3765 21.3494 15.2005 21.1521 15.0831 20.9281C14.9765 20.7041 14.8378 20.3574 14.6671 19.8881ZM16.1871 19.8881C16.2618 20.0374 16.3845 20.2028 16.5551 20.3841C16.7258 20.5548 16.8751 20.6561 17.0031 20.6881C17.2485 20.8161 17.6005 20.8801 18.0591 20.8801C18.4858 20.8801 18.9285 20.8214 19.3871 20.7041C19.8565 20.5761 20.2885 20.3628 20.6831 20.0641C21.0778 19.7548 21.3018 19.3921 21.3551 18.9761C21.3658 18.8481 21.3711 18.7468 21.3711 18.6721C21.3711 18.5974 21.3338 18.5121 21.2591 18.4161C21.1951 18.3094 21.1365 18.2294 21.0831 18.1761C21.0298 18.1228 20.9551 18.0534 20.8591 17.9681C20.7631 17.8828 20.6938 17.8134 20.6511 17.7601C19.7445 17.2588 19.0565 17.0081 18.5871 17.0081C18.3525 17.0081 18.1285 17.0561 17.9151 17.1521C17.8191 17.1841 17.7178 17.2534 17.6111 17.3601C17.3018 17.6481 17.0991 17.8134 17.0031 17.8561C16.9711 17.8881 16.9071 17.9468 16.8111 18.0321C16.7258 18.1174 16.6511 18.1921 16.5871 18.2561C16.5231 18.3094 16.4591 18.3788 16.3951 18.4641C16.3418 18.5388 16.3098 18.6081 16.2991 18.6721C16.2351 18.7894 16.1978 18.9228 16.1871 19.0721C16.1765 19.2214 16.1765 19.3601 16.1871 19.4881C16.2085 19.6054 16.2085 19.7388 16.1871 19.8881ZM24.2945 25.5521C24.5398 25.3601 24.7852 25.2641 25.0305 25.2641C25.2225 25.2641 25.3825 25.3281 25.5105 25.4561C25.5638 25.5094 25.7025 25.6694 25.9265 25.9361C26.1505 26.2134 26.3478 26.4161 26.5185 26.5441C26.6892 26.6721 26.8758 26.7521 27.0785 26.7841C27.1105 26.7841 27.1318 26.7788 27.1425 26.7681C27.3665 26.6614 27.5265 26.4748 27.6225 26.2081C27.7185 25.9414 27.7825 25.6054 27.8145 25.2001C27.8572 24.7948 27.8998 24.5121 27.9425 24.3521C27.9852 24.0748 28.0438 23.6214 28.1185 22.9921C28.2038 22.3628 28.2732 21.9094 28.3265 21.6321H28.1505C27.5958 21.7601 27.0518 21.8241 26.5185 21.8241C26.0065 21.8241 25.4678 21.7601 24.9025 21.6321C24.4652 21.3761 24.0865 21.0561 23.7665 20.6721C23.4572 20.2774 23.2972 19.8508 23.2865 19.3921C23.3292 18.9228 23.5745 18.4588 24.0225 18.0001C24.4705 17.5308 24.9345 17.1894 25.4145 16.9761C25.8092 16.6454 26.2998 16.4801 26.8865 16.4801C27.6438 16.4801 28.1985 16.7414 28.5505 17.2641C28.5505 17.3281 28.5505 17.4294 28.5505 17.5681C28.5612 17.6961 28.5612 17.7974 28.5505 17.8721C28.5505 17.9361 28.5185 18.0001 28.4545 18.0641C28.3905 18.1281 28.2892 18.1654 28.1505 18.1761C28.0225 18.1014 27.6758 18.0321 27.1105 17.9681C26.4385 17.9254 25.7718 18.2988 25.1105 19.0881C25.0572 19.1414 25.0198 19.2001 24.9985 19.2641C24.9772 19.3281 24.9772 19.3921 24.9985 19.4561C25.0198 19.5201 25.0412 19.5788 25.0625 19.6321C25.0945 19.6854 25.1372 19.7441 25.1905 19.8081C25.2545 19.8614 25.3025 19.9094 25.3345 19.9521C25.3772 19.9841 25.4305 20.0321 25.4945 20.0961C25.5585 20.1494 25.6012 20.1868 25.6225 20.2081C25.9425 20.3361 26.2945 20.4001 26.6785 20.4001C27.0198 20.4001 27.3665 20.3468 27.7185 20.2401C28.0812 20.1228 28.4065 19.9361 28.6945 19.6801C28.9825 19.4241 29.1372 19.1254 29.1585 18.7841C29.2545 18.3148 29.5265 18.0108 29.9745 17.8721H30.0225C30.0438 17.8828 30.0918 17.8988 30.1665 17.9201C30.2518 17.9414 30.3052 17.9574 30.3265 17.9681C30.3478 17.9681 30.3905 17.9788 30.4545 18.0001C30.5185 18.0214 30.5612 18.0374 30.5825 18.0481C30.6145 18.0588 30.6518 18.0801 30.6945 18.1121C30.7478 18.1334 30.7798 18.1601 30.7905 18.1921C30.8118 18.2134 30.8332 18.2454 30.8545 18.2881C30.8865 18.3201 30.9025 18.3574 30.9025 18.4001C30.9025 18.4321 30.9025 18.4748 30.9025 18.5281C30.9025 18.5814 30.8972 18.6348 30.8865 18.6881C30.9078 19.0081 30.7638 19.4508 30.4545 20.0161C30.1558 20.5708 29.9798 20.9654 29.9265 21.2001C29.4572 22.7148 29.1318 24.2028 28.9505 25.6641C28.8758 26.5814 28.7105 27.2534 28.4545 27.6801C28.1345 28.1601 27.8732 28.4694 27.6705 28.6081C27.5105 28.7041 27.3345 28.7681 27.1425 28.8001C26.6092 28.5868 25.9638 28.1814 25.2065 27.5841C24.9718 27.4668 24.7905 27.3708 24.6625 27.2961C24.5452 27.2214 24.4172 27.1094 24.2785 26.9601C24.1398 26.8108 24.0438 26.6454 23.9905 26.4641C23.9692 26.0161 24.0705 25.7121 24.2945 25.5521ZM31.3021 13.1041C31.3661 12.9441 31.4781 12.8161 31.6381 12.7201C31.8088 12.6134 31.9848 12.5708 32.1661 12.5921C32.2301 12.5814 32.2888 12.5814 32.3421 12.5921C32.3955 12.6028 32.4488 12.6241 32.5021 12.6561C32.5661 12.6881 32.6141 12.7148 32.6461 12.7361C32.6781 12.7574 32.7208 12.8054 32.7741 12.8801C32.8381 12.9548 32.8808 13.0028 32.9021 13.0241C32.9235 13.0348 32.9661 13.0881 33.0301 13.1841L33.1261 13.3121C33.1688 13.4188 33.3715 13.6534 33.7341 14.0161C33.8088 14.1228 33.8461 14.2508 33.8461 14.4001C33.8568 14.5388 33.8195 14.6508 33.7341 14.7361H33.3821C33.2008 14.7681 33.0141 14.7574 32.8221 14.7041C32.6408 14.6508 32.3955 14.5441 32.0861 14.3841C31.7875 14.2241 31.6275 14.1388 31.6061 14.1281C31.4248 14.0214 31.3021 13.8721 31.2381 13.6801C31.1848 13.4774 31.2061 13.2854 31.3021 13.1041ZM32.3261 21.2161C32.3048 21.0881 32.2728 20.8108 32.2301 20.3841C32.1875 19.9468 32.1448 19.4934 32.1021 19.0241C32.0595 18.5441 32.0328 18.2614 32.0221 18.1761C32.0008 17.8881 32.0008 17.5841 32.0221 17.2641C32.1821 16.9868 32.4488 16.8854 32.8221 16.9601C32.9608 17.0241 33.0995 17.2268 33.2381 17.5681C33.2381 17.7921 33.2541 18.0268 33.2861 18.2721C33.3288 18.5174 33.3661 18.7254 33.3981 18.8961C33.4408 19.0668 33.4995 19.2908 33.5741 19.5681C33.6488 19.8454 33.7021 20.0588 33.7341 20.2081C33.7341 20.2934 33.7235 20.4321 33.7021 20.6241C33.6915 20.8054 33.6755 20.9814 33.6541 21.1521C33.6435 21.3228 33.6381 21.4134 33.6381 21.4241C33.6275 21.4561 33.6115 21.5148 33.5901 21.6001C33.5795 21.6854 33.5635 21.7548 33.5421 21.8081C33.5315 21.8614 33.5048 21.9201 33.4621 21.9841C33.4301 22.0374 33.3875 22.0801 33.3341 22.1121C33.0461 22.1654 32.8115 22.1014 32.6301 21.9201C32.4488 21.6001 32.3475 21.3654 32.3261 21.2161ZM38.9941 17.6641C38.2901 18.2614 37.6501 19.0028 37.0741 19.8881C37.0528 19.9308 36.9141 20.1654 36.6581 20.5921C36.4128 21.0081 36.2475 21.3121 36.1621 21.5041C36.0448 21.6961 35.8741 21.7654 35.6501 21.7121L34.9461 20.9921V20.4961C34.9995 20.2188 35.0581 19.6801 35.1221 18.8801C35.1861 18.0801 35.2288 17.6054 35.2501 17.4561C35.2501 17.4028 35.2448 17.3548 35.2341 17.3121L35.1701 16.8961C35.1595 16.8534 35.1541 16.8054 35.1541 16.7521V16.6881C35.1541 16.5174 35.2075 16.3788 35.3141 16.2721C35.4315 16.1654 35.5755 16.1174 35.7461 16.1281C36.0875 16.1281 36.3275 16.2348 36.4661 16.4481C36.5408 16.7361 36.5781 17.1094 36.5781 17.5681C36.5781 17.6641 36.5728 17.7868 36.5621 17.9361C36.5621 18.0748 36.5621 18.1494 36.5621 18.1601C36.6475 18.0961 36.8181 17.9361 37.0741 17.6801C37.3408 17.4134 37.5061 17.2374 37.5701 17.1521C37.6448 17.0561 37.7355 16.9281 37.8421 16.7681C37.9595 16.5974 38.0715 16.4534 38.1781 16.3361C38.2848 16.2081 38.4128 16.0854 38.5621 15.9681C38.6155 15.8934 38.6795 15.8401 38.7541 15.8081C38.8288 15.7654 38.8981 15.7441 38.9621 15.7441C39.0368 15.7334 39.1168 15.7281 39.2021 15.7281C39.2875 15.7281 39.3728 15.7281 39.4581 15.7281C39.5755 15.6854 39.6928 15.6961 39.8101 15.7601C39.9381 15.8134 40.0715 15.9308 40.2101 16.1121C40.3488 16.2828 40.4341 16.4001 40.4661 16.4641C40.5088 16.5281 40.5941 16.6614 40.7221 16.8641C41.0528 17.6321 41.2181 18.4694 41.2181 19.3761L41.5221 20.6881C41.5221 20.7201 41.5541 20.8268 41.6181 21.0081C41.6928 21.1894 41.7301 21.2854 41.7301 21.2961C41.7515 21.5841 41.6821 21.7868 41.5221 21.9041C41.4901 21.9148 41.4101 21.9468 41.2821 22.0001C41.1648 22.0428 41.0741 22.0641 41.0101 22.0641C40.9035 22.0641 40.8395 22.0108 40.8181 21.9041C40.7968 21.8721 40.7221 21.7548 40.5941 21.5521C40.4768 21.3388 40.3808 21.1894 40.3061 21.1041C40.1035 20.4001 39.9701 19.7228 39.9061 19.0721C39.8741 18.9974 39.8261 18.8374 39.7621 18.5921C39.7088 18.3361 39.6555 18.1601 39.6021 18.0641C39.3781 17.8081 39.2288 17.6694 39.1541 17.6481C39.0688 17.6481 39.0155 17.6534 38.9941 17.6641ZM41.8549 22.3841C42.1215 22.0001 42.6602 21.1788 43.4709 19.9201C44.2922 18.6614 44.9482 17.7281 45.4389 17.1201C45.7375 16.5441 46.2815 15.5788 47.0709 14.2241C47.8709 12.8588 48.4362 11.8241 48.7669 11.1201C49.0229 10.5121 49.2042 10.1334 49.3109 9.98411L49.3909 9.50411C49.4549 9.26945 49.4975 9.14145 49.5189 9.12011C49.7535 8.85345 50.0042 8.70411 50.2709 8.67211C50.6229 8.64011 50.9162 8.81611 51.1509 9.20011C51.2469 9.52011 51.2415 9.90411 51.1349 10.3521C51.0389 10.7894 50.9002 11.0561 50.7189 11.1521C50.5695 11.0774 50.4202 11.1414 50.2709 11.3441C50.1215 11.5468 49.9242 11.8668 49.6789 12.3041C49.4335 12.7308 49.1989 13.0774 48.9749 13.3441C48.0042 15.1468 47.1135 16.6988 46.3029 18.0001C45.5029 19.3014 44.5589 20.6401 43.4709 22.0161C43.3749 22.1228 43.2682 22.2614 43.1509 22.4321C43.0442 22.6028 42.9429 22.7414 42.8469 22.8481C42.7615 22.9654 42.6549 23.0561 42.5269 23.1201C42.4842 23.1628 42.4202 23.1948 42.3349 23.2161C42.2922 23.2268 42.2495 23.2268 42.2069 23.2161C42.1642 23.2054 42.1215 23.1788 42.0789 23.1361C42.0362 23.0934 42.0042 23.0614 41.9829 23.0401C41.9509 23.0188 41.9082 22.9708 41.8549 22.8961C41.8015 22.8321 41.7695 22.7948 41.7589 22.7841C41.7482 22.6668 41.7802 22.5334 41.8549 22.3841ZM51.2629 19.1841C51.2735 18.5441 51.3109 17.6854 51.3749 16.6081C51.4389 15.5201 51.4762 14.7628 51.4869 14.3361C51.4762 13.8134 51.4975 12.8374 51.5509 11.4081C51.6042 9.97878 51.6149 8.93345 51.5829 8.27211C51.6682 7.99478 51.8282 7.85611 52.0629 7.85611C52.3615 7.85611 52.6069 8.02678 52.7989 8.36811C52.7989 8.50678 52.8042 8.63478 52.8149 8.75211L52.8789 9.90411C52.8895 10.0214 52.8949 10.1494 52.8949 10.2881C52.8735 11.2908 52.8042 12.7574 52.6869 14.6881C52.5802 16.6188 52.5162 17.9841 52.4949 18.7841C52.5055 18.9334 52.5215 19.1628 52.5429 19.4721C52.5642 19.7814 52.5802 20.0108 52.5909 20.1601C52.6122 20.2988 52.6389 20.4801 52.6709 20.7041C52.7135 20.9174 52.7669 21.1148 52.8309 21.2961C52.9055 21.4668 52.9962 21.6374 53.1029 21.8081C53.1135 21.9574 53.0762 22.0908 52.9909 22.2081C52.8522 22.2934 52.6762 22.3361 52.4629 22.3361C52.2175 22.3361 52.0255 22.2934 51.8869 22.2081C51.7055 22.0161 51.5669 21.7761 51.4709 21.4881C51.3749 21.2001 51.3162 20.9761 51.2949 20.8161C51.2735 20.6561 51.2629 20.3628 51.2629 19.9361C51.2629 19.4988 51.2629 19.2481 51.2629 19.1841ZM54.714 19.8881V18.1601C54.6393 18.0428 54.602 17.8721 54.602 17.6481C54.602 17.4241 54.6393 17.2588 54.714 17.1521C54.874 17.0348 55.0607 16.9121 55.274 16.7841C55.4873 16.6561 55.722 16.5174 55.978 16.3681C56.234 16.2188 56.4207 16.1068 56.538 16.0321C56.986 15.7654 57.546 15.6321 58.218 15.6321C59.0073 15.6321 59.7647 15.8028 60.49 16.1441C61.226 16.4854 61.834 16.9548 62.314 17.5521C62.8687 18.3094 63.002 19.0188 62.714 19.6801C62.0313 20.8534 61.018 21.5948 59.674 21.9041C59.5033 21.9681 59.3113 22.0161 59.098 22.0481C58.8953 22.0801 58.73 22.0961 58.602 22.0961C58.474 22.1068 58.2713 22.1068 57.994 22.0961C57.7167 22.0961 57.5353 22.0961 57.45 22.0961C56.906 21.9788 56.5273 21.8934 56.314 21.8401C56.1113 21.7868 55.8927 21.6801 55.658 21.5201C55.4233 21.3494 55.2473 21.1521 55.13 20.9281C55.0233 20.7041 54.8847 20.3574 54.714 19.8881ZM56.234 19.8881C56.3087 20.0374 56.4313 20.2028 56.602 20.3841C56.7727 20.5548 56.922 20.6561 57.05 20.6881C57.2953 20.8161 57.6473 20.8801 58.106 20.8801C58.5327 20.8801 58.9753 20.8214 59.434 20.7041C59.9033 20.5761 60.3353 20.3628 60.73 20.0641C61.1247 19.7548 61.3487 19.3921 61.402 18.9761C61.4127 18.8481 61.418 18.7468 61.418 18.6721C61.418 18.5974 61.3807 18.5121 61.306 18.4161C61.242 18.3094 61.1833 18.2294 61.13 18.1761C61.0767 18.1228 61.002 18.0534 60.906 17.9681C60.81 17.8828 60.7407 17.8134 60.698 17.7601C59.7913 17.2588 59.1033 17.0081 58.634 17.0081C58.3993 17.0081 58.1753 17.0561 57.962 17.1521C57.866 17.1841 57.7647 17.2534 57.658 17.3601C57.3487 17.6481 57.146 17.8134 57.05 17.8561C57.018 17.8881 56.954 17.9468 56.858 18.0321C56.7727 18.1174 56.698 18.1921 56.634 18.2561C56.57 18.3094 56.506 18.3788 56.442 18.4641C56.3887 18.5388 56.3567 18.6081 56.346 18.6721C56.282 18.7894 56.2447 18.9228 56.234 19.0721C56.2233 19.2214 56.2233 19.3601 56.234 19.4881C56.2553 19.6054 56.2553 19.7388 56.234 19.8881ZM64.3414 25.5521C64.5867 25.3601 64.832 25.2641 65.0774 25.2641C65.2694 25.2641 65.4294 25.3281 65.5574 25.4561C65.6107 25.5094 65.7494 25.6694 65.9734 25.9361C66.1974 26.2134 66.3947 26.4161 66.5654 26.5441C66.736 26.6721 66.9227 26.7521 67.1254 26.7841C67.1574 26.7841 67.1787 26.7788 67.1894 26.7681C67.4134 26.6614 67.5734 26.4748 67.6694 26.2081C67.7654 25.9414 67.8294 25.6054 67.8614 25.2001C67.904 24.7948 67.9467 24.5121 67.9894 24.3521C68.032 24.0748 68.0907 23.6214 68.1654 22.9921C68.2507 22.3628 68.32 21.9094 68.3734 21.6321H68.1974C67.6427 21.7601 67.0987 21.8241 66.5654 21.8241C66.0534 21.8241 65.5147 21.7601 64.9494 21.6321C64.512 21.3761 64.1334 21.0561 63.8134 20.6721C63.504 20.2774 63.344 19.8508 63.3334 19.3921C63.376 18.9228 63.6214 18.4588 64.0694 18.0001C64.5174 17.5308 64.9814 17.1894 65.4614 16.9761C65.856 16.6454 66.3467 16.4801 66.9334 16.4801C67.6907 16.4801 68.2454 16.7414 68.5974 17.2641C68.5974 17.3281 68.5974 17.4294 68.5974 17.5681C68.608 17.6961 68.608 17.7974 68.5974 17.8721C68.5974 17.9361 68.5654 18.0001 68.5014 18.0641C68.4374 18.1281 68.336 18.1654 68.1974 18.1761C68.0694 18.1014 67.7227 18.0321 67.1574 17.9681C66.4854 17.9254 65.8187 18.2988 65.1574 19.0881C65.104 19.1414 65.0667 19.2001 65.0454 19.2641C65.024 19.3281 65.024 19.3921 65.0454 19.4561C65.0667 19.5201 65.088 19.5788 65.1094 19.6321C65.1414 19.6854 65.184 19.7441 65.2374 19.8081C65.3014 19.8614 65.3494 19.9094 65.3814 19.9521C65.424 19.9841 65.4774 20.0321 65.5414 20.0961C65.6054 20.1494 65.648 20.1868 65.6694 20.2081C65.9894 20.3361 66.3414 20.4001 66.7254 20.4001C67.0667 20.4001 67.4134 20.3468 67.7654 20.2401C68.128 20.1228 68.4534 19.9361 68.7414 19.6801C69.0294 19.4241 69.184 19.1254 69.2054 18.7841C69.3014 18.3148 69.5734 18.0108 70.0214 17.8721H70.0694C70.0907 17.8828 70.1387 17.8988 70.2134 17.9201C70.2987 17.9414 70.352 17.9574 70.3734 17.9681C70.3947 17.9681 70.4374 17.9788 70.5014 18.0001C70.5654 18.0214 70.608 18.0374 70.6294 18.0481C70.6614 18.0588 70.6987 18.0801 70.7414 18.1121C70.7947 18.1334 70.8267 18.1601 70.8374 18.1921C70.8587 18.2134 70.88 18.2454 70.9014 18.2881C70.9334 18.3201 70.9494 18.3574 70.9494 18.4001C70.9494 18.4321 70.9494 18.4748 70.9494 18.5281C70.9494 18.5814 70.944 18.6348 70.9334 18.6881C70.9547 19.0081 70.8107 19.4508 70.5014 20.0161C70.2027 20.5708 70.0267 20.9654 69.9734 21.2001C69.504 22.7148 69.1787 24.2028 68.9974 25.6641C68.9227 26.5814 68.7574 27.2534 68.5014 27.6801C68.1814 28.1601 67.92 28.4694 67.7174 28.6081C67.5574 28.7041 67.3814 28.7681 67.1894 28.8001C66.656 28.5868 66.0107 28.1814 65.2534 27.5841C65.0187 27.4668 64.8374 27.3708 64.7094 27.2961C64.592 27.2214 64.464 27.1094 64.3254 26.9601C64.1867 26.8108 64.0907 26.6454 64.0374 26.4641C64.016 26.0161 64.1174 25.7121 64.3414 25.5521ZM71.589 19.8881V18.1601C71.5143 18.0428 71.477 17.8721 71.477 17.6481C71.477 17.4241 71.5143 17.2588 71.589 17.1521C71.749 17.0348 71.9357 16.9121 72.149 16.7841C72.3623 16.6561 72.597 16.5174 72.853 16.3681C73.109 16.2188 73.2957 16.1068 73.413 16.0321C73.861 15.7654 74.421 15.6321 75.093 15.6321C75.8823 15.6321 76.6397 15.8028 77.365 16.1441C78.101 16.4854 78.709 16.9548 79.189 17.5521C79.7437 18.3094 79.877 19.0188 79.589 19.6801C78.9063 20.8534 77.893 21.5948 76.549 21.9041C76.3783 21.9681 76.1863 22.0161 75.973 22.0481C75.7703 22.0801 75.605 22.0961 75.477 22.0961C75.349 22.1068 75.1463 22.1068 74.869 22.0961C74.5917 22.0961 74.4103 22.0961 74.325 22.0961C73.781 21.9788 73.4023 21.8934 73.189 21.8401C72.9863 21.7868 72.7677 21.6801 72.533 21.5201C72.2983 21.3494 72.1223 21.1521 72.005 20.9281C71.8983 20.7041 71.7597 20.3574 71.589 19.8881ZM73.109 19.8881C73.1837 20.0374 73.3063 20.2028 73.477 20.3841C73.6477 20.5548 73.797 20.6561 73.925 20.6881C74.1703 20.8161 74.5223 20.8801 74.981 20.8801C75.4077 20.8801 75.8503 20.8214 76.309 20.7041C76.7783 20.5761 77.2103 20.3628 77.605 20.0641C77.9997 19.7548 78.2237 19.3921 78.277 18.9761C78.2877 18.8481 78.293 18.7468 78.293 18.6721C78.293 18.5974 78.2557 18.5121 78.181 18.4161C78.117 18.3094 78.0583 18.2294 78.005 18.1761C77.9517 18.1228 77.877 18.0534 77.781 17.9681C77.685 17.8828 77.6157 17.8134 77.573 17.7601C76.6663 17.2588 75.9783 17.0081 75.509 17.0081C75.2743 17.0081 75.0503 17.0561 74.837 17.1521C74.741 17.1841 74.6397 17.2534 74.533 17.3601C74.2237 17.6481 74.021 17.8134 73.925 17.8561C73.893 17.8881 73.829 17.9468 73.733 18.0321C73.6477 18.1174 73.573 18.1921 73.509 18.2561C73.445 18.3094 73.381 18.3788 73.317 18.4641C73.2637 18.5388 73.2317 18.6081 73.221 18.6721C73.157 18.7894 73.1197 18.9228 73.109 19.0721C73.0983 19.2214 73.0983 19.3601 73.109 19.4881C73.1303 19.6054 73.1303 19.7388 73.109 19.8881ZM86.6724 17.5041L86.7524 17.5201C86.795 17.0828 86.8857 16.7894 87.0244 16.6401C87.1417 16.4908 87.2377 16.4161 87.3124 16.4161C87.3444 16.4161 87.3817 16.4161 87.4244 16.4161C87.499 16.4054 87.563 16.4108 87.6164 16.4321C87.6804 16.4534 87.755 16.5068 87.8404 16.5921C87.9364 16.6668 88.0004 16.7148 88.0324 16.7361C88.203 17.0134 88.2724 17.3494 88.2404 17.7441C88.2404 17.7654 88.139 18.0161 87.9364 18.4961C87.8617 18.8908 87.851 19.2961 87.9044 19.7121C87.9577 20.1174 88.107 20.4854 88.3524 20.8161C88.555 21.2854 88.571 21.6268 88.4004 21.8401C88.3577 21.9468 88.2777 22.0001 88.1604 22.0001C88.0964 22.0001 88.0164 21.9841 87.9204 21.9521C87.835 21.9201 87.7337 21.8774 87.6164 21.8241C87.499 21.7708 87.419 21.7388 87.3764 21.7281C86.9924 21.4721 86.747 21.0508 86.6404 20.4641C86.2137 20.9228 85.803 21.2588 85.4084 21.4721C85.0244 21.6748 84.5017 21.8508 83.8404 22.0001C83.4884 22.0428 83.1417 22.0001 82.8004 21.8721C82.4697 21.7441 82.2244 21.6161 82.0644 21.4881C81.9044 21.3601 81.6324 21.1254 81.2484 20.7841C81.099 20.5814 80.9764 20.3894 80.8804 20.2081C80.795 20.0268 80.731 19.8294 80.6884 19.6161C80.6564 19.4028 80.635 19.2481 80.6244 19.1521C80.6137 19.0454 80.6137 18.8481 80.6244 18.5601C80.635 18.2614 80.6404 18.0588 80.6404 17.9521C80.7044 17.8881 80.7364 17.7868 80.7364 17.6481V17.5521C80.7044 17.3921 80.7737 17.0188 80.9444 16.4321C80.9657 16.3894 81.0244 16.3201 81.1204 16.2241C81.227 16.1174 81.3017 16.0534 81.3444 16.0321C81.4404 16.0108 81.611 16.0214 81.8564 16.0641C82.1017 16.1068 82.235 16.1281 82.2564 16.1281C82.3417 16.1494 82.4057 16.1868 82.4484 16.2401C82.5017 16.2934 82.5337 16.3628 82.5444 16.4481C82.5657 16.5228 82.5764 16.5921 82.5764 16.6561C82.5764 16.7201 82.571 16.8054 82.5604 16.9121C82.5604 17.0188 82.5604 17.0934 82.5604 17.1361C82.5604 17.1574 82.5444 17.1948 82.5124 17.2481L82.4644 17.3441C82.251 17.8028 82.1444 18.2828 82.1444 18.7841C82.1124 19.0614 82.1817 19.3494 82.3524 19.6481C82.523 19.9361 82.731 20.1814 82.9764 20.3841C83.4884 20.5014 83.803 20.5601 83.9204 20.5601C84.1444 20.5601 84.3684 20.5014 84.5924 20.3841C84.763 20.3201 84.923 20.2348 85.0724 20.1281C85.2324 20.0108 85.3604 19.9041 85.4564 19.8081C85.563 19.7014 85.6804 19.5521 85.8084 19.3601C85.947 19.1681 86.043 19.0294 86.0964 18.9441C86.1497 18.8481 86.2457 18.6774 86.3844 18.4321C86.523 18.1868 86.6137 18.0321 86.6564 17.9681C86.6564 17.9148 86.6564 17.8348 86.6564 17.7281C86.667 17.6214 86.6724 17.5468 86.6724 17.5041ZM91.7661 19.0081L91.7981 17.6961C91.7981 17.3868 91.7715 16.9121 91.7181 16.2721C91.6541 16.0268 91.5955 15.8828 91.5421 15.8401C90.8381 15.8934 90.2995 16.0108 89.9261 16.1921C89.8301 16.1921 89.6915 16.2294 89.5101 16.3041C89.3288 16.3788 89.1741 16.4054 89.0461 16.3841C88.9715 16.3521 88.8968 16.3041 88.8221 16.2401C88.7475 16.1761 88.6728 16.1014 88.5981 16.0161C88.5128 15.9201 88.4435 15.8508 88.3901 15.8081C88.3475 15.7014 88.3315 15.5521 88.3421 15.3601C88.3528 15.1681 88.3901 15.0241 88.4541 14.9281L88.9821 14.4641C89.5368 14.4534 90.3635 14.3468 91.4621 14.1441L91.5741 14.0161L91.6061 11.5041C91.8515 11.2374 92.1555 11.1414 92.5181 11.2161C92.8061 11.4401 92.9661 11.7174 92.9981 12.0481C93.0301 12.1121 93.0515 12.3788 93.0621 12.8481C93.0728 13.3174 93.1155 13.5894 93.1901 13.6641C93.2008 13.6641 93.2488 13.6801 93.3341 13.7121C93.4301 13.7334 93.4835 13.7494 93.4941 13.7601C93.7075 13.7388 93.9795 13.7014 94.3101 13.6481C94.6408 13.5841 94.8808 13.5468 95.0301 13.5361C95.1795 13.5254 95.4515 13.5308 95.8461 13.5521L96.5821 13.5841C97.0408 13.6481 97.2115 13.9148 97.0941 14.3841C96.9128 14.5654 96.7741 14.6668 96.6781 14.6881C96.4328 14.7094 96.1821 14.7414 95.9261 14.7841C95.6701 14.8268 95.3501 14.8961 94.9661 14.9921C94.5928 15.0774 94.3421 15.1308 94.2141 15.1521L94.1821 15.1681C93.9048 15.1788 93.5901 15.2481 93.2381 15.3761L93.1581 15.4881C93.1581 15.6161 93.1475 15.8294 93.1261 16.1281C93.1155 16.4161 93.1155 16.6668 93.1261 16.8801C93.1368 17.0828 93.1688 17.2908 93.2221 17.5041C93.2221 19.3708 93.3181 20.5334 93.5101 20.9921C93.7235 21.1841 93.9155 21.2854 94.0861 21.2961C94.1821 21.2961 94.3048 21.2801 94.4541 21.2481C94.4968 21.2374 94.5608 21.2214 94.6461 21.2001C94.7315 21.1788 94.7901 21.1681 94.8221 21.1681C94.8541 21.1574 94.9021 21.1414 94.9661 21.1201C95.0301 21.0988 95.0728 21.0828 95.0941 21.0721C95.1261 21.0614 95.1635 21.0454 95.2061 21.0241C95.2595 20.9921 95.2968 20.9601 95.3181 20.9281C95.3501 20.8961 95.3875 20.8588 95.4301 20.8161C95.4728 20.7734 95.5101 20.7254 95.5421 20.6721C95.5848 20.6188 95.6275 20.5601 95.6701 20.4961C95.7128 20.4214 95.7608 20.3414 95.8141 20.2561C95.8035 20.2028 95.8195 20.0748 95.8621 19.8721C95.9048 19.6694 95.9368 19.5414 95.9581 19.4881C96.0755 19.1574 96.2888 18.9974 96.5981 19.0081C96.7475 18.9868 96.8595 19.0134 96.9341 19.0881C97.0088 19.1628 97.0781 19.2961 97.1421 19.4881L97.2221 19.7601C97.1475 20.2828 97.0675 20.6081 96.9821 20.7361C96.7688 21.1628 96.6035 21.4561 96.4861 21.6161C96.3795 21.7761 96.1821 21.9414 95.8941 22.1121C95.6061 22.2934 95.1635 22.4801 94.5661 22.6721C94.5341 22.6828 94.4115 22.7254 94.1981 22.8001C93.9848 22.8854 93.8195 22.9281 93.7021 22.9281C93.2115 22.9068 92.8488 22.7468 92.6141 22.4481C92.5821 22.3841 92.4861 22.2188 92.3261 21.9521C92.1661 21.6748 92.0541 21.4348 91.9901 21.2321C91.9261 21.0188 91.9101 20.7948 91.9421 20.5601C91.9315 20.3681 91.9048 20.0908 91.8621 19.7281C91.8195 19.3654 91.7928 19.1361 91.7821 19.0401C91.7715 19.0294 91.7661 19.0188 91.7661 19.0081ZM97.933 22.3841C98.1997 22.0001 98.7383 21.1788 99.549 19.9201C100.37 18.6614 101.026 17.7281 101.517 17.1201C101.816 16.5441 102.36 15.5788 103.149 14.2241C103.949 12.8588 104.514 11.8241 104.845 11.1201C105.101 10.5121 105.282 10.1334 105.389 9.98411L105.469 9.50411C105.533 9.26945 105.576 9.14145 105.597 9.12011C105.832 8.85345 106.082 8.70411 106.349 8.67211C106.701 8.64011 106.994 8.81611 107.229 9.20011C107.325 9.52011 107.32 9.90411 107.213 10.3521C107.117 10.7894 106.978 11.0561 106.797 11.1521C106.648 11.0774 106.498 11.1414 106.349 11.3441C106.2 11.5468 106.002 11.8668 105.757 12.3041C105.512 12.7308 105.277 13.0774 105.053 13.3441C104.082 15.1468 103.192 16.6988 102.381 18.0001C101.581 19.3014 100.637 20.6401 99.549 22.0161C99.453 22.1228 99.3463 22.2614 99.229 22.4321C99.1223 22.6028 99.021 22.7414 98.925 22.8481C98.8397 22.9654 98.733 23.0561 98.605 23.1201C98.5623 23.1628 98.4983 23.1948 98.413 23.2161C98.3703 23.2268 98.3277 23.2268 98.285 23.2161C98.2423 23.2054 98.1997 23.1788 98.157 23.1361C98.1143 23.0934 98.0823 23.0614 98.061 23.0401C98.029 23.0188 97.9863 22.9708 97.933 22.8961C97.8797 22.8321 97.8477 22.7948 97.837 22.7841C97.8263 22.6668 97.8583 22.5334 97.933 22.3841ZM115.629 21.2161C115.512 20.9281 115.4 20.5228 115.293 20.0001C115.186 19.4774 115.08 19.0774 114.973 18.8001C114.941 18.6508 114.904 18.3468 114.861 17.8881C114.818 17.4188 114.754 17.0721 114.669 16.8481C114.669 16.8481 114.658 16.8428 114.637 16.8321C114.594 16.8108 114.568 16.8054 114.557 16.8161C114.45 16.9441 114.338 17.1201 114.221 17.3441C114.114 17.5574 113.997 17.8188 113.869 18.1281C113.752 18.4374 113.661 18.6614 113.597 18.8001C113.352 19.1308 113.016 19.3174 112.589 19.3601C112.184 19.0934 111.794 18.6081 111.421 17.9041C111.378 17.8294 111.304 17.6641 111.197 17.4081C111.101 17.1521 111 16.8694 110.893 16.5601C110.786 16.2401 110.728 16.0694 110.717 16.0481L110.557 15.9201C110.461 16.1014 110.328 16.4481 110.157 16.9601C109.997 17.4614 109.906 17.7441 109.885 17.8081C109.405 19.0988 108.845 20.3414 108.205 21.5361C108.194 21.5468 108.157 21.5841 108.093 21.6481C108.029 21.7014 107.986 21.7334 107.965 21.7441C107.954 21.7548 107.912 21.7868 107.837 21.8401C107.773 21.8934 107.73 21.9201 107.709 21.9201C107.698 21.9201 107.656 21.9414 107.581 21.9841C107.506 22.0161 107.458 22.0268 107.437 22.0161C107.416 21.9948 107.368 21.9894 107.293 22.0001C107.101 21.9361 106.872 21.6374 106.605 21.1041C106.498 20.8588 106.488 20.5974 106.573 20.3201C106.861 20.1281 107.202 19.6961 107.597 19.0241C107.65 18.8961 107.773 18.6081 107.965 18.1601C108.157 17.7121 108.296 17.3814 108.381 17.1681C108.477 16.9441 108.584 16.6508 108.701 16.2881C108.818 15.9148 108.909 15.5734 108.973 15.2641C109.026 15.0508 109.106 14.5494 109.213 13.7601C109.32 12.9708 109.437 12.4108 109.565 12.0801C109.725 11.8668 109.864 11.7601 109.981 11.7601C110.056 11.7601 110.168 11.7921 110.317 11.8561C110.541 11.9414 110.717 12.0534 110.845 12.1921C110.984 12.3201 111.122 12.5068 111.261 12.7521C111.272 12.7841 111.298 12.8374 111.341 12.9121C111.384 12.9761 111.421 13.0348 111.453 13.0881L111.501 13.1841L112.509 16.3841C112.509 16.4161 112.552 16.4481 112.637 16.4801C112.754 16.3948 112.898 16.1814 113.069 15.8401C113.24 15.4881 113.357 15.2641 113.421 15.1681C113.698 14.5708 113.874 13.7974 113.949 12.8481C113.928 12.7734 113.938 12.6934 113.981 12.6081C114.024 12.5121 114.093 12.4054 114.189 12.2881C114.285 12.1601 114.338 12.0908 114.349 12.0801C114.392 12.0801 114.477 12.0908 114.605 12.1121C114.733 12.1228 114.85 12.1388 114.957 12.1601L115.133 12.1921C115.154 12.2028 115.234 12.2668 115.373 12.3841C115.522 12.4908 115.624 12.5761 115.677 12.6401C115.805 12.7254 115.896 12.9441 115.949 13.2961C116.002 13.6374 116.034 13.8188 116.045 13.8401C116.056 14.0214 116.061 14.5868 116.061 15.5361C116.061 16.4748 116.109 17.0454 116.205 17.2481C116.29 18.4001 116.632 19.8294 117.229 21.5361C117.25 21.6108 117.346 21.7868 117.517 22.0641C117.698 22.3521 117.794 22.5281 117.805 22.5921C117.858 22.6774 117.832 22.7948 117.725 22.9441C117.618 23.0934 117.565 23.1734 117.565 23.1841C117.416 23.2054 117.256 23.2054 117.085 23.1841C116.925 23.1628 116.776 23.0881 116.637 22.9601C116.413 22.8428 116.242 22.6934 116.125 22.5121C116.008 22.3414 115.906 22.1068 115.821 21.8081C115.736 21.5094 115.672 21.3121 115.629 21.2161ZM120.023 17.4561C120.791 16.4748 121.634 15.8348 122.551 15.5361C123.138 15.4614 123.447 15.4241 123.479 15.4241C124.14 15.4454 124.716 15.6481 125.207 16.0321C125.698 16.4054 125.959 16.9174 125.991 17.5681C126.002 18.1334 125.772 18.6508 125.303 19.1201C124.844 19.5894 124.332 19.8454 123.767 19.8881C123.554 19.9628 123.324 20.0001 123.079 20.0001C122.524 20.0001 121.911 19.7974 121.239 19.3921C121.036 19.1894 120.903 19.0881 120.839 19.0881C120.796 19.0668 120.759 19.0668 120.727 19.0881C120.375 19.6214 120.204 20.0268 120.215 20.3041C120.332 20.9974 120.706 21.5841 121.335 22.0641C121.964 22.5548 122.631 22.7788 123.335 22.7361C123.442 22.7788 123.628 22.7788 123.895 22.7361C124.162 22.7041 124.338 22.6774 124.423 22.6561C124.519 22.6348 124.7 22.5814 124.967 22.4961C125.244 22.4214 125.436 22.3681 125.543 22.3361C125.916 22.1868 126.412 22.0908 127.031 22.0481H127.143C127.218 22.0268 127.287 22.0428 127.351 22.0961C127.415 22.1494 127.452 22.2294 127.463 22.3361V22.9281C127.079 23.3654 126.604 23.6001 126.039 23.6321C125.922 23.6641 125.708 23.7228 125.399 23.8081C125.1 23.8934 124.871 23.9521 124.711 23.9841C124.562 24.0268 124.359 24.0641 124.103 24.0961C123.858 24.1388 123.634 24.1548 123.431 24.1441C122.492 24.1868 121.591 23.9468 120.727 23.4241C119.938 23.0188 119.33 22.3148 118.903 21.3121C118.743 20.6828 118.77 20.0694 118.983 19.4721C119.196 18.8748 119.543 18.2028 120.023 17.4561ZM121.271 18.2241C121.495 18.2241 121.687 18.2401 121.847 18.2721C121.943 18.3254 122.034 18.3681 122.119 18.4001C122.215 18.4214 122.327 18.4428 122.455 18.4641C122.594 18.4748 122.684 18.4801 122.727 18.4801C122.77 18.4801 122.882 18.4801 123.063 18.4801C123.255 18.4801 123.356 18.4801 123.367 18.4801C123.922 18.3094 124.29 18.0694 124.471 17.7601C124.503 17.6428 124.503 17.5414 124.471 17.4561C124.45 17.3601 124.391 17.2801 124.295 17.2161C124.199 17.1521 124.108 17.1041 124.023 17.0721C123.938 17.0401 123.82 17.0028 123.671 16.9601C123.532 16.9068 123.431 16.8694 123.367 16.8481C123.111 16.8481 122.85 16.9228 122.583 17.0721C122.316 17.2108 122.103 17.3494 121.943 17.4881C121.783 17.6268 121.58 17.8188 121.335 18.0641C121.335 18.0748 121.324 18.1014 121.303 18.1441C121.282 18.1761 121.271 18.2028 121.271 18.2241ZM131.541 17.6641C130.837 18.2614 130.197 19.0028 129.621 19.8881C129.6 19.9308 129.461 20.1654 129.205 20.5921C128.96 21.0081 128.794 21.3121 128.709 21.5041C128.592 21.6961 128.421 21.7654 128.197 21.7121L127.493 20.9921V20.4961C127.546 20.2188 127.605 19.6801 127.669 18.8801C127.733 18.0801 127.776 17.6054 127.797 17.4561C127.797 17.4028 127.792 17.3548 127.781 17.3121L127.717 16.8961C127.706 16.8534 127.701 16.8054 127.701 16.7521V16.6881C127.701 16.5174 127.754 16.3788 127.861 16.2721C127.978 16.1654 128.122 16.1174 128.293 16.1281C128.634 16.1281 128.874 16.2348 129.013 16.4481C129.088 16.7361 129.125 17.1094 129.125 17.5681C129.125 17.6641 129.12 17.7868 129.109 17.9361C129.109 18.0748 129.109 18.1494 129.109 18.1601C129.194 18.0961 129.365 17.9361 129.621 17.6801C129.888 17.4134 130.053 17.2374 130.117 17.1521C130.192 17.0561 130.282 16.9281 130.389 16.7681C130.506 16.5974 130.618 16.4534 130.725 16.3361C130.832 16.2081 130.96 16.0854 131.109 15.9681C131.162 15.8934 131.226 15.8401 131.301 15.8081C131.376 15.7654 131.445 15.7441 131.509 15.7441C131.584 15.7334 131.664 15.7281 131.749 15.7281C131.834 15.7281 131.92 15.7281 132.005 15.7281C132.122 15.6854 132.24 15.6961 132.357 15.7601C132.485 15.8134 132.618 15.9308 132.757 16.1121C132.896 16.2828 132.981 16.4001 133.013 16.4641C133.056 16.5281 133.141 16.6614 133.269 16.8641C133.6 17.6321 133.765 18.4694 133.765 19.3761L134.069 20.6881C134.069 20.7201 134.101 20.8268 134.165 21.0081C134.24 21.1894 134.277 21.2854 134.277 21.2961C134.298 21.5841 134.229 21.7868 134.069 21.9041C134.037 21.9148 133.957 21.9468 133.829 22.0001C133.712 22.0428 133.621 22.0641 133.557 22.0641C133.45 22.0641 133.386 22.0108 133.365 21.9041C133.344 21.8721 133.269 21.7548 133.141 21.5521C133.024 21.3388 132.928 21.1894 132.853 21.1041C132.65 20.4001 132.517 19.7228 132.453 19.0721C132.421 18.9974 132.373 18.8374 132.309 18.5921C132.256 18.3361 132.202 18.1601 132.149 18.0641C131.925 17.8081 131.776 17.6694 131.701 17.6481C131.616 17.6481 131.562 17.6534 131.541 17.6641ZM141.282 17.5041L141.362 17.5201C141.404 17.0828 141.495 16.7894 141.634 16.6401C141.751 16.4908 141.847 16.4161 141.922 16.4161C141.954 16.4161 141.991 16.4161 142.034 16.4161C142.108 16.4054 142.172 16.4108 142.226 16.4321C142.29 16.4534 142.364 16.5068 142.45 16.5921C142.546 16.6668 142.61 16.7148 142.642 16.7361C142.812 17.0134 142.882 17.3494 142.85 17.7441C142.85 17.7654 142.748 18.0161 142.546 18.4961C142.471 18.8908 142.46 19.2961 142.514 19.7121C142.567 20.1174 142.716 20.4854 142.962 20.8161C143.164 21.2854 143.18 21.6268 143.01 21.8401C142.967 21.9468 142.887 22.0001 142.77 22.0001C142.706 22.0001 142.626 21.9841 142.53 21.9521C142.444 21.9201 142.343 21.8774 142.226 21.8241C142.108 21.7708 142.028 21.7388 141.986 21.7281C141.602 21.4721 141.356 21.0508 141.25 20.4641C140.823 20.9228 140.412 21.2588 140.018 21.4721C139.634 21.6748 139.111 21.8508 138.45 22.0001C138.098 22.0428 137.751 22.0001 137.41 21.8721C137.079 21.7441 136.834 21.6161 136.674 21.4881C136.514 21.3601 136.242 21.1254 135.858 20.7841C135.708 20.5814 135.586 20.3894 135.49 20.2081C135.404 20.0268 135.34 19.8294 135.298 19.6161C135.266 19.4028 135.244 19.2481 135.234 19.1521C135.223 19.0454 135.223 18.8481 135.234 18.5601C135.244 18.2614 135.25 18.0588 135.25 17.9521C135.314 17.8881 135.346 17.7868 135.346 17.6481V17.5521C135.314 17.3921 135.383 17.0188 135.554 16.4321C135.575 16.3894 135.634 16.3201 135.73 16.2241C135.836 16.1174 135.911 16.0534 135.954 16.0321C136.05 16.0108 136.22 16.0214 136.466 16.0641C136.711 16.1068 136.844 16.1281 136.866 16.1281C136.951 16.1494 137.015 16.1868 137.058 16.2401C137.111 16.2934 137.143 16.3628 137.154 16.4481C137.175 16.5228 137.186 16.5921 137.186 16.6561C137.186 16.7201 137.18 16.8054 137.17 16.9121C137.17 17.0188 137.17 17.0934 137.17 17.1361C137.17 17.1574 137.154 17.1948 137.122 17.2481L137.074 17.3441C136.86 17.8028 136.754 18.2828 136.754 18.7841C136.722 19.0614 136.791 19.3494 136.962 19.6481C137.132 19.9361 137.34 20.1814 137.586 20.3841C138.098 20.5014 138.412 20.5601 138.53 20.5601C138.754 20.5601 138.978 20.5014 139.202 20.3841C139.372 20.3201 139.532 20.2348 139.682 20.1281C139.842 20.0108 139.97 19.9041 140.066 19.8081C140.172 19.7014 140.29 19.5521 140.418 19.3601C140.556 19.1681 140.652 19.0294 140.706 18.9441C140.759 18.8481 140.855 18.6774 140.994 18.4321C141.132 18.1868 141.223 18.0321 141.266 17.9681C141.266 17.9148 141.266 17.8348 141.266 17.7281C141.276 17.6214 141.282 17.5468 141.282 17.5041Z" fill="#1E1E1E"/>
<path d="M72.1356 142.259C107.856 141.149 145.856 144.659 200.566 142.259C200.236 144.039 200.446 144.129 202.756 144.449C202.646 146.099 202.356 147.569 202.756 148.839C200.766 149.189 203.186 152.079 200.566 151.039C158.916 147.259 119.956 151.139 72.1356 151.039C69.4056 150.089 68.4556 147.779 69.9456 148.839C70.4656 148.369 69.3756 147.469 69.9456 144.449C68.2256 144.249 72.0156 141.139 72.1356 142.259Z" fill="#E9ECEF"/>
<path d="M142.05 95.4812C159.1 96.9412 178.12 94.8512 193.12 95.4812C202.85 93.1412 209.41 98.1312 210.98 113.341C213.46 125.821 209.09 132.591 210.98 149.061C213.12 162.451 202.75 165.681 193.12 166.921C175.76 169.011 163.77 165.201 142.05 166.921C132.59 166.431 127.14 160.631 124.19 149.061C121 144.481 125.92 133.491 124.19 113.341C123.93 104.361 131.61 97.4612 142.05 95.4812Z" fill="#E9ECEF"/>
<path d="M142.05 95.481C153.13 96.461 161.75 95.561 193.12 95.481M142.05 95.481C160.18 96.231 180.03 96.181 193.12 95.481M142.05 95.481C129.18 95.841 123.64 102.181 124.19 113.341M142.05 95.481C127.95 96.341 123.93 103.241 124.19 113.341M193.12 95.481C203.12 94.011 212.65 101.751 210.98 113.341M193.12 95.481C206.84 94.741 210.38 103.401 210.98 113.341M210.98 113.341C210.41 122.521 209.63 133.631 210.98 149.061M210.98 113.341C211.43 121.571 211.16 129.751 210.98 149.061M210.98 149.061C211.76 161.541 203.39 166.121 193.12 166.921M210.98 149.061C212.08 160.711 203.11 164.951 193.12 166.921M193.12 166.921C176.87 167.151 164.41 165.731 142.05 166.921M193.12 166.921C177.47 166.871 162.63 167.051 142.05 166.921M142.05 166.921C131.5 167.751 122.86 161.391 124.19 149.061M142.05 166.921C131.22 165.451 125.21 160.761 124.19 149.061M124.19 149.061C125 137.421 124.84 125.271 124.19 113.341M124.19 149.061C123.94 137.941 124.76 126.421 124.19 113.341" stroke="#1E1E1E" stroke-width="2" stroke-linecap="round"/>
<path d="M151.688 121.78C151.57 121.492 151.458 121.087 151.352 120.564C151.245 120.041 151.138 119.641 151.032 119.364C151 119.215 150.962 118.911 150.92 118.452C150.877 117.983 150.813 117.636 150.728 117.412C150.728 117.412 150.717 117.407 150.696 117.396C150.653 117.375 150.626 117.369 150.616 117.38C150.509 117.508 150.397 117.684 150.28 117.908C150.173 118.121 150.056 118.383 149.928 118.692C149.81 119.001 149.72 119.225 149.656 119.364C149.41 119.695 149.074 119.881 148.648 119.924C148.242 119.657 147.853 119.172 147.48 118.468C147.437 118.393 147.362 118.228 147.256 117.972C147.16 117.716 147.058 117.433 146.952 117.124C146.845 116.804 146.786 116.633 146.776 116.612L146.616 116.484C146.52 116.665 146.386 117.012 146.216 117.524C146.056 118.025 145.965 118.308 145.944 118.372C145.464 119.663 144.904 120.905 144.264 122.1C144.253 122.111 144.216 122.148 144.152 122.212C144.088 122.265 144.045 122.297 144.024 122.308C144.013 122.319 143.97 122.351 143.896 122.404C143.832 122.457 143.789 122.484 143.768 122.484C143.757 122.484 143.714 122.505 143.64 122.548C143.565 122.58 143.517 122.591 143.496 122.58C143.474 122.559 143.426 122.553 143.352 122.564C143.16 122.5 142.93 122.201 142.664 121.668C142.557 121.423 142.546 121.161 142.632 120.884C142.92 120.692 143.261 120.26 143.656 119.588C143.709 119.46 143.832 119.172 144.024 118.724C144.216 118.276 144.354 117.945 144.44 117.732C144.536 117.508 144.642 117.215 144.76 116.852C144.877 116.479 144.968 116.137 145.032 115.828C145.085 115.615 145.165 115.113 145.272 114.324C145.378 113.535 145.496 112.975 145.624 112.644C145.784 112.431 145.922 112.324 146.04 112.324C146.114 112.324 146.226 112.356 146.376 112.42C146.6 112.505 146.776 112.617 146.904 112.756C147.042 112.884 147.181 113.07 147.32 113.316C147.33 113.348 147.357 113.401 147.4 113.476C147.442 113.54 147.48 113.599 147.512 113.652L147.56 113.748L148.568 116.948C148.568 116.98 148.61 117.012 148.696 117.044C148.813 116.959 148.957 116.745 149.128 116.404C149.298 116.052 149.416 115.828 149.48 115.732C149.757 115.135 149.933 114.361 150.008 113.412C149.986 113.337 149.997 113.257 150.04 113.172C150.082 113.076 150.152 112.969 150.248 112.852C150.344 112.724 150.397 112.655 150.408 112.644C150.45 112.644 150.536 112.655 150.664 112.676C150.792 112.687 150.909 112.703 151.016 112.724L151.192 112.756C151.213 112.767 151.293 112.83 151.432 112.948C151.581 113.055 151.682 113.14 151.736 113.204C151.864 113.289 151.954 113.508 152.008 113.86C152.061 114.201 152.093 114.383 152.104 114.404C152.114 114.585 152.12 115.151 152.12 116.1C152.12 117.039 152.168 117.609 152.264 117.812C152.349 118.964 152.69 120.393 153.288 122.1C153.309 122.175 153.405 122.351 153.576 122.628C153.757 122.916 153.853 123.092 153.864 123.156C153.917 123.241 153.89 123.359 153.784 123.508C153.677 123.657 153.624 123.737 153.624 123.748C153.474 123.769 153.314 123.769 153.144 123.748C152.984 123.727 152.834 123.652 152.696 123.524C152.472 123.407 152.301 123.257 152.184 123.076C152.066 122.905 151.965 122.671 151.88 122.372C151.794 122.073 151.73 121.876 151.688 121.78ZM156.082 118.02C156.85 117.039 157.692 116.399 158.61 116.1C159.196 116.025 159.506 115.988 159.538 115.988C160.199 116.009 160.775 116.212 161.266 116.596C161.756 116.969 162.018 117.481 162.05 118.132C162.06 118.697 161.831 119.215 161.362 119.684C160.903 120.153 160.391 120.409 159.826 120.452C159.612 120.527 159.383 120.564 159.138 120.564C158.583 120.564 157.97 120.361 157.298 119.956C157.095 119.753 156.962 119.652 156.898 119.652C156.855 119.631 156.818 119.631 156.786 119.652C156.434 120.185 156.263 120.591 156.274 120.868C156.391 121.561 156.764 122.148 157.394 122.628C158.023 123.119 158.69 123.343 159.394 123.3C159.5 123.343 159.687 123.343 159.954 123.3C160.22 123.268 160.396 123.241 160.482 123.22C160.578 123.199 160.759 123.145 161.026 123.06C161.303 122.985 161.495 122.932 161.602 122.9C161.975 122.751 162.471 122.655 163.09 122.612H163.202C163.276 122.591 163.346 122.607 163.41 122.66C163.474 122.713 163.511 122.793 163.522 122.9V123.492C163.138 123.929 162.663 124.164 162.098 124.196C161.98 124.228 161.767 124.287 161.458 124.372C161.159 124.457 160.93 124.516 160.77 124.548C160.62 124.591 160.418 124.628 160.162 124.66C159.916 124.703 159.692 124.719 159.49 124.708C158.551 124.751 157.65 124.511 156.786 123.988C155.996 123.583 155.388 122.879 154.962 121.876C154.802 121.247 154.828 120.633 155.042 120.036C155.255 119.439 155.602 118.767 156.082 118.02ZM157.33 118.788C157.554 118.788 157.746 118.804 157.906 118.836C158.002 118.889 158.092 118.932 158.178 118.964C158.274 118.985 158.386 119.007 158.514 119.028C158.652 119.039 158.743 119.044 158.786 119.044C158.828 119.044 158.94 119.044 159.122 119.044C159.314 119.044 159.415 119.044 159.426 119.044C159.98 118.873 160.348 118.633 160.53 118.324C160.562 118.207 160.562 118.105 160.53 118.02C160.508 117.924 160.45 117.844 160.354 117.78C160.258 117.716 160.167 117.668 160.082 117.636C159.996 117.604 159.879 117.567 159.73 117.524C159.591 117.471 159.49 117.433 159.426 117.412C159.17 117.412 158.908 117.487 158.642 117.636C158.375 117.775 158.162 117.913 158.002 118.052C157.842 118.191 157.639 118.383 157.394 118.628C157.394 118.639 157.383 118.665 157.362 118.708C157.34 118.74 157.33 118.767 157.33 118.788ZM167.6 118.228C166.896 118.825 166.256 119.567 165.68 120.452C165.658 120.495 165.52 120.729 165.264 121.156C165.018 121.572 164.853 121.876 164.768 122.068C164.65 122.26 164.48 122.329 164.256 122.276L163.552 121.556V121.06C163.605 120.783 163.664 120.244 163.728 119.444C163.792 118.644 163.834 118.169 163.856 118.02C163.856 117.967 163.85 117.919 163.84 117.876L163.776 117.46C163.765 117.417 163.76 117.369 163.76 117.316V117.252C163.76 117.081 163.813 116.943 163.92 116.836C164.037 116.729 164.181 116.681 164.352 116.692C164.693 116.692 164.933 116.799 165.072 117.012C165.146 117.3 165.184 117.673 165.184 118.132C165.184 118.228 165.178 118.351 165.168 118.5C165.168 118.639 165.168 118.713 165.168 118.724C165.253 118.66 165.424 118.5 165.68 118.244C165.946 117.977 166.112 117.801 166.176 117.716C166.25 117.62 166.341 117.492 166.448 117.332C166.565 117.161 166.677 117.017 166.784 116.9C166.89 116.772 167.018 116.649 167.168 116.532C167.221 116.457 167.285 116.404 167.36 116.372C167.434 116.329 167.504 116.308 167.568 116.308C167.642 116.297 167.722 116.292 167.808 116.292C167.893 116.292 167.978 116.292 168.064 116.292C168.181 116.249 168.298 116.26 168.416 116.324C168.544 116.377 168.677 116.495 168.816 116.676C168.954 116.847 169.04 116.964 169.072 117.028C169.114 117.092 169.2 117.225 169.328 117.428C169.658 118.196 169.824 119.033 169.824 119.94L170.128 121.252C170.128 121.284 170.16 121.391 170.224 121.572C170.298 121.753 170.336 121.849 170.336 121.86C170.357 122.148 170.288 122.351 170.128 122.468C170.096 122.479 170.016 122.511 169.888 122.564C169.77 122.607 169.68 122.628 169.616 122.628C169.509 122.628 169.445 122.575 169.424 122.468C169.402 122.436 169.328 122.319 169.2 122.116C169.082 121.903 168.986 121.753 168.912 121.668C168.709 120.964 168.576 120.287 168.512 119.636C168.48 119.561 168.432 119.401 168.368 119.156C168.314 118.9 168.261 118.724 168.208 118.628C167.984 118.372 167.834 118.233 167.76 118.212C167.674 118.212 167.621 118.217 167.6 118.228ZM177.34 118.068L177.42 118.084C177.463 117.647 177.554 117.353 177.692 117.204C177.81 117.055 177.906 116.98 177.98 116.98C178.012 116.98 178.05 116.98 178.092 116.98C178.167 116.969 178.231 116.975 178.284 116.996C178.348 117.017 178.423 117.071 178.508 117.156C178.604 117.231 178.668 117.279 178.7 117.3C178.871 117.577 178.94 117.913 178.908 118.308C178.908 118.329 178.807 118.58 178.604 119.06C178.53 119.455 178.519 119.86 178.572 120.276C178.626 120.681 178.775 121.049 179.02 121.38C179.223 121.849 179.239 122.191 179.068 122.404C179.026 122.511 178.946 122.564 178.828 122.564C178.764 122.564 178.684 122.548 178.588 122.516C178.503 122.484 178.402 122.441 178.284 122.388C178.167 122.335 178.087 122.303 178.044 122.292C177.66 122.036 177.415 121.615 177.308 121.028C176.882 121.487 176.471 121.823 176.076 122.036C175.692 122.239 175.17 122.415 174.508 122.564C174.156 122.607 173.81 122.564 173.468 122.436C173.138 122.308 172.892 122.18 172.732 122.052C172.572 121.924 172.3 121.689 171.916 121.348C171.767 121.145 171.644 120.953 171.548 120.772C171.463 120.591 171.399 120.393 171.356 120.18C171.324 119.967 171.303 119.812 171.292 119.716C171.282 119.609 171.282 119.412 171.292 119.124C171.303 118.825 171.308 118.623 171.308 118.516C171.372 118.452 171.404 118.351 171.404 118.212V118.116C171.372 117.956 171.442 117.583 171.612 116.996C171.634 116.953 171.692 116.884 171.788 116.788C171.895 116.681 171.97 116.617 172.012 116.596C172.108 116.575 172.279 116.585 172.524 116.628C172.77 116.671 172.903 116.692 172.924 116.692C173.01 116.713 173.074 116.751 173.116 116.804C173.17 116.857 173.202 116.927 173.212 117.012C173.234 117.087 173.244 117.156 173.244 117.22C173.244 117.284 173.239 117.369 173.228 117.476C173.228 117.583 173.228 117.657 173.228 117.7C173.228 117.721 173.212 117.759 173.18 117.812L173.132 117.908C172.919 118.367 172.812 118.847 172.812 119.348C172.78 119.625 172.85 119.913 173.02 120.212C173.191 120.5 173.399 120.745 173.644 120.948C174.156 121.065 174.471 121.124 174.588 121.124C174.812 121.124 175.036 121.065 175.26 120.948C175.431 120.884 175.591 120.799 175.74 120.692C175.9 120.575 176.028 120.468 176.124 120.372C176.231 120.265 176.348 120.116 176.476 119.924C176.615 119.732 176.711 119.593 176.764 119.508C176.818 119.412 176.914 119.241 177.052 118.996C177.191 118.751 177.282 118.596 177.324 118.532C177.324 118.479 177.324 118.399 177.324 118.292C177.335 118.185 177.34 118.111 177.34 118.068Z" fill="#1E1E1E"/>
<path d="M148.728 142.644C147.586 142.751 146.573 142.788 145.688 142.756C145.56 142.745 145.352 142.735 145.064 142.724C144.786 142.713 144.589 142.703 144.472 142.692C144.354 142.681 144.2 142.655 144.008 142.612C143.816 142.569 143.64 142.511 143.48 142.436C143.149 142.287 142.882 142.057 142.68 141.748C142.488 141.439 142.413 141.108 142.456 140.756C142.424 140.191 142.525 139.679 142.76 139.22C143.336 137.929 143.741 136.884 143.976 136.084C144.018 135.721 144.157 135.289 144.392 134.788C144.626 134.276 144.76 133.865 144.792 133.556C144.792 133.471 144.792 133.412 144.792 133.38C144.792 133.348 144.776 133.289 144.744 133.204C144.712 133.119 144.69 133.065 144.68 133.044C144.84 132.596 144.973 132.329 145.08 132.244C145.453 132.095 145.698 132.02 145.816 132.02C146.018 132.02 146.178 132.127 146.296 132.34C146.146 133.14 146.013 133.748 145.896 134.164C145.736 134.815 145.416 135.796 144.936 137.108C144.466 138.409 144.216 139.113 144.184 139.22C144.12 139.369 144.082 139.524 144.072 139.684C144.061 139.833 144.061 140.004 144.072 140.196C144.082 140.388 144.082 140.537 144.072 140.644C144.136 140.751 144.376 140.884 144.792 141.044C145.282 141.161 145.8 141.22 146.344 141.22C146.717 141.22 147.144 141.193 147.624 141.14C149.074 141.023 149.848 140.959 149.944 140.948C150.061 140.959 150.136 140.959 150.168 140.948C150.2 140.927 150.28 140.948 150.408 141.012C150.546 141.076 150.632 141.119 150.664 141.14C150.696 141.151 150.776 141.193 150.904 141.268C151.032 141.343 151.101 141.385 151.112 141.396C151.133 141.417 151.192 141.46 151.288 141.524C151.384 141.588 151.448 141.641 151.48 141.684C151.522 141.716 151.565 141.775 151.608 141.86C151.65 141.935 151.672 142.02 151.672 142.116V142.164C151.597 142.463 151.458 142.692 151.256 142.852H151.224C151.128 142.852 150.717 142.809 149.992 142.724C149.277 142.649 148.856 142.623 148.728 142.644ZM152.226 140.452V138.724C152.151 138.607 152.114 138.436 152.114 138.212C152.114 137.988 152.151 137.823 152.226 137.716C152.386 137.599 152.572 137.476 152.786 137.348C152.999 137.22 153.234 137.081 153.49 136.932C153.746 136.783 153.932 136.671 154.05 136.596C154.498 136.329 155.058 136.196 155.73 136.196C156.519 136.196 157.276 136.367 158.002 136.708C158.738 137.049 159.346 137.519 159.826 138.116C160.38 138.873 160.514 139.583 160.226 140.244C159.543 141.417 158.53 142.159 157.186 142.468C157.015 142.532 156.823 142.58 156.61 142.612C156.407 142.644 156.242 142.66 156.114 142.66C155.986 142.671 155.783 142.671 155.506 142.66C155.228 142.66 155.047 142.66 154.962 142.66C154.418 142.543 154.039 142.457 153.826 142.404C153.623 142.351 153.404 142.244 153.17 142.084C152.935 141.913 152.759 141.716 152.642 141.492C152.535 141.268 152.396 140.921 152.226 140.452ZM153.746 140.452C153.82 140.601 153.943 140.767 154.114 140.948C154.284 141.119 154.434 141.22 154.562 141.252C154.807 141.38 155.159 141.444 155.618 141.444C156.044 141.444 156.487 141.385 156.946 141.268C157.415 141.14 157.847 140.927 158.242 140.628C158.636 140.319 158.86 139.956 158.914 139.54C158.924 139.412 158.93 139.311 158.93 139.236C158.93 139.161 158.892 139.076 158.818 138.98C158.754 138.873 158.695 138.793 158.642 138.74C158.588 138.687 158.514 138.617 158.418 138.532C158.322 138.447 158.252 138.377 158.21 138.324C157.303 137.823 156.615 137.572 156.146 137.572C155.911 137.572 155.687 137.62 155.474 137.716C155.378 137.748 155.276 137.817 155.17 137.924C154.86 138.212 154.658 138.377 154.562 138.42C154.53 138.452 154.466 138.511 154.37 138.596C154.284 138.681 154.21 138.756 154.146 138.82C154.082 138.873 154.018 138.943 153.954 139.028C153.9 139.103 153.868 139.172 153.858 139.236C153.794 139.353 153.756 139.487 153.746 139.636C153.735 139.785 153.735 139.924 153.746 140.052C153.767 140.169 153.767 140.303 153.746 140.452ZM161.853 146.116C162.098 145.924 162.344 145.828 162.589 145.828C162.781 145.828 162.941 145.892 163.069 146.02C163.122 146.073 163.261 146.233 163.485 146.5C163.709 146.777 163.906 146.98 164.077 147.108C164.248 147.236 164.434 147.316 164.637 147.348C164.669 147.348 164.69 147.343 164.701 147.332C164.925 147.225 165.085 147.039 165.181 146.772C165.277 146.505 165.341 146.169 165.373 145.764C165.416 145.359 165.458 145.076 165.501 144.916C165.544 144.639 165.602 144.185 165.677 143.556C165.762 142.927 165.832 142.473 165.885 142.196H165.709C165.154 142.324 164.61 142.388 164.077 142.388C163.565 142.388 163.026 142.324 162.461 142.196C162.024 141.94 161.645 141.62 161.325 141.236C161.016 140.841 160.856 140.415 160.845 139.956C160.888 139.487 161.133 139.023 161.581 138.564C162.029 138.095 162.493 137.753 162.973 137.54C163.368 137.209 163.858 137.044 164.445 137.044C165.202 137.044 165.757 137.305 166.109 137.828C166.109 137.892 166.109 137.993 166.109 138.132C166.12 138.26 166.12 138.361 166.109 138.436C166.109 138.5 166.077 138.564 166.013 138.628C165.949 138.692 165.848 138.729 165.709 138.74C165.581 138.665 165.234 138.596 164.669 138.532C163.997 138.489 163.33 138.863 162.669 139.652C162.616 139.705 162.578 139.764 162.557 139.828C162.536 139.892 162.536 139.956 162.557 140.02C162.578 140.084 162.6 140.143 162.621 140.196C162.653 140.249 162.696 140.308 162.749 140.372C162.813 140.425 162.861 140.473 162.893 140.516C162.936 140.548 162.989 140.596 163.053 140.66C163.117 140.713 163.16 140.751 163.181 140.772C163.501 140.9 163.853 140.964 164.237 140.964C164.578 140.964 164.925 140.911 165.277 140.804C165.64 140.687 165.965 140.5 166.253 140.244C166.541 139.988 166.696 139.689 166.717 139.348C166.813 138.879 167.085 138.575 167.533 138.436H167.581C167.602 138.447 167.65 138.463 167.725 138.484C167.81 138.505 167.864 138.521 167.885 138.532C167.906 138.532 167.949 138.543 168.013 138.564C168.077 138.585 168.12 138.601 168.141 138.612C168.173 138.623 168.21 138.644 168.253 138.676C168.306 138.697 168.338 138.724 168.349 138.756C168.37 138.777 168.392 138.809 168.413 138.852C168.445 138.884 168.461 138.921 168.461 138.964C168.461 138.996 168.461 139.039 168.461 139.092C168.461 139.145 168.456 139.199 168.445 139.252C168.466 139.572 168.322 140.015 168.013 140.58C167.714 141.135 167.538 141.529 167.485 141.764C167.016 143.279 166.69 144.767 166.509 146.228C166.434 147.145 166.269 147.817 166.013 148.244C165.693 148.724 165.432 149.033 165.229 149.172C165.069 149.268 164.893 149.332 164.701 149.364C164.168 149.151 163.522 148.745 162.765 148.148C162.53 148.031 162.349 147.935 162.221 147.86C162.104 147.785 161.976 147.673 161.837 147.524C161.698 147.375 161.602 147.209 161.549 147.028C161.528 146.58 161.629 146.276 161.853 146.116ZM169.101 140.452V138.724C169.026 138.607 168.989 138.436 168.989 138.212C168.989 137.988 169.026 137.823 169.101 137.716C169.261 137.599 169.447 137.476 169.661 137.348C169.874 137.22 170.109 137.081 170.365 136.932C170.621 136.783 170.807 136.671 170.925 136.596C171.373 136.329 171.933 136.196 172.605 136.196C173.394 136.196 174.151 136.367 174.877 136.708C175.613 137.049 176.221 137.519 176.701 138.116C177.255 138.873 177.389 139.583 177.101 140.244C176.418 141.417 175.405 142.159 174.061 142.468C173.89 142.532 173.698 142.58 173.485 142.612C173.282 142.644 173.117 142.66 172.989 142.66C172.861 142.671 172.658 142.671 172.381 142.66C172.103 142.66 171.922 142.66 171.837 142.66C171.293 142.543 170.914 142.457 170.701 142.404C170.498 142.351 170.279 142.244 170.045 142.084C169.81 141.913 169.634 141.716 169.517 141.492C169.41 141.268 169.271 140.921 169.101 140.452ZM170.621 140.452C170.695 140.601 170.818 140.767 170.989 140.948C171.159 141.119 171.309 141.22 171.437 141.252C171.682 141.38 172.034 141.444 172.493 141.444C172.919 141.444 173.362 141.385 173.821 141.268C174.29 141.14 174.722 140.927 175.117 140.628C175.511 140.319 175.735 139.956 175.789 139.54C175.799 139.412 175.805 139.311 175.805 139.236C175.805 139.161 175.767 139.076 175.693 138.98C175.629 138.873 175.57 138.793 175.517 138.74C175.463 138.687 175.389 138.617 175.293 138.532C175.197 138.447 175.127 138.377 175.085 138.324C174.178 137.823 173.49 137.572 173.021 137.572C172.786 137.572 172.562 137.62 172.349 137.716C172.253 137.748 172.151 137.817 172.045 137.924C171.735 138.212 171.533 138.377 171.437 138.42C171.405 138.452 171.341 138.511 171.245 138.596C171.159 138.681 171.085 138.756 171.021 138.82C170.957 138.873 170.893 138.943 170.829 139.028C170.775 139.103 170.743 139.172 170.733 139.236C170.669 139.353 170.631 139.487 170.621 139.636C170.61 139.785 170.61 139.924 170.621 140.052C170.642 140.169 170.642 140.303 170.621 140.452ZM184.184 138.068L184.264 138.084C184.307 137.647 184.397 137.353 184.536 137.204C184.653 137.055 184.749 136.98 184.824 136.98C184.856 136.98 184.893 136.98 184.936 136.98C185.011 136.969 185.075 136.975 185.128 136.996C185.192 137.017 185.267 137.071 185.352 137.156C185.448 137.231 185.512 137.279 185.544 137.3C185.715 137.577 185.784 137.913 185.752 138.308C185.752 138.329 185.651 138.58 185.448 139.06C185.373 139.455 185.363 139.86 185.416 140.276C185.469 140.681 185.619 141.049 185.864 141.38C186.067 141.849 186.083 142.191 185.912 142.404C185.869 142.511 185.789 142.564 185.672 142.564C185.608 142.564 185.528 142.548 185.432 142.516C185.347 142.484 185.245 142.441 185.128 142.388C185.011 142.335 184.931 142.303 184.888 142.292C184.504 142.036 184.259 141.615 184.152 141.028C183.725 141.487 183.315 141.823 182.92 142.036C182.536 142.239 182.013 142.415 181.352 142.564C181 142.607 180.653 142.564 180.312 142.436C179.981 142.308 179.736 142.18 179.576 142.052C179.416 141.924 179.144 141.689 178.76 141.348C178.611 141.145 178.488 140.953 178.392 140.772C178.307 140.591 178.243 140.393 178.2 140.18C178.168 139.967 178.147 139.812 178.136 139.716C178.125 139.609 178.125 139.412 178.136 139.124C178.147 138.825 178.152 138.623 178.152 138.516C178.216 138.452 178.248 138.351 178.248 138.212V138.116C178.216 137.956 178.285 137.583 178.456 136.996C178.477 136.953 178.536 136.884 178.632 136.788C178.739 136.681 178.813 136.617 178.856 136.596C178.952 136.575 179.123 136.585 179.368 136.628C179.613 136.671 179.747 136.692 179.768 136.692C179.853 136.713 179.917 136.751 179.96 136.804C180.013 136.857 180.045 136.927 180.056 137.012C180.077 137.087 180.088 137.156 180.088 137.22C180.088 137.284 180.083 137.369 180.072 137.476C180.072 137.583 180.072 137.657 180.072 137.7C180.072 137.721 180.056 137.759 180.024 137.812L179.976 137.908C179.763 138.367 179.656 138.847 179.656 139.348C179.624 139.625 179.693 139.913 179.864 140.212C180.035 140.5 180.243 140.745 180.488 140.948C181 141.065 181.315 141.124 181.432 141.124C181.656 141.124 181.88 141.065 182.104 140.948C182.275 140.884 182.435 140.799 182.584 140.692C182.744 140.575 182.872 140.468 182.968 140.372C183.075 140.265 183.192 140.116 183.32 139.924C183.459 139.732 183.555 139.593 183.608 139.508C183.661 139.412 183.757 139.241 183.896 138.996C184.035 138.751 184.125 138.596 184.168 138.532C184.168 138.479 184.168 138.399 184.168 138.292C184.179 138.185 184.184 138.111 184.184 138.068ZM189.278 139.572L189.31 138.26C189.31 137.951 189.283 137.476 189.23 136.836C189.166 136.591 189.107 136.447 189.054 136.404C188.35 136.457 187.811 136.575 187.438 136.756C187.342 136.756 187.203 136.793 187.022 136.868C186.841 136.943 186.686 136.969 186.558 136.948C186.483 136.916 186.409 136.868 186.334 136.804C186.259 136.74 186.185 136.665 186.11 136.58C186.025 136.484 185.955 136.415 185.902 136.372C185.859 136.265 185.843 136.116 185.854 135.924C185.865 135.732 185.902 135.588 185.966 135.492L186.494 135.028C187.049 135.017 187.875 134.911 188.974 134.708L189.086 134.58L189.118 132.068C189.363 131.801 189.667 131.705 190.03 131.78C190.318 132.004 190.478 132.281 190.51 132.612C190.542 132.676 190.563 132.943 190.574 133.412C190.585 133.881 190.627 134.153 190.702 134.228C190.713 134.228 190.761 134.244 190.846 134.276C190.942 134.297 190.995 134.313 191.006 134.324C191.219 134.303 191.491 134.265 191.822 134.212C192.153 134.148 192.393 134.111 192.542 134.1C192.691 134.089 192.963 134.095 193.358 134.116L194.094 134.148C194.553 134.212 194.723 134.479 194.606 134.948C194.425 135.129 194.286 135.231 194.19 135.252C193.945 135.273 193.694 135.305 193.438 135.348C193.182 135.391 192.862 135.46 192.478 135.556C192.105 135.641 191.854 135.695 191.726 135.716L191.694 135.732C191.417 135.743 191.102 135.812 190.75 135.94L190.67 136.052C190.67 136.18 190.659 136.393 190.638 136.692C190.627 136.98 190.627 137.231 190.638 137.444C190.649 137.647 190.681 137.855 190.734 138.068C190.734 139.935 190.83 141.097 191.022 141.556C191.235 141.748 191.427 141.849 191.598 141.86C191.694 141.86 191.817 141.844 191.966 141.812C192.009 141.801 192.073 141.785 192.158 141.764C192.243 141.743 192.302 141.732 192.334 141.732C192.366 141.721 192.414 141.705 192.478 141.684C192.542 141.663 192.585 141.647 192.606 141.636C192.638 141.625 192.675 141.609 192.718 141.588C192.771 141.556 192.809 141.524 192.83 141.492C192.862 141.46 192.899 141.423 192.942 141.38C192.985 141.337 193.022 141.289 193.054 141.236C193.097 141.183 193.139 141.124 193.182 141.06C193.225 140.985 193.273 140.905 193.326 140.82C193.315 140.767 193.331 140.639 193.374 140.436C193.417 140.233 193.449 140.105 193.47 140.052C193.587 139.721 193.801 139.561 194.11 139.572C194.259 139.551 194.371 139.577 194.446 139.652C194.521 139.727 194.59 139.86 194.654 140.052L194.734 140.324C194.659 140.847 194.579 141.172 194.494 141.3C194.281 141.727 194.115 142.02 193.998 142.18C193.891 142.34 193.694 142.505 193.406 142.676C193.118 142.857 192.675 143.044 192.078 143.236C192.046 143.247 191.923 143.289 191.71 143.364C191.497 143.449 191.331 143.492 191.214 143.492C190.723 143.471 190.361 143.311 190.126 143.012C190.094 142.948 189.998 142.783 189.838 142.516C189.678 142.239 189.566 141.999 189.502 141.796C189.438 141.583 189.422 141.359 189.454 141.124C189.443 140.932 189.417 140.655 189.374 140.292C189.331 139.929 189.305 139.7 189.294 139.604C189.283 139.593 189.278 139.583 189.278 139.572Z" fill="#1E1E1E"/>
<path d="M87 313.018C125.19 314.258 159.56 310.518 183.79 313.018C199.91 313.668 204.05 322.968 204.52 333.748C203.8 347.448 206.12 355.938 204.52 375.218C205.42 392.388 198.74 398.168 183.79 395.948C153.46 396.478 122.16 393.808 87 395.948C75.54 393.378 68.84 386.288 66.27 375.218C67.22 365.508 67.7 353.178 66.27 333.748C69.25 321.448 70.35 309.758 87 313.018Z" fill="#E9ECEF"/>
</svg>
