<svg width="671" height="425" viewBox="0 0 671 425" fill="none" xmlns="http://www.w3.org/2000/svg">
<path d="M43.412 48.7173C165.192 51.4273 287.852 52.2573 628.192 48.7173C646.152 49.9973 663.232 58.4573 660.192 80.7173C663.072 179.617 663.542 277.617 660.192 382.907C660.862 404.067 647.782 416.657 628.192 414.907C441.342 415.557 252.032 412.957 43.412 414.907C20.442 413.807 9.42198 402.237 11.412 382.907C12.902 307.647 11.072 232.267 11.412 80.7173C9.05198 62.6873 19.762 51.4473 43.412 48.7173Z" fill="#E9ECEF"/>
<path d="M43.4118 48.7173C164.362 49.9573 286.282 50.5473 628.192 48.7173M43.4118 48.7173C270.032 48.2373 497.352 48.4073 628.192 48.7173M43.4118 48.7173C21.1118 49.7173 9.95178 60.4973 11.4118 80.7173M43.4118 48.7173C24.2018 48.7073 9.69178 61.4073 11.4118 80.7173M628.192 48.7173C649.622 46.8973 658.852 60.5473 660.192 80.7173M628.192 48.7173C647.612 49.5273 658.142 58.0173 660.192 80.7173M660.192 80.7173C657.302 169.427 658.262 259.137 660.192 382.907M660.192 80.7173C658.472 167.637 658.122 254.987 660.192 382.907M660.192 382.907C658.422 406.217 651.122 413.057 628.192 414.907M660.192 382.907C658.432 405.087 649.912 416.977 628.192 414.907M628.192 414.907C460.262 414.687 291.182 414.537 43.4118 414.907M628.192 414.907C394.862 415.837 161.802 416.067 43.4118 414.907M43.4118 414.907C22.8718 414.557 10.4118 404.597 11.4118 382.907M43.4118 414.907C20.5018 414.847 13.4718 405.777 11.4118 382.907M11.4118 382.907C11.7818 287.357 12.1518 194.847 11.4118 80.7173M11.4118 382.907C9.78178 313.397 10.1118 244.877 11.4118 80.7173" stroke="#1E1E1E" stroke-width="2" stroke-linecap="round"/>
<path d="M345.597 134.43C398.067 136.37 446.687 136.78 578.227 134.43C602.607 133.5 611.217 145.97 610.227 166.43C614.607 192.08 612.017 220.22 610.227 251.99C608.477 275.07 600.317 284.32 578.227 283.99C511.057 284.85 445.527 286.47 345.597 283.99C322.277 281.98 311.907 272.32 313.597 251.99C311.397 226.31 311.017 197.6 313.597 166.43C311.287 147.83 326.707 131.3 345.597 134.43Z" fill="#A5D8FF"/>
<path d="M345.597 134.43C399.617 135.76 456.647 135.55 578.227 134.43M345.597 134.43C421.337 134.49 496.787 133.16 578.227 134.43M345.597 134.43C322.767 136.19 312.627 146.09 313.597 166.43M345.597 134.43C322.167 132.68 315.727 145.09 313.597 166.43M578.227 134.43C598.217 135.59 608.557 145.8 610.227 166.43M578.227 134.43C597.507 133.06 610.097 143.22 610.227 166.43M610.227 166.43C609.387 189.13 609.347 209.17 610.227 251.99M610.227 166.43C608.997 200.66 608.997 235.68 610.227 251.99M610.227 251.99C611.827 271.47 598.027 284.72 578.227 283.99M610.227 251.99C610.607 275.39 599.287 284.81 578.227 283.99M578.227 283.99C507.397 282.07 437.927 283.73 345.597 283.99M578.227 283.99C500.467 284.8 421.487 284.07 345.597 283.99M345.597 283.99C323.257 284.34 312.227 273.27 313.597 251.99M345.597 283.99C326.327 285.52 313.867 272.39 313.597 251.99M313.597 251.99C313.697 231.12 312.467 210.37 313.597 166.43M313.597 251.99C314.027 232.9 312.987 213.94 313.597 166.43" stroke="#1E1E1E" stroke-width="2" stroke-linecap="round"/>
<path d="M27.6007 49.908C189.151 49.438 354.621 48.548 644.091 49.908C655.751 50.788 660.651 57.858 660.101 65.918C661.291 75.298 658.871 86.788 660.101 97.928C660.861 108.928 654.131 116.118 644.091 113.938C399.031 109.778 154.481 109.408 27.6007 113.938C15.2407 112.938 12.9307 109.128 11.5907 97.928C9.55072 90.138 9.59072 78.478 11.5907 65.918C14.0307 52.118 13.3307 49.758 27.6007 49.908Z" fill="#FFEC99"/>
<path d="M27.6009 49.9081C192.671 49.1481 356.531 48.3081 644.091 49.9081M27.6009 49.9081C228.371 47.8881 428.841 48.4781 644.091 49.9081M27.6009 49.9081C18.7809 49.8981 10.0909 57.0081 11.5909 65.9181M27.6009 49.9081C15.1609 49.3881 9.49088 53.4981 11.5909 65.9181M644.091 49.9081C653.101 50.6181 658.311 54.0581 660.101 65.9181M644.091 49.9081C654.641 48.0381 659.121 53.5081 660.101 65.9181M660.101 65.9181C659.831 73.6881 662.051 83.2381 660.101 97.9281M660.101 65.9181C658.931 75.7281 660.621 82.6381 660.101 97.9281M660.101 97.9281C658.571 109.338 655.091 115.738 644.091 113.938M660.101 97.9281C659.831 109.418 654.881 115.678 644.091 113.938M644.091 113.938C486.841 112.678 328.311 112.498 27.6009 113.938M644.091 113.938C452.091 115.558 259.571 115.698 27.6009 113.938M27.6009 113.938C15.5509 113.878 13.3809 109.928 11.5909 97.9281M27.6009 113.938C17.2009 113.008 10.4709 107.788 11.5909 97.9281M11.5909 97.9281C10.2009 92.5381 10.1309 84.0981 11.5909 65.9181M11.5909 97.9281C10.7609 90.7381 11.0109 82.9281 11.5909 65.9181" stroke="#1E1E1E" stroke-width="2" stroke-linecap="round"/>
<path d="M185.378 81.4439C185.351 81.2173 185.398 81.0039 185.518 80.8039C185.651 80.5906 185.818 80.4706 186.018 80.4439C186.484 80.3506 186.891 80.4639 187.238 80.7839C187.291 80.8106 187.431 80.9439 187.658 81.1839C188.231 81.5439 188.944 81.7573 189.798 81.8239C190.304 81.8239 190.771 81.8306 191.198 81.8439C191.638 81.8573 192.104 81.8306 192.598 81.7639C193.104 81.6973 193.564 81.5906 193.978 81.4439C194.538 81.0039 194.751 80.6239 194.618 80.3039C194.538 80.0373 194.264 79.7373 193.798 79.4039C193.331 79.0706 193.058 78.8639 192.978 78.7839C191.511 78.2506 189.951 77.5773 188.298 76.7639C187.858 76.5506 187.538 76.3639 187.338 76.2039C187.138 76.0439 186.864 75.7639 186.518 75.3639C186.358 75.1373 186.331 74.6906 186.438 74.0239C186.518 73.7973 186.798 73.5706 187.278 73.3439C187.291 73.3439 187.431 73.3039 187.698 73.2239C187.964 73.1439 188.118 73.1039 188.158 73.1039C188.318 72.9839 188.498 72.8706 188.698 72.7639C188.911 72.6439 189.098 72.5439 189.258 72.4639C189.431 72.3839 189.651 72.2906 189.918 72.1839C190.198 72.0639 190.404 71.9773 190.538 71.9239C190.684 71.8706 190.918 71.7906 191.238 71.6839C191.571 71.5639 191.791 71.4839 191.898 71.4439C192.031 71.4039 192.311 71.2973 192.738 71.1239C193.164 70.9373 193.551 70.7839 193.898 70.6639C194.258 70.5306 194.524 70.4506 194.698 70.4239L195.858 70.3039L196.638 70.6839C196.758 70.7773 196.831 70.8839 196.858 71.0039C196.898 71.1106 196.911 71.2573 196.898 71.4439C196.898 71.6306 196.898 71.7573 196.898 71.8239C196.551 72.2639 196.211 72.4373 195.878 72.3439C195.851 72.3439 195.764 72.3039 195.618 72.2239C195.471 72.1306 195.391 72.0839 195.378 72.0839C195.298 72.0706 195.198 72.0773 195.078 72.1039C194.958 72.1306 194.818 72.1773 194.658 72.2439C194.511 72.2973 194.411 72.3306 194.358 72.3439C193.998 72.5439 193.398 72.8239 192.558 73.1839C191.731 73.5306 191.238 73.7439 191.078 73.8239C190.038 74.2106 189.404 74.4773 189.178 74.6239V74.7439C189.351 74.9839 189.578 75.1973 189.858 75.3839C190.138 75.5706 190.531 75.7706 191.038 75.9839C191.544 76.1973 191.851 76.3306 191.958 76.3839C193.891 77.1039 195.284 77.9906 196.138 79.0439C196.471 79.7639 196.598 80.4373 196.518 81.0639C196.304 81.5706 195.978 82.0306 195.538 82.4439C195.098 82.8439 194.618 83.1373 194.098 83.3239C193.364 83.6173 192.264 83.7506 190.798 83.7239C189.251 83.7639 187.951 83.5506 186.898 83.0839C186.538 82.9773 186.284 82.8506 186.138 82.7039C185.631 82.3306 185.378 81.9106 185.378 81.4439ZM199.386 78.0839C200.346 76.8573 201.399 76.0573 202.546 75.6839C203.279 75.5906 203.666 75.5439 203.706 75.5439C204.532 75.5706 205.252 75.8239 205.866 76.3039C206.479 76.7706 206.806 77.4106 206.846 78.2239C206.859 78.9306 206.572 79.5773 205.986 80.1639C205.412 80.7506 204.772 81.0706 204.066 81.1239C203.799 81.2173 203.512 81.2639 203.206 81.2639C202.512 81.2639 201.746 81.0106 200.906 80.5039C200.652 80.2506 200.486 80.1239 200.406 80.1239C200.352 80.0973 200.306 80.0973 200.266 80.1239C199.826 80.7906 199.612 81.2973 199.626 81.6439C199.772 82.5106 200.239 83.2439 201.026 83.8439C201.812 84.4573 202.646 84.7373 203.526 84.6839C203.659 84.7373 203.892 84.7373 204.226 84.6839C204.559 84.6439 204.779 84.6106 204.886 84.5839C205.006 84.5573 205.232 84.4906 205.566 84.3839C205.912 84.2906 206.152 84.2239 206.286 84.1839C206.752 83.9973 207.372 83.8773 208.146 83.8239H208.286C208.379 83.7973 208.466 83.8173 208.546 83.8839C208.626 83.9506 208.672 84.0506 208.686 84.1839V84.9239C208.206 85.4706 207.612 85.7639 206.906 85.8039C206.759 85.8439 206.492 85.9173 206.106 86.0239C205.732 86.1306 205.446 86.2039 205.246 86.2439C205.059 86.2973 204.806 86.3439 204.486 86.3839C204.179 86.4373 203.899 86.4573 203.646 86.4439C202.472 86.4973 201.346 86.1973 200.266 85.5439C199.279 85.0373 198.519 84.1573 197.986 82.9039C197.786 82.1173 197.819 81.3506 198.086 80.6039C198.352 79.8573 198.786 79.0173 199.386 78.0839ZM200.946 79.0439C201.226 79.0439 201.466 79.0639 201.666 79.1039C201.786 79.1706 201.899 79.2239 202.006 79.2639C202.126 79.2906 202.266 79.3173 202.426 79.3439C202.599 79.3573 202.712 79.3639 202.766 79.3639C202.819 79.3639 202.959 79.3639 203.186 79.3639C203.426 79.3639 203.552 79.3639 203.566 79.3639C204.259 79.1506 204.719 78.8506 204.946 78.4639C204.986 78.3173 204.986 78.1906 204.946 78.0839C204.919 77.9639 204.846 77.8639 204.726 77.7839C204.606 77.7039 204.492 77.6439 204.386 77.6039C204.279 77.5639 204.132 77.5173 203.946 77.4639C203.772 77.3973 203.646 77.3506 203.566 77.3239C203.246 77.3239 202.919 77.4173 202.586 77.6039C202.252 77.7773 201.986 77.9506 201.786 78.1239C201.586 78.2973 201.332 78.5373 201.026 78.8439C201.026 78.8573 201.012 78.8906 200.986 78.9439C200.959 78.9839 200.946 79.0173 200.946 79.0439ZM216.423 80.9039C216.317 80.9839 216.19 81.1506 216.043 81.4039C215.337 82.1773 214.643 82.7973 213.963 83.2639C213.297 83.7173 212.57 83.9373 211.783 83.9239C211.37 83.9773 210.943 83.9239 210.503 83.7639C210.063 83.5906 209.717 83.3506 209.463 83.0439C209.343 82.8573 209.257 82.7306 209.203 82.6639C209.163 82.5839 209.097 82.4639 209.003 82.3039C208.91 82.1306 208.843 81.9906 208.803 81.8839C208.777 81.7773 208.743 81.6506 208.703 81.5039C208.663 81.3573 208.643 81.2173 208.643 81.0839C208.643 80.9373 208.663 80.7906 208.703 80.6439C208.717 80.1906 208.863 79.7306 209.143 79.2639C209.437 78.7973 209.73 78.4239 210.023 78.1439C210.317 77.8639 210.697 77.5306 211.163 77.1439C211.257 77.0773 211.323 77.0239 211.363 76.9839C211.923 76.5306 212.683 76.3039 213.643 76.3039C213.843 76.3039 214.477 76.3573 215.543 76.4639C215.57 76.4906 215.657 76.5373 215.803 76.6039C215.963 76.6706 216.077 76.7439 216.143 76.8239C216.21 76.8906 216.217 76.9839 216.163 77.1039L216.423 77.3639C216.823 77.5373 217.077 77.7039 217.183 77.8639C217.85 79.2239 218.437 80.3173 218.943 81.1439C218.997 81.2106 219.163 81.3639 219.443 81.6039C219.737 81.8306 219.91 81.9773 219.963 82.0439C220.07 82.1239 220.197 82.2373 220.343 82.3839C220.503 82.5173 220.637 82.6173 220.743 82.6839C220.85 82.7506 220.97 82.7906 221.103 82.8039C221.117 82.8173 221.203 82.8973 221.363 83.0439C221.377 83.0839 221.37 83.1373 221.343 83.2039C221.33 83.2573 221.31 83.3239 221.283 83.4039C221.257 83.4839 221.237 83.5373 221.223 83.5639C221.09 83.7639 220.797 83.9239 220.343 84.0439C220.183 84.0439 220.07 84.0506 220.003 84.0639C219.95 84.0906 219.857 84.0773 219.723 84.0239C219.603 83.9839 219.517 83.9506 219.463 83.9239C219.423 83.9106 219.337 83.8639 219.203 83.7839C219.07 83.7039 218.97 83.6439 218.903 83.6039L218.823 83.5639C218.49 83.2839 218.03 82.8039 217.443 82.1239C216.87 81.4306 216.53 81.0239 216.423 80.9039ZM210.603 81.5239C210.843 81.8839 211.203 82.0639 211.683 82.0639C211.91 82.0639 212.223 82.0106 212.623 81.9039C213.277 81.6639 213.87 81.2439 214.403 80.6439C214.923 79.9239 215.217 79.2906 215.283 78.7439C215.283 78.7039 215.31 78.5506 215.363 78.2839C215.417 78.0039 215.437 77.8106 215.423 77.7039C215.157 77.7706 214.77 77.8239 214.263 77.8639C213.77 77.8906 213.39 77.9306 213.123 77.9839C212.777 78.0373 212.423 78.2039 212.063 78.4839C211.703 78.7506 211.43 79.0039 211.243 79.2439C211.057 79.4839 210.803 79.8239 210.483 80.2639C210.257 80.5439 210.297 80.9639 210.603 81.5239ZM222.323 78.4239C222.416 77.8373 222.616 77.3306 222.923 76.9039C223.23 76.4773 223.663 76.0106 224.223 75.5039C224.703 75.2639 225.323 75.1439 226.083 75.1439C227.016 75.1439 227.783 75.3039 228.383 75.6239C229.516 76.3306 230.323 76.9239 230.803 77.4039C230.803 77.4439 230.81 77.5439 230.823 77.7039C230.836 77.8639 230.83 77.9973 230.803 78.1039C230.79 78.2106 230.743 78.2706 230.663 78.2839C230.236 78.3506 229.803 78.2839 229.363 78.0839C229.256 78.0173 229.083 77.9173 228.843 77.7839C228.603 77.6373 228.423 77.5306 228.303 77.4639C228.183 77.3973 228.023 77.3306 227.823 77.2639C227.623 77.1973 227.43 77.1573 227.243 77.1439C227.136 77.1439 226.963 77.1439 226.723 77.1439C226.483 77.1306 226.29 77.1306 226.143 77.1439C226.01 77.1439 225.843 77.1639 225.643 77.2039C225.443 77.2439 225.263 77.3106 225.103 77.4039L224.983 77.5239C224.503 78.1639 224.203 78.6573 224.083 79.0039C224.11 79.4039 224.11 79.7639 224.083 80.0839C224.056 80.3906 224.05 80.7439 224.063 81.1439C224.09 81.5439 224.143 81.8973 224.223 82.2039C224.316 82.3639 224.37 82.5239 224.383 82.6839C224.396 82.8306 224.363 83.0039 224.283 83.2039C224.203 83.4039 224.143 83.5439 224.103 83.6239C224.076 83.6906 223.99 83.8439 223.843 84.0839C223.723 84.2439 223.576 84.3239 223.403 84.3239C223.216 84.3239 223.023 84.2439 222.823 84.0839C222.503 83.8839 222.25 83.5106 222.063 82.9639C222.063 80.8573 222.15 79.3439 222.323 78.4239ZM230.517 79.8839C230.61 79.2573 230.79 78.7306 231.057 78.3039C231.337 77.8773 231.75 77.4306 232.297 76.9639C232.75 76.4439 233.297 76.0506 233.937 75.7839C234.577 75.5173 235.21 75.4439 235.837 75.5639C236.117 75.5506 236.403 75.6239 236.697 75.7839C237.003 75.9439 237.217 76.0839 237.337 76.2039C237.47 76.3239 237.69 76.5373 237.997 76.8439C238.303 77.2573 238.43 77.8906 238.377 78.7439C238.203 79.0639 238.03 79.2306 237.857 79.2439C237.817 79.2439 237.703 79.2573 237.517 79.2839C237.33 79.2973 237.183 79.2839 237.077 79.2439C236.983 79.2039 236.91 79.1173 236.857 78.9839C236.59 78.2773 236.383 77.8839 236.237 77.8039C236.037 77.6706 235.803 77.5973 235.537 77.5839C235.27 77.5706 235.03 77.5773 234.817 77.6039C234.497 77.6839 234.183 77.8506 233.877 78.1039C233.57 78.3439 233.337 78.5639 233.177 78.7639C233.03 78.9506 232.817 79.2373 232.537 79.6239C232.537 79.6639 232.51 79.7973 232.457 80.0239C232.417 80.2506 232.403 80.4573 232.417 80.6439C232.443 80.8306 232.53 80.9573 232.677 81.0239C233.103 81.5439 233.557 81.8906 234.037 82.0639C234.61 82.2906 235.63 82.5306 237.097 82.7839L239.517 83.3039C239.61 83.3839 239.697 83.5106 239.777 83.6839C239.87 83.8439 239.91 83.9639 239.897 84.0439C239.843 84.2173 239.71 84.3906 239.497 84.5639C239.297 84.7373 239.09 84.8573 238.877 84.9239C238.357 84.9773 237.683 84.8906 236.857 84.6639C235.403 84.3973 234.43 84.1906 233.937 84.0439C232.63 83.6173 231.657 82.9906 231.017 82.1639C230.59 81.5906 230.423 80.8306 230.517 79.8839ZM246.536 79.0239C246.163 79.1839 245.803 79.4039 245.456 79.6839C245.123 79.9639 244.876 80.1973 244.716 80.3839C244.569 80.5706 244.316 80.9106 243.956 81.4039C243.609 81.8973 243.389 82.2039 243.296 82.3239C243.069 82.9373 242.736 83.4373 242.296 83.8239C242.109 83.9173 241.943 83.9639 241.796 83.9639C241.503 83.9639 241.289 83.8373 241.156 83.5839C241.129 83.5439 241.083 83.4839 241.016 83.4039C240.949 83.3239 240.889 83.2506 240.836 83.1839L240.776 83.0839C240.776 83.0439 240.769 82.9573 240.756 82.8239C240.756 82.6773 240.756 82.5639 240.756 82.4839C240.756 82.3906 240.763 82.2906 240.776 82.1839C240.803 82.0773 240.843 81.9973 240.896 81.9439C240.949 81.5039 240.983 81.0306 240.996 80.5239C241.023 80.0173 241.029 79.5973 241.016 79.2639C241.003 78.9173 240.983 78.4373 240.956 77.8239C240.929 77.2106 240.909 76.7773 240.896 76.5239C240.923 76.1773 240.903 75.6239 240.836 74.8639C240.769 74.1039 240.749 73.5573 240.776 73.2239V72.0839C240.763 71.9239 240.836 71.8306 240.996 71.8039C241.169 71.7773 241.309 71.7839 241.416 71.8239C241.429 71.8373 241.489 71.8973 241.596 72.0039C241.703 72.1106 241.796 72.2173 241.876 72.3239C241.969 72.4173 242.023 72.5039 242.036 72.5839C242.396 74.3039 242.569 75.4439 242.556 76.0039C242.556 76.1373 242.576 76.7506 242.616 77.8439C242.656 78.9373 242.676 79.5439 242.676 79.6639V80.0439H242.796C242.903 79.9506 243.349 79.5039 244.136 78.7039C244.923 77.8906 245.576 77.3306 246.096 77.0239C246.336 76.9306 246.603 76.8839 246.896 76.8839C247.336 76.8839 247.696 77.0506 247.976 77.3839C248.429 77.8773 248.763 78.4239 248.976 79.0239C249.189 79.6106 249.363 80.3306 249.496 81.1839C249.883 82.3706 250.056 83.2506 250.016 83.8239L249.956 83.9439C249.929 84.0106 249.903 84.0573 249.876 84.0839C249.796 84.1773 249.683 84.2239 249.536 84.2239C249.429 84.2239 249.249 84.1773 248.996 84.0839C248.596 83.5906 248.256 82.9639 247.976 82.2039C247.656 81.2573 247.489 80.7106 247.476 80.5639C247.263 79.6573 246.949 79.1439 246.536 79.0239Z" fill="#1E1E1E"/>
<path d="M592.479 61.716C596.569 60.926 602.209 61.736 605.779 64.036C609.339 66.336 612.599 71.206 613.869 75.536C615.139 79.866 615.029 85.806 613.379 90.006C611.719 94.206 607.939 98.646 603.939 100.736C599.939 102.826 593.629 103.576 589.379 102.526C585.139 101.466 581.009 98.006 578.459 94.416C575.899 90.826 573.889 85.386 574.069 80.996C574.249 76.606 576.419 71.316 579.539 68.086C582.659 64.866 590.479 62.706 592.779 61.636C595.089 60.556 593.349 61.406 593.379 61.636M596.879 61.716C601.179 61.886 607.379 64.226 610.309 67.366C613.249 70.506 614.409 76.086 614.479 80.546C614.559 85.006 613.389 90.566 610.769 94.146C608.149 97.716 603.059 100.876 598.759 101.996C594.459 103.126 588.819 102.806 584.969 100.896C581.119 98.986 577.419 94.576 575.659 90.526C573.889 86.466 573.199 80.786 574.379 76.566C575.569 72.336 579.089 67.626 582.779 65.176C586.479 62.716 594.089 62.516 596.539 61.826C598.979 61.136 597.559 60.776 597.479 61.026" fill="#E9ECEF"/>
<path d="M593.589 60.806C597.859 60.296 604.099 62.526 607.589 65.236C611.079 67.946 613.659 72.726 614.539 77.066C615.409 81.396 614.789 87.116 612.849 91.226C610.909 95.336 607.049 99.996 602.879 101.706C598.709 103.426 592.089 102.936 587.829 101.526C583.559 100.126 579.509 97.006 577.299 93.276C575.079 89.556 573.949 83.626 574.529 79.186C575.109 74.736 577.469 69.646 580.789 66.596C584.109 63.556 592.169 61.786 594.469 60.896C596.769 59.996 594.549 60.796 594.579 61.216M597.149 61.716C601.389 61.816 606.569 64.066 609.499 67.196C612.419 70.316 614.479 75.966 614.699 80.446C614.919 84.926 613.199 90.366 610.819 94.076C608.429 97.786 604.569 101.626 600.399 102.716C596.219 103.796 589.929 102.616 585.769 100.566C581.609 98.526 577.369 94.466 575.409 90.436C573.439 86.406 572.699 80.736 573.979 76.376C575.249 72.016 579.209 66.896 583.049 64.266C586.879 61.646 594.769 61.156 596.979 60.636C599.189 60.126 596.389 60.716 596.309 61.176" stroke="#1E1E1E" stroke-width="2" stroke-linecap="round"/>
<path d="M587.746 67.4062C574.056 59.9062 524.726 29.3162 505.336 21.6162C485.936 13.9162 476.996 21.5062 471.386 21.1962M586.176 66.3062C572.416 59.0762 523.316 30.8862 504.596 23.0762C485.876 15.2762 479.356 19.8762 473.866 19.4762" stroke="#1E1E1E" stroke-width="2" stroke-linecap="round"/>
<path d="M488.696 12.4463C484.666 14.7863 480.816 14.9763 473.866 19.4763ZM488.696 12.4463C482.026 15.2963 476.116 18.8263 473.866 19.4763Z" stroke="#1E1E1E" stroke-width="2" stroke-linecap="round"/>
<path d="M489.746 23.6163C485.526 23.0863 481.416 20.3963 473.866 19.4763ZM489.746 23.6163C482.706 22.0063 476.366 21.0863 473.866 19.4763Z" stroke="#1E1E1E" stroke-width="2" stroke-linecap="round"/>
<path d="M351.181 21.0921C351.181 20.9854 351.127 20.8094 351.021 20.5641C350.957 20.5001 350.919 20.4681 350.909 20.4681L350.749 20.3881C350.525 20.4414 350.045 20.5321 349.309 20.6601C348.583 20.7774 348.082 20.8894 347.805 20.9961C347.613 21.0494 347.458 21.0761 347.341 21.0761C347.213 21.0761 347.069 21.0548 346.909 21.0121H346.813C346.77 21.0441 346.631 21.1774 346.397 21.4121C346.162 21.6361 345.938 21.8494 345.725 22.0521C345.522 22.2441 345.383 22.3668 345.309 22.4201C345.191 22.5054 344.999 22.6334 344.733 22.8041C344.466 22.9854 344.274 23.1241 344.157 23.2201C343.783 23.2201 343.597 23.1188 343.597 22.9161C343.533 22.5641 343.661 22.1961 343.981 21.8121L345.501 20.4041C346.013 19.8174 346.583 19.0921 347.213 18.2281C347.842 17.3641 348.327 16.7348 348.669 16.3401C348.775 16.1801 348.951 15.9134 349.197 15.5401C349.442 15.1668 349.618 14.8841 349.725 14.6921C349.842 14.5001 349.986 14.2494 350.157 13.9401C350.327 13.6308 350.461 13.3374 350.557 13.0601C350.653 12.7721 350.733 12.4734 350.797 12.1641C350.797 12.1534 350.818 12.0574 350.861 11.8761C350.914 11.6841 350.935 11.5774 350.925 11.5561C351.17 11.2148 351.421 11.0388 351.677 11.0281C351.773 11.0174 351.837 11.0121 351.869 11.0121C352.082 11.0121 352.263 11.0868 352.413 11.2361C352.562 11.3854 352.631 11.5508 352.621 11.7321C352.621 11.7961 352.605 12.0308 352.573 12.4361C352.541 12.8308 352.514 13.1614 352.493 13.4281C352.482 13.5988 352.466 13.8228 352.445 14.1001C352.434 14.3774 352.423 14.6014 352.413 14.7721C352.402 14.9321 352.391 15.0494 352.381 15.1241C352.391 15.6574 352.391 16.0574 352.381 16.3241C352.381 16.5908 352.37 16.9908 352.349 17.5241C352.338 18.0468 352.333 18.4468 352.333 18.7241C352.439 18.8308 352.567 18.8841 352.717 18.8841C352.738 18.8841 352.797 18.8948 352.893 18.9161C352.989 18.9268 353.063 18.9374 353.117 18.9481C353.17 18.9588 353.229 18.9748 353.293 18.9961C353.367 19.0174 353.426 19.0494 353.469 19.0921C353.522 19.1348 353.565 19.1881 353.597 19.2521C353.607 19.2734 353.607 19.3161 353.597 19.3801C353.597 19.4441 353.591 19.4868 353.581 19.5081C353.463 19.6148 353.154 19.7908 352.653 20.0361C352.61 20.0468 352.567 20.0734 352.525 20.1161C352.471 20.2654 352.493 20.5374 352.589 20.9321C352.685 21.3268 352.733 21.5508 352.733 21.6041C352.743 21.7001 352.765 21.8494 352.797 22.0521C352.829 22.2441 352.85 22.3934 352.861 22.5001C352.871 22.6068 352.85 22.7294 352.797 22.8681C352.743 23.0174 352.647 23.1454 352.509 23.2521C352.391 23.3161 352.258 23.3481 352.109 23.3481C351.97 23.3481 351.837 23.3161 351.709 23.2521C351.549 23.1241 351.341 22.8628 351.085 22.4681L351.005 22.3081C350.994 22.1694 351.026 21.9668 351.101 21.7001C351.175 21.4334 351.202 21.2308 351.181 21.0921ZM348.029 19.3321C348.018 19.3428 348.023 19.3588 348.045 19.3801C348.077 19.4014 348.103 19.4121 348.125 19.4121C348.189 19.4121 348.327 19.4121 348.541 19.4121C348.754 19.4014 348.909 19.3961 349.005 19.3961C349.111 19.3854 349.261 19.3748 349.453 19.3641C349.655 19.3428 349.821 19.3214 349.949 19.3001C350.077 19.2788 350.221 19.2468 350.381 19.2041C350.541 19.1614 350.685 19.1134 350.813 19.0601L350.925 18.9801L350.989 18.1961V17.4601L350.973 16.0521V15.3161C350.802 15.4228 350.626 15.6574 350.445 16.0201C350.263 16.3828 350.098 16.6334 349.949 16.7721C349.735 17.1241 349.389 17.6041 348.909 18.2121C348.429 18.8094 348.135 19.1828 348.029 19.3321ZM354.225 15.6361C354.257 15.6041 354.315 15.5454 354.401 15.4601C354.486 15.3641 354.545 15.3054 354.577 15.2841C354.619 15.2628 354.678 15.2361 354.753 15.2041C354.838 15.1614 354.934 15.1401 355.041 15.1401C355.19 15.0868 355.35 15.1454 355.521 15.3161C355.691 15.4761 355.803 15.6521 355.857 15.8441C355.899 16.6548 356.065 17.6308 356.353 18.7721C356.374 18.8361 356.433 18.9961 356.529 19.2521C356.625 19.5081 356.705 19.7108 356.769 19.8601C356.843 19.9988 356.95 20.1481 357.089 20.3081C357.238 20.4681 357.398 20.5641 357.569 20.5961C357.771 20.6388 357.958 20.5854 358.129 20.4361C359.121 19.2521 359.777 18.3614 360.097 17.7641C360.225 17.5614 360.395 17.2041 360.609 16.6921C360.833 16.1694 361.035 15.7854 361.217 15.5401C361.313 15.4441 361.547 15.4121 361.921 15.4441C362.059 15.4654 362.177 15.5508 362.273 15.7001C362.379 15.8388 362.433 15.9881 362.433 16.1481C362.433 16.2121 362.331 16.4788 362.129 16.9481C361.339 18.3454 360.598 19.4761 359.905 20.3401C359.851 20.4041 359.766 20.5214 359.649 20.6921C359.531 20.8521 359.446 20.9694 359.393 21.0441C359.339 21.1081 359.254 21.2094 359.137 21.3481C359.03 21.4761 358.934 21.5774 358.849 21.6521C358.774 21.7268 358.678 21.8174 358.561 21.9241C358.454 22.0201 358.342 22.1054 358.225 22.1801C358.203 22.2014 358.161 22.2388 358.097 22.2921C358.033 22.3348 357.995 22.3561 357.985 22.3561C357.985 22.3561 357.958 22.3721 357.905 22.4041C357.851 22.4361 357.819 22.4468 357.809 22.4361C357.798 22.4254 357.755 22.4308 357.681 22.4521C357.617 22.4628 357.563 22.4574 357.521 22.4361C357.339 22.4361 357.217 22.4254 357.153 22.4041C357.089 22.3828 356.993 22.3188 356.865 22.2121C356.641 22.0094 356.438 21.7854 356.257 21.5401C356.075 21.2948 355.937 21.0868 355.841 20.9161C355.745 20.7348 355.611 20.4628 355.441 20.1001C355.174 19.3214 354.971 18.6121 354.833 17.9721C354.758 17.7801 354.523 17.3374 354.129 16.6441C354.107 16.1428 354.139 15.8068 354.225 15.6361ZM368.744 20.2121C368.658 20.2761 368.557 20.4094 368.44 20.6121C367.874 21.2308 367.32 21.7268 366.776 22.1001C366.242 22.4628 365.661 22.6388 365.032 22.6281C364.701 22.6708 364.36 22.6281 364.008 22.5001C363.656 22.3614 363.378 22.1694 363.176 21.9241C363.08 21.7748 363.01 21.6734 362.968 21.6201C362.936 21.5561 362.882 21.4601 362.808 21.3321C362.733 21.1934 362.68 21.0814 362.648 20.9961C362.626 20.9108 362.6 20.8094 362.568 20.6921C362.536 20.5748 362.52 20.4628 362.52 20.3561C362.52 20.2388 362.536 20.1214 362.568 20.0041C362.578 19.6414 362.696 19.2734 362.92 18.9001C363.154 18.5268 363.389 18.2281 363.624 18.0041C363.858 17.7801 364.162 17.5134 364.536 17.2041C364.61 17.1508 364.664 17.1081 364.696 17.0761C365.144 16.7134 365.752 16.5321 366.52 16.5321C366.68 16.5321 367.186 16.5748 368.04 16.6601C368.061 16.6814 368.13 16.7188 368.248 16.7721C368.376 16.8254 368.466 16.8841 368.52 16.9481C368.573 17.0014 368.578 17.0761 368.536 17.1721L368.744 17.3801C369.064 17.5188 369.266 17.6521 369.352 17.7801C369.885 18.8681 370.354 19.7428 370.76 20.4041C370.802 20.4574 370.936 20.5801 371.16 20.7721C371.394 20.9534 371.533 21.0708 371.576 21.1241C371.661 21.1881 371.762 21.2788 371.88 21.3961C372.008 21.5028 372.114 21.5828 372.2 21.6361C372.285 21.6894 372.381 21.7214 372.488 21.7321C372.498 21.7428 372.568 21.8068 372.696 21.9241C372.706 21.9561 372.701 21.9988 372.68 22.0521C372.669 22.0948 372.653 22.1481 372.632 22.2121C372.61 22.2761 372.594 22.3188 372.584 22.3401C372.477 22.5001 372.242 22.6281 371.88 22.7241C371.752 22.7241 371.661 22.7294 371.608 22.7401C371.565 22.7614 371.49 22.7508 371.384 22.7081C371.288 22.6761 371.218 22.6494 371.176 22.6281C371.144 22.6174 371.074 22.5801 370.968 22.5161C370.861 22.4521 370.781 22.4041 370.728 22.3721L370.664 22.3401C370.397 22.1161 370.029 21.7321 369.56 21.1881C369.101 20.6334 368.829 20.3081 368.744 20.2121ZM364.088 20.7081C364.28 20.9961 364.568 21.1401 364.952 21.1401C365.133 21.1401 365.384 21.0974 365.704 21.0121C366.226 20.8201 366.701 20.4841 367.128 20.0041C367.544 19.4281 367.778 18.9214 367.832 18.4841C367.832 18.4521 367.853 18.3294 367.896 18.1161C367.938 17.8921 367.954 17.7374 367.944 17.6521C367.73 17.7054 367.421 17.7481 367.016 17.7801C366.621 17.8014 366.317 17.8334 366.104 17.8761C365.826 17.9188 365.544 18.0521 365.256 18.2761C364.968 18.4894 364.749 18.6921 364.6 18.8841C364.45 19.0761 364.248 19.3481 363.992 19.7001C363.81 19.9241 363.842 20.2601 364.088 20.7081ZM375.576 19.5081L375.608 18.1961C375.608 17.8868 375.581 17.4121 375.528 16.7721C375.464 16.5268 375.405 16.3828 375.352 16.3401C374.648 16.3934 374.109 16.5108 373.736 16.6921C373.64 16.6921 373.501 16.7294 373.32 16.8041C373.138 16.8788 372.984 16.9054 372.856 16.8841C372.781 16.8521 372.706 16.8041 372.632 16.7401C372.557 16.6761 372.482 16.6014 372.408 16.5161C372.322 16.4201 372.253 16.3508 372.2 16.3081C372.157 16.2014 372.141 16.0521 372.152 15.8601C372.162 15.6681 372.2 15.5241 372.264 15.4281L372.792 14.9641C373.346 14.9534 374.173 14.8468 375.272 14.6441L375.384 14.5161L375.416 12.0041C375.661 11.7374 375.965 11.6414 376.328 11.7161C376.616 11.9401 376.776 12.2174 376.808 12.5481C376.84 12.6121 376.861 12.8788 376.872 13.3481C376.882 13.8174 376.925 14.0894 377 14.1641C377.01 14.1641 377.058 14.1801 377.144 14.2121C377.24 14.2334 377.293 14.2494 377.304 14.2601C377.517 14.2388 377.789 14.2014 378.12 14.1481C378.45 14.0841 378.69 14.0468 378.84 14.0361C378.989 14.0254 379.261 14.0308 379.656 14.0521L380.392 14.0841C380.85 14.1481 381.021 14.4148 380.904 14.8841C380.722 15.0654 380.584 15.1668 380.488 15.1881C380.242 15.2094 379.992 15.2414 379.736 15.2841C379.48 15.3268 379.16 15.3961 378.776 15.4921C378.402 15.5774 378.152 15.6308 378.024 15.6521L377.992 15.6681C377.714 15.6788 377.4 15.7481 377.048 15.8761L376.968 15.9881C376.968 16.1161 376.957 16.3294 376.936 16.6281C376.925 16.9161 376.925 17.1668 376.936 17.3801C376.946 17.5828 376.978 17.7908 377.032 18.0041C377.032 19.8708 377.128 21.0334 377.32 21.4921C377.533 21.6841 377.725 21.7854 377.896 21.7961C377.992 21.7961 378.114 21.7801 378.264 21.7481C378.306 21.7374 378.37 21.7214 378.456 21.7001C378.541 21.6788 378.6 21.6681 378.632 21.6681C378.664 21.6574 378.712 21.6414 378.776 21.6201C378.84 21.5988 378.882 21.5828 378.904 21.5721C378.936 21.5614 378.973 21.5454 379.016 21.5241C379.069 21.4921 379.106 21.4601 379.128 21.4281C379.16 21.3961 379.197 21.3588 379.24 21.3161C379.282 21.2734 379.32 21.2254 379.352 21.1721C379.394 21.1188 379.437 21.0601 379.48 20.9961C379.522 20.9214 379.57 20.8414 379.624 20.7561C379.613 20.7028 379.629 20.5748 379.672 20.3721C379.714 20.1694 379.746 20.0414 379.768 19.9881C379.885 19.6574 380.098 19.4974 380.408 19.5081C380.557 19.4868 380.669 19.5134 380.744 19.5881C380.818 19.6628 380.888 19.7961 380.952 19.9881L381.032 20.2601C380.957 20.7828 380.877 21.1081 380.792 21.2361C380.578 21.6628 380.413 21.9561 380.296 22.1161C380.189 22.2761 379.992 22.4414 379.704 22.6121C379.416 22.7934 378.973 22.9801 378.376 23.1721C378.344 23.1828 378.221 23.2254 378.008 23.3001C377.794 23.3854 377.629 23.4281 377.512 23.4281C377.021 23.4068 376.658 23.2468 376.424 22.9481C376.392 22.8841 376.296 22.7188 376.136 22.4521C375.976 22.1748 375.864 21.9348 375.8 21.7321C375.736 21.5188 375.72 21.2948 375.752 21.0601C375.741 20.8681 375.714 20.5908 375.672 20.2281C375.629 19.8654 375.602 19.6361 375.592 19.5401C375.581 19.5294 375.576 19.5188 375.576 19.5081ZM388.463 20.2121C388.377 20.2761 388.276 20.4094 388.159 20.6121C387.593 21.2308 387.039 21.7268 386.495 22.1001C385.961 22.4628 385.38 22.6388 384.751 22.6281C384.42 22.6708 384.079 22.6281 383.727 22.5001C383.375 22.3614 383.097 22.1694 382.895 21.9241C382.799 21.7748 382.729 21.6734 382.687 21.6201C382.655 21.5561 382.601 21.4601 382.527 21.3321C382.452 21.1934 382.399 21.0814 382.367 20.9961C382.345 20.9108 382.319 20.8094 382.287 20.6921C382.255 20.5748 382.239 20.4628 382.239 20.3561C382.239 20.2388 382.255 20.1214 382.287 20.0041C382.297 19.6414 382.415 19.2734 382.639 18.9001C382.873 18.5268 383.108 18.2281 383.343 18.0041C383.577 17.7801 383.881 17.5134 384.255 17.2041C384.329 17.1508 384.383 17.1081 384.415 17.0761C384.863 16.7134 385.471 16.5321 386.239 16.5321C386.399 16.5321 386.905 16.5748 387.759 16.6601C387.78 16.6814 387.849 16.7188 387.967 16.7721C388.095 16.8254 388.185 16.8841 388.239 16.9481C388.292 17.0014 388.297 17.0761 388.255 17.1721L388.463 17.3801C388.783 17.5188 388.985 17.6521 389.071 17.7801C389.604 18.8681 390.073 19.7428 390.479 20.4041C390.521 20.4574 390.655 20.5801 390.879 20.7721C391.113 20.9534 391.252 21.0708 391.295 21.1241C391.38 21.1881 391.481 21.2788 391.599 21.3961C391.727 21.5028 391.833 21.5828 391.919 21.6361C392.004 21.6894 392.1 21.7214 392.207 21.7321C392.217 21.7428 392.287 21.8068 392.415 21.9241C392.425 21.9561 392.42 21.9988 392.399 22.0521C392.388 22.0948 392.372 22.1481 392.351 22.2121C392.329 22.2761 392.313 22.3188 392.303 22.3401C392.196 22.5001 391.961 22.6281 391.599 22.7241C391.471 22.7241 391.38 22.7294 391.327 22.7401C391.284 22.7614 391.209 22.7508 391.103 22.7081C391.007 22.6761 390.937 22.6494 390.895 22.6281C390.863 22.6174 390.793 22.5801 390.687 22.5161C390.58 22.4521 390.5 22.4041 390.447 22.3721L390.383 22.3401C390.116 22.1161 389.748 21.7321 389.279 21.1881C388.82 20.6334 388.548 20.3081 388.463 20.2121ZM383.807 20.7081C383.999 20.9961 384.287 21.1401 384.671 21.1401C384.852 21.1401 385.103 21.0974 385.423 21.0121C385.945 20.8201 386.42 20.4841 386.847 20.0041C387.263 19.4281 387.497 18.9214 387.551 18.4841C387.551 18.4521 387.572 18.3294 387.615 18.1161C387.657 17.8921 387.673 17.7374 387.663 17.6521C387.449 17.7054 387.14 17.7481 386.735 17.7801C386.34 17.8014 386.036 17.8334 385.823 17.8761C385.545 17.9188 385.263 18.0521 384.975 18.2761C384.687 18.4894 384.468 18.6921 384.319 18.8841C384.169 19.0761 383.967 19.3481 383.711 19.7001C383.529 19.9241 383.561 20.2601 383.807 20.7081ZM393.182 18.2281C393.257 17.7588 393.417 17.3534 393.662 17.0121C393.908 16.6708 394.254 16.2974 394.702 15.8921C395.086 15.7001 395.582 15.6041 396.19 15.6041C396.937 15.6041 397.55 15.7321 398.03 15.9881C398.937 16.5534 399.582 17.0281 399.966 17.4121C399.966 17.4441 399.972 17.5241 399.982 17.6521C399.993 17.7801 399.988 17.8868 399.966 17.9721C399.956 18.0574 399.918 18.1054 399.854 18.1161C399.513 18.1694 399.166 18.1161 398.814 17.9561C398.729 17.9028 398.59 17.8228 398.398 17.7161C398.206 17.5988 398.062 17.5134 397.966 17.4601C397.87 17.4068 397.742 17.3534 397.582 17.3001C397.422 17.2468 397.268 17.2148 397.118 17.2041C397.033 17.2041 396.894 17.2041 396.702 17.2041C396.51 17.1934 396.356 17.1934 396.238 17.2041C396.132 17.2041 395.998 17.2201 395.838 17.2521C395.678 17.2841 395.534 17.3374 395.406 17.4121L395.31 17.5081C394.926 18.0201 394.686 18.4148 394.59 18.6921C394.612 19.0121 394.612 19.3001 394.59 19.5561C394.569 19.8014 394.564 20.0841 394.574 20.4041C394.596 20.7241 394.638 21.0068 394.702 21.2521C394.777 21.3801 394.82 21.5081 394.83 21.6361C394.841 21.7534 394.814 21.8921 394.75 22.0521C394.686 22.2121 394.638 22.3241 394.606 22.3881C394.585 22.4414 394.516 22.5641 394.398 22.7561C394.302 22.8841 394.185 22.9481 394.046 22.9481C393.897 22.9481 393.742 22.8841 393.582 22.7561C393.326 22.5961 393.124 22.2974 392.974 21.8601C392.974 20.1748 393.044 18.9641 393.182 18.2281ZM399.289 22.8841C399.556 22.5001 400.095 21.6788 400.905 20.4201C401.727 19.1614 402.383 18.2281 402.873 17.6201C403.172 17.0441 403.716 16.0788 404.505 14.7241C405.305 13.3588 405.871 12.3241 406.201 11.6201C406.457 11.0121 406.639 10.6334 406.745 10.4841L406.825 10.0041C406.889 9.76945 406.932 9.64145 406.953 9.62011C407.188 9.35345 407.439 9.20411 407.705 9.17211C408.057 9.14011 408.351 9.31611 408.585 9.70011C408.681 10.0201 408.676 10.4041 408.569 10.8521C408.473 11.2894 408.335 11.5561 408.153 11.6521C408.004 11.5774 407.855 11.6414 407.705 11.8441C407.556 12.0468 407.359 12.3668 407.113 12.8041C406.868 13.2308 406.633 13.5774 406.409 13.8441C405.439 15.6468 404.548 17.1988 403.737 18.5001C402.937 19.8014 401.993 21.1401 400.905 22.5161C400.809 22.6228 400.703 22.7614 400.585 22.9321C400.479 23.1028 400.377 23.2414 400.281 23.3481C400.196 23.4654 400.089 23.5561 399.961 23.6201C399.919 23.6628 399.855 23.6948 399.769 23.7161C399.727 23.7268 399.684 23.7268 399.641 23.7161C399.599 23.7054 399.556 23.6788 399.513 23.6361C399.471 23.5934 399.439 23.5614 399.417 23.5401C399.385 23.5188 399.343 23.4708 399.289 23.3961C399.236 23.3321 399.204 23.2948 399.193 23.2841C399.183 23.1668 399.215 23.0334 399.289 22.8841ZM408.137 19.1081C408.191 18.6494 408.292 18.0414 408.441 17.2841C408.591 16.5161 408.692 15.9774 408.745 15.6681C408.905 15.0814 408.969 14.3401 408.937 13.4441C408.735 13.3481 408.569 13.2468 408.441 13.1401C408.185 12.8628 408.079 12.5908 408.121 12.3241C408.079 12.0574 408.153 11.8228 408.345 11.6201C408.537 11.4174 408.772 11.3161 409.049 11.3161C409.188 11.3161 409.321 11.3481 409.449 11.4121C409.513 11.4761 409.684 11.5774 409.961 11.7161C410.025 11.7801 410.089 11.8121 410.153 11.8121C410.431 11.9508 410.601 12.0201 410.665 12.0201C411.839 12.2334 412.953 12.5374 414.009 12.9321C415.545 13.4014 416.692 14.1428 417.449 15.1561C417.471 15.2201 417.513 15.3054 417.577 15.4121C417.641 15.5188 417.684 15.6041 417.705 15.6681C417.737 15.7321 417.748 15.8121 417.737 15.9081C417.737 15.9934 417.705 16.0788 417.641 16.1641C417.417 16.5801 417.049 16.9214 416.537 17.1881C416.036 17.4014 415.247 17.5774 414.169 17.7161C413.092 17.8441 412.431 17.9348 412.185 17.9881C411.769 18.1588 411.364 18.2281 410.969 18.1961C410.425 18.2494 410.02 18.3508 409.753 18.5001C409.711 18.5428 409.679 18.6121 409.657 18.7081C409.604 18.8468 409.567 18.9908 409.545 19.1401C409.524 19.2894 409.519 19.4281 409.529 19.5561C409.54 19.6841 409.54 19.8388 409.529 20.0201C409.497 20.5428 409.572 21.0494 409.753 21.5401C409.764 21.6148 409.759 21.6948 409.737 21.7801C409.716 21.8654 409.689 21.9401 409.657 22.0041C409.636 22.0681 409.599 22.1481 409.545 22.2441C409.492 22.3401 409.46 22.4041 409.449 22.4361C409.097 22.7881 408.793 22.9214 408.537 22.8361C408.132 22.5161 407.929 22.1161 407.929 21.6361C407.951 20.9214 408.02 20.0788 408.137 19.1081ZM410.025 16.5481H410.185C410.473 16.5481 411.001 16.5908 411.769 16.6761C411.961 16.6441 412.367 16.5801 412.985 16.4841C413.604 16.3881 414.079 16.3188 414.409 16.2761C414.463 16.2654 414.575 16.2441 414.745 16.2121C414.916 16.1801 415.033 16.1534 415.097 16.1321C415.172 16.1108 415.273 16.0841 415.401 16.0521C415.529 16.0094 415.641 15.9668 415.737 15.9241C415.833 15.8814 415.929 15.8281 416.025 15.7641C416.036 15.7534 416.041 15.7214 416.041 15.6681C416.041 15.6041 416.036 15.5668 416.025 15.5561C415.972 15.4814 415.887 15.3961 415.769 15.3001C415.652 15.2041 415.54 15.1241 415.433 15.0601C415.327 14.9854 415.199 14.9054 415.049 14.8201C414.911 14.7348 414.831 14.6814 414.809 14.6601C414.436 14.6068 413.855 14.4521 413.065 14.1961C412.287 13.9401 411.753 13.7908 411.465 13.7481C411.423 13.7481 411.343 13.7428 411.225 13.7321C411.119 13.7214 411.023 13.7214 410.937 13.7321C410.863 13.7428 410.804 13.7801 410.761 13.8441C410.729 13.8868 410.671 13.9988 410.585 14.1801C410.511 14.3508 410.468 14.4414 410.457 14.4521C410.447 14.5908 410.367 14.9268 410.217 15.4601C410.079 15.9828 410.015 16.3454 410.025 16.5481ZM418.636 18.2281C418.71 17.7588 418.87 17.3534 419.116 17.0121C419.361 16.6708 419.708 16.2974 420.156 15.8921C420.54 15.7001 421.036 15.6041 421.644 15.6041C422.39 15.6041 423.004 15.7321 423.484 15.9881C424.39 16.5534 425.036 17.0281 425.42 17.4121C425.42 17.4441 425.425 17.5241 425.436 17.6521C425.446 17.7801 425.441 17.8868 425.42 17.9721C425.409 18.0574 425.372 18.1054 425.308 18.1161C424.966 18.1694 424.62 18.1161 424.268 17.9561C424.182 17.9028 424.044 17.8228 423.852 17.7161C423.66 17.5988 423.516 17.5134 423.42 17.4601C423.324 17.4068 423.196 17.3534 423.036 17.3001C422.876 17.2468 422.721 17.2148 422.572 17.2041C422.486 17.2041 422.348 17.2041 422.156 17.2041C421.964 17.1934 421.809 17.1934 421.692 17.2041C421.585 17.2041 421.452 17.2201 421.292 17.2521C421.132 17.2841 420.988 17.3374 420.86 17.4121L420.764 17.5081C420.38 18.0201 420.14 18.4148 420.044 18.6921C420.065 19.0121 420.065 19.3001 420.044 19.5561C420.022 19.8014 420.017 20.0841 420.028 20.4041C420.049 20.7241 420.092 21.0068 420.156 21.2521C420.23 21.3801 420.273 21.5081 420.284 21.6361C420.294 21.7534 420.268 21.8921 420.204 22.0521C420.14 22.2121 420.092 22.3241 420.06 22.3881C420.038 22.4414 419.969 22.5641 419.852 22.7561C419.756 22.8841 419.638 22.9481 419.5 22.9481C419.35 22.9481 419.196 22.8841 419.036 22.7561C418.78 22.5961 418.577 22.2974 418.428 21.8601C418.428 20.1748 418.497 18.9641 418.636 18.2281ZM425.399 20.3881V18.6601C425.324 18.5428 425.287 18.3721 425.287 18.1481C425.287 17.9241 425.324 17.7588 425.399 17.6521C425.559 17.5348 425.745 17.4121 425.959 17.2841C426.172 17.1561 426.407 17.0174 426.663 16.8681C426.919 16.7188 427.105 16.6068 427.223 16.5321C427.671 16.2654 428.231 16.1321 428.903 16.1321C429.692 16.1321 430.449 16.3028 431.175 16.6441C431.911 16.9854 432.519 17.4548 432.999 18.0521C433.553 18.8094 433.687 19.5188 433.399 20.1801C432.716 21.3534 431.703 22.0948 430.359 22.4041C430.188 22.4681 429.996 22.5161 429.783 22.5481C429.58 22.5801 429.415 22.5961 429.287 22.5961C429.159 22.6068 428.956 22.6068 428.679 22.5961C428.401 22.5961 428.22 22.5961 428.135 22.5961C427.591 22.4788 427.212 22.3934 426.999 22.3401C426.796 22.2868 426.577 22.1801 426.343 22.0201C426.108 21.8494 425.932 21.6521 425.815 21.4281C425.708 21.2041 425.569 20.8574 425.399 20.3881ZM426.919 20.3881C426.993 20.5374 427.116 20.7028 427.287 20.8841C427.457 21.0548 427.607 21.1561 427.735 21.1881C427.98 21.3161 428.332 21.3801 428.791 21.3801C429.217 21.3801 429.66 21.3214 430.119 21.2041C430.588 21.0761 431.02 20.8628 431.415 20.5641C431.809 20.2548 432.033 19.8921 432.087 19.4761C432.097 19.3481 432.103 19.2468 432.103 19.1721C432.103 19.0974 432.065 19.0121 431.991 18.9161C431.927 18.8094 431.868 18.7294 431.815 18.6761C431.761 18.6228 431.687 18.5534 431.591 18.4681C431.495 18.3828 431.425 18.3134 431.383 18.2601C430.476 17.7588 429.788 17.5081 429.319 17.5081C429.084 17.5081 428.86 17.5561 428.647 17.6521C428.551 17.6841 428.449 17.7534 428.343 17.8601C428.033 18.1481 427.831 18.3134 427.735 18.3561C427.703 18.3881 427.639 18.4468 427.543 18.5321C427.457 18.6174 427.383 18.6921 427.319 18.7561C427.255 18.8094 427.191 18.8788 427.127 18.9641C427.073 19.0388 427.041 19.1081 427.031 19.1721C426.967 19.2894 426.929 19.4228 426.919 19.5721C426.908 19.7214 426.908 19.8601 426.919 19.9881C426.94 20.1054 426.94 20.2388 426.919 20.3881ZM435.058 18.2601C434.973 18.1428 434.871 18.0414 434.754 17.9561C433.794 17.7214 433.357 17.3481 433.442 16.8361C433.41 16.6228 433.442 16.4308 433.538 16.2601C433.634 16.0894 433.778 16.0094 433.97 16.0201C434.077 16.0094 434.226 16.0361 434.418 16.1001C434.61 16.1534 434.77 16.1588 434.898 16.1161C434.898 16.0521 434.893 15.7641 434.882 15.2521C434.871 14.7401 434.866 14.3614 434.866 14.1161C434.855 13.8708 434.882 13.5028 434.946 13.0121C435.01 12.5214 435.047 12.2121 435.058 12.0841C435.037 11.8708 435.058 11.6734 435.122 11.4921C435.186 11.3001 435.303 11.0761 435.474 10.8201C435.645 10.5641 435.741 10.4148 435.762 10.3721C435.997 10.0841 436.333 9.94011 436.77 9.94011C436.973 9.94011 437.245 9.98278 437.586 10.0681C438.002 10.2388 438.413 10.5001 438.818 10.8521C439.234 11.1934 439.677 11.6201 440.146 12.1321C440.626 12.6334 440.989 12.9908 441.234 13.2041C441.533 13.5988 441.698 13.8334 441.73 13.9081C441.783 13.9934 441.815 14.0841 441.826 14.1801C441.847 14.2761 441.853 14.3934 441.842 14.5321C441.842 14.6708 441.842 14.7668 441.842 14.8201C441.81 14.8628 441.762 14.9588 441.698 15.1081C441.645 15.2468 441.581 15.3534 441.506 15.4281C441.442 15.4921 441.351 15.4974 441.234 15.4441C440.989 15.5081 440.786 15.3694 440.626 15.0281C440.562 14.8041 440.53 14.5641 440.53 14.3081C440.477 14.2548 440.29 14.0574 439.97 13.7161C439.661 13.3641 439.474 13.1561 439.41 13.0921C439.335 13.0388 439.063 12.8041 438.594 12.3881C438.125 11.9721 437.789 11.7374 437.586 11.6841C437.255 11.5881 436.967 11.6468 436.722 11.8601C436.487 12.0628 436.338 12.3401 436.274 12.6921C436.114 14.1214 436.114 15.4014 436.274 16.5321L436.482 16.6441C436.962 16.7508 437.602 16.8574 438.402 16.9641C439.213 17.0708 439.821 17.1668 440.226 17.2521C440.887 17.4654 441.357 17.7001 441.634 17.9561C441.677 18.1161 441.645 18.2708 441.538 18.4201C441.442 18.5694 441.303 18.6494 441.122 18.6601C440.951 18.7028 440.754 18.7241 440.53 18.7241C440.242 18.7241 439.805 18.6654 439.218 18.5481C438.642 18.4308 438.301 18.3668 438.194 18.3561C437.821 18.2814 437.511 18.2441 437.266 18.2441C436.999 18.2441 436.738 18.2814 436.482 18.3561V18.4841L436.466 18.8361V18.9641C436.423 19.4014 436.477 19.9614 436.626 20.6441C436.786 21.3268 436.871 21.8174 436.882 22.1161C436.882 22.1908 436.845 22.2654 436.77 22.3401C436.695 22.4041 436.599 22.4734 436.482 22.5481C436.375 22.6228 436.306 22.6708 436.274 22.6921C436.167 22.6708 436.071 22.6334 435.986 22.5801C435.901 22.5374 435.831 22.4948 435.778 22.4521C435.735 22.4094 435.687 22.3401 435.634 22.2441C435.591 22.1374 435.559 22.0574 435.538 22.0041C435.527 21.9508 435.501 21.8548 435.458 21.7161C435.415 21.5668 435.383 21.4601 435.362 21.3961C435.159 20.6708 435.058 19.6254 435.058 18.2601ZM441.799 13.6041C441.863 13.4441 441.975 13.3161 442.135 13.2201C442.306 13.1134 442.482 13.0708 442.663 13.0921C442.727 13.0814 442.786 13.0814 442.839 13.0921C442.893 13.1028 442.946 13.1241 442.999 13.1561C443.063 13.1881 443.111 13.2148 443.143 13.2361C443.175 13.2574 443.218 13.3054 443.271 13.3801C443.335 13.4548 443.378 13.5028 443.399 13.5241C443.421 13.5348 443.463 13.5881 443.527 13.6841L443.623 13.8121C443.666 13.9188 443.869 14.1534 444.231 14.5161C444.306 14.6228 444.343 14.7508 444.343 14.9001C444.354 15.0388 444.317 15.1508 444.231 15.2361H443.879C443.698 15.2681 443.511 15.2574 443.319 15.2041C443.138 15.1508 442.893 15.0441 442.583 14.8841C442.285 14.7241 442.125 14.6388 442.103 14.6281C441.922 14.5214 441.799 14.3721 441.735 14.1801C441.682 13.9774 441.703 13.7854 441.799 13.6041ZM442.823 21.7161C442.802 21.5881 442.77 21.3108 442.727 20.8841C442.685 20.4468 442.642 19.9934 442.599 19.5241C442.557 19.0441 442.53 18.7614 442.519 18.6761C442.498 18.3881 442.498 18.0841 442.519 17.7641C442.679 17.4868 442.946 17.3854 443.319 17.4601C443.458 17.5241 443.597 17.7268 443.735 18.0681C443.735 18.2921 443.751 18.5268 443.783 18.7721C443.826 19.0174 443.863 19.2254 443.895 19.3961C443.938 19.5668 443.997 19.7908 444.071 20.0681C444.146 20.3454 444.199 20.5588 444.231 20.7081C444.231 20.7934 444.221 20.9321 444.199 21.1241C444.189 21.3054 444.173 21.4814 444.151 21.6521C444.141 21.8228 444.135 21.9134 444.135 21.9241C444.125 21.9561 444.109 22.0148 444.087 22.1001C444.077 22.1854 444.061 22.2548 444.039 22.3081C444.029 22.3614 444.002 22.4201 443.959 22.4841C443.927 22.5374 443.885 22.5801 443.831 22.6121C443.543 22.6654 443.309 22.6014 443.127 22.4201C442.946 22.1001 442.845 21.8654 442.823 21.7161ZM446.291 19.6841C446.302 19.0441 446.339 18.1854 446.403 17.1081C446.467 16.0201 446.505 15.2628 446.515 14.8361C446.505 14.3134 446.526 13.3374 446.579 11.9081C446.633 10.4788 446.643 9.43345 446.611 8.77211C446.697 8.49478 446.857 8.35611 447.091 8.35611C447.39 8.35611 447.635 8.52678 447.827 8.86811C447.827 9.00678 447.833 9.13478 447.843 9.25211L447.907 10.4041C447.918 10.5214 447.923 10.6494 447.923 10.7881C447.902 11.7908 447.833 13.2574 447.715 15.1881C447.609 17.1188 447.545 18.4841 447.523 19.2841C447.534 19.4334 447.55 19.6628 447.571 19.9721C447.593 20.2814 447.609 20.5108 447.619 20.6601C447.641 20.7988 447.667 20.9801 447.699 21.2041C447.742 21.4174 447.795 21.6148 447.859 21.7961C447.934 21.9668 448.025 22.1374 448.131 22.3081C448.142 22.4574 448.105 22.5908 448.019 22.7081C447.881 22.7934 447.705 22.8361 447.491 22.8361C447.246 22.8361 447.054 22.7934 446.915 22.7081C446.734 22.5161 446.595 22.2761 446.499 21.9881C446.403 21.7001 446.345 21.4761 446.323 21.3161C446.302 21.1561 446.291 20.8628 446.291 20.4361C446.291 19.9988 446.291 19.7481 446.291 19.6841ZM450.926 17.9561C451.694 16.9748 452.537 16.3348 453.454 16.0361C454.041 15.9614 454.35 15.9241 454.382 15.9241C455.044 15.9454 455.62 16.1481 456.11 16.5321C456.601 16.9054 456.862 17.4174 456.894 18.0681C456.905 18.6334 456.676 19.1508 456.206 19.6201C455.748 20.0894 455.236 20.3454 454.67 20.3881C454.457 20.4628 454.228 20.5001 453.982 20.5001C453.428 20.5001 452.814 20.2974 452.142 19.8921C451.94 19.6894 451.806 19.5881 451.742 19.5881C451.7 19.5668 451.662 19.5668 451.63 19.5881C451.278 20.1214 451.108 20.5268 451.118 20.8041C451.236 21.4974 451.609 22.0841 452.238 22.5641C452.868 23.0548 453.534 23.2788 454.238 23.2361C454.345 23.2788 454.532 23.2788 454.798 23.2361C455.065 23.2041 455.241 23.1774 455.326 23.1561C455.422 23.1348 455.604 23.0814 455.87 22.9961C456.148 22.9214 456.34 22.8681 456.446 22.8361C456.82 22.6868 457.316 22.5908 457.934 22.5481H458.046C458.121 22.5268 458.19 22.5428 458.254 22.5961C458.318 22.6494 458.356 22.7294 458.366 22.8361V23.4281C457.982 23.8654 457.508 24.1001 456.942 24.1321C456.825 24.1641 456.612 24.2228 456.302 24.3081C456.004 24.3934 455.774 24.4521 455.614 24.4841C455.465 24.5268 455.262 24.5641 455.006 24.5961C454.761 24.6388 454.537 24.6548 454.334 24.6441C453.396 24.6868 452.494 24.4468 451.63 23.9241C450.841 23.5188 450.233 22.8148 449.806 21.8121C449.646 21.1828 449.673 20.5694 449.886 19.9721C450.1 19.3748 450.446 18.7028 450.926 17.9561ZM452.174 18.7241C452.398 18.7241 452.59 18.7401 452.75 18.7721C452.846 18.8254 452.937 18.8681 453.022 18.9001C453.118 18.9214 453.23 18.9428 453.358 18.9641C453.497 18.9748 453.588 18.9801 453.63 18.9801C453.673 18.9801 453.785 18.9801 453.966 18.9801C454.158 18.9801 454.26 18.9801 454.27 18.9801C454.825 18.8094 455.193 18.5694 455.374 18.2601C455.406 18.1428 455.406 18.0414 455.374 17.9561C455.353 17.8601 455.294 17.7801 455.198 17.7161C455.102 17.6521 455.012 17.6041 454.926 17.5721C454.841 17.5401 454.724 17.5028 454.574 17.4601C454.436 17.4068 454.334 17.3694 454.27 17.3481C454.014 17.3481 453.753 17.4228 453.486 17.5721C453.22 17.7108 453.006 17.8494 452.846 17.9881C452.686 18.1268 452.484 18.3188 452.238 18.5641C452.238 18.5748 452.228 18.6014 452.206 18.6441C452.185 18.6761 452.174 18.7028 452.174 18.7241Z" fill="#1E1E1E"/>
<path d="M42.5001 41.1613C67.0301 38.0413 92.4501 36.7913 138.21 41.1613C161.85 38.9913 169.83 48.3913 170.21 73.1613C168.5 163.991 167.92 256.551 170.21 380.671C169.14 402.701 161.29 411.901 138.21 412.671C101.22 415.051 64.7101 415.981 42.5001 412.671C17.9601 410.151 11.0901 401.821 10.5001 380.671C11.3701 263.181 9.56013 145.491 10.5001 73.1613C13.0901 51.8913 24.3501 37.7613 42.5001 41.1613Z" fill="#FFEC99"/>
<path d="M42.4999 41.1613C77.8699 41.4013 117.4 39.7613 138.21 41.1613M42.4999 41.1613C74.7599 41.8913 106.13 42.6313 138.21 41.1613M42.4999 41.1613C21.9899 41.8313 9.2899 52.6913 10.4999 73.1613M42.4999 41.1613C22.5299 41.2413 8.2999 51.9713 10.4999 73.1613M138.21 41.1613C160.19 39.5113 172.1 50.8913 170.21 73.1613M138.21 41.1613C160.9 42.2013 168.42 52.1313 170.21 73.1613M170.21 73.1613C167.53 174.131 168.91 274.871 170.21 380.671M170.21 73.1613C170.44 157.101 171.6 240.911 170.21 380.671M170.21 380.671C169.05 402.551 159.89 411.141 138.21 412.671M170.21 380.671C168.46 402.581 159.46 413.021 138.21 412.671M138.21 412.671C115.62 412.151 91.4899 411.151 42.4999 412.671M138.21 412.671C102.65 413.701 65.6499 412.801 42.4999 412.671M42.4999 412.671C19.3999 411.451 9.6799 402.631 10.4999 380.671M42.4999 412.671C20.5999 411.221 9.8699 400.001 10.4999 380.671M10.4999 380.671C9.1999 272.671 10.4299 165.001 10.4999 73.1613M10.4999 380.671C11.6599 318.141 11.2199 256.051 10.4999 73.1613" stroke="#1E1E1E" stroke-width="2" stroke-linecap="round"/>
<path d="M29.2112 83.6351C29.1845 83.4084 29.2312 83.1951 29.3512 82.9951C29.4845 82.7818 29.6512 82.6618 29.8512 82.6351C30.3179 82.5418 30.7245 82.6551 31.0712 82.9751C31.1245 83.0018 31.2645 83.1351 31.4912 83.3751C32.0645 83.7351 32.7779 83.9484 33.6312 84.0151C34.1379 84.0151 34.6045 84.0218 35.0312 84.0351C35.4712 84.0484 35.9379 84.0218 36.4312 83.9551C36.9379 83.8884 37.3979 83.7818 37.8112 83.6351C38.3712 83.1951 38.5845 82.8151 38.4512 82.4951C38.3712 82.2284 38.0979 81.9284 37.6312 81.5951C37.1645 81.2618 36.8912 81.0551 36.8112 80.9751C35.3445 80.4418 33.7845 79.7684 32.1312 78.9551C31.6912 78.7418 31.3712 78.5551 31.1712 78.3951C30.9712 78.2351 30.6979 77.9551 30.3512 77.5551C30.1912 77.3284 30.1645 76.8818 30.2712 76.2151C30.3512 75.9884 30.6312 75.7618 31.1112 75.5351C31.1245 75.5351 31.2645 75.4951 31.5312 75.4151C31.7979 75.3351 31.9512 75.2951 31.9912 75.2951C32.1512 75.1751 32.3312 75.0618 32.5312 74.9551C32.7445 74.8351 32.9312 74.7351 33.0912 74.6551C33.2645 74.5751 33.4845 74.4818 33.7512 74.3751C34.0312 74.2551 34.2379 74.1684 34.3712 74.1151C34.5179 74.0618 34.7512 73.9818 35.0712 73.8751C35.4045 73.7551 35.6245 73.6751 35.7312 73.6351C35.8645 73.5951 36.1445 73.4884 36.5712 73.3151C36.9979 73.1284 37.3845 72.9751 37.7312 72.8551C38.0912 72.7218 38.3579 72.6418 38.5312 72.6151L39.6912 72.4951L40.4712 72.8751C40.5912 72.9684 40.6645 73.0751 40.6912 73.1951C40.7312 73.3018 40.7445 73.4484 40.7312 73.6351C40.7312 73.8218 40.7312 73.9484 40.7312 74.0151C40.3845 74.4551 40.0445 74.6284 39.7112 74.5351C39.6845 74.5351 39.5979 74.4951 39.4512 74.4151C39.3045 74.3218 39.2245 74.2751 39.2112 74.2751C39.1312 74.2618 39.0312 74.2684 38.9112 74.2951C38.7912 74.3218 38.6512 74.3684 38.4912 74.4351C38.3445 74.4884 38.2445 74.5218 38.1912 74.5351C37.8312 74.7351 37.2312 75.0151 36.3912 75.3751C35.5645 75.7218 35.0712 75.9351 34.9112 76.0151C33.8712 76.4018 33.2379 76.6684 33.0112 76.8151V76.9351C33.1845 77.1751 33.4112 77.3884 33.6912 77.5751C33.9712 77.7618 34.3645 77.9618 34.8712 78.1751C35.3779 78.3884 35.6845 78.5218 35.7912 78.5751C37.7245 79.2951 39.1179 80.1818 39.9712 81.2351C40.3045 81.9551 40.4312 82.6284 40.3512 83.2551C40.1379 83.7618 39.8112 84.2218 39.3712 84.6351C38.9312 85.0351 38.4512 85.3284 37.9312 85.5151C37.1979 85.8084 36.0979 85.9418 34.6312 85.9151C33.0845 85.9551 31.7845 85.7418 30.7312 85.2751C30.3712 85.1684 30.1179 85.0418 29.9712 84.8951C29.4645 84.5218 29.2112 84.1018 29.2112 83.6351ZM44.5192 82.2151L44.5592 80.5751C44.5592 80.1884 44.5258 79.5951 44.4592 78.7951C44.3792 78.4884 44.3058 78.3084 44.2392 78.2551C43.3592 78.3218 42.6858 78.4684 42.2192 78.6951C42.0992 78.6951 41.9258 78.7418 41.6992 78.8351C41.4725 78.9284 41.2792 78.9618 41.1192 78.9351C41.0258 78.8951 40.9325 78.8351 40.8392 78.7551C40.7458 78.6751 40.6525 78.5818 40.5592 78.4751C40.4525 78.3551 40.3658 78.2684 40.2992 78.2151C40.2458 78.0818 40.2258 77.8951 40.2392 77.6551C40.2525 77.4151 40.2992 77.2351 40.3792 77.1151L41.0392 76.5351C41.7325 76.5218 42.7658 76.3884 44.1392 76.1351L44.2792 75.9751L44.3192 72.8351C44.6258 72.5018 45.0058 72.3818 45.4592 72.4751C45.8192 72.7551 46.0192 73.1018 46.0592 73.5151C46.0992 73.5951 46.1258 73.9284 46.1392 74.5151C46.1525 75.1018 46.2058 75.4418 46.2992 75.5351C46.3125 75.5351 46.3725 75.5551 46.4792 75.5951C46.5992 75.6218 46.6658 75.6418 46.6792 75.6551C46.9458 75.6284 47.2858 75.5818 47.6992 75.5151C48.1125 75.4351 48.4125 75.3884 48.5992 75.3751C48.7858 75.3618 49.1258 75.3684 49.6192 75.3951L50.5392 75.4351C51.1125 75.5151 51.3258 75.8484 51.1792 76.4351C50.9525 76.6618 50.7792 76.7884 50.6592 76.8151C50.3525 76.8418 50.0392 76.8818 49.7192 76.9351C49.3992 76.9884 48.9992 77.0751 48.5192 77.1951C48.0525 77.3018 47.7392 77.3684 47.5792 77.3951L47.5392 77.4151C47.1925 77.4284 46.7992 77.5151 46.3592 77.6751L46.2592 77.8151C46.2592 77.9751 46.2458 78.2418 46.2192 78.6151C46.2058 78.9751 46.2058 79.2884 46.2192 79.5551C46.2325 79.8084 46.2725 80.0684 46.3392 80.3351C46.3392 82.6684 46.4592 84.1218 46.6992 84.6951C46.9658 84.9351 47.2058 85.0618 47.4192 85.0751C47.5392 85.0751 47.6925 85.0551 47.8792 85.0151C47.9325 85.0018 48.0125 84.9818 48.1192 84.9551C48.2258 84.9284 48.2992 84.9151 48.3392 84.9151C48.3792 84.9018 48.4392 84.8818 48.5192 84.8551C48.5992 84.8284 48.6525 84.8084 48.6792 84.7951C48.7192 84.7818 48.7658 84.7618 48.8192 84.7351C48.8858 84.6951 48.9325 84.6551 48.9592 84.6151C48.9992 84.5751 49.0458 84.5284 49.0992 84.4751C49.1525 84.4218 49.1992 84.3618 49.2392 84.2951C49.2925 84.2284 49.3458 84.1551 49.3992 84.0751C49.4525 83.9818 49.5125 83.8818 49.5792 83.7751C49.5658 83.7084 49.5858 83.5484 49.6392 83.2951C49.6925 83.0418 49.7325 82.8818 49.7592 82.8151C49.9058 82.4018 50.1725 82.2018 50.5592 82.2151C50.7458 82.1884 50.8858 82.2218 50.9792 82.3151C51.0725 82.4084 51.1592 82.5751 51.2392 82.8151L51.3392 83.1551C51.2458 83.8084 51.1458 84.2151 51.0392 84.3751C50.7725 84.9084 50.5658 85.2751 50.4192 85.4751C50.2858 85.6751 50.0392 85.8818 49.6792 86.0951C49.3192 86.3218 48.7658 86.5551 48.0192 86.7951C47.9792 86.8084 47.8258 86.8618 47.5592 86.9551C47.2925 87.0618 47.0858 87.1151 46.9392 87.1151C46.3258 87.0884 45.8725 86.8884 45.5792 86.5151C45.5392 86.4351 45.4192 86.2284 45.2192 85.8951C45.0192 85.5484 44.8792 85.2484 44.7992 84.9951C44.7192 84.7284 44.6992 84.4484 44.7392 84.1551C44.7258 83.9151 44.6925 83.5684 44.6392 83.1151C44.5858 82.6618 44.5525 82.3751 44.5392 82.2551C44.5258 82.2418 44.5192 82.2284 44.5192 82.2151ZM53.1878 80.6151C53.2811 80.0284 53.4811 79.5218 53.7878 79.0951C54.0944 78.6684 54.5278 78.2018 55.0878 77.6951C55.5678 77.4551 56.1878 77.3351 56.9478 77.3351C57.8811 77.3351 58.6478 77.4951 59.2478 77.8151C60.3811 78.5218 61.1878 79.1151 61.6678 79.5951C61.6678 79.6351 61.6744 79.7351 61.6878 79.8951C61.7011 80.0551 61.6944 80.1884 61.6678 80.2951C61.6544 80.4018 61.6078 80.4618 61.5278 80.4751C61.1011 80.5418 60.6678 80.4751 60.2278 80.2751C60.1211 80.2084 59.9478 80.1084 59.7078 79.9751C59.4678 79.8284 59.2878 79.7218 59.1678 79.6551C59.0478 79.5884 58.8878 79.5218 58.6878 79.4551C58.4878 79.3884 58.2944 79.3484 58.1078 79.3351C58.0011 79.3351 57.8278 79.3351 57.5878 79.3351C57.3478 79.3218 57.1544 79.3218 57.0078 79.3351C56.8744 79.3351 56.7078 79.3551 56.5078 79.3951C56.3078 79.4351 56.1278 79.5018 55.9678 79.5951L55.8478 79.7151C55.3678 80.3551 55.0678 80.8484 54.9478 81.1951C54.9744 81.5951 54.9744 81.9551 54.9478 82.2751C54.9211 82.5818 54.9144 82.9351 54.9278 83.3351C54.9544 83.7351 55.0078 84.0884 55.0878 84.3951C55.1811 84.5551 55.2344 84.7151 55.2478 84.8751C55.2611 85.0218 55.2278 85.1951 55.1478 85.3951C55.0678 85.5951 55.0078 85.7351 54.9678 85.8151C54.9411 85.8818 54.8544 86.0351 54.7078 86.2751C54.5878 86.4351 54.4411 86.5151 54.2678 86.5151C54.0811 86.5151 53.8878 86.4351 53.6878 86.2751C53.3678 86.0751 53.1144 85.7018 52.9278 85.1551C52.9278 83.0484 53.0144 81.5351 53.1878 80.6151ZM63.1215 80.2751C64.0815 79.0484 65.1349 78.2484 66.2815 77.8751C67.0149 77.7818 67.4015 77.7351 67.4415 77.7351C68.2682 77.7618 68.9882 78.0151 69.6015 78.4951C70.2149 78.9618 70.5415 79.6018 70.5815 80.4151C70.5949 81.1218 70.3082 81.7684 69.7215 82.3551C69.1482 82.9418 68.5082 83.2618 67.8015 83.3151C67.5349 83.4084 67.2482 83.4551 66.9415 83.4551C66.2482 83.4551 65.4815 83.2018 64.6415 82.6951C64.3882 82.4418 64.2215 82.3151 64.1415 82.3151C64.0882 82.2884 64.0415 82.2884 64.0015 82.3151C63.5615 82.9818 63.3482 83.4884 63.3615 83.8351C63.5082 84.7018 63.9749 85.4351 64.7615 86.0351C65.5482 86.6484 66.3815 86.9284 67.2615 86.8751C67.3949 86.9284 67.6282 86.9284 67.9615 86.8751C68.2949 86.8351 68.5149 86.8018 68.6215 86.7751C68.7415 86.7484 68.9682 86.6818 69.3015 86.5751C69.6482 86.4818 69.8882 86.4151 70.0215 86.3751C70.4882 86.1884 71.1082 86.0684 71.8815 86.0151H72.0215C72.1149 85.9884 72.2015 86.0084 72.2815 86.0751C72.3615 86.1418 72.4082 86.2418 72.4215 86.3751V87.1151C71.9415 87.6618 71.3482 87.9551 70.6415 87.9951C70.4949 88.0351 70.2282 88.1084 69.8415 88.2151C69.4682 88.3218 69.1815 88.3951 68.9815 88.4351C68.7949 88.4884 68.5415 88.5351 68.2215 88.5751C67.9149 88.6284 67.6349 88.6484 67.3815 88.6351C66.2082 88.6884 65.0815 88.3884 64.0015 87.7351C63.0149 87.2284 62.2549 86.3484 61.7215 85.0951C61.5215 84.3084 61.5549 83.5418 61.8215 82.7951C62.0882 82.0484 62.5215 81.2084 63.1215 80.2751ZM64.6815 81.2351C64.9615 81.2351 65.2015 81.2551 65.4015 81.2951C65.5215 81.3618 65.6349 81.4151 65.7415 81.4551C65.8615 81.4818 66.0015 81.5084 66.1615 81.5351C66.3349 81.5484 66.4482 81.5551 66.5015 81.5551C66.5549 81.5551 66.6949 81.5551 66.9215 81.5551C67.1615 81.5551 67.2882 81.5551 67.3015 81.5551C67.9949 81.3418 68.4549 81.0418 68.6815 80.6551C68.7215 80.5084 68.7215 80.3818 68.6815 80.2751C68.6549 80.1551 68.5815 80.0551 68.4615 79.9751C68.3415 79.8951 68.2282 79.8351 68.1215 79.7951C68.0149 79.7551 67.8682 79.7084 67.6815 79.6551C67.5082 79.5884 67.3815 79.5418 67.3015 79.5151C66.9815 79.5151 66.6549 79.6084 66.3215 79.7951C65.9882 79.9684 65.7215 80.1418 65.5215 80.3151C65.3215 80.4884 65.0682 80.7284 64.7615 81.0351C64.7615 81.0484 64.7482 81.0818 64.7215 81.1351C64.6949 81.1751 64.6815 81.2084 64.6815 81.2351ZM80.159 83.0951C80.0524 83.1751 79.9257 83.3418 79.779 83.5951C79.0724 84.3684 78.379 84.9884 77.699 85.4551C77.0324 85.9084 76.3057 86.1284 75.519 86.1151C75.1057 86.1684 74.679 86.1151 74.239 85.9551C73.799 85.7818 73.4524 85.5418 73.199 85.2351C73.079 85.0484 72.9924 84.9218 72.939 84.8551C72.899 84.7751 72.8324 84.6551 72.739 84.4951C72.6457 84.3218 72.579 84.1818 72.539 84.0751C72.5124 83.9684 72.479 83.8418 72.439 83.6951C72.399 83.5484 72.379 83.4084 72.379 83.2751C72.379 83.1284 72.399 82.9818 72.439 82.8351C72.4524 82.3818 72.599 81.9218 72.879 81.4551C73.1724 80.9884 73.4657 80.6151 73.759 80.3351C74.0524 80.0551 74.4324 79.7218 74.899 79.3351C74.9924 79.2684 75.059 79.2151 75.099 79.1751C75.659 78.7218 76.419 78.4951 77.379 78.4951C77.579 78.4951 78.2124 78.5484 79.279 78.6551C79.3057 78.6818 79.3924 78.7284 79.539 78.7951C79.699 78.8618 79.8124 78.9351 79.879 79.0151C79.9457 79.0818 79.9524 79.1751 79.899 79.2951L80.159 79.5551C80.559 79.7284 80.8124 79.8951 80.919 80.0551C81.5857 81.4151 82.1724 82.5084 82.679 83.3351C82.7324 83.4018 82.899 83.5551 83.179 83.7951C83.4724 84.0218 83.6457 84.1684 83.699 84.2351C83.8057 84.3151 83.9324 84.4284 84.079 84.5751C84.239 84.7084 84.3724 84.8084 84.479 84.8751C84.5857 84.9418 84.7057 84.9818 84.839 84.9951C84.8524 85.0084 84.939 85.0884 85.099 85.2351C85.1124 85.2751 85.1057 85.3284 85.079 85.3951C85.0657 85.4484 85.0457 85.5151 85.019 85.5951C84.9924 85.6751 84.9724 85.7284 84.959 85.7551C84.8257 85.9551 84.5324 86.1151 84.079 86.2351C83.919 86.2351 83.8057 86.2418 83.739 86.2551C83.6857 86.2818 83.5924 86.2684 83.459 86.2151C83.339 86.1751 83.2524 86.1418 83.199 86.1151C83.159 86.1018 83.0724 86.0551 82.939 85.9751C82.8057 85.8951 82.7057 85.8351 82.639 85.7951L82.559 85.7551C82.2257 85.4751 81.7657 84.9951 81.179 84.3151C80.6057 83.6218 80.2657 83.2151 80.159 83.0951ZM74.339 83.7151C74.579 84.0751 74.939 84.2551 75.419 84.2551C75.6457 84.2551 75.959 84.2018 76.359 84.0951C77.0124 83.8551 77.6057 83.4351 78.139 82.8351C78.659 82.1151 78.9524 81.4818 79.019 80.9351C79.019 80.8951 79.0457 80.7418 79.099 80.4751C79.1524 80.1951 79.1724 80.0018 79.159 79.8951C78.8924 79.9618 78.5057 80.0151 77.999 80.0551C77.5057 80.0818 77.1257 80.1218 76.859 80.1751C76.5124 80.2284 76.159 80.3951 75.799 80.6751C75.439 80.9418 75.1657 81.1951 74.979 81.4351C74.7924 81.6751 74.539 82.0151 74.219 82.4551C73.9924 82.7351 74.0324 83.1551 74.339 83.7151ZM87.5989 80.1951L87.7189 80.8351C87.6789 81.0084 87.7655 81.4284 87.9789 82.0951C88.5122 81.5351 88.8855 81.0284 89.0989 80.5751C89.3922 80.2418 89.5189 79.9018 89.4789 79.5551C90.0655 79.2218 90.5722 79.0951 90.9989 79.1751C91.2389 79.2418 91.4922 79.5418 91.7589 80.0751V81.9751L91.8989 82.0951C92.1522 81.8284 92.4789 81.4351 92.8789 80.9151C93.2922 80.3951 93.5522 80.0684 93.6589 79.9351C94.0589 79.3884 94.4389 79.0084 94.7989 78.7951C95.3589 78.8618 95.7789 79.0751 96.0589 79.4351C96.4455 80.0884 96.6989 81.0151 96.8189 82.2151C96.8055 82.4551 96.8189 82.7084 96.8589 82.9751C96.8989 83.2418 96.9589 83.5351 97.0389 83.8551C97.1189 84.1751 97.1722 84.4284 97.1989 84.6151C97.3322 84.9884 97.3789 85.3284 97.3389 85.6351C97.3255 85.8084 97.2389 85.9218 97.0789 85.9751C96.9189 86.0284 96.7522 86.0351 96.5789 85.9951C96.2855 85.9284 96.0322 85.6818 95.8189 85.2551C95.7255 85.0551 95.6389 84.8618 95.5589 84.6751C95.4922 84.4751 95.4255 84.2351 95.3589 83.9551C95.3055 83.6618 95.2655 83.4684 95.2389 83.3751C95.2255 83.2818 95.1922 83.0351 95.1389 82.6351C95.0855 82.2218 95.0589 82.0018 95.0589 81.9751C94.9655 81.7084 94.8589 81.5751 94.7389 81.5751C94.6855 81.6018 94.5855 81.6818 94.4389 81.8151C94.2922 81.9484 94.1455 82.0884 93.9989 82.2351C93.8655 82.3684 93.7189 82.5218 93.5589 82.6951C93.3989 82.8551 93.3055 82.9484 93.2789 82.9751L93.0789 83.2551L92.3389 84.2151L92.1389 84.4951C92.0855 84.5484 91.9855 84.6751 91.8389 84.8751C91.7055 85.0618 91.5855 85.2018 91.4789 85.2951C91.3855 85.3884 91.2722 85.4618 91.1389 85.5151C90.9122 85.5551 90.6989 85.5351 90.4989 85.4551C90.2989 85.3618 90.1722 85.2084 90.1189 84.9951C90.0389 84.8884 89.9989 84.7618 89.9989 84.6151V82.4951H89.9589C89.9055 82.4684 89.8722 82.4618 89.8589 82.4751C88.9389 83.7684 88.2255 84.8618 87.7189 85.7551C87.5989 85.9151 87.5122 85.9951 87.4589 85.9951C86.8855 86.0618 86.5522 85.9818 86.4589 85.7551C86.4189 85.6884 86.3655 85.5551 86.2989 85.3551C86.2322 85.1418 86.1989 85.0218 86.1989 84.9951V80.1351C86.2522 79.7751 86.4255 79.5951 86.7189 79.5951C86.8789 79.5951 87.0455 79.6551 87.2189 79.7751C87.3922 79.8951 87.5189 80.0351 87.5989 80.1951ZM100.055 80.2751C101.015 79.0484 102.068 78.2484 103.215 77.8751C103.948 77.7818 104.335 77.7351 104.375 77.7351C105.202 77.7618 105.922 78.0151 106.535 78.4951C107.148 78.9618 107.475 79.6018 107.515 80.4151C107.528 81.1218 107.242 81.7684 106.655 82.3551C106.082 82.9418 105.442 83.2618 104.735 83.3151C104.468 83.4084 104.182 83.4551 103.875 83.4551C103.182 83.4551 102.415 83.2018 101.575 82.6951C101.322 82.4418 101.155 82.3151 101.075 82.3151C101.022 82.2884 100.975 82.2884 100.935 82.3151C100.495 82.9818 100.282 83.4884 100.295 83.8351C100.442 84.7018 100.908 85.4351 101.695 86.0351C102.482 86.6484 103.315 86.9284 104.195 86.8751C104.328 86.9284 104.562 86.9284 104.895 86.8751C105.228 86.8351 105.448 86.8018 105.555 86.7751C105.675 86.7484 105.902 86.6818 106.235 86.5751C106.582 86.4818 106.822 86.4151 106.955 86.3751C107.422 86.1884 108.042 86.0684 108.815 86.0151H108.955C109.048 85.9884 109.135 86.0084 109.215 86.0751C109.295 86.1418 109.342 86.2418 109.355 86.3751V87.1151C108.875 87.6618 108.282 87.9551 107.575 87.9951C107.428 88.0351 107.162 88.1084 106.775 88.2151C106.402 88.3218 106.115 88.3951 105.915 88.4351C105.728 88.4884 105.475 88.5351 105.155 88.5751C104.848 88.6284 104.568 88.6484 104.315 88.6351C103.142 88.6884 102.015 88.3884 100.935 87.7351C99.9485 87.2284 99.1885 86.3484 98.6551 85.0951C98.4551 84.3084 98.4885 83.5418 98.7551 82.7951C99.0218 82.0484 99.4551 81.2084 100.055 80.2751ZM101.615 81.2351C101.895 81.2351 102.135 81.2551 102.335 81.2951C102.455 81.3618 102.568 81.4151 102.675 81.4551C102.795 81.4818 102.935 81.5084 103.095 81.5351C103.268 81.5484 103.382 81.5551 103.435 81.5551C103.488 81.5551 103.628 81.5551 103.855 81.5551C104.095 81.5551 104.222 81.5551 104.235 81.5551C104.928 81.3418 105.388 81.0418 105.615 80.6551C105.655 80.5084 105.655 80.3818 105.615 80.2751C105.588 80.1551 105.515 80.0551 105.395 79.9751C105.275 79.8951 105.162 79.8351 105.055 79.7951C104.948 79.7551 104.802 79.7084 104.615 79.6551C104.442 79.5884 104.315 79.5418 104.235 79.5151C103.915 79.5151 103.588 79.6084 103.255 79.7951C102.922 79.9684 102.655 80.1418 102.455 80.3151C102.255 80.4884 102.002 80.7284 101.695 81.0351C101.695 81.0484 101.682 81.0818 101.655 81.1351C101.628 81.1751 101.615 81.2084 101.615 81.2351ZM109.653 80.6151C109.746 80.0284 109.946 79.5218 110.253 79.0951C110.559 78.6684 110.993 78.2018 111.553 77.6951C112.033 77.4551 112.653 77.3351 113.413 77.3351C114.346 77.3351 115.113 77.4951 115.713 77.8151C116.846 78.5218 117.653 79.1151 118.133 79.5951C118.133 79.6351 118.139 79.7351 118.153 79.8951C118.166 80.0551 118.159 80.1884 118.133 80.2951C118.119 80.4018 118.073 80.4618 117.993 80.4751C117.566 80.5418 117.133 80.4751 116.693 80.2751C116.586 80.2084 116.413 80.1084 116.173 79.9751C115.933 79.8284 115.753 79.7218 115.633 79.6551C115.513 79.5884 115.353 79.5218 115.153 79.4551C114.953 79.3884 114.759 79.3484 114.573 79.3351C114.466 79.3351 114.293 79.3351 114.053 79.3351C113.813 79.3218 113.619 79.3218 113.473 79.3351C113.339 79.3351 113.173 79.3551 112.973 79.3951C112.773 79.4351 112.593 79.5018 112.433 79.5951L112.313 79.7151C111.833 80.3551 111.533 80.8484 111.413 81.1951C111.439 81.5951 111.439 81.9551 111.413 82.2751C111.386 82.5818 111.379 82.9351 111.393 83.3351C111.419 83.7351 111.473 84.0884 111.553 84.3951C111.646 84.5551 111.699 84.7151 111.713 84.8751C111.726 85.0218 111.693 85.1951 111.613 85.3951C111.533 85.5951 111.473 85.7351 111.433 85.8151C111.406 85.8818 111.319 86.0351 111.173 86.2751C111.053 86.4351 110.906 86.5151 110.733 86.5151C110.546 86.5151 110.353 86.4351 110.153 86.2751C109.833 86.0751 109.579 85.7018 109.393 85.1551C109.393 83.0484 109.479 81.5351 109.653 80.6151Z" fill="#1E1E1E"/>
<path d="M38.9254 140.913C38.7787 140.553 38.6387 140.047 38.5054 139.393C38.3721 138.74 38.2387 138.24 38.1054 137.893C38.0654 137.707 38.0187 137.327 37.9654 136.753C37.9121 136.167 37.8321 135.733 37.7254 135.453C37.7254 135.453 37.7121 135.447 37.6854 135.433C37.6321 135.407 37.5987 135.4 37.5854 135.413C37.4521 135.573 37.3121 135.793 37.1654 136.073C37.0321 136.34 36.8854 136.667 36.7254 137.053C36.5787 137.44 36.4654 137.72 36.3854 137.893C36.0787 138.307 35.6587 138.54 35.1254 138.593C34.6187 138.26 34.1321 137.653 33.6654 136.773C33.6121 136.68 33.5187 136.473 33.3854 136.153C33.2654 135.833 33.1387 135.48 33.0054 135.093C32.8721 134.693 32.7987 134.48 32.7854 134.453L32.5854 134.293C32.4654 134.52 32.2987 134.953 32.0854 135.593C31.8854 136.22 31.7721 136.573 31.7454 136.653C31.1454 138.267 30.4454 139.82 29.6454 141.313C29.6321 141.327 29.5854 141.373 29.5054 141.453C29.4254 141.52 29.3721 141.56 29.3454 141.573C29.3321 141.587 29.2787 141.627 29.1854 141.693C29.1054 141.76 29.0521 141.793 29.0254 141.793C29.0121 141.793 28.9587 141.82 28.8654 141.873C28.7721 141.913 28.7121 141.927 28.6854 141.913C28.6587 141.887 28.5987 141.88 28.5054 141.893C28.2654 141.813 27.9787 141.44 27.6454 140.773C27.5121 140.467 27.4987 140.14 27.6054 139.793C27.9654 139.553 28.3921 139.013 28.8854 138.173C28.9521 138.013 29.1054 137.653 29.3454 137.093C29.5854 136.533 29.7587 136.12 29.8654 135.853C29.9854 135.573 30.1187 135.207 30.2654 134.753C30.4121 134.287 30.5254 133.86 30.6054 133.473C30.6721 133.207 30.7721 132.58 30.9054 131.593C31.0387 130.607 31.1854 129.907 31.3454 129.493C31.5454 129.227 31.7187 129.093 31.8654 129.093C31.9587 129.093 32.0987 129.133 32.2854 129.213C32.5654 129.32 32.7854 129.46 32.9454 129.633C33.1187 129.793 33.2921 130.027 33.4654 130.333C33.4787 130.373 33.5121 130.44 33.5654 130.533C33.6187 130.613 33.6654 130.687 33.7054 130.753L33.7654 130.873L35.0254 134.873C35.0254 134.913 35.0787 134.953 35.1854 134.993C35.3321 134.887 35.5121 134.62 35.7254 134.193C35.9387 133.753 36.0854 133.473 36.1654 133.353C36.5121 132.607 36.7321 131.64 36.8254 130.453C36.7987 130.36 36.8121 130.26 36.8654 130.153C36.9187 130.033 37.0054 129.9 37.1254 129.753C37.2454 129.593 37.3121 129.507 37.3254 129.493C37.3787 129.493 37.4854 129.507 37.6454 129.533C37.8054 129.547 37.9521 129.567 38.0854 129.593L38.3054 129.633C38.3321 129.647 38.4321 129.727 38.6054 129.873C38.7921 130.007 38.9187 130.113 38.9854 130.193C39.1454 130.3 39.2587 130.573 39.3254 131.013C39.3921 131.44 39.4321 131.667 39.4454 131.693C39.4587 131.92 39.4654 132.627 39.4654 133.813C39.4654 134.987 39.5254 135.7 39.6454 135.953C39.7521 137.393 40.1787 139.18 40.9254 141.313C40.9521 141.407 41.0721 141.627 41.2854 141.973C41.5121 142.333 41.6321 142.553 41.6454 142.633C41.7121 142.74 41.6787 142.887 41.5454 143.073C41.4121 143.26 41.3454 143.36 41.3454 143.373C41.1587 143.4 40.9587 143.4 40.7454 143.373C40.5454 143.347 40.3587 143.253 40.1854 143.093C39.9054 142.947 39.6921 142.76 39.5454 142.533C39.3987 142.32 39.2721 142.027 39.1654 141.653C39.0587 141.28 38.9787 141.033 38.9254 140.913ZM44.4179 136.213C45.3779 134.987 46.4312 134.187 47.5779 133.813C48.3112 133.72 48.6979 133.673 48.7379 133.673C49.5646 133.7 50.2846 133.953 50.8979 134.433C51.5112 134.9 51.8379 135.54 51.8779 136.353C51.8912 137.06 51.6046 137.707 51.0179 138.293C50.4446 138.88 49.8046 139.2 49.0979 139.253C48.8312 139.347 48.5446 139.393 48.2379 139.393C47.5446 139.393 46.7779 139.14 45.9379 138.633C45.6846 138.38 45.5179 138.253 45.4379 138.253C45.3846 138.227 45.3379 138.227 45.2979 138.253C44.8579 138.92 44.6446 139.427 44.6579 139.773C44.8046 140.64 45.2712 141.373 46.0579 141.973C46.8446 142.587 47.6779 142.867 48.5579 142.813C48.6912 142.867 48.9246 142.867 49.2579 142.813C49.5912 142.773 49.8112 142.74 49.9179 142.713C50.0379 142.687 50.2646 142.62 50.5979 142.513C50.9446 142.42 51.1846 142.353 51.3179 142.313C51.7846 142.127 52.4046 142.007 53.1779 141.953H53.3179C53.4112 141.927 53.4979 141.947 53.5779 142.013C53.6579 142.08 53.7046 142.18 53.7179 142.313V143.053C53.2379 143.6 52.6446 143.893 51.9379 143.933C51.7912 143.973 51.5246 144.047 51.1379 144.153C50.7646 144.26 50.4779 144.333 50.2779 144.373C50.0912 144.427 49.8379 144.473 49.5179 144.513C49.2112 144.567 48.9312 144.587 48.6779 144.573C47.5046 144.627 46.3779 144.327 45.2979 143.673C44.3112 143.167 43.5512 142.287 43.0179 141.033C42.8179 140.247 42.8512 139.48 43.1179 138.733C43.3846 137.987 43.8179 137.147 44.4179 136.213ZM45.9779 137.173C46.2579 137.173 46.4979 137.193 46.6979 137.233C46.8179 137.3 46.9312 137.353 47.0379 137.393C47.1579 137.42 47.2979 137.447 47.4579 137.473C47.6312 137.487 47.7446 137.493 47.7979 137.493C47.8512 137.493 47.9912 137.493 48.2179 137.493C48.4579 137.493 48.5846 137.493 48.5979 137.493C49.2912 137.28 49.7512 136.98 49.9779 136.593C50.0179 136.447 50.0179 136.32 49.9779 136.213C49.9512 136.093 49.8779 135.993 49.7579 135.913C49.6379 135.833 49.5246 135.773 49.4179 135.733C49.3112 135.693 49.1646 135.647 48.9779 135.593C48.8046 135.527 48.6779 135.48 48.5979 135.453C48.2779 135.453 47.9512 135.547 47.6179 135.733C47.2846 135.907 47.0179 136.08 46.8179 136.253C46.6179 136.427 46.3646 136.667 46.0579 136.973C46.0579 136.987 46.0446 137.02 46.0179 137.073C45.9912 137.113 45.9779 137.147 45.9779 137.173ZM58.8154 136.473C57.9354 137.22 57.1354 138.147 56.4154 139.253C56.3887 139.307 56.2154 139.6 55.8954 140.133C55.5887 140.653 55.3821 141.033 55.2754 141.273C55.1287 141.513 54.9154 141.6 54.6354 141.533L53.7554 140.633V140.013C53.8221 139.667 53.8954 138.993 53.9754 137.993C54.0554 136.993 54.1087 136.4 54.1354 136.213C54.1354 136.147 54.1287 136.087 54.1154 136.033L54.0354 135.513C54.0221 135.46 54.0154 135.4 54.0154 135.333V135.253C54.0154 135.04 54.0821 134.867 54.2154 134.733C54.3621 134.6 54.5421 134.54 54.7554 134.553C55.1821 134.553 55.4821 134.687 55.6554 134.953C55.7487 135.313 55.7954 135.78 55.7954 136.353C55.7954 136.473 55.7887 136.627 55.7754 136.813C55.7754 136.987 55.7754 137.08 55.7754 137.093C55.8821 137.013 56.0954 136.813 56.4154 136.493C56.7487 136.16 56.9554 135.94 57.0354 135.833C57.1287 135.713 57.2421 135.553 57.3754 135.353C57.5221 135.14 57.6621 134.96 57.7954 134.813C57.9287 134.653 58.0887 134.5 58.2754 134.353C58.3421 134.26 58.4221 134.193 58.5154 134.153C58.6087 134.1 58.6954 134.073 58.7754 134.073C58.8687 134.06 58.9687 134.053 59.0754 134.053C59.1821 134.053 59.2887 134.053 59.3954 134.053C59.5421 134 59.6887 134.013 59.8354 134.093C59.9954 134.16 60.1621 134.307 60.3354 134.533C60.5087 134.747 60.6154 134.893 60.6554 134.973C60.7087 135.053 60.8154 135.22 60.9754 135.473C61.3887 136.433 61.5954 137.48 61.5954 138.613L61.9754 140.253C61.9754 140.293 62.0154 140.427 62.0954 140.653C62.1887 140.88 62.2354 141 62.2354 141.013C62.2621 141.373 62.1754 141.627 61.9754 141.773C61.9354 141.787 61.8354 141.827 61.6754 141.893C61.5287 141.947 61.4154 141.973 61.3354 141.973C61.2021 141.973 61.1221 141.907 61.0954 141.773C61.0687 141.733 60.9754 141.587 60.8154 141.333C60.6687 141.067 60.5487 140.88 60.4554 140.773C60.2021 139.893 60.0354 139.047 59.9554 138.233C59.9154 138.14 59.8554 137.94 59.7754 137.633C59.7087 137.313 59.6421 137.093 59.5754 136.973C59.2954 136.653 59.1087 136.48 59.0154 136.453C58.9087 136.453 58.8421 136.46 58.8154 136.473ZM70.9913 136.273L71.0913 136.293C71.1447 135.747 71.258 135.38 71.4313 135.193C71.578 135.007 71.698 134.913 71.7913 134.913C71.8313 134.913 71.878 134.913 71.9313 134.913C72.0247 134.9 72.1047 134.907 72.1713 134.933C72.2513 134.96 72.3447 135.027 72.4513 135.133C72.5713 135.227 72.6513 135.287 72.6913 135.313C72.9047 135.66 72.9913 136.08 72.9513 136.573C72.9513 136.6 72.8247 136.913 72.5713 137.513C72.478 138.007 72.4647 138.513 72.5313 139.033C72.598 139.54 72.7847 140 73.0913 140.413C73.3447 141 73.3647 141.427 73.1513 141.693C73.098 141.827 72.998 141.893 72.8513 141.893C72.7713 141.893 72.6713 141.873 72.5513 141.833C72.4447 141.793 72.318 141.74 72.1713 141.673C72.0247 141.607 71.9247 141.567 71.8713 141.553C71.3913 141.233 71.0847 140.707 70.9513 139.973C70.418 140.547 69.9047 140.967 69.4113 141.233C68.9313 141.487 68.278 141.707 67.4513 141.893C67.0113 141.947 66.578 141.893 66.1513 141.733C65.738 141.573 65.4313 141.413 65.2313 141.253C65.0313 141.093 64.6913 140.8 64.2113 140.373C64.0247 140.12 63.8713 139.88 63.7513 139.653C63.6447 139.427 63.5647 139.18 63.5113 138.913C63.4713 138.647 63.4447 138.453 63.4313 138.333C63.418 138.2 63.418 137.953 63.4313 137.593C63.4447 137.22 63.4513 136.967 63.4513 136.833C63.5313 136.753 63.5713 136.627 63.5713 136.453V136.333C63.5313 136.133 63.618 135.667 63.8313 134.933C63.858 134.88 63.9313 134.793 64.0513 134.673C64.1847 134.54 64.278 134.46 64.3313 134.433C64.4513 134.407 64.6647 134.42 64.9713 134.473C65.278 134.527 65.4447 134.553 65.4713 134.553C65.578 134.58 65.658 134.627 65.7113 134.693C65.778 134.76 65.818 134.847 65.8313 134.953C65.858 135.047 65.8713 135.133 65.8713 135.213C65.8713 135.293 65.8647 135.4 65.8513 135.533C65.8513 135.667 65.8513 135.76 65.8513 135.813C65.8513 135.84 65.8313 135.887 65.7913 135.953L65.7313 136.073C65.4647 136.647 65.3313 137.247 65.3313 137.873C65.2913 138.22 65.378 138.58 65.5913 138.953C65.8047 139.313 66.0647 139.62 66.3713 139.873C67.0113 140.02 67.4047 140.093 67.5513 140.093C67.8313 140.093 68.1113 140.02 68.3913 139.873C68.6047 139.793 68.8047 139.687 68.9913 139.553C69.1913 139.407 69.3513 139.273 69.4713 139.153C69.6047 139.02 69.7513 138.833 69.9113 138.593C70.0847 138.353 70.2047 138.18 70.2713 138.073C70.338 137.953 70.458 137.74 70.6313 137.433C70.8047 137.127 70.918 136.933 70.9713 136.853C70.9713 136.787 70.9713 136.687 70.9713 136.553C70.9847 136.42 70.9913 136.327 70.9913 136.273ZM86.0585 140.353C86.0585 139.847 86.0985 138.673 86.1785 136.833C86.2585 134.98 86.3185 133.787 86.3585 133.253C86.3585 132.92 86.3452 132.693 86.3185 132.573C86.2385 132.667 86.0385 132.767 85.7185 132.873C85.4119 132.98 85.1785 133.033 85.0185 133.033C84.7519 133.033 84.5119 132.973 84.2985 132.853C84.0852 132.72 83.9919 132.6 84.0185 132.493C85.1385 130.867 85.9385 129.8 86.4185 129.293C86.8585 128.84 87.2519 128.613 87.5985 128.613C87.7319 128.613 87.8785 128.633 88.0385 128.673C88.1319 128.7 88.1785 128.78 88.1785 128.913V134.073C88.1785 134.233 88.1719 134.42 88.1585 134.633L88.0585 136.813C88.0452 137.013 88.0385 137.2 88.0385 137.373C88.0385 138.627 88.0119 139.947 87.9585 141.333C88.0252 141.68 87.8985 142.027 87.5785 142.373C87.3519 142.44 87.1585 142.473 86.9985 142.473C86.7452 142.473 86.5185 142.393 86.3185 142.233C86.3052 142.233 86.2785 142.213 86.2385 142.173C86.2119 142.147 86.1985 142.127 86.1985 142.113C86.0252 141.887 85.9385 141.573 85.9385 141.173C85.9385 141.147 85.9785 140.873 86.0585 140.353Z" fill="#1E1E1E"/>
<path d="M40.2238 172.817C40.0771 172.457 39.9371 171.95 39.8038 171.297C39.6704 170.644 39.5371 170.144 39.4038 169.797C39.3638 169.61 39.3171 169.23 39.2638 168.657C39.2104 168.07 39.1304 167.637 39.0238 167.357C39.0238 167.357 39.0104 167.35 38.9838 167.337C38.9304 167.31 38.8971 167.304 38.8838 167.317C38.7504 167.477 38.6104 167.697 38.4638 167.977C38.3304 168.244 38.1838 168.57 38.0238 168.957C37.8771 169.344 37.7638 169.624 37.6838 169.797C37.3771 170.21 36.9571 170.444 36.4238 170.497C35.9171 170.164 35.4304 169.557 34.9638 168.677C34.9104 168.584 34.8171 168.377 34.6838 168.057C34.5638 167.737 34.4371 167.384 34.3038 166.997C34.1704 166.597 34.0971 166.384 34.0838 166.357L33.8838 166.197C33.7638 166.424 33.5971 166.857 33.3838 167.497C33.1838 168.124 33.0704 168.477 33.0438 168.557C32.4438 170.17 31.7438 171.724 30.9438 173.217C30.9304 173.23 30.8838 173.277 30.8038 173.357C30.7238 173.424 30.6704 173.464 30.6438 173.477C30.6304 173.49 30.5771 173.53 30.4838 173.597C30.4038 173.664 30.3504 173.697 30.3238 173.697C30.3104 173.697 30.2571 173.724 30.1638 173.777C30.0704 173.817 30.0104 173.83 29.9838 173.817C29.9571 173.79 29.8971 173.784 29.8038 173.797C29.5638 173.717 29.2771 173.344 28.9438 172.677C28.8104 172.37 28.7971 172.044 28.9038 171.697C29.2638 171.457 29.6904 170.917 30.1838 170.077C30.2504 169.917 30.4038 169.557 30.6438 168.997C30.8838 168.437 31.0571 168.024 31.1638 167.757C31.2838 167.477 31.4171 167.11 31.5638 166.657C31.7104 166.19 31.8238 165.764 31.9038 165.377C31.9704 165.11 32.0704 164.484 32.2038 163.497C32.3371 162.51 32.4838 161.81 32.6438 161.397C32.8438 161.13 33.0171 160.997 33.1638 160.997C33.2571 160.997 33.3971 161.037 33.5838 161.117C33.8638 161.224 34.0838 161.364 34.2438 161.537C34.4171 161.697 34.5904 161.93 34.7638 162.237C34.7771 162.277 34.8104 162.344 34.8638 162.437C34.9171 162.517 34.9638 162.59 35.0038 162.657L35.0638 162.777L36.3238 166.777C36.3238 166.817 36.3771 166.857 36.4838 166.897C36.6304 166.79 36.8104 166.524 37.0238 166.097C37.2371 165.657 37.3838 165.377 37.4638 165.257C37.8104 164.51 38.0304 163.544 38.1238 162.357C38.0971 162.264 38.1104 162.164 38.1638 162.057C38.2171 161.937 38.3038 161.804 38.4238 161.657C38.5438 161.497 38.6104 161.41 38.6237 161.397C38.6771 161.397 38.7838 161.41 38.9438 161.437C39.1038 161.45 39.2504 161.47 39.3838 161.497L39.6038 161.537C39.6304 161.55 39.7304 161.63 39.9038 161.777C40.0904 161.91 40.2171 162.017 40.2838 162.097C40.4438 162.204 40.5571 162.477 40.6238 162.917C40.6904 163.344 40.7304 163.57 40.7438 163.597C40.7571 163.824 40.7638 164.53 40.7638 165.717C40.7638 166.89 40.8238 167.604 40.9438 167.857C41.0504 169.297 41.4771 171.084 42.2238 173.217C42.2504 173.31 42.3704 173.53 42.5838 173.877C42.8104 174.237 42.9304 174.457 42.9438 174.537C43.0104 174.644 42.9771 174.79 42.8438 174.977C42.7104 175.164 42.6438 175.264 42.6438 175.277C42.4571 175.304 42.2571 175.304 42.0438 175.277C41.8438 175.25 41.6571 175.157 41.4838 174.997C41.2038 174.85 40.9904 174.664 40.8438 174.437C40.6971 174.224 40.5704 173.93 40.4638 173.557C40.3571 173.184 40.2771 172.937 40.2238 172.817ZM45.7163 168.117C46.6763 166.89 47.7296 166.09 48.8763 165.717C49.6096 165.624 49.9963 165.577 50.0363 165.577C50.8629 165.604 51.5829 165.857 52.1963 166.337C52.8096 166.804 53.1363 167.444 53.1763 168.257C53.1896 168.964 52.9029 169.61 52.3163 170.197C51.7429 170.784 51.1029 171.104 50.3963 171.157C50.1296 171.25 49.8429 171.297 49.5362 171.297C48.8429 171.297 48.0763 171.044 47.2363 170.537C46.9829 170.284 46.8163 170.157 46.7363 170.157C46.6829 170.13 46.6363 170.13 46.5962 170.157C46.1563 170.824 45.9429 171.33 45.9563 171.677C46.1029 172.544 46.5696 173.277 47.3563 173.877C48.1429 174.49 48.9763 174.77 49.8563 174.717C49.9896 174.77 50.2229 174.77 50.5563 174.717C50.8896 174.677 51.1096 174.644 51.2163 174.617C51.3363 174.59 51.5629 174.524 51.8963 174.417C52.2429 174.324 52.4829 174.257 52.6163 174.217C53.0829 174.03 53.7029 173.91 54.4763 173.857H54.6163C54.7096 173.83 54.7963 173.85 54.8763 173.917C54.9563 173.984 55.0029 174.084 55.0163 174.217V174.957C54.5363 175.504 53.9429 175.797 53.2363 175.837C53.0896 175.877 52.8229 175.95 52.4363 176.057C52.0629 176.164 51.7763 176.237 51.5763 176.277C51.3896 176.33 51.1363 176.377 50.8163 176.417C50.5096 176.47 50.2296 176.49 49.9763 176.477C48.8029 176.53 47.6763 176.23 46.5962 175.577C45.6096 175.07 44.8496 174.19 44.3162 172.937C44.1163 172.15 44.1496 171.384 44.4163 170.637C44.6829 169.89 45.1163 169.05 45.7163 168.117ZM47.2763 169.077C47.5563 169.077 47.7963 169.097 47.9963 169.137C48.1163 169.204 48.2296 169.257 48.3363 169.297C48.4563 169.324 48.5963 169.35 48.7563 169.377C48.9296 169.39 49.0429 169.397 49.0963 169.397C49.1496 169.397 49.2896 169.397 49.5163 169.397C49.7563 169.397 49.8829 169.397 49.8963 169.397C50.5896 169.184 51.0496 168.884 51.2763 168.497C51.3163 168.35 51.3163 168.224 51.2763 168.117C51.2496 167.997 51.1763 167.897 51.0563 167.817C50.9363 167.737 50.8229 167.677 50.7163 167.637C50.6096 167.597 50.4629 167.55 50.2763 167.497C50.1029 167.43 49.9763 167.384 49.8963 167.357C49.5763 167.357 49.2496 167.45 48.9163 167.637C48.5829 167.81 48.3163 167.984 48.1163 168.157C47.9163 168.33 47.6629 168.57 47.3563 168.877C47.3563 168.89 47.3429 168.924 47.3163 168.977C47.2896 169.017 47.2763 169.05 47.2763 169.077ZM60.1138 168.377C59.2338 169.124 58.4338 170.05 57.7138 171.157C57.6871 171.21 57.5138 171.504 57.1938 172.037C56.8871 172.557 56.6804 172.937 56.5738 173.177C56.4271 173.417 56.2138 173.504 55.9338 173.437L55.0538 172.537V171.917C55.1204 171.57 55.1938 170.897 55.2738 169.897C55.3538 168.897 55.4071 168.304 55.4338 168.117C55.4338 168.05 55.4271 167.99 55.4138 167.937L55.3338 167.417C55.3204 167.364 55.3138 167.304 55.3138 167.237V167.157C55.3138 166.944 55.3804 166.77 55.5138 166.637C55.6604 166.504 55.8404 166.444 56.0538 166.457C56.4804 166.457 56.7804 166.59 56.9538 166.857C57.0471 167.217 57.0938 167.684 57.0938 168.257C57.0938 168.377 57.0871 168.53 57.0738 168.717C57.0738 168.89 57.0738 168.984 57.0738 168.997C57.1804 168.917 57.3938 168.717 57.7138 168.397C58.0471 168.064 58.2538 167.844 58.3338 167.737C58.4271 167.617 58.5404 167.457 58.6738 167.257C58.8204 167.044 58.9604 166.864 59.0938 166.717C59.2271 166.557 59.3871 166.404 59.5738 166.257C59.6404 166.164 59.7204 166.097 59.8138 166.057C59.9071 166.004 59.9938 165.977 60.0738 165.977C60.1671 165.964 60.2671 165.957 60.3738 165.957C60.4804 165.957 60.5871 165.957 60.6938 165.957C60.8404 165.904 60.9871 165.917 61.1338 165.997C61.2938 166.064 61.4604 166.21 61.6338 166.437C61.8071 166.65 61.9138 166.797 61.9538 166.877C62.0071 166.957 62.1138 167.124 62.2738 167.377C62.6871 168.337 62.8938 169.384 62.8938 170.517L63.2738 172.157C63.2738 172.197 63.3138 172.33 63.3938 172.557C63.4871 172.784 63.5338 172.904 63.5338 172.917C63.5604 173.277 63.4738 173.53 63.2738 173.677C63.2338 173.69 63.1338 173.73 62.9738 173.797C62.8271 173.85 62.7138 173.877 62.6338 173.877C62.5004 173.877 62.4204 173.81 62.3938 173.677C62.3671 173.637 62.2738 173.49 62.1138 173.237C61.9671 172.97 61.8471 172.784 61.7538 172.677C61.5004 171.797 61.3338 170.95 61.2538 170.137C61.2138 170.044 61.1538 169.844 61.0738 169.537C61.0071 169.217 60.9404 168.997 60.8738 168.877C60.5938 168.557 60.4071 168.384 60.3138 168.357C60.2071 168.357 60.1404 168.364 60.1138 168.377ZM72.2897 168.177L72.3897 168.197C72.443 167.65 72.5564 167.284 72.7297 167.097C72.8764 166.91 72.9964 166.817 73.0897 166.817C73.1297 166.817 73.1764 166.817 73.2297 166.817C73.323 166.804 73.403 166.81 73.4697 166.837C73.5497 166.864 73.643 166.93 73.7497 167.037C73.8697 167.13 73.9497 167.19 73.9897 167.217C74.203 167.564 74.2897 167.984 74.2497 168.477C74.2497 168.504 74.123 168.817 73.8697 169.417C73.7764 169.91 73.763 170.417 73.8297 170.937C73.8964 171.444 74.083 171.904 74.3897 172.317C74.643 172.904 74.663 173.33 74.4497 173.597C74.3964 173.73 74.2964 173.797 74.1497 173.797C74.0697 173.797 73.9697 173.777 73.8497 173.737C73.743 173.697 73.6164 173.644 73.4697 173.577C73.323 173.51 73.223 173.47 73.1697 173.457C72.6897 173.137 72.383 172.61 72.2497 171.877C71.7164 172.45 71.203 172.87 70.7097 173.137C70.2297 173.39 69.5764 173.61 68.7497 173.797C68.3097 173.85 67.8764 173.797 67.4497 173.637C67.0364 173.477 66.7297 173.317 66.5297 173.157C66.3297 172.997 65.9897 172.704 65.5097 172.277C65.323 172.024 65.1697 171.784 65.0497 171.557C64.943 171.33 64.863 171.084 64.8097 170.817C64.7697 170.55 64.743 170.357 64.7297 170.237C64.7164 170.104 64.7164 169.857 64.7297 169.497C64.743 169.124 64.7497 168.87 64.7497 168.737C64.8297 168.657 64.8697 168.53 64.8697 168.357V168.237C64.8297 168.037 64.9164 167.57 65.1297 166.837C65.1564 166.784 65.2297 166.697 65.3497 166.577C65.483 166.444 65.5764 166.364 65.6297 166.337C65.7497 166.31 65.963 166.324 66.2697 166.377C66.5764 166.43 66.743 166.457 66.7697 166.457C66.8764 166.484 66.9564 166.53 67.0097 166.597C67.0764 166.664 67.1164 166.75 67.1297 166.857C67.1564 166.95 67.1697 167.037 67.1697 167.117C67.1697 167.197 67.163 167.304 67.1497 167.437C67.1497 167.57 67.1497 167.664 67.1497 167.717C67.1497 167.744 67.1297 167.79 67.0897 167.857L67.0297 167.977C66.763 168.55 66.6297 169.15 66.6297 169.777C66.5897 170.124 66.6764 170.484 66.8897 170.857C67.103 171.217 67.363 171.524 67.6697 171.777C68.3097 171.924 68.703 171.997 68.8497 171.997C69.1297 171.997 69.4097 171.924 69.6897 171.777C69.903 171.697 70.103 171.59 70.2897 171.457C70.4897 171.31 70.6497 171.177 70.7697 171.057C70.903 170.924 71.0497 170.737 71.2097 170.497C71.383 170.257 71.503 170.084 71.5697 169.977C71.6364 169.857 71.7564 169.644 71.9297 169.337C72.103 169.03 72.2164 168.837 72.2697 168.757C72.2697 168.69 72.2697 168.59 72.2697 168.457C72.283 168.324 72.2897 168.23 72.2897 168.177ZM87.1369 170.897C87.5369 170.39 87.8902 170.037 88.1969 169.837C88.5035 169.637 88.9235 169.484 89.4569 169.377C89.5502 169.377 89.9502 169.357 90.6569 169.317C91.3635 169.264 91.7969 169.27 91.9569 169.337C92.3569 169.337 92.5569 169.317 92.5569 169.277C92.8769 168.917 93.2369 168.324 93.6369 167.497C94.0502 166.67 94.3302 165.81 94.4769 164.917C94.5169 164.624 94.4969 164.364 94.4169 164.137C94.3369 163.91 94.1835 163.717 93.9569 163.557C93.7435 163.397 93.5502 163.277 93.3769 163.197C93.2035 163.104 92.9569 162.997 92.6369 162.877C92.3169 162.877 92.0769 162.884 91.9169 162.897C91.7569 162.91 91.5502 162.944 91.2969 162.997C91.0435 163.037 90.8369 163.104 90.6769 163.197C90.5302 163.29 90.3702 163.424 90.1969 163.597C90.0235 163.77 89.8769 163.984 89.7569 164.237C89.6635 164.624 89.6035 164.844 89.5769 164.897C89.5635 164.924 89.5502 164.964 89.5369 165.017C89.5235 165.057 89.5102 165.084 89.4969 165.097C89.4969 165.11 89.4835 165.137 89.4569 165.177C89.4435 165.217 89.4302 165.237 89.4169 165.237C89.4169 165.237 89.4035 165.25 89.3769 165.277C89.3502 165.304 89.3235 165.317 89.2969 165.317C89.2835 165.304 89.2569 165.31 89.2169 165.337C89.1769 165.35 89.1369 165.35 89.0969 165.337C89.0702 165.324 89.0235 165.324 88.9569 165.337C88.6902 165.404 88.4102 165.344 88.1169 165.157C87.8235 164.97 87.6569 164.73 87.6169 164.437C87.3635 163.797 87.4969 163.25 88.0169 162.797C88.4835 162.33 88.8702 162.004 89.1769 161.817C89.4969 161.63 90.0169 161.41 90.7369 161.157C91.4569 161.064 92.0302 161.017 92.4569 161.017C93.2169 161.017 93.8035 161.13 94.2169 161.357C94.8702 161.704 95.3102 161.99 95.5369 162.217C96.2835 162.95 96.5635 164.03 96.3769 165.457C96.2702 166.284 96.0969 166.977 95.8569 167.537C95.6169 168.097 95.2169 168.824 94.6569 169.717C94.8435 169.757 95.0102 169.804 95.1569 169.857C95.3169 169.897 95.4769 169.957 95.6369 170.037C95.7969 170.104 95.9235 170.157 96.0169 170.197C96.1102 170.237 96.2369 170.317 96.3969 170.437C96.5702 170.544 96.6902 170.617 96.7569 170.657C96.8235 170.697 96.9502 170.79 97.1369 170.937C97.3369 171.084 97.4702 171.177 97.5369 171.217C97.5635 171.23 97.6435 171.29 97.7769 171.397C97.9102 171.504 97.9969 171.577 98.0369 171.617C98.0769 171.644 98.1569 171.71 98.2769 171.817C98.3969 171.91 98.4769 171.99 98.5169 172.057C98.5702 172.11 98.6302 172.19 98.6969 172.297C98.7769 172.39 98.8302 172.484 98.8569 172.577C98.8835 172.657 98.9035 172.757 98.9169 172.877C98.9435 172.984 98.9502 173.09 98.9369 173.197C99.0302 173.464 98.9035 173.737 98.5569 174.017C98.3702 174.044 98.1569 174.044 97.9169 174.017C97.5969 173.63 97.1769 173.224 96.6569 172.797C95.5769 171.984 94.4769 171.624 93.3569 171.717C93.2769 171.93 93.1902 172.104 93.0969 172.237C93.0035 172.357 92.8569 172.51 92.6569 172.697C92.4702 172.87 92.3102 173.03 92.1769 173.177C92.0302 173.377 91.8102 173.55 91.5169 173.697C91.2235 173.83 90.9635 173.884 90.7369 173.857C90.3369 173.897 89.9969 173.917 89.7169 173.917C89.1969 173.917 88.6502 173.784 88.0769 173.517C87.8102 173.344 87.6235 173.204 87.5169 173.097C87.4235 172.99 87.2702 172.857 87.0569 172.697C86.7769 172.204 86.8035 171.604 87.1369 170.897ZM89.4369 172.057L90.0569 172.097C90.5635 171.99 90.8969 171.784 91.0569 171.477C91.0835 171.424 91.1035 171.39 91.1169 171.377C91.1435 171.364 91.1635 171.364 91.1769 171.377C91.1902 171.377 91.2035 171.39 91.2169 171.417V171.357L91.5569 171.097C91.3835 171.004 91.1502 170.957 90.8569 170.957C90.5235 170.957 90.1835 171.024 89.8369 171.157C89.5035 171.29 89.2435 171.47 89.0569 171.697L89.4369 172.057Z" fill="#1E1E1E"/>
<path d="M235.617 310.469C255.557 307.459 271.577 311.709 282.967 310.469C296.497 312.139 302.427 316.689 304.147 331.649C303.807 347.489 304.357 357.719 304.147 374.009C307.017 391.239 296.967 397.669 282.967 395.189C273.157 396.849 258.217 393.619 235.617 395.189C223.447 396.239 213.747 385.069 214.437 374.009C210.277 363.269 217.097 343.609 214.437 331.649C211.417 320.979 223.817 308.039 235.617 310.469Z" fill="#EADDD7"/>
<path d="M373.242 313.695C391.942 311.265 404.652 313.085 420.592 313.695C431.682 312.975 444.272 319.055 441.772 334.875C438.342 344.685 440.472 353.335 441.772 377.235C442.052 391.145 432.232 398.105 420.592 398.415C407.102 399.935 383.242 396.445 373.242 398.415C360.192 398.005 355.152 391.325 352.062 377.235C354.712 361.665 356.062 349.895 352.062 334.875C348.802 322.325 357.962 315.735 373.242 313.695Z" fill="#EADDD7"/>
<path d="M510.868 312.62C523.948 315.38 536.398 311.97 558.218 312.62C575.828 310.55 576.278 316.94 579.398 333.8C582.428 347.18 579.768 359.41 579.398 376.16C577.318 390.87 574.718 394.67 558.218 397.34C548.278 399.62 535.688 399.33 510.868 397.34C494.138 393.85 490.898 390.23 489.688 376.16C491.278 364.9 490.328 354.02 489.688 333.8C488.428 321.75 493.658 312.82 510.868 312.62Z" fill="#EADDD7"/>
</svg>
