<svg width="669" height="387" viewBox="0 0 669 387" fill="none" xmlns="http://www.w3.org/2000/svg">
<path d="M41.9999 9.99999C226.48 6.10999 411.96 4.69999 626.78 9.99999C651.3 11.44 660.46 24.17 658.78 42C658.41 161.83 656.24 279.88 658.78 344.19C657.57 364.31 646.23 372.87 626.78 376.19C426.49 372.73 228.8 374.96 41.9999 376.19C20.5099 376.87 9.68989 365.63 9.99989 344.19C10.9199 280.82 9.80989 214.84 9.99989 42C12.5399 23.94 19.1299 8.20999 41.9999 9.99999Z" fill="#E9ECEF"/>
<path d="M41.9999 10C170.49 8.85001 298.93 8.93001 626.78 10M41.9999 10C218.3 10.19 394.17 10.62 626.78 10M41.9999 10C21.4699 9.07001 11.2699 19.82 9.99992 42M41.9999 10C18.7599 11.33 12.1999 22.51 9.99992 42M626.78 10C646.89 11.16 659.86 20.39 658.78 42M626.78 10C646.59 9.76001 657.92 18.87 658.78 42M658.78 42C656.79 128.27 657.95 215.44 658.78 344.19M658.78 42C657.49 157.09 658 272.86 658.78 344.19M658.78 344.19C659.25 367.01 648.91 378.17 626.78 376.19M658.78 344.19C658.03 364.54 648.76 374.36 626.78 376.19M626.78 376.19C395.46 377.45 162.51 378.12 41.9999 376.19M626.78 376.19C467.38 375.91 308.03 375.6 41.9999 376.19M41.9999 376.19C20.7499 376.19 9.07992 364.16 9.99992 344.19M41.9999 376.19C22.7599 374.91 8.56992 367.04 9.99992 344.19M9.99992 344.19C9.30992 235.41 7.90992 129.61 9.99992 42M9.99992 344.19C11.2299 271.91 11.0999 200.78 9.99992 42" stroke="#1E1E1E" stroke-width="2" stroke-linecap="round"/>
<path d="M455.636 104.767C494.436 107.657 535.246 105.317 584.066 104.767C602.956 105.827 614.736 118.087 616.066 136.767C618.816 187.667 616.706 240.377 616.066 283.067C618.296 304.677 604.466 312.027 584.066 315.067C547.576 317.227 519.886 318.067 455.636 315.067C433.646 318.257 422.756 305.627 423.636 283.067C424.606 248.167 426.356 211.787 423.636 136.767C421.316 112.397 432.996 104.897 455.636 104.767Z" fill="#A5D8FF"/>
<path d="M455.636 104.767C492.566 106.097 525.416 106.407 584.066 104.767M455.636 104.767C500.446 103.407 546.116 104.727 584.066 104.767M455.636 104.767C435.346 106.727 421.686 115.397 423.636 136.767M455.636 104.767C435.286 104.907 422.826 116.317 423.636 136.767M584.066 104.767C604.936 105.307 615.976 113.817 616.066 136.767M584.066 104.767C605.746 104.437 615.696 113.997 616.066 136.767M616.066 136.767C616.846 173.767 614.246 206.377 616.066 283.067M616.066 136.767C616.366 176.507 616.916 216.157 616.066 283.067M616.066 283.067C614.556 302.757 604.206 315.367 584.066 315.067M616.066 283.067C617.526 305.377 603.626 316.747 584.066 315.067M584.066 315.067C537.416 314.257 495.256 313.357 455.636 315.067M584.066 315.067C541.676 314.787 501.856 314.597 455.636 315.067M455.636 315.067C433.216 314.077 424.356 305.517 423.636 283.067M455.636 315.067C432.376 313.917 424.426 302.847 423.636 283.067M423.636 283.067C424.616 247.327 424.376 207.207 423.636 136.767M423.636 283.067C423.216 238.027 424.216 192.837 423.636 136.767" stroke="#1E1E1E" stroke-width="2" stroke-linecap="round"/>
<path d="M26.189 11.1909C164.139 14.2809 300.379 12.5309 642.679 11.1909C653.619 13.8909 659.559 15.9209 658.689 27.2009C659.619 37.4809 658.729 50.8809 658.689 59.2109C655.539 73.0609 650.459 73.1909 642.679 75.2209C511.459 76.5809 381.859 77.0109 26.189 75.2209C18.699 71.8209 6.669 71.5109 10.179 59.2109C13.659 46.7909 12.929 34.6909 10.179 27.2009C7.399 16.4309 15.729 11.5809 26.189 11.1909Z" fill="#FFEC99"/>
<path d="M26.1888 11.1909C242.519 11.2009 460.539 11.4909 642.679 11.1909M26.1888 11.1909C155.279 11.7409 284.629 12.2609 642.679 11.1909M26.1888 11.1909C16.8388 12.7909 8.40883 18.5009 10.1788 27.2009M26.1888 11.1909C16.9588 10.9309 7.91883 18.1909 10.1788 27.2009M642.679 11.1909C653.479 9.34086 658.029 15.9309 658.689 27.2009M642.679 11.1909C651.849 11.1609 657.599 15.1009 658.689 27.2009M658.689 27.2009C658.249 37.3409 657.759 47.3009 658.689 59.2109M658.689 27.2009C659.269 37.9209 657.569 50.2809 658.689 59.2109M658.689 59.2109C660.599 69.0009 653.039 75.2109 642.679 75.2209M658.689 59.2109C658.199 71.3709 654.769 75.5209 642.679 75.2209M642.679 75.2209C478.689 72.8709 316.299 73.7909 26.1888 75.2209M642.679 75.2209C517.439 73.3809 393.189 73.7509 26.1888 75.2209M26.1888 75.2209C17.3888 76.6509 8.70883 71.3409 10.1788 59.2109M26.1888 75.2209C15.3988 73.8209 12.0288 69.6409 10.1788 59.2109M10.1788 59.2109C8.35883 51.0709 8.40883 44.3209 10.1788 27.2009M10.1788 59.2109C9.49883 47.3409 9.86883 37.4509 10.1788 27.2009" stroke="#1E1E1E" stroke-width="2" stroke-linecap="round"/>
<path d="M456.583 23.9141C469.353 23.7541 488.673 26.6941 518.153 23.9141C522.953 21.6541 529.343 26.0141 527.293 33.0541C525.463 37.3041 528.433 44.3141 527.293 51.3341C524.113 57.2141 522.253 59.8641 518.153 60.4741C503.963 60.4041 494.273 57.1741 456.583 60.4741C452.393 59.0741 446.243 56.9741 447.443 51.3341C450.513 45.9641 447.113 38.2141 447.443 33.0541C446.013 26.9441 450.733 25.9441 456.583 23.9141Z" fill="#A5D8FF"/>
<path d="M456.583 23.9142C479.523 24.1942 497.233 24.9942 518.153 23.9142M456.583 23.9142C470.983 23.6042 486.873 23.8342 518.153 23.9142M456.583 23.9142C448.983 24.3142 445.863 27.7642 447.443 33.0542M456.583 23.9142C452.593 22.9342 448.263 26.6742 447.443 33.0542M518.153 23.9142C526.123 23.7042 528.393 25.0742 527.293 33.0542M518.153 23.9142C526.003 23.1542 528.813 26.6442 527.293 33.0542M527.293 33.0542C525.913 41.5242 526.253 46.2242 527.293 51.3342M527.293 33.0542C527.473 39.5342 527.423 44.8742 527.293 51.3342M527.293 51.3342C527.973 58.4042 524.773 62.4142 518.153 60.4742M527.293 51.3342C528.933 58.4942 523.853 61.5542 518.153 60.4742M518.153 60.4742C500.903 60.1942 484.833 61.8542 456.583 60.4742M518.153 60.4742C495.053 61.3442 471.623 60.9042 456.583 60.4742M456.583 60.4742C448.653 59.6642 446.173 56.9442 447.443 51.3342M456.583 60.4742C451.923 62.2742 446.143 57.8342 447.443 51.3342M447.443 51.3342C448.533 45.3742 447.743 40.9542 447.443 33.0542M447.443 51.3342C448.083 45.6142 446.913 39.0842 447.443 33.0542" stroke="#1E1E1E" stroke-width="2" stroke-linecap="round"/>
<path d="M459.587 39.954C459.502 39.8366 459.401 39.7353 459.283 39.65C458.323 39.4153 457.886 39.042 457.971 38.53C457.939 38.3166 457.971 38.1246 458.067 37.954C458.163 37.7833 458.307 37.7033 458.499 37.714C458.606 37.7033 458.755 37.73 458.947 37.794C459.139 37.8473 459.299 37.8526 459.427 37.81C459.427 37.746 459.422 37.458 459.411 36.946C459.401 36.434 459.395 36.0553 459.395 35.81C459.385 35.5646 459.411 35.1966 459.475 34.706C459.539 34.2153 459.577 33.906 459.587 33.778C459.566 33.5646 459.587 33.3673 459.651 33.186C459.715 32.994 459.833 32.77 460.003 32.514C460.174 32.258 460.27 32.1086 460.291 32.066C460.526 31.778 460.862 31.634 461.299 31.634C461.502 31.634 461.774 31.6766 462.115 31.762C462.531 31.9326 462.942 32.194 463.347 32.546C463.763 32.8873 464.206 33.314 464.675 33.826C465.155 34.3273 465.518 34.6846 465.763 34.898C466.062 35.2926 466.227 35.5273 466.259 35.602C466.313 35.6873 466.345 35.778 466.355 35.874C466.377 35.97 466.382 36.0873 466.371 36.226C466.371 36.3646 466.371 36.4606 466.371 36.514C466.339 36.5566 466.291 36.6526 466.227 36.802C466.174 36.9406 466.11 37.0473 466.035 37.122C465.971 37.186 465.881 37.1913 465.763 37.138C465.518 37.202 465.315 37.0633 465.155 36.722C465.091 36.498 465.059 36.258 465.059 36.002C465.006 35.9486 464.819 35.7513 464.499 35.41C464.19 35.058 464.003 34.85 463.939 34.786C463.865 34.7326 463.593 34.498 463.123 34.082C462.654 33.666 462.318 33.4313 462.115 33.378C461.785 33.282 461.497 33.3406 461.251 33.554C461.017 33.7566 460.867 34.034 460.803 34.386C460.643 35.8153 460.643 37.0953 460.803 38.226L461.011 38.338C461.491 38.4446 462.131 38.5513 462.931 38.658C463.742 38.7646 464.35 38.8606 464.755 38.946C465.417 39.1593 465.886 39.394 466.163 39.65C466.206 39.81 466.174 39.9646 466.067 40.114C465.971 40.2633 465.833 40.3433 465.651 40.354C465.481 40.3966 465.283 40.418 465.059 40.418C464.771 40.418 464.334 40.3593 463.747 40.242C463.171 40.1246 462.83 40.0606 462.723 40.05C462.35 39.9753 462.041 39.938 461.795 39.938C461.529 39.938 461.267 39.9753 461.011 40.05V40.178L460.995 40.53V40.658C460.953 41.0953 461.006 41.6553 461.155 42.338C461.315 43.0206 461.401 43.5113 461.411 43.81C461.411 43.8846 461.374 43.9593 461.299 44.034C461.225 44.098 461.129 44.1673 461.011 44.242C460.905 44.3166 460.835 44.3646 460.803 44.386C460.697 44.3646 460.601 44.3273 460.515 44.274C460.43 44.2313 460.361 44.1886 460.307 44.146C460.265 44.1033 460.217 44.034 460.163 43.938C460.121 43.8313 460.089 43.7513 460.067 43.698C460.057 43.6446 460.03 43.5486 459.987 43.41C459.945 43.2606 459.913 43.154 459.891 43.09C459.689 42.3646 459.587 41.3193 459.587 39.954ZM466.328 35.298C466.392 35.138 466.504 35.01 466.664 34.914C466.835 34.8073 467.011 34.7646 467.192 34.786C467.256 34.7753 467.315 34.7753 467.368 34.786C467.422 34.7966 467.475 34.818 467.528 34.85C467.592 34.882 467.64 34.9086 467.672 34.93C467.704 34.9513 467.747 34.9993 467.8 35.074C467.864 35.1486 467.907 35.1966 467.928 35.218C467.95 35.2286 467.992 35.282 468.056 35.378L468.152 35.506C468.195 35.6126 468.398 35.8473 468.76 36.21C468.835 36.3166 468.872 36.4446 468.872 36.594C468.883 36.7326 468.846 36.8446 468.76 36.93H468.408C468.227 36.962 468.04 36.9513 467.848 36.898C467.667 36.8446 467.422 36.738 467.112 36.578C466.814 36.418 466.654 36.3326 466.632 36.322C466.451 36.2153 466.328 36.066 466.264 35.874C466.211 35.6713 466.232 35.4793 466.328 35.298ZM467.352 43.41C467.331 43.282 467.299 43.0046 467.256 42.578C467.214 42.1406 467.171 41.6873 467.128 41.218C467.086 40.738 467.059 40.4553 467.048 40.37C467.027 40.082 467.027 39.778 467.048 39.458C467.208 39.1806 467.475 39.0793 467.848 39.154C467.987 39.218 468.126 39.4206 468.264 39.762C468.264 39.986 468.28 40.2206 468.312 40.466C468.355 40.7113 468.392 40.9193 468.424 41.09C468.467 41.2606 468.526 41.4846 468.6 41.762C468.675 42.0393 468.728 42.2526 468.76 42.402C468.76 42.4873 468.75 42.626 468.728 42.818C468.718 42.9993 468.702 43.1753 468.68 43.346C468.67 43.5166 468.664 43.6073 468.664 43.618C468.654 43.65 468.638 43.7086 468.616 43.794C468.606 43.8793 468.59 43.9486 468.568 44.002C468.558 44.0553 468.531 44.114 468.488 44.178C468.456 44.2313 468.414 44.274 468.36 44.306C468.072 44.3593 467.838 44.2953 467.656 44.114C467.475 43.794 467.374 43.5593 467.352 43.41ZM474.02 39.858C473.316 40.4553 472.676 41.1966 472.1 42.082C472.079 42.1246 471.94 42.3593 471.684 42.786C471.439 43.202 471.274 43.506 471.188 43.698C471.071 43.89 470.9 43.9593 470.676 43.906L469.972 43.186V42.69C470.026 42.4126 470.084 41.874 470.148 41.074C470.212 40.274 470.255 39.7993 470.276 39.65C470.276 39.5966 470.271 39.5486 470.26 39.506L470.196 39.09C470.186 39.0473 470.18 38.9993 470.18 38.946V38.882C470.18 38.7113 470.234 38.5726 470.34 38.466C470.458 38.3593 470.602 38.3113 470.772 38.322C471.114 38.322 471.354 38.4286 471.492 38.642C471.567 38.93 471.604 39.3033 471.604 39.762C471.604 39.858 471.599 39.9806 471.588 40.13C471.588 40.2686 471.588 40.3433 471.588 40.354C471.674 40.29 471.844 40.13 472.1 39.874C472.367 39.6073 472.532 39.4313 472.596 39.346C472.671 39.25 472.762 39.122 472.868 38.962C472.986 38.7913 473.098 38.6473 473.204 38.53C473.311 38.402 473.439 38.2793 473.588 38.162C473.642 38.0873 473.706 38.034 473.78 38.002C473.855 37.9593 473.924 37.938 473.988 37.938C474.063 37.9273 474.143 37.922 474.228 37.922C474.314 37.922 474.399 37.922 474.484 37.922C474.602 37.8793 474.719 37.89 474.836 37.954C474.964 38.0073 475.098 38.1246 475.236 38.306C475.375 38.4766 475.46 38.594 475.492 38.658C475.535 38.722 475.62 38.8553 475.748 39.058C476.079 39.826 476.244 40.6633 476.244 41.57L476.548 42.882C476.548 42.914 476.58 43.0206 476.644 43.202C476.719 43.3833 476.756 43.4793 476.756 43.49C476.778 43.778 476.708 43.9806 476.548 44.098C476.516 44.1086 476.436 44.1406 476.308 44.194C476.191 44.2366 476.1 44.258 476.036 44.258C475.93 44.258 475.866 44.2046 475.844 44.098C475.823 44.066 475.748 43.9486 475.62 43.746C475.503 43.5326 475.407 43.3833 475.332 43.298C475.13 42.594 474.996 41.9166 474.932 41.266C474.9 41.1913 474.852 41.0313 474.788 40.786C474.735 40.53 474.682 40.354 474.628 40.258C474.404 40.002 474.255 39.8633 474.18 39.842C474.095 39.842 474.042 39.8473 474.02 39.858ZM477.169 41.474V41.362C477.276 40.5086 477.681 39.7566 478.385 39.106C479.089 38.4446 479.863 38.1833 480.705 38.322C481.1 38.3433 481.452 38.4926 481.761 38.77C482.081 39.0473 482.236 39.3726 482.225 39.746C482.225 39.8526 482.193 39.922 482.129 39.954C482.065 39.9753 481.975 39.9806 481.857 39.97C481.74 39.9486 481.66 39.9433 481.617 39.954C481.073 39.762 480.567 39.6926 480.097 39.746C479.009 40.3006 478.471 41.01 478.481 41.874C478.396 42.226 478.471 42.5033 478.705 42.706C478.94 42.9086 479.233 43.01 479.585 43.01C479.831 43.01 480.039 42.9673 480.209 42.882C481.351 42.2846 482.295 41.138 483.041 39.442C483.041 39.2073 483.047 38.994 483.057 38.802L483.121 36.85C483.132 36.658 483.137 36.4446 483.137 36.21C483.233 35.1753 483.335 34.498 483.441 34.178C483.452 34.0286 483.479 33.8313 483.521 33.586C483.564 33.33 483.607 33.0686 483.649 32.802C483.703 32.5246 483.735 32.3433 483.745 32.258C483.788 31.9486 483.959 31.746 484.257 31.65C484.428 31.6606 484.615 31.7193 484.817 31.826C485.02 31.922 485.132 32.034 485.153 32.162C485.207 32.29 485.239 32.434 485.249 32.594C485.271 32.754 485.276 32.898 485.265 33.026C485.255 33.154 485.255 33.3033 485.265 33.474C485.255 33.5486 485.265 33.7566 485.297 34.098C485.34 34.4286 485.361 34.626 485.361 34.69C485.361 35.0846 485.292 35.858 485.153 37.01C485.121 37.234 485.02 37.554 484.849 37.97C484.679 38.386 484.577 38.706 484.545 38.93V39.954C484.556 39.9646 484.561 39.9806 484.561 40.002L484.641 40.194L484.657 40.242L484.961 41.266C485.025 41.522 485.105 41.7726 485.201 42.018C485.297 42.2526 485.42 42.546 485.569 42.898C485.719 43.2393 485.82 43.4686 485.873 43.586C485.895 43.9166 485.825 44.146 485.665 44.274C485.623 44.338 485.564 44.37 485.489 44.37C485.436 44.37 485.26 44.2793 484.961 44.098C484.855 43.9913 484.748 43.8686 484.641 43.73C484.545 43.5806 484.465 43.4473 484.401 43.33C484.337 43.2126 484.257 43.0526 484.161 42.85C484.076 42.6366 484.017 42.4873 483.985 42.402C483.953 42.306 483.895 42.1406 483.809 41.906C483.724 41.6606 483.671 41.5113 483.649 41.458C483.511 41.5433 483.281 41.794 482.961 42.21C482.652 42.6153 482.476 42.8393 482.433 42.882C481.665 43.6713 480.956 44.1726 480.305 44.386C479.655 44.4713 479.26 44.514 479.121 44.514C478.599 44.514 478.183 44.3753 477.873 44.098C477.724 43.9806 477.591 43.842 477.473 43.682C477.303 43.4046 477.196 43.0473 477.153 42.61C477.121 42.1726 477.127 41.794 477.169 41.474ZM494.759 35.41C494.993 35.058 495.228 34.882 495.463 34.882C495.58 34.882 495.681 34.9246 495.767 35.01C495.82 35.0633 495.889 35.1326 495.975 35.218C496.06 35.2926 496.124 35.3566 496.167 35.41C496.22 35.4526 496.273 35.5113 496.327 35.586C496.391 35.65 496.444 35.7193 496.487 35.794C496.529 35.8686 496.561 35.9433 496.583 36.018C496.636 36.0926 496.732 36.2046 496.871 36.354C497.009 36.5033 497.121 36.642 497.207 36.77C497.303 36.898 497.367 37.0206 497.399 37.138C497.399 37.2766 497.345 37.3886 497.239 37.474C497.132 37.5593 497.015 37.5806 496.887 37.538C496.652 37.5166 496.332 37.3833 495.927 37.138C495.521 36.8926 495.303 36.7593 495.271 36.738C495.068 36.5993 494.919 36.4073 494.823 36.162C494.727 35.9166 494.705 35.666 494.759 35.41ZM492.343 47.058C492.407 46.866 492.556 46.7006 492.791 46.562C493.025 46.4233 493.26 46.354 493.495 46.354C493.644 46.354 493.767 46.386 493.863 46.45C493.927 46.546 494.007 46.7166 494.103 46.962C494.188 47.2073 494.236 47.3406 494.247 47.362C495.388 48.2686 496.343 48.722 497.111 48.722C497.441 48.722 497.671 48.6046 497.799 48.37C497.895 47.73 497.836 46.7486 497.623 45.426C497.409 44.114 497.297 43.378 497.287 43.218C497.244 43.0046 497.185 42.6526 497.111 42.162C497.036 41.6606 496.956 41.218 496.871 40.834C496.796 40.4393 496.7 40.0873 496.583 39.778C496.572 39.618 496.652 39.474 496.823 39.346C496.993 39.2073 497.159 39.1433 497.319 39.154C497.767 39.442 498.012 39.778 498.055 40.162C498.567 42.4553 498.956 45.09 499.223 48.066C499.276 48.7486 499.137 49.3246 498.807 49.794C498.401 50.082 497.932 50.226 497.399 50.226C496.961 50.226 496.417 50.114 495.767 49.89C495.521 49.826 495.26 49.73 494.983 49.602C494.716 49.4846 494.492 49.3673 494.311 49.25C494.14 49.1433 493.905 48.9886 493.607 48.786C493.297 48.594 493.079 48.4553 492.951 48.37C492.716 48.2633 492.545 48.082 492.439 47.826C492.321 47.5806 492.289 47.3246 492.343 47.058ZM499.897 42.082V40.354C499.822 40.2366 499.785 40.066 499.785 39.842C499.785 39.618 499.822 39.4526 499.897 39.346C500.057 39.2286 500.243 39.106 500.457 38.978C500.67 38.85 500.905 38.7113 501.161 38.562C501.417 38.4126 501.603 38.3006 501.721 38.226C502.169 37.9593 502.729 37.826 503.401 37.826C504.19 37.826 504.947 37.9966 505.673 38.338C506.409 38.6793 507.017 39.1486 507.497 39.746C508.051 40.5033 508.185 41.2126 507.897 41.874C507.214 43.0473 506.201 43.7886 504.857 44.098C504.686 44.162 504.494 44.21 504.281 44.242C504.078 44.274 503.913 44.29 503.785 44.29C503.657 44.3006 503.454 44.3006 503.177 44.29C502.899 44.29 502.718 44.29 502.633 44.29C502.089 44.1726 501.71 44.0873 501.497 44.034C501.294 43.9806 501.075 43.874 500.841 43.714C500.606 43.5433 500.43 43.346 500.313 43.122C500.206 42.898 500.067 42.5513 499.897 42.082ZM501.417 42.082C501.491 42.2313 501.614 42.3966 501.785 42.578C501.955 42.7486 502.105 42.85 502.233 42.882C502.478 43.01 502.83 43.074 503.289 43.074C503.715 43.074 504.158 43.0153 504.617 42.898C505.086 42.77 505.518 42.5566 505.913 42.258C506.307 41.9486 506.531 41.586 506.585 41.17C506.595 41.042 506.601 40.9406 506.601 40.866C506.601 40.7913 506.563 40.706 506.489 40.61C506.425 40.5033 506.366 40.4233 506.313 40.37C506.259 40.3166 506.185 40.2473 506.089 40.162C505.993 40.0766 505.923 40.0073 505.881 39.954C504.974 39.4526 504.286 39.202 503.817 39.202C503.582 39.202 503.358 39.25 503.145 39.346C503.049 39.378 502.947 39.4473 502.841 39.554C502.531 39.842 502.329 40.0073 502.233 40.05C502.201 40.082 502.137 40.1406 502.041 40.226C501.955 40.3113 501.881 40.386 501.817 40.45C501.753 40.5033 501.689 40.5726 501.625 40.658C501.571 40.7326 501.539 40.802 501.529 40.866C501.465 40.9833 501.427 41.1166 501.417 41.266C501.406 41.4153 501.406 41.554 501.417 41.682C501.438 41.7993 501.438 41.9326 501.417 42.082ZM508.676 39.234C508.804 38.6153 508.873 38.2473 508.884 38.13C508.905 37.8313 508.975 37.0473 509.092 35.778C509.209 34.498 509.273 33.5273 509.284 32.866C509.305 32.802 509.332 32.7433 509.364 32.69C509.407 32.626 509.465 32.562 509.54 32.498C509.615 32.4233 509.663 32.3753 509.684 32.354C509.791 32.2686 509.897 32.226 510.004 32.226C510.303 32.226 510.537 32.402 510.708 32.754C510.697 33.1593 510.649 33.7246 510.564 34.45C510.479 35.1753 510.425 35.6926 510.404 36.002C510.223 37.4846 510.18 38.5833 510.276 39.298L510.308 39.282C510.319 39.282 510.335 39.282 510.356 39.282C510.377 39.282 510.399 39.282 510.42 39.282L510.932 39.186C510.985 39.1753 511.033 39.17 511.076 39.17C511.951 39.0953 512.479 39.058 512.66 39.058C513.428 39.058 514.121 39.202 514.74 39.49C515.103 39.6606 515.407 39.9646 515.652 40.402C515.908 40.8286 516.02 41.2286 515.988 41.602C516.031 41.8686 515.988 42.1353 515.86 42.402C515.732 42.658 515.599 42.8553 515.46 42.994C515.332 43.1326 515.129 43.33 514.852 43.586C514.031 44.1513 513.103 44.4233 512.068 44.402C511.481 44.4553 510.804 44.258 510.036 43.81C509.236 43.3086 508.783 42.562 508.676 41.57C508.655 40.7913 508.655 40.0126 508.676 39.234ZM510.388 41.442C510.399 41.5486 510.393 41.6286 510.372 41.682C510.351 41.7246 510.372 41.7993 510.436 41.906C510.5 42.002 510.537 42.0713 510.548 42.114C510.569 42.146 510.623 42.21 510.708 42.306C510.793 42.3913 510.847 42.45 510.868 42.482C510.9 42.514 510.959 42.5726 511.044 42.658C511.14 42.7326 511.193 42.7753 511.204 42.786C511.716 42.9033 512.255 42.9353 512.82 42.882C513.705 42.69 514.212 42.3166 514.34 41.762C514.425 41.4846 514.351 41.2073 514.116 40.93C513.881 40.642 513.62 40.45 513.332 40.354C513.14 40.3006 512.943 40.274 512.74 40.274C512.025 40.274 511.348 40.466 510.708 40.85C510.601 40.9353 510.527 40.994 510.484 41.026C510.452 41.058 510.42 41.1113 510.388 41.186C510.367 41.2606 510.367 41.346 510.388 41.442Z" fill="#1E1E1E"/>
<path d="M549.105 24.2347C568.505 24.8347 586.795 22.2047 610.675 24.2347C619.225 26.1747 616.845 25.0947 619.815 33.3747C618.735 38.5647 618.305 40.6047 619.815 51.6547C616.605 56.8447 618.715 61.7247 610.675 60.7947C597.765 58.7747 587.575 62.9347 549.105 60.7947C541.805 60.4747 538.335 54.2747 539.965 51.6547C542.155 47.2047 537.715 41.5347 539.965 33.3747C536.665 26.5847 544.435 26.8547 549.105 24.2347Z" fill="#A5D8FF"/>
<path d="M549.105 24.2349C566.405 24.9849 587.775 26.7249 610.675 24.2349M549.105 24.2349C566.735 24.1349 585.325 25.0849 610.675 24.2349M549.105 24.2349C541.815 25.9749 541.315 28.8049 539.965 33.3749M549.105 24.2349C543.585 22.4949 540.285 25.6549 539.965 33.3749M610.675 24.2349C617.585 25.1749 620.345 27.5549 619.815 33.3749M610.675 24.2349C617.805 26.1649 620.135 28.8349 619.815 33.3749M619.815 33.3749C619.065 38.1049 618.205 42.1049 619.815 51.6549M619.815 33.3749C620.255 38.2049 619.085 44.6149 619.815 51.6549M619.815 51.6549C620.195 56.4349 614.895 59.7549 610.675 60.7949M619.815 51.6549C618.405 57.0649 614.535 60.4549 610.675 60.7949M610.675 60.7949C589.305 62.1349 566.675 59.4549 549.105 60.7949M610.675 60.7949C596.755 60.3949 584.685 60.0149 549.105 60.7949M549.105 60.7949C541.305 59.0049 539.265 55.8849 539.965 51.6549M549.105 60.7949C541.015 62.1149 538.835 57.4249 539.965 51.6549M539.965 51.6549C541.565 46.1149 540.105 43.0149 539.965 33.3749M539.965 51.6549C540.355 48.1049 539.375 43.7049 539.965 33.3749" stroke="#1E1E1E" stroke-width="2" stroke-linecap="round"/>
<path d="M546.845 41.1225C546.898 40.6639 547 40.0559 547.149 39.2985C547.298 38.5305 547.4 37.9919 547.453 37.6825C547.613 37.0959 547.677 36.3545 547.645 35.4585C547.442 35.3625 547.277 35.2612 547.149 35.1545C546.893 34.8772 546.786 34.6052 546.829 34.3385C546.786 34.0719 546.861 33.8372 547.053 33.6345C547.245 33.4319 547.48 33.3305 547.757 33.3305C547.896 33.3305 548.029 33.3625 548.157 33.4265C548.221 33.4905 548.392 33.5919 548.669 33.7305C548.733 33.7945 548.797 33.8265 548.861 33.8265C549.138 33.9652 549.309 34.0345 549.373 34.0345C550.546 34.2479 551.661 34.5519 552.717 34.9465C554.253 35.4159 555.4 36.1572 556.157 37.1705C556.178 37.2345 556.221 37.3199 556.285 37.4265C556.349 37.5332 556.392 37.6185 556.413 37.6825C556.445 37.7465 556.456 37.8265 556.445 37.9225C556.445 38.0079 556.413 38.0932 556.349 38.1785C556.125 38.5945 555.757 38.9359 555.245 39.2025C554.744 39.4159 553.954 39.5919 552.877 39.7305C551.8 39.8585 551.138 39.9492 550.893 40.0025C550.477 40.1732 550.072 40.2425 549.677 40.2105C549.133 40.2639 548.728 40.3652 548.461 40.5145C548.418 40.5572 548.386 40.6265 548.365 40.7225C548.312 40.8612 548.274 41.0052 548.253 41.1545C548.232 41.3039 548.226 41.4425 548.237 41.5705C548.248 41.6985 548.248 41.8532 548.237 42.0345C548.205 42.5572 548.28 43.0639 548.461 43.5545C548.472 43.6292 548.466 43.7092 548.445 43.7945C548.424 43.8799 548.397 43.9545 548.365 44.0185C548.344 44.0825 548.306 44.1625 548.253 44.2585C548.2 44.3545 548.168 44.4185 548.157 44.4505C547.805 44.8025 547.501 44.9359 547.245 44.8505C546.84 44.5305 546.637 44.1305 546.637 43.6505C546.658 42.9359 546.728 42.0932 546.845 41.1225ZM548.733 38.5625H548.893C549.181 38.5625 549.709 38.6052 550.477 38.6905C550.669 38.6585 551.074 38.5945 551.693 38.4985C552.312 38.4025 552.786 38.3332 553.117 38.2905C553.17 38.2799 553.282 38.2585 553.453 38.2265C553.624 38.1945 553.741 38.1679 553.805 38.1465C553.88 38.1252 553.981 38.0985 554.109 38.0665C554.237 38.0239 554.349 37.9812 554.445 37.9385C554.541 37.8959 554.637 37.8425 554.733 37.7785C554.744 37.7679 554.749 37.7359 554.749 37.6825C554.749 37.6185 554.744 37.5812 554.733 37.5705C554.68 37.4959 554.594 37.4105 554.477 37.3145C554.36 37.2185 554.248 37.1385 554.141 37.0745C554.034 36.9999 553.906 36.9199 553.757 36.8345C553.618 36.7492 553.538 36.6959 553.517 36.6745C553.144 36.6212 552.562 36.4665 551.773 36.2105C550.994 35.9545 550.461 35.8052 550.173 35.7625C550.13 35.7625 550.05 35.7572 549.933 35.7465C549.826 35.7359 549.73 35.7359 549.645 35.7465C549.57 35.7572 549.512 35.7945 549.469 35.8585C549.437 35.9012 549.378 36.0132 549.293 36.1945C549.218 36.3652 549.176 36.4559 549.165 36.4665C549.154 36.6052 549.074 36.9412 548.925 37.4745C548.786 37.9972 548.722 38.3599 548.733 38.5625ZM557.231 42.4025V40.6745C557.156 40.5572 557.119 40.3865 557.119 40.1625C557.119 39.9385 557.156 39.7732 557.231 39.6665C557.391 39.5492 557.578 39.4265 557.791 39.2985C558.004 39.1705 558.239 39.0319 558.495 38.8825C558.751 38.7332 558.938 38.6212 559.055 38.5465C559.503 38.2799 560.063 38.1465 560.735 38.1465C561.524 38.1465 562.282 38.3172 563.007 38.6585C563.743 38.9999 564.351 39.4692 564.831 40.0665C565.386 40.8239 565.519 41.5332 565.231 42.1945C564.548 43.3679 563.535 44.1092 562.191 44.4185C562.02 44.4825 561.828 44.5305 561.615 44.5625C561.412 44.5945 561.247 44.6105 561.119 44.6105C560.991 44.6212 560.788 44.6212 560.511 44.6105C560.234 44.6105 560.052 44.6105 559.967 44.6105C559.423 44.4932 559.044 44.4079 558.831 44.3545C558.628 44.3012 558.41 44.1945 558.175 44.0345C557.94 43.8639 557.764 43.6665 557.647 43.4425C557.54 43.2185 557.402 42.8719 557.231 42.4025ZM558.751 42.4025C558.826 42.5519 558.948 42.7172 559.119 42.8985C559.29 43.0692 559.439 43.1705 559.567 43.2025C559.812 43.3305 560.164 43.3945 560.623 43.3945C561.05 43.3945 561.492 43.3359 561.951 43.2185C562.42 43.0905 562.852 42.8772 563.247 42.5785C563.642 42.2692 563.866 41.9065 563.919 41.4905C563.93 41.3625 563.935 41.2612 563.935 41.1865C563.935 41.1119 563.898 41.0265 563.823 40.9305C563.759 40.8239 563.7 40.7439 563.647 40.6905C563.594 40.6372 563.519 40.5679 563.423 40.4825C563.327 40.3972 563.258 40.3279 563.215 40.2745C562.308 39.7732 561.62 39.5225 561.151 39.5225C560.916 39.5225 560.692 39.5705 560.479 39.6665C560.383 39.6985 560.282 39.7679 560.175 39.8745C559.866 40.1625 559.663 40.3279 559.567 40.3705C559.535 40.4025 559.471 40.4612 559.375 40.5465C559.29 40.6319 559.215 40.7065 559.151 40.7705C559.087 40.8239 559.023 40.8932 558.959 40.9785C558.906 41.0532 558.874 41.1225 558.863 41.1865C558.799 41.3039 558.762 41.4372 558.751 41.5865C558.74 41.7359 558.74 41.8745 558.751 42.0025C558.772 42.1199 558.772 42.2532 558.751 42.4025ZM566.682 43.4105C566.704 43.3679 566.752 43.2879 566.826 43.1705C566.901 43.0532 566.954 42.9625 566.986 42.8985C567.541 42.9945 568.01 43.2292 568.394 43.6025C568.597 43.7519 568.837 43.8692 569.114 43.9545C569.402 44.0399 569.616 44.0932 569.754 44.1145C569.904 44.1252 570.192 44.1305 570.618 44.1305C571.045 44.1199 571.285 44.1145 571.338 44.1145C571.573 44.1145 571.877 44.0452 572.25 43.9065C572.357 43.8639 572.421 43.7892 572.442 43.6825C572.464 43.5759 572.432 43.4852 572.346 43.4105C572.144 43.2612 571.616 42.9785 570.762 42.5625C569.92 42.1465 569.472 41.9225 569.418 41.8905C568.33 41.5599 567.381 41.0852 566.57 40.4665C566.517 40.3919 566.426 40.3065 566.298 40.2105C566.181 40.1039 566.085 40.0025 566.01 39.9065C565.936 39.7999 565.888 39.6825 565.866 39.5545C565.856 39.1385 566.058 38.7705 566.474 38.4505C566.528 38.4292 566.736 38.3652 567.098 38.2585C567.461 38.1519 567.728 38.0452 567.898 37.9385C568.89 37.5439 569.834 37.3145 570.73 37.2505C570.752 37.2505 570.81 37.2559 570.906 37.2665C571.013 37.2772 571.072 37.2825 571.082 37.2825C571.104 37.2825 571.157 37.2879 571.242 37.2985C571.328 37.3092 571.381 37.3199 571.402 37.3305C571.424 37.3412 571.466 37.3572 571.53 37.3785C571.594 37.3999 571.637 37.4265 571.658 37.4585C571.69 37.4799 571.728 37.5119 571.77 37.5545C571.813 37.5865 571.845 37.6292 571.866 37.6825C571.898 37.7252 571.925 37.7785 571.946 37.8425C572.01 38.2159 571.909 38.5199 571.642 38.7545C571.589 38.7545 571.418 38.7599 571.13 38.7705C570.842 38.7812 570.656 38.7919 570.57 38.8025C570.485 38.8025 570.325 38.8185 570.09 38.8505C569.856 38.8719 569.674 38.8985 569.546 38.9305C569.418 38.9625 569.269 39.0105 569.098 39.0745C568.928 39.1385 568.768 39.2132 568.618 39.2985C568.469 39.3519 568.368 39.4372 568.314 39.5545C568.272 39.6719 568.336 39.7732 568.506 39.8585C568.997 40.1999 569.722 40.5892 570.682 41.0265C571.642 41.4639 572.298 41.7839 572.65 41.9865C573.002 42.2105 573.306 42.4825 573.562 42.8025C573.829 43.1119 573.994 43.4639 574.058 43.8585C574.133 44.2532 573.968 44.6052 573.562 44.9145C573.306 45.1172 572.97 45.2719 572.554 45.3785C572.149 45.4852 571.824 45.5492 571.578 45.5705C571.333 45.5919 570.954 45.6079 570.442 45.6185C569.909 45.6399 569.338 45.5599 568.73 45.3785C568.122 45.1972 567.605 44.9412 567.178 44.6105C566.752 44.4505 566.586 44.0505 566.682 43.4105ZM577.002 41.5225L577.034 40.2105C577.034 39.9012 577.007 39.4265 576.954 38.7865C576.89 38.5412 576.831 38.3972 576.778 38.3545C576.074 38.4079 575.535 38.5252 575.162 38.7065C575.066 38.7065 574.927 38.7439 574.746 38.8185C574.565 38.8932 574.41 38.9199 574.282 38.8985C574.207 38.8665 574.133 38.8185 574.058 38.7545C573.983 38.6905 573.909 38.6159 573.834 38.5305C573.749 38.4345 573.679 38.3652 573.626 38.3225C573.583 38.2159 573.567 38.0665 573.578 37.8745C573.589 37.6825 573.626 37.5385 573.69 37.4425L574.218 36.9785C574.773 36.9679 575.599 36.8612 576.698 36.6585L576.81 36.5305L576.842 34.0185C577.087 33.7519 577.391 33.6559 577.754 33.7305C578.042 33.9545 578.202 34.2319 578.234 34.5625C578.266 34.6265 578.287 34.8932 578.298 35.3625C578.309 35.8319 578.351 36.1039 578.426 36.1785C578.437 36.1785 578.485 36.1945 578.57 36.2265C578.666 36.2479 578.719 36.2639 578.73 36.2745C578.943 36.2532 579.215 36.2159 579.546 36.1625C579.877 36.0985 580.117 36.0612 580.266 36.0505C580.415 36.0399 580.687 36.0452 581.082 36.0665L581.818 36.0985C582.277 36.1625 582.447 36.4292 582.33 36.8985C582.149 37.0799 582.01 37.1812 581.914 37.2025C581.669 37.2239 581.418 37.2559 581.162 37.2985C580.906 37.3412 580.586 37.4105 580.202 37.5065C579.829 37.5919 579.578 37.6452 579.45 37.6665L579.418 37.6825C579.141 37.6932 578.826 37.7625 578.474 37.8905L578.394 38.0025C578.394 38.1305 578.383 38.3439 578.362 38.6425C578.351 38.9305 578.351 39.1812 578.362 39.3945C578.373 39.5972 578.405 39.8052 578.458 40.0185C578.458 41.8852 578.554 43.0479 578.746 43.5065C578.959 43.6985 579.151 43.7999 579.322 43.8105C579.418 43.8105 579.541 43.7945 579.69 43.7625C579.733 43.7519 579.797 43.7359 579.882 43.7145C579.967 43.6932 580.026 43.6825 580.058 43.6825C580.09 43.6719 580.138 43.6559 580.202 43.6345C580.266 43.6132 580.309 43.5972 580.33 43.5865C580.362 43.5759 580.399 43.5599 580.442 43.5385C580.495 43.5065 580.533 43.4745 580.554 43.4425C580.586 43.4105 580.623 43.3732 580.666 43.3305C580.709 43.2879 580.746 43.2399 580.778 43.1865C580.821 43.1332 580.863 43.0745 580.906 43.0105C580.949 42.9359 580.997 42.8559 581.05 42.7705C581.039 42.7172 581.055 42.5892 581.098 42.3865C581.141 42.1839 581.173 42.0559 581.194 42.0025C581.311 41.6719 581.525 41.5119 581.834 41.5225C581.983 41.5012 582.095 41.5279 582.17 41.6025C582.245 41.6772 582.314 41.8105 582.378 42.0025L582.458 42.2745C582.383 42.7972 582.303 43.1225 582.218 43.2505C582.005 43.6772 581.839 43.9705 581.722 44.1305C581.615 44.2905 581.418 44.4559 581.13 44.6265C580.842 44.8079 580.399 44.9945 579.802 45.1865C579.77 45.1972 579.647 45.2399 579.434 45.3145C579.221 45.3999 579.055 45.4425 578.938 45.4425C578.447 45.4212 578.085 45.2612 577.85 44.9625C577.818 44.8985 577.722 44.7332 577.562 44.4665C577.402 44.1892 577.29 43.9492 577.226 43.7465C577.162 43.5332 577.146 43.3092 577.178 43.0745C577.167 42.8825 577.141 42.6052 577.098 42.2425C577.055 41.8799 577.029 41.6505 577.018 41.5545C577.007 41.5439 577.002 41.5332 577.002 41.5225ZM591.937 35.7305C592.172 35.3785 592.406 35.2025 592.641 35.2025C592.758 35.2025 592.86 35.2452 592.945 35.3305C592.998 35.3839 593.068 35.4532 593.153 35.5385C593.238 35.6132 593.302 35.6772 593.345 35.7305C593.398 35.7732 593.452 35.8319 593.505 35.9065C593.569 35.9705 593.622 36.0399 593.665 36.1145C593.708 36.1892 593.74 36.2639 593.761 36.3385C593.814 36.4132 593.91 36.5252 594.049 36.6745C594.188 36.8239 594.3 36.9625 594.385 37.0905C594.481 37.2185 594.545 37.3412 594.577 37.4585C594.577 37.5972 594.524 37.7092 594.417 37.7945C594.31 37.8799 594.193 37.9012 594.065 37.8585C593.83 37.8372 593.51 37.7039 593.105 37.4585C592.7 37.2132 592.481 37.0799 592.449 37.0585C592.246 36.9199 592.097 36.7279 592.001 36.4825C591.905 36.2372 591.884 35.9865 591.937 35.7305ZM589.521 47.3785C589.585 47.1865 589.734 47.0212 589.969 46.8825C590.204 46.7439 590.438 46.6745 590.673 46.6745C590.822 46.6745 590.945 46.7065 591.041 46.7705C591.105 46.8665 591.185 47.0372 591.281 47.2825C591.366 47.5279 591.414 47.6612 591.425 47.6825C592.566 48.5892 593.521 49.0425 594.289 49.0425C594.62 49.0425 594.849 48.9252 594.977 48.6905C595.073 48.0505 595.014 47.0692 594.801 45.7465C594.588 44.4345 594.476 43.6985 594.465 43.5385C594.422 43.3252 594.364 42.9732 594.289 42.4825C594.214 41.9812 594.134 41.5385 594.049 41.1545C593.974 40.7599 593.878 40.4079 593.761 40.0985C593.75 39.9385 593.83 39.7945 594.001 39.6665C594.172 39.5279 594.337 39.4639 594.497 39.4745C594.945 39.7625 595.19 40.0985 595.233 40.4825C595.745 42.7759 596.134 45.4105 596.401 48.3865C596.454 49.0692 596.316 49.6452 595.985 50.1145C595.58 50.4025 595.11 50.5465 594.577 50.5465C594.14 50.5465 593.596 50.4345 592.945 50.2105C592.7 50.1465 592.438 50.0505 592.161 49.9225C591.894 49.8052 591.67 49.6879 591.489 49.5705C591.318 49.4639 591.084 49.3092 590.785 49.1065C590.476 48.9145 590.257 48.7759 590.129 48.6905C589.894 48.5839 589.724 48.4025 589.617 48.1465C589.5 47.9012 589.468 47.6452 589.521 47.3785ZM597.075 42.4025V40.6745C597 40.5572 596.963 40.3865 596.963 40.1625C596.963 39.9385 597 39.7732 597.075 39.6665C597.235 39.5492 597.422 39.4265 597.635 39.2985C597.848 39.1705 598.083 39.0319 598.339 38.8825C598.595 38.7332 598.782 38.6212 598.899 38.5465C599.347 38.2799 599.907 38.1465 600.579 38.1465C601.368 38.1465 602.126 38.3172 602.851 38.6585C603.587 38.9999 604.195 39.4692 604.675 40.0665C605.23 40.8239 605.363 41.5332 605.075 42.1945C604.392 43.3679 603.379 44.1092 602.035 44.4185C601.864 44.4825 601.672 44.5305 601.459 44.5625C601.256 44.5945 601.091 44.6105 600.963 44.6105C600.835 44.6212 600.632 44.6212 600.355 44.6105C600.078 44.6105 599.896 44.6105 599.811 44.6105C599.267 44.4932 598.888 44.4079 598.675 44.3545C598.472 44.3012 598.254 44.1945 598.019 44.0345C597.784 43.8639 597.608 43.6665 597.491 43.4425C597.384 43.2185 597.246 42.8719 597.075 42.4025ZM598.595 42.4025C598.67 42.5519 598.792 42.7172 598.963 42.8985C599.134 43.0692 599.283 43.1705 599.411 43.2025C599.656 43.3305 600.008 43.3945 600.467 43.3945C600.894 43.3945 601.336 43.3359 601.795 43.2185C602.264 43.0905 602.696 42.8772 603.091 42.5785C603.486 42.2692 603.71 41.9065 603.763 41.4905C603.774 41.3625 603.779 41.2612 603.779 41.1865C603.779 41.1119 603.742 41.0265 603.667 40.9305C603.603 40.8239 603.544 40.7439 603.491 40.6905C603.438 40.6372 603.363 40.5679 603.267 40.4825C603.171 40.3972 603.102 40.3279 603.059 40.2745C602.152 39.7732 601.464 39.5225 600.995 39.5225C600.76 39.5225 600.536 39.5705 600.323 39.6665C600.227 39.6985 600.126 39.7679 600.019 39.8745C599.71 40.1625 599.507 40.3279 599.411 40.3705C599.379 40.4025 599.315 40.4612 599.219 40.5465C599.134 40.6319 599.059 40.7065 598.995 40.7705C598.931 40.8239 598.867 40.8932 598.803 40.9785C598.75 41.0532 598.718 41.1225 598.707 41.1865C598.643 41.3039 598.606 41.4372 598.595 41.5865C598.584 41.7359 598.584 41.8745 598.595 42.0025C598.616 42.1199 598.616 42.2532 598.595 42.4025ZM605.854 39.5545C605.982 38.9359 606.052 38.5679 606.062 38.4505C606.084 38.1519 606.153 37.3679 606.27 36.0985C606.388 34.8185 606.452 33.8479 606.462 33.1865C606.484 33.1225 606.51 33.0639 606.542 33.0105C606.585 32.9465 606.644 32.8825 606.718 32.8185C606.793 32.7439 606.841 32.6959 606.862 32.6745C606.969 32.5892 607.076 32.5465 607.182 32.5465C607.481 32.5465 607.716 32.7225 607.886 33.0745C607.876 33.4799 607.828 34.0452 607.742 34.7705C607.657 35.4959 607.604 36.0132 607.582 36.3225C607.401 37.8052 607.358 38.9039 607.454 39.6185L607.486 39.6025C607.497 39.6025 607.513 39.6025 607.534 39.6025C607.556 39.6025 607.577 39.6025 607.598 39.6025L608.11 39.5065C608.164 39.4959 608.212 39.4905 608.254 39.4905C609.129 39.4159 609.657 39.3785 609.838 39.3785C610.606 39.3785 611.3 39.5225 611.918 39.8105C612.281 39.9812 612.585 40.2852 612.83 40.7225C613.086 41.1492 613.198 41.5492 613.166 41.9225C613.209 42.1892 613.166 42.4559 613.038 42.7225C612.91 42.9785 612.777 43.1759 612.638 43.3145C612.51 43.4532 612.308 43.6505 612.03 43.9065C611.209 44.4719 610.281 44.7439 609.246 44.7225C608.66 44.7759 607.982 44.5785 607.214 44.1305C606.414 43.6292 605.961 42.8825 605.854 41.8905C605.833 41.1119 605.833 40.3332 605.854 39.5545ZM607.566 41.7625C607.577 41.8692 607.572 41.9492 607.55 42.0025C607.529 42.0452 607.55 42.1199 607.614 42.2265C607.678 42.3225 607.716 42.3919 607.726 42.4345C607.748 42.4665 607.801 42.5305 607.886 42.6265C607.972 42.7119 608.025 42.7705 608.046 42.8025C608.078 42.8345 608.137 42.8932 608.222 42.9785C608.318 43.0532 608.372 43.0959 608.382 43.1065C608.894 43.2239 609.433 43.2559 609.998 43.2025C610.884 43.0105 611.39 42.6372 611.518 42.0825C611.604 41.8052 611.529 41.5279 611.294 41.2505C611.06 40.9625 610.798 40.7705 610.51 40.6745C610.318 40.6212 610.121 40.5945 609.918 40.5945C609.204 40.5945 608.526 40.7865 607.886 41.1705C607.78 41.2559 607.705 41.3145 607.662 41.3465C607.63 41.3785 607.598 41.4319 607.566 41.5065C607.545 41.5812 607.545 41.6665 607.566 41.7625Z" fill="#1E1E1E"/>
<path d="M39.3918 45.9553C39.3918 45.9419 39.4118 45.8219 39.4518 45.5953C39.4918 45.3686 39.5118 45.2353 39.5118 45.1953C39.4052 44.6353 39.3252 43.7086 39.2718 42.4153C39.2718 42.1219 39.2252 41.6686 39.1318 41.0553C39.0518 40.4286 39.0118 39.9553 39.0118 39.6353C38.9585 39.4753 38.8318 39.1353 38.6318 38.6153V36.7153C38.7118 36.4219 38.8785 36.1419 39.1318 35.8753C39.3852 35.6086 39.6585 35.5086 39.9518 35.5753C40.1918 35.4686 40.5518 35.6819 41.0318 36.2153V41.5353C41.1252 41.7486 41.1918 42.1753 41.2318 42.8153C41.2852 43.4553 41.3452 43.8686 41.4118 44.0553C41.4518 44.2553 41.5052 44.3886 41.5718 44.4553C41.6118 44.4553 41.6518 44.4486 41.6918 44.4353C41.7318 44.4086 41.7718 44.3686 41.8118 44.3153C41.8652 44.2486 41.9052 44.2086 41.9318 44.1953C41.9585 44.1419 42.2252 43.7419 42.7318 42.9953C43.2385 42.2486 43.5185 41.7619 43.5718 41.5353C43.6918 41.3219 43.8185 41.0019 43.9518 40.5753C44.0852 40.1486 44.2118 39.8353 44.3318 39.6353C44.4918 39.3686 44.7452 39.2353 45.0918 39.2353C45.3585 39.2353 45.5652 39.3286 45.7118 39.5153L45.9718 39.7553C46.0518 39.8619 46.1118 39.9819 46.1518 40.1153C46.2052 40.2353 46.2318 40.3419 46.2318 40.4353C46.2318 40.5153 46.2318 40.6353 46.2318 40.7953C46.2318 40.9553 46.2318 41.0753 46.2318 41.1553C46.1652 41.4886 46.1185 41.8486 46.0918 42.2353C46.0785 42.6086 46.0785 42.9553 46.0918 43.2753C46.1052 43.5819 46.1052 43.9286 46.0918 44.3153C46.1718 44.5686 46.2585 44.6953 46.3518 44.6953C46.5252 44.6819 46.7052 44.5286 46.8918 44.2353C47.0252 43.8886 47.3118 43.3086 47.7518 42.4953C48.1918 41.6686 48.4852 41.0553 48.6318 40.6553C48.7385 40.2286 48.8652 39.8153 49.0118 39.4153C49.1718 39.0153 49.3718 38.5486 49.6118 38.0153C49.8652 37.4819 50.0452 37.0886 50.1518 36.8353L50.4918 35.7153C50.4785 35.7019 50.4918 35.5886 50.5318 35.3753L50.6118 35.0553L50.9318 34.6353C51.1718 34.4353 51.4585 34.3353 51.7918 34.3353C52.0985 34.3353 52.3718 34.4353 52.6118 34.6353C52.7185 34.7019 52.7852 34.7886 52.8118 34.8953C52.8518 34.9886 52.8785 35.1086 52.8918 35.2553C52.9052 35.4019 52.9252 35.5153 52.9518 35.5953C52.8585 35.9286 52.6185 36.4153 52.2318 37.0553C51.8585 37.6953 51.6252 38.2086 51.5318 38.5953C51.3185 39.0353 51.0385 39.7153 50.6918 40.6353C50.3585 41.5419 50.1252 42.1486 49.9918 42.4553C49.0052 44.4419 48.2718 45.7686 47.7918 46.4353C47.5918 46.6753 47.2785 46.9486 46.8518 47.2553C46.7452 47.2953 46.6518 47.3086 46.5718 47.2953C46.5052 47.2819 46.3985 47.2486 46.2518 47.1953C46.1052 47.1419 46.0118 47.1086 45.9718 47.0953C45.8785 47.0686 45.7918 47.0419 45.7118 47.0153C45.6318 46.9753 45.5452 46.9219 45.4518 46.8553C45.3718 46.7753 45.3118 46.7219 45.2718 46.6953C45.2318 46.6553 45.1518 46.5753 45.0318 46.4553C44.9252 46.3353 44.8585 46.2553 44.8318 46.2153C44.7252 46.0686 44.6318 45.9086 44.5518 45.7353C44.4718 45.5619 44.4185 45.4086 44.3918 45.2753C44.3652 45.1419 44.3318 44.9619 44.2918 44.7353C44.2518 44.4953 44.2185 44.3153 44.1918 44.1953C44.1918 44.1286 44.1518 44.0819 44.0718 44.0553C43.8052 44.3486 43.4518 44.7819 43.0118 45.3553C42.5852 45.9286 42.2652 46.3419 42.0518 46.5953C41.8518 46.7953 41.7052 46.9419 41.6118 47.0353C41.5185 47.1153 41.3652 47.1953 41.1518 47.2753C40.9518 47.3686 40.7518 47.4019 40.5518 47.3753C40.4318 47.4153 40.3118 47.4086 40.1918 47.3553C40.0852 47.3019 39.9985 47.2419 39.9318 47.1753C39.8785 47.1086 39.8052 47.0086 39.7118 46.8753C39.6185 46.7286 39.5518 46.6353 39.5118 46.5953C39.4318 46.4619 39.3918 46.2486 39.3918 45.9553ZM55.1137 41.4353C56.0737 40.2086 57.127 39.4086 58.2737 39.0353C59.007 38.9419 59.3937 38.8953 59.4337 38.8953C60.2604 38.9219 60.9804 39.1753 61.5937 39.6553C62.207 40.1219 62.5337 40.7619 62.5737 41.5753C62.587 42.2819 62.3004 42.9286 61.7137 43.5153C61.1404 44.1019 60.5004 44.4219 59.7937 44.4753C59.527 44.5686 59.2404 44.6153 58.9337 44.6153C58.2404 44.6153 57.4737 44.3619 56.6337 43.8553C56.3804 43.6019 56.2137 43.4753 56.1337 43.4753C56.0804 43.4486 56.0337 43.4486 55.9937 43.4753C55.5537 44.1419 55.3404 44.6486 55.3537 44.9953C55.5004 45.8619 55.967 46.5953 56.7537 47.1953C57.5404 47.8086 58.3737 48.0886 59.2537 48.0353C59.387 48.0886 59.6204 48.0886 59.9537 48.0353C60.287 47.9953 60.507 47.9619 60.6137 47.9353C60.7337 47.9086 60.9604 47.8419 61.2937 47.7353C61.6404 47.6419 61.8804 47.5753 62.0137 47.5353C62.4804 47.3486 63.1004 47.2286 63.8737 47.1753H64.0137C64.107 47.1486 64.1937 47.1686 64.2737 47.2353C64.3537 47.3019 64.4004 47.4019 64.4137 47.5353V48.2753C63.9337 48.8219 63.3404 49.1153 62.6337 49.1553C62.487 49.1953 62.2204 49.2686 61.8337 49.3753C61.4604 49.4819 61.1737 49.5553 60.9737 49.5953C60.787 49.6486 60.5337 49.6953 60.2137 49.7353C59.907 49.7886 59.627 49.8086 59.3737 49.7953C58.2004 49.8486 57.0737 49.5486 55.9937 48.8953C55.007 48.3886 54.247 47.5086 53.7137 46.2553C53.5137 45.4686 53.547 44.7019 53.8137 43.9553C54.0804 43.2086 54.5137 42.3686 55.1137 41.4353ZM56.6737 42.3953C56.9537 42.3953 57.1937 42.4153 57.3937 42.4553C57.5137 42.5219 57.627 42.5753 57.7337 42.6153C57.8537 42.6419 57.9937 42.6686 58.1537 42.6953C58.327 42.7086 58.4404 42.7153 58.4937 42.7153C58.547 42.7153 58.687 42.7153 58.9137 42.7153C59.1537 42.7153 59.2804 42.7153 59.2937 42.7153C59.987 42.5019 60.447 42.2019 60.6737 41.8153C60.7137 41.6686 60.7137 41.5419 60.6737 41.4353C60.647 41.3153 60.5737 41.2153 60.4537 41.1353C60.3337 41.0553 60.2204 40.9953 60.1137 40.9553C60.007 40.9153 59.8604 40.8686 59.6737 40.8153C59.5004 40.7486 59.3737 40.7019 59.2937 40.6753C58.9737 40.6753 58.647 40.7686 58.3137 40.9553C57.9804 41.1286 57.7137 41.3019 57.5137 41.4753C57.3137 41.6486 57.0604 41.8886 56.7537 42.1953C56.7537 42.2086 56.7404 42.2419 56.7137 42.2953C56.687 42.3353 56.6737 42.3686 56.6737 42.3953ZM64.4712 40.9153C64.6312 40.1419 64.7179 39.6819 64.7312 39.5353C64.7579 39.1619 64.8445 38.1819 64.9912 36.5953C65.1379 34.9953 65.2179 33.7819 65.2312 32.9553C65.2579 32.8753 65.2912 32.8019 65.3312 32.7353C65.3845 32.6553 65.4579 32.5753 65.5512 32.4953C65.6445 32.4019 65.7045 32.3419 65.7312 32.3153C65.8645 32.2086 65.9979 32.1553 66.1312 32.1553C66.5045 32.1553 66.7979 32.3753 67.0112 32.8153C66.9979 33.3219 66.9379 34.0286 66.8312 34.9353C66.7245 35.8419 66.6579 36.4886 66.6312 36.8753C66.4045 38.7286 66.3512 40.1019 66.4712 40.9953L66.5112 40.9753C66.5245 40.9753 66.5445 40.9753 66.5712 40.9753C66.5979 40.9753 66.6245 40.9753 66.6512 40.9753L67.2912 40.8553C67.3579 40.8419 67.4179 40.8353 67.4712 40.8353C68.5645 40.7419 69.2245 40.6953 69.4512 40.6953C70.4112 40.6953 71.2779 40.8753 72.0512 41.2353C72.5045 41.4486 72.8845 41.8286 73.1912 42.3753C73.5112 42.9086 73.6512 43.4086 73.6112 43.8753C73.6645 44.2086 73.6112 44.5419 73.4512 44.8753C73.2912 45.1953 73.1245 45.4419 72.9512 45.6153C72.7912 45.7886 72.5379 46.0353 72.1912 46.3553C71.1645 47.0619 70.0045 47.4019 68.7112 47.3753C67.9779 47.4419 67.1312 47.1953 66.1712 46.6353C65.1712 46.0086 64.6045 45.0753 64.4712 43.8353C64.4445 42.8619 64.4445 41.8886 64.4712 40.9153ZM66.6112 43.6753C66.6245 43.8086 66.6179 43.9086 66.5912 43.9753C66.5645 44.0286 66.5912 44.1219 66.6712 44.2553C66.7512 44.3753 66.7979 44.4619 66.8112 44.5153C66.8379 44.5553 66.9045 44.6353 67.0112 44.7553C67.1179 44.8619 67.1845 44.9353 67.2112 44.9753C67.2512 45.0153 67.3245 45.0886 67.4312 45.1953C67.5512 45.2886 67.6179 45.3419 67.6312 45.3553C68.2712 45.5019 68.9445 45.5419 69.6512 45.4753C70.7579 45.2353 71.3912 44.7686 71.5512 44.0753C71.6579 43.7286 71.5645 43.3819 71.2712 43.0353C70.9779 42.6753 70.6512 42.4353 70.2912 42.3153C70.0512 42.2486 69.8045 42.2153 69.5512 42.2153C68.6579 42.2153 67.8112 42.4553 67.0112 42.9353C66.8779 43.0419 66.7845 43.1153 66.7312 43.1553C66.6912 43.1953 66.6512 43.2619 66.6112 43.3553C66.5845 43.4486 66.5845 43.5553 66.6112 43.6753ZM75.1075 46.3753C75.1075 46.3353 75.1075 46.2419 75.1075 46.0953C75.1208 45.9353 75.1275 45.8353 75.1275 45.7953C75.1408 45.7419 75.1541 45.6619 75.1675 45.5553C75.1941 45.4486 75.2208 45.3753 75.2475 45.3353C75.2875 45.2819 75.3341 45.2286 75.3875 45.1753C75.4541 45.1086 75.5341 45.0553 75.6275 45.0153C75.9608 45.0553 76.4341 45.1953 77.0475 45.4353C77.6608 45.6619 78.0741 45.8019 78.2875 45.8553C79.3808 46.1353 80.4208 46.2753 81.4075 46.2753C82.2608 46.2753 83.0408 46.1819 83.7475 45.9953C83.7875 45.9686 83.8941 45.9019 84.0675 45.7953C84.2541 45.6886 84.3875 45.6086 84.4675 45.5553C84.5608 45.4886 84.6741 45.4019 84.8075 45.2953C84.9541 45.1886 85.0675 45.0886 85.1475 44.9953C85.2275 44.8886 85.2941 44.7753 85.3475 44.6553C85.4008 44.2819 85.3141 43.9019 85.0875 43.5153C84.8741 43.1286 84.6808 42.8553 84.5075 42.6953C84.3341 42.5353 84.0475 42.2886 83.6475 41.9553C83.2741 41.7019 82.8275 41.4886 82.3075 41.3153C81.8008 41.1419 81.3475 41.0153 80.9475 40.9353C80.5608 40.8553 80.0608 40.7686 79.4475 40.6753C78.8341 40.5819 78.3741 40.5019 78.0675 40.4353C77.9741 40.4086 77.8541 40.3753 77.7075 40.3353C77.5741 40.2953 77.4808 40.2686 77.4275 40.2553C77.3875 40.2286 77.3341 40.1819 77.2675 40.1153C77.2008 40.0353 77.1341 39.9219 77.0675 39.7753C76.8941 39.5353 76.8141 39.2286 76.8275 38.8553C76.8541 38.4819 76.9741 38.2086 77.1875 38.0353C77.3475 37.9819 77.6941 37.8819 78.2275 37.7353C78.7741 37.5753 79.2608 37.4219 79.6875 37.2753C80.1275 37.1286 80.4541 36.9953 80.6675 36.8753C80.7741 36.9153 80.8475 36.8819 80.8875 36.7753C80.9275 36.6686 80.9408 36.5486 80.9275 36.4153C80.7275 36.3886 80.3608 36.3086 79.8275 36.1753C79.3075 36.0286 78.9141 35.9553 78.6475 35.9553C78.3408 35.9153 78.0208 35.8953 77.6875 35.8953C76.7008 35.8953 75.8275 36.1019 75.0675 36.5153L74.6675 36.2153C74.3341 35.6153 74.3675 35.1819 74.7675 34.9153C74.9541 34.6619 75.2808 34.4353 75.7475 34.2353C75.8408 34.2219 76.0941 34.1819 76.5075 34.1153C76.9341 34.0486 77.2808 34.0019 77.5475 33.9753C77.8275 33.9486 78.0741 33.9486 78.2875 33.9753C80.5408 34.2153 82.3075 34.7486 83.5875 35.5753C83.5875 35.6286 83.6075 35.7353 83.6475 35.8953C83.7008 36.0553 83.7208 36.1953 83.7075 36.3153C83.7075 36.4219 83.6741 36.5219 83.6075 36.6153C83.5541 37.0019 83.4008 37.3286 83.1475 37.5953C82.8941 37.8486 82.5675 38.0953 82.1675 38.3353C81.7808 38.5619 81.5141 38.7486 81.3675 38.8953C81.3541 38.9619 81.4075 39.0419 81.5275 39.1353C82.4875 39.2286 83.6941 39.9086 85.1475 41.1753C85.1608 41.1886 85.2475 41.2886 85.4075 41.4753C85.5675 41.6486 85.6608 41.7553 85.6875 41.7953C85.7141 41.8353 85.7941 41.9419 85.9275 42.1153C86.0741 42.2753 86.1675 42.3886 86.2075 42.4553C86.2475 42.5219 86.3141 42.6353 86.4075 42.7953C86.5141 42.9553 86.5875 43.0886 86.6275 43.1953C86.6675 43.3019 86.7141 43.4353 86.7675 43.5953C86.8341 43.7419 86.8808 43.8886 86.9075 44.0353C86.9341 44.1819 86.9541 44.3353 86.9675 44.4953C87.0341 45.4153 86.5075 46.3353 85.3875 47.2553C84.6008 47.6419 83.4875 47.8886 82.0475 47.9953C81.9008 47.9819 81.6141 47.9619 81.1875 47.9353C80.7608 47.9219 80.4408 47.9086 80.2275 47.8953C80.0275 47.8819 79.7341 47.8553 79.3475 47.8153C78.9608 47.7886 78.6341 47.7553 78.3675 47.7153C78.1141 47.6753 77.8275 47.6219 77.5075 47.5553C77.1875 47.5019 76.8875 47.4353 76.6075 47.3553C75.7675 47.3819 75.2675 47.0553 75.1075 46.3753ZM88.2807 44.3753C88.2807 44.3219 88.2807 44.2486 88.2807 44.1553C88.2941 44.0486 88.3074 43.9553 88.3207 43.8753V43.7553C88.3607 43.5553 88.5007 43.3886 88.7407 43.2553C88.9941 43.1086 89.2407 43.0419 89.4807 43.0553C89.5874 43.0686 89.6807 43.0886 89.7607 43.1153C89.8541 43.1286 89.9474 43.1686 90.0407 43.2353C90.1474 43.2886 90.2207 43.3353 90.2607 43.3753C90.3141 43.4019 90.4074 43.4686 90.5407 43.5753C90.6741 43.6686 90.7674 43.7353 90.8207 43.7753L90.9607 43.8553C91.2007 43.9753 91.6007 44.1819 92.1607 44.4753C92.7207 44.7553 93.1474 44.9619 93.4407 45.0953C93.4807 45.0953 93.5874 45.1019 93.7607 45.1153C93.9341 45.1286 94.0607 45.1353 94.1407 45.1353C94.2207 45.1219 94.3074 45.0819 94.4007 45.0153C94.4941 44.9486 94.5541 44.8553 94.5807 44.7353C94.6207 44.4419 94.6407 44.0686 94.6407 43.6153L94.6607 43.4953C94.6341 42.9486 94.6074 41.9353 94.5807 40.4553C94.5674 38.9753 94.5741 38.0886 94.6007 37.7953C94.5207 37.0886 94.4941 36.6153 94.5207 36.3753C94.4541 36.2953 94.4141 36.2553 94.4007 36.2553C94.3607 36.2419 94.3141 36.2286 94.2607 36.2153C94.2207 36.2019 94.1941 36.1953 94.1807 36.1953C93.7141 36.1953 92.9141 36.2086 91.7807 36.2353C90.6474 36.2486 90.0541 36.2553 90.0007 36.2553C89.7341 36.2819 89.5274 36.2753 89.3807 36.2353C88.8207 35.8219 88.5407 35.4353 88.5407 35.0753C88.5541 34.9686 88.5674 34.8819 88.5807 34.8153C88.6074 34.7353 88.6341 34.6686 88.6607 34.6153C88.7007 34.5486 88.7274 34.5019 88.7407 34.4753C88.7674 34.4486 88.8141 34.3953 88.8807 34.3153C88.9474 34.2353 89.0074 34.1619 89.0607 34.0953L89.2007 33.9553H89.5207C89.7741 33.9686 90.4674 34.1219 91.6007 34.4153L92.2407 34.4353C92.5207 34.4486 92.8341 34.4553 93.1807 34.4553C93.3007 34.4419 93.5341 34.4419 93.8807 34.4553C95.7874 34.4953 96.9274 34.5286 97.3007 34.5553L99.5807 34.6353C99.8741 34.6353 100.121 34.7619 100.321 35.0153C100.534 35.2553 100.614 35.5153 100.561 35.7953C100.521 35.9819 100.421 36.1353 100.261 36.2553C100.114 36.3753 99.9607 36.4619 99.8007 36.5153C99.6541 36.5553 99.4541 36.5953 99.2007 36.6353C97.6407 36.4086 96.7541 36.2686 96.5407 36.2153C96.4207 36.2419 96.3407 36.2753 96.3007 36.3153L96.1607 36.4353C96.1207 37.2353 96.1007 37.8619 96.1007 38.3153C96.1141 38.7553 96.1341 39.4153 96.1607 40.2953C96.2007 41.1753 96.2207 41.7886 96.2207 42.1353C96.2607 42.4019 96.3141 43.0019 96.3807 43.9353C96.4607 44.8686 96.5341 45.5019 96.6007 45.8353C96.5607 46.0753 96.4674 46.2686 96.3207 46.4153C96.1741 46.5619 95.9341 46.7153 95.6007 46.8753C95.2674 47.0353 95.0741 47.1286 95.0207 47.1553C94.2074 47.2353 93.2474 47.0353 92.1407 46.5553C91.5274 46.1819 90.6741 45.8953 89.5807 45.6953C89.5141 45.6819 89.4074 45.6819 89.2607 45.6953C89.1274 45.7086 89.0074 45.7086 88.9007 45.6953C88.7941 45.6686 88.7007 45.6153 88.6207 45.5353C88.3141 45.2419 88.2007 44.8553 88.2807 44.3753ZM101.017 44.4753V42.3153C100.923 42.1686 100.877 41.9553 100.877 41.6753C100.877 41.3953 100.923 41.1886 101.017 41.0553C101.217 40.9086 101.45 40.7553 101.717 40.5953C101.983 40.4353 102.277 40.2619 102.597 40.0753C102.917 39.8886 103.15 39.7486 103.297 39.6553C103.857 39.3219 104.557 39.1553 105.397 39.1553C106.383 39.1553 107.33 39.3686 108.237 39.7953C109.157 40.2219 109.917 40.8086 110.517 41.5553C111.21 42.5019 111.377 43.3886 111.017 44.2153C110.163 45.6819 108.897 46.6086 107.217 46.9953C107.003 47.0753 106.763 47.1353 106.497 47.1753C106.243 47.2153 106.037 47.2353 105.877 47.2353C105.717 47.2486 105.463 47.2486 105.117 47.2353C104.77 47.2353 104.543 47.2353 104.437 47.2353C103.757 47.0886 103.283 46.9819 103.017 46.9153C102.763 46.8486 102.49 46.7153 102.197 46.5153C101.903 46.3019 101.683 46.0553 101.537 45.7753C101.403 45.4953 101.23 45.0619 101.017 44.4753ZM102.917 44.4753C103.01 44.6619 103.163 44.8686 103.377 45.0953C103.59 45.3086 103.777 45.4353 103.937 45.4753C104.243 45.6353 104.683 45.7153 105.257 45.7153C105.79 45.7153 106.343 45.6419 106.917 45.4953C107.503 45.3353 108.043 45.0686 108.537 44.6953C109.03 44.3086 109.31 43.8553 109.377 43.3353C109.39 43.1753 109.397 43.0486 109.397 42.9553C109.397 42.8619 109.35 42.7553 109.257 42.6353C109.177 42.5019 109.103 42.4019 109.037 42.3353C108.97 42.2686 108.877 42.1819 108.757 42.0753C108.637 41.9686 108.55 41.8819 108.497 41.8153C107.363 41.1886 106.503 40.8753 105.917 40.8753C105.623 40.8753 105.343 40.9353 105.077 41.0553C104.957 41.0953 104.83 41.1819 104.697 41.3153C104.31 41.6753 104.057 41.8819 103.937 41.9353C103.897 41.9753 103.817 42.0486 103.697 42.1553C103.59 42.2619 103.497 42.3553 103.417 42.4353C103.337 42.5019 103.257 42.5886 103.177 42.6953C103.11 42.7886 103.07 42.8753 103.057 42.9553C102.977 43.1019 102.93 43.2686 102.917 43.4553C102.903 43.6419 102.903 43.8153 102.917 43.9753C102.943 44.1219 102.943 44.2886 102.917 44.4753ZM111.991 40.9153C112.151 40.1419 112.237 39.6819 112.251 39.5353C112.277 39.1619 112.364 38.1819 112.511 36.5953C112.657 34.9953 112.737 33.7819 112.751 32.9553C112.777 32.8753 112.811 32.8019 112.851 32.7353C112.904 32.6553 112.977 32.5753 113.071 32.4953C113.164 32.4019 113.224 32.3419 113.251 32.3153C113.384 32.2086 113.517 32.1553 113.651 32.1553C114.024 32.1553 114.317 32.3753 114.531 32.8153C114.517 33.3219 114.457 34.0286 114.351 34.9353C114.244 35.8419 114.177 36.4886 114.151 36.8753C113.924 38.7286 113.871 40.1019 113.991 40.9953L114.031 40.9753C114.044 40.9753 114.064 40.9753 114.091 40.9753C114.117 40.9753 114.144 40.9753 114.171 40.9753L114.811 40.8553C114.877 40.8419 114.937 40.8353 114.991 40.8353C116.084 40.7419 116.744 40.6953 116.971 40.6953C117.931 40.6953 118.797 40.8753 119.571 41.2353C120.024 41.4486 120.404 41.8286 120.711 42.3753C121.031 42.9086 121.171 43.4086 121.131 43.8753C121.184 44.2086 121.131 44.5419 120.971 44.8753C120.811 45.1953 120.644 45.4419 120.471 45.6153C120.311 45.7886 120.057 46.0353 119.711 46.3553C118.684 47.0619 117.524 47.4019 116.231 47.3753C115.497 47.4419 114.651 47.1953 113.691 46.6353C112.691 46.0086 112.124 45.0753 111.991 43.8353C111.964 42.8619 111.964 41.8886 111.991 40.9153ZM114.131 43.6753C114.144 43.8086 114.137 43.9086 114.111 43.9753C114.084 44.0286 114.111 44.1219 114.191 44.2553C114.271 44.3753 114.317 44.4619 114.331 44.5153C114.357 44.5553 114.424 44.6353 114.531 44.7553C114.637 44.8619 114.704 44.9353 114.731 44.9753C114.771 45.0153 114.844 45.0886 114.951 45.1953C115.071 45.2886 115.137 45.3419 115.151 45.3553C115.791 45.5019 116.464 45.5419 117.171 45.4753C118.277 45.2353 118.911 44.7686 119.071 44.0753C119.177 43.7286 119.084 43.3819 118.791 43.0353C118.497 42.6753 118.171 42.4353 117.811 42.3153C117.571 42.2486 117.324 42.2153 117.071 42.2153C116.177 42.2153 115.331 42.4553 114.531 42.9353C114.397 43.0419 114.304 43.1153 114.251 43.1553C114.211 43.1953 114.171 43.2619 114.131 43.3553C114.104 43.4486 114.104 43.5553 114.131 43.6753ZM122.987 45.7353C123.014 45.6819 123.074 45.5819 123.167 45.4353C123.26 45.2886 123.327 45.1753 123.367 45.0953C124.06 45.2153 124.647 45.5086 125.127 45.9753C125.38 46.1619 125.68 46.3086 126.027 46.4153C126.387 46.5219 126.654 46.5886 126.827 46.6153C127.014 46.6286 127.374 46.6353 127.907 46.6353C128.44 46.6219 128.74 46.6153 128.807 46.6153C129.1 46.6153 129.48 46.5286 129.947 46.3553C130.08 46.3019 130.16 46.2086 130.187 46.0753C130.214 45.9419 130.174 45.8286 130.067 45.7353C129.814 45.5486 129.154 45.1953 128.087 44.6753C127.034 44.1553 126.474 43.8753 126.407 43.8353C125.047 43.4219 123.86 42.8286 122.847 42.0553C122.78 41.9619 122.667 41.8553 122.507 41.7353C122.36 41.6019 122.24 41.4753 122.147 41.3553C122.054 41.2219 121.994 41.0753 121.967 40.9153C121.954 40.3953 122.207 39.9353 122.727 39.5353C122.794 39.5086 123.054 39.4286 123.507 39.2953C123.96 39.1619 124.294 39.0286 124.507 38.8953C125.747 38.4019 126.927 38.1153 128.047 38.0353C128.074 38.0353 128.147 38.0419 128.267 38.0553C128.4 38.0686 128.474 38.0753 128.487 38.0753C128.514 38.0753 128.58 38.0819 128.687 38.0953C128.794 38.1086 128.86 38.1219 128.887 38.1353C128.914 38.1486 128.967 38.1686 129.047 38.1953C129.127 38.2219 129.18 38.2553 129.207 38.2953C129.247 38.3219 129.294 38.3619 129.347 38.4153C129.4 38.4553 129.44 38.5086 129.467 38.5753C129.507 38.6286 129.54 38.6953 129.567 38.7753C129.647 39.2419 129.52 39.6219 129.187 39.9153C129.12 39.9153 128.907 39.9219 128.547 39.9353C128.187 39.9486 127.954 39.9619 127.847 39.9753C127.74 39.9753 127.54 39.9953 127.247 40.0353C126.954 40.0619 126.727 40.0953 126.567 40.1353C126.407 40.1753 126.22 40.2353 126.007 40.3153C125.794 40.3953 125.594 40.4886 125.407 40.5953C125.22 40.6619 125.094 40.7686 125.027 40.9153C124.974 41.0619 125.054 41.1886 125.267 41.2953C125.88 41.7219 126.787 42.2086 127.987 42.7553C129.187 43.3019 130.007 43.7019 130.447 43.9553C130.887 44.2353 131.267 44.5753 131.587 44.9753C131.92 45.3619 132.127 45.8019 132.207 46.2953C132.3 46.7886 132.094 47.2286 131.587 47.6153C131.267 47.8686 130.847 48.0619 130.327 48.1953C129.82 48.3286 129.414 48.4086 129.107 48.4353C128.8 48.4619 128.327 48.4819 127.687 48.4953C127.02 48.5219 126.307 48.4219 125.547 48.1953C124.787 47.9686 124.14 47.6486 123.607 47.2353C123.074 47.0353 122.867 46.5353 122.987 45.7353ZM138.826 42.3753C138.453 42.5353 138.093 42.7553 137.746 43.0353C137.413 43.3153 137.166 43.5486 137.006 43.7353C136.86 43.9219 136.606 44.2619 136.246 44.7553C135.9 45.2486 135.68 45.5553 135.586 45.6753C135.36 46.2886 135.026 46.7886 134.586 47.1753C134.4 47.2686 134.233 47.3153 134.086 47.3153C133.793 47.3153 133.58 47.1886 133.446 46.9353C133.42 46.8953 133.373 46.8353 133.306 46.7553C133.24 46.6753 133.18 46.6019 133.126 46.5353L133.066 46.4353C133.066 46.3953 133.06 46.3086 133.046 46.1753C133.046 46.0286 133.046 45.9153 133.046 45.8353C133.046 45.7419 133.053 45.6419 133.066 45.5353C133.093 45.4286 133.133 45.3486 133.186 45.2953C133.24 44.8553 133.273 44.3819 133.286 43.8753C133.313 43.3686 133.32 42.9486 133.306 42.6153C133.293 42.2686 133.273 41.7886 133.246 41.1753C133.22 40.5619 133.2 40.1286 133.186 39.8753C133.213 39.5286 133.193 38.9753 133.126 38.2153C133.06 37.4553 133.04 36.9086 133.066 36.5753V35.4353C133.053 35.2753 133.126 35.1819 133.286 35.1553C133.46 35.1286 133.6 35.1353 133.706 35.1753C133.72 35.1886 133.78 35.2486 133.886 35.3553C133.993 35.4619 134.086 35.5686 134.166 35.6753C134.26 35.7686 134.313 35.8553 134.326 35.9353C134.686 37.6553 134.86 38.7953 134.846 39.3553C134.846 39.4886 134.866 40.1019 134.906 41.1953C134.946 42.2886 134.966 42.8953 134.966 43.0153V43.3953H135.086C135.193 43.3019 135.64 42.8553 136.426 42.0553C137.213 41.2419 137.866 40.6819 138.386 40.3753C138.626 40.2819 138.893 40.2353 139.186 40.2353C139.626 40.2353 139.986 40.4019 140.266 40.7353C140.72 41.2286 141.053 41.7753 141.266 42.3753C141.48 42.9619 141.653 43.6819 141.786 44.5353C142.173 45.7219 142.346 46.6019 142.306 47.1753L142.246 47.2953C142.22 47.3619 142.193 47.4086 142.166 47.4353C142.086 47.5286 141.973 47.5753 141.826 47.5753C141.72 47.5753 141.54 47.5286 141.286 47.4353C140.886 46.9419 140.546 46.3153 140.266 45.5553C139.946 44.6086 139.78 44.0619 139.766 43.9153C139.553 43.0086 139.24 42.4953 138.826 42.3753ZM150.769 41.4953L150.869 41.5153C150.923 40.9686 151.036 40.6019 151.209 40.4153C151.356 40.2286 151.476 40.1353 151.569 40.1353C151.609 40.1353 151.656 40.1353 151.709 40.1353C151.803 40.1219 151.883 40.1286 151.949 40.1553C152.029 40.1819 152.123 40.2486 152.229 40.3553C152.349 40.4486 152.429 40.5086 152.469 40.5353C152.683 40.8819 152.769 41.3019 152.729 41.7953C152.729 41.8219 152.603 42.1353 152.349 42.7353C152.256 43.2286 152.243 43.7353 152.309 44.2553C152.376 44.7619 152.563 45.2219 152.869 45.6353C153.123 46.2219 153.143 46.6486 152.929 46.9153C152.876 47.0486 152.776 47.1153 152.629 47.1153C152.549 47.1153 152.449 47.0953 152.329 47.0553C152.223 47.0153 152.096 46.9619 151.949 46.8953C151.803 46.8286 151.703 46.7886 151.649 46.7753C151.169 46.4553 150.863 45.9286 150.729 45.1953C150.196 45.7686 149.683 46.1886 149.189 46.4553C148.709 46.7086 148.056 46.9286 147.229 47.1153C146.789 47.1686 146.356 47.1153 145.929 46.9553C145.516 46.7953 145.209 46.6353 145.009 46.4753C144.809 46.3153 144.469 46.0219 143.989 45.5953C143.803 45.3419 143.649 45.1019 143.529 44.8753C143.423 44.6486 143.343 44.4019 143.289 44.1353C143.249 43.8686 143.223 43.6753 143.209 43.5553C143.196 43.4219 143.196 43.1753 143.209 42.8153C143.223 42.4419 143.229 42.1886 143.229 42.0553C143.309 41.9753 143.349 41.8486 143.349 41.6753V41.5553C143.309 41.3553 143.396 40.8886 143.609 40.1553C143.636 40.1019 143.709 40.0153 143.829 39.8953C143.963 39.7619 144.056 39.6819 144.109 39.6553C144.229 39.6286 144.443 39.6419 144.749 39.6953C145.056 39.7486 145.223 39.7753 145.249 39.7753C145.356 39.8019 145.436 39.8486 145.489 39.9153C145.556 39.9819 145.596 40.0686 145.609 40.1753C145.636 40.2686 145.649 40.3553 145.649 40.4353C145.649 40.5153 145.643 40.6219 145.629 40.7553C145.629 40.8886 145.629 40.9819 145.629 41.0353C145.629 41.0619 145.609 41.1086 145.569 41.1753L145.509 41.2953C145.243 41.8686 145.109 42.4686 145.109 43.0953C145.069 43.4419 145.156 43.8019 145.369 44.1753C145.583 44.5353 145.843 44.8419 146.149 45.0953C146.789 45.2419 147.183 45.3153 147.329 45.3153C147.609 45.3153 147.889 45.2419 148.169 45.0953C148.383 45.0153 148.583 44.9086 148.769 44.7753C148.969 44.6286 149.129 44.4953 149.249 44.3753C149.383 44.2419 149.529 44.0553 149.689 43.8153C149.863 43.5753 149.983 43.4019 150.049 43.2953C150.116 43.1753 150.236 42.9619 150.409 42.6553C150.583 42.3486 150.696 42.1553 150.749 42.0753C150.749 42.0086 150.749 41.9086 150.749 41.7753C150.763 41.6419 150.769 41.5486 150.769 41.4953ZM159.296 41.6953C158.416 42.4419 157.616 43.3686 156.896 44.4753C156.87 44.5286 156.696 44.8219 156.376 45.3553C156.07 45.8753 155.863 46.2553 155.756 46.4953C155.61 46.7353 155.396 46.8219 155.116 46.7553L154.236 45.8553V45.2353C154.303 44.8886 154.376 44.2153 154.456 43.2153C154.536 42.2153 154.59 41.6219 154.616 41.4353C154.616 41.3686 154.61 41.3086 154.596 41.2553L154.516 40.7353C154.503 40.6819 154.496 40.6219 154.496 40.5553V40.4753C154.496 40.2619 154.563 40.0886 154.696 39.9553C154.843 39.8219 155.023 39.7619 155.236 39.7753C155.663 39.7753 155.963 39.9086 156.136 40.1753C156.23 40.5353 156.276 41.0019 156.276 41.5753C156.276 41.6953 156.27 41.8486 156.256 42.0353C156.256 42.2086 156.256 42.3019 156.256 42.3153C156.363 42.2353 156.576 42.0353 156.896 41.7153C157.23 41.3819 157.436 41.1619 157.516 41.0553C157.61 40.9353 157.723 40.7753 157.856 40.5753C158.003 40.3619 158.143 40.1819 158.276 40.0353C158.41 39.8753 158.57 39.7219 158.756 39.5753C158.823 39.4819 158.903 39.4153 158.996 39.3753C159.09 39.3219 159.176 39.2953 159.256 39.2953C159.35 39.2819 159.45 39.2753 159.556 39.2753C159.663 39.2753 159.77 39.2753 159.876 39.2753C160.023 39.2219 160.17 39.2353 160.316 39.3153C160.476 39.3819 160.643 39.5286 160.816 39.7553C160.99 39.9686 161.096 40.1153 161.136 40.1953C161.19 40.2753 161.296 40.4419 161.456 40.6953C161.87 41.6553 162.076 42.7019 162.076 43.8353L162.456 45.4753C162.456 45.5153 162.496 45.6486 162.576 45.8753C162.67 46.1019 162.716 46.2219 162.716 46.2353C162.743 46.5953 162.656 46.8486 162.456 46.9953C162.416 47.0086 162.316 47.0486 162.156 47.1153C162.01 47.1686 161.896 47.1953 161.816 47.1953C161.683 47.1953 161.603 47.1286 161.576 46.9953C161.55 46.9553 161.456 46.8086 161.296 46.5553C161.15 46.2886 161.03 46.1019 160.936 45.9953C160.683 45.1153 160.516 44.2686 160.436 43.4553C160.396 43.3619 160.336 43.1619 160.256 42.8553C160.19 42.5353 160.123 42.3153 160.056 42.1953C159.776 41.8753 159.59 41.7019 159.496 41.6753C159.39 41.6753 159.323 41.6819 159.296 41.6953ZM166.472 43.3753L166.512 41.7353C166.512 41.3486 166.479 40.7553 166.412 39.9553C166.332 39.6486 166.259 39.4686 166.192 39.4153C165.312 39.4819 164.639 39.6286 164.172 39.8553C164.052 39.8553 163.879 39.9019 163.652 39.9953C163.426 40.0886 163.232 40.1219 163.072 40.0953C162.979 40.0553 162.886 39.9953 162.792 39.9153C162.699 39.8353 162.606 39.7419 162.512 39.6353C162.406 39.5153 162.319 39.4286 162.252 39.3753C162.199 39.2419 162.179 39.0553 162.192 38.8153C162.206 38.5753 162.252 38.3953 162.332 38.2753L162.992 37.6953C163.686 37.6819 164.719 37.5486 166.092 37.2953L166.232 37.1353L166.272 33.9953C166.579 33.6619 166.959 33.5419 167.412 33.6353C167.772 33.9153 167.972 34.2619 168.012 34.6753C168.052 34.7553 168.079 35.0886 168.092 35.6753C168.106 36.2619 168.159 36.6019 168.252 36.6953C168.266 36.6953 168.326 36.7153 168.432 36.7553C168.552 36.7819 168.619 36.8019 168.632 36.8153C168.899 36.7886 169.239 36.7419 169.652 36.6753C170.066 36.5953 170.366 36.5486 170.552 36.5353C170.739 36.5219 171.079 36.5286 171.572 36.5553L172.492 36.5953C173.066 36.6753 173.279 37.0086 173.132 37.5953C172.906 37.8219 172.732 37.9486 172.612 37.9753C172.306 38.0019 171.992 38.0419 171.672 38.0953C171.352 38.1486 170.952 38.2353 170.472 38.3553C170.006 38.4619 169.692 38.5286 169.532 38.5553L169.492 38.5753C169.146 38.5886 168.752 38.6753 168.312 38.8353L168.212 38.9753C168.212 39.1353 168.199 39.4019 168.172 39.7753C168.159 40.1353 168.159 40.4486 168.172 40.7153C168.186 40.9686 168.226 41.2286 168.292 41.4953C168.292 43.8286 168.412 45.2819 168.652 45.8553C168.919 46.0953 169.159 46.2219 169.372 46.2353C169.492 46.2353 169.646 46.2153 169.832 46.1753C169.886 46.1619 169.966 46.1419 170.072 46.1153C170.179 46.0886 170.252 46.0753 170.292 46.0753C170.332 46.0619 170.392 46.0419 170.472 46.0153C170.552 45.9886 170.606 45.9686 170.632 45.9553C170.672 45.9419 170.719 45.9219 170.772 45.8953C170.839 45.8553 170.886 45.8153 170.912 45.7753C170.952 45.7353 170.999 45.6886 171.052 45.6353C171.106 45.5819 171.152 45.5219 171.192 45.4553C171.246 45.3886 171.299 45.3153 171.352 45.2353C171.406 45.1419 171.466 45.0419 171.532 44.9353C171.519 44.8686 171.539 44.7086 171.592 44.4553C171.646 44.2019 171.686 44.0419 171.712 43.9753C171.859 43.5619 172.126 43.3619 172.512 43.3753C172.699 43.3486 172.839 43.3819 172.932 43.4753C173.026 43.5686 173.112 43.7353 173.192 43.9753L173.292 44.3153C173.199 44.9686 173.099 45.3753 172.992 45.5353C172.726 46.0686 172.519 46.4353 172.372 46.6353C172.239 46.8353 171.992 47.0419 171.632 47.2553C171.272 47.4819 170.719 47.7153 169.972 47.9553C169.932 47.9686 169.779 48.0219 169.512 48.1153C169.246 48.2219 169.039 48.2753 168.892 48.2753C168.279 48.2486 167.826 48.0486 167.532 47.6753C167.492 47.5953 167.372 47.3886 167.172 47.0553C166.972 46.7086 166.832 46.4086 166.752 46.1553C166.672 45.8886 166.652 45.6086 166.692 45.3153C166.679 45.0753 166.646 44.7286 166.592 44.2753C166.539 43.8219 166.506 43.5353 166.492 43.4153C166.479 43.4019 166.472 43.3886 166.472 43.3753Z" fill="#1E1E1E"/>
<path d="M61.7515 133.442C131.292 138.032 200.322 138.622 343.872 133.442C351.052 132.842 358.042 135.002 355.661 145.242C357.151 155.312 354.892 162.112 355.661 168.832C354.901 177.152 348.812 182.732 343.872 180.632C254.712 181.582 165.572 184.092 61.7515 180.632C54.8515 177.762 47.3515 174.582 49.9515 168.832C49.4115 159.332 49.2215 151.632 49.9515 145.242C46.7915 138.392 50.5115 131.452 61.7515 133.442Z" fill="#EADDD7"/>
<path d="M60.0275 189.201C115.678 186.701 171.298 185.071 239.698 189.201C241.758 187.131 246.538 195.281 248.148 197.651C245.518 202.441 247.018 210.631 248.148 214.541C250.628 220.311 247.368 224.431 239.698 222.991C175.258 220.391 111.238 219.081 60.0275 222.991C56.4475 221.291 53.1075 222.801 51.5775 214.541C48.8975 208.281 51.3675 203.281 51.5775 197.651C53.3875 189.921 53.4575 190.861 60.0275 189.201Z" fill="#EADDD7"/>
<path d="M67.0964 234.101C114.206 235.981 161.846 236.761 226.596 234.101C230.616 236.731 235.596 235.161 236.186 243.691C237.086 250.281 232.726 254.101 236.186 262.861C236.096 267.051 230.776 272.361 226.596 272.451C180.996 276.351 132.406 276.811 67.0964 272.451C61.6164 275.181 56.6164 271.931 57.5064 262.861C57.9364 254.771 55.2064 246.711 57.5064 243.691C59.8364 238.051 61.2064 230.601 67.0964 234.101Z" fill="#A5D8FF"/>
<path d="M67.0962 234.101C130.096 234.761 190.656 232.401 226.596 234.101M67.0962 234.101C110.136 234.461 152.456 235.261 226.596 234.101M67.0962 234.101C62.4062 234.511 57.9862 238.031 57.5062 243.691M67.0962 234.101C60.5062 231.981 59.4062 236.621 57.5062 243.691M226.596 234.101C234.506 232.901 236.846 235.311 236.186 243.691M226.596 234.101C232.246 233.031 234.176 235.701 236.186 243.691M236.186 243.691C234.336 252.141 235.586 257.061 236.186 262.861M236.186 243.691C236.616 248.981 236.436 256.231 236.186 262.861M236.186 262.861C234.276 269.451 234.946 270.671 226.596 272.451M236.186 262.861C234.336 268.851 234.036 273.781 226.596 272.451M226.596 272.451C187.576 269.611 150.076 271.971 67.0962 272.451M226.596 272.451C194.486 272.181 160.826 273.461 67.0962 272.451M67.0962 272.451C60.9662 274.421 58.5162 268.581 57.5062 262.861M67.0962 272.451C59.1362 272.461 55.5262 271.471 57.5062 262.861M57.5062 262.861C58.2962 254.731 56.9062 248.201 57.5062 243.691M57.5062 262.861C58.2362 257.241 56.6162 249.601 57.5062 243.691" stroke="#1E1E1E" stroke-width="2" stroke-linecap="round"/>
<path d="M102.629 256.128C102.608 255.947 102.645 255.776 102.741 255.616C102.848 255.445 102.981 255.349 103.141 255.328C103.514 255.253 103.84 255.344 104.117 255.6C104.16 255.621 104.272 255.728 104.453 255.92C104.912 256.208 105.482 256.379 106.165 256.432C106.57 256.432 106.944 256.437 107.285 256.448C107.637 256.459 108.01 256.437 108.405 256.384C108.81 256.331 109.178 256.245 109.509 256.128C109.957 255.776 110.128 255.472 110.021 255.216C109.957 255.003 109.738 254.763 109.365 254.496C108.992 254.229 108.773 254.064 108.709 254C107.536 253.573 106.288 253.035 104.965 252.384C104.613 252.213 104.357 252.064 104.197 251.936C104.037 251.808 103.818 251.584 103.541 251.264C103.413 251.083 103.392 250.725 103.477 250.192C103.541 250.011 103.765 249.829 104.149 249.648C104.16 249.648 104.272 249.616 104.485 249.552C104.698 249.488 104.821 249.456 104.853 249.456C104.981 249.36 105.125 249.269 105.285 249.184C105.456 249.088 105.605 249.008 105.733 248.944C105.872 248.88 106.048 248.805 106.261 248.72C106.485 248.624 106.65 248.555 106.757 248.512C106.874 248.469 107.061 248.405 107.317 248.32C107.584 248.224 107.76 248.16 107.845 248.128C107.952 248.096 108.176 248.011 108.517 247.872C108.858 247.723 109.168 247.6 109.445 247.504C109.733 247.397 109.946 247.333 110.085 247.312L111.013 247.216L111.637 247.52C111.733 247.595 111.792 247.68 111.813 247.776C111.845 247.861 111.856 247.979 111.845 248.128C111.845 248.277 111.845 248.379 111.845 248.432C111.568 248.784 111.296 248.923 111.029 248.848C111.008 248.848 110.938 248.816 110.821 248.752C110.704 248.677 110.64 248.64 110.629 248.64C110.565 248.629 110.485 248.635 110.389 248.656C110.293 248.677 110.181 248.715 110.053 248.768C109.936 248.811 109.856 248.837 109.813 248.848C109.525 249.008 109.045 249.232 108.373 249.52C107.712 249.797 107.317 249.968 107.189 250.032C106.357 250.341 105.85 250.555 105.669 250.672V250.768C105.808 250.96 105.989 251.131 106.213 251.28C106.437 251.429 106.752 251.589 107.157 251.76C107.562 251.931 107.808 252.037 107.893 252.08C109.44 252.656 110.554 253.365 111.237 254.208C111.504 254.784 111.605 255.323 111.541 255.824C111.37 256.229 111.109 256.597 110.757 256.928C110.405 257.248 110.021 257.483 109.605 257.632C109.018 257.867 108.138 257.973 106.965 257.952C105.728 257.984 104.688 257.813 103.845 257.44C103.557 257.355 103.354 257.253 103.237 257.136C102.832 256.837 102.629 256.501 102.629 256.128ZM113.836 253.44C114.604 252.459 115.446 251.819 116.364 251.52C116.95 251.445 117.26 251.408 117.292 251.408C117.953 251.429 118.529 251.632 119.02 252.016C119.51 252.389 119.772 252.901 119.804 253.552C119.814 254.117 119.585 254.635 119.116 255.104C118.657 255.573 118.145 255.829 117.58 255.872C117.366 255.947 117.137 255.984 116.891 255.984C116.337 255.984 115.724 255.781 115.052 255.376C114.849 255.173 114.716 255.072 114.652 255.072C114.609 255.051 114.572 255.051 114.539 255.072C114.188 255.605 114.017 256.011 114.028 256.288C114.145 256.981 114.518 257.568 115.148 258.048C115.777 258.539 116.444 258.763 117.148 258.72C117.254 258.763 117.441 258.763 117.708 258.72C117.974 258.688 118.15 258.661 118.236 258.64C118.332 258.619 118.513 258.565 118.78 258.48C119.057 258.405 119.249 258.352 119.356 258.32C119.729 258.171 120.225 258.075 120.844 258.032H120.956C121.03 258.011 121.1 258.027 121.164 258.08C121.228 258.133 121.265 258.213 121.276 258.32V258.912C120.892 259.349 120.417 259.584 119.852 259.616C119.734 259.648 119.521 259.707 119.212 259.792C118.913 259.877 118.684 259.936 118.524 259.968C118.374 260.011 118.172 260.048 117.916 260.08C117.67 260.123 117.446 260.139 117.244 260.128C116.305 260.171 115.404 259.931 114.539 259.408C113.75 259.003 113.142 258.299 112.715 257.296C112.556 256.667 112.582 256.053 112.796 255.456C113.009 254.859 113.356 254.187 113.836 253.44ZM115.084 254.208C115.308 254.208 115.5 254.224 115.66 254.256C115.756 254.309 115.846 254.352 115.932 254.384C116.028 254.405 116.14 254.427 116.268 254.448C116.406 254.459 116.497 254.464 116.54 254.464C116.582 254.464 116.694 254.464 116.876 254.464C117.068 254.464 117.169 254.464 117.18 254.464C117.734 254.293 118.102 254.053 118.284 253.744C118.316 253.627 118.316 253.525 118.284 253.44C118.262 253.344 118.204 253.264 118.108 253.2C118.012 253.136 117.921 253.088 117.836 253.056C117.75 253.024 117.633 252.987 117.484 252.944C117.345 252.891 117.244 252.853 117.18 252.832C116.924 252.832 116.662 252.907 116.396 253.056C116.129 253.195 115.916 253.333 115.756 253.472C115.596 253.611 115.393 253.803 115.148 254.048C115.148 254.059 115.137 254.085 115.116 254.128C115.094 254.16 115.084 254.187 115.084 254.208ZM127.466 255.696C127.38 255.76 127.279 255.893 127.162 256.096C126.596 256.715 126.042 257.211 125.498 257.584C124.964 257.947 124.383 258.123 123.754 258.112C123.423 258.155 123.082 258.112 122.73 257.984C122.378 257.845 122.1 257.653 121.898 257.408C121.802 257.259 121.732 257.157 121.69 257.104C121.658 257.04 121.604 256.944 121.53 256.816C121.455 256.677 121.402 256.565 121.37 256.48C121.348 256.395 121.322 256.293 121.29 256.176C121.258 256.059 121.242 255.947 121.242 255.84C121.242 255.723 121.258 255.605 121.29 255.488C121.3 255.125 121.418 254.757 121.642 254.384C121.876 254.011 122.111 253.712 122.346 253.488C122.58 253.264 122.884 252.997 123.258 252.688C123.332 252.635 123.386 252.592 123.418 252.56C123.866 252.197 124.474 252.016 125.242 252.016C125.402 252.016 125.908 252.059 126.762 252.144C126.783 252.165 126.852 252.203 126.97 252.256C127.098 252.309 127.188 252.368 127.242 252.432C127.295 252.485 127.3 252.56 127.258 252.656L127.466 252.864C127.786 253.003 127.988 253.136 128.074 253.264C128.607 254.352 129.076 255.227 129.482 255.888C129.524 255.941 129.658 256.064 129.882 256.256C130.116 256.437 130.255 256.555 130.298 256.608C130.383 256.672 130.484 256.763 130.602 256.88C130.73 256.987 130.836 257.067 130.922 257.12C131.007 257.173 131.103 257.205 131.21 257.216C131.22 257.227 131.29 257.291 131.418 257.408C131.428 257.44 131.423 257.483 131.402 257.536C131.391 257.579 131.375 257.632 131.354 257.696C131.332 257.76 131.316 257.803 131.306 257.824C131.199 257.984 130.964 258.112 130.602 258.208C130.474 258.208 130.383 258.213 130.33 258.224C130.287 258.245 130.212 258.235 130.106 258.192C130.01 258.16 129.94 258.133 129.898 258.112C129.866 258.101 129.796 258.064 129.69 258C129.583 257.936 129.503 257.888 129.45 257.856L129.385 257.824C129.119 257.6 128.751 257.216 128.282 256.672C127.823 256.117 127.551 255.792 127.466 255.696ZM122.81 256.192C123.002 256.48 123.29 256.624 123.674 256.624C123.855 256.624 124.106 256.581 124.426 256.496C124.948 256.304 125.423 255.968 125.85 255.488C126.266 254.912 126.5 254.405 126.554 253.968C126.554 253.936 126.575 253.813 126.618 253.6C126.66 253.376 126.676 253.221 126.666 253.136C126.452 253.189 126.143 253.232 125.738 253.264C125.343 253.285 125.039 253.317 124.826 253.36C124.548 253.403 124.266 253.536 123.978 253.76C123.69 253.973 123.471 254.176 123.322 254.368C123.172 254.56 122.97 254.832 122.714 255.184C122.532 255.408 122.564 255.744 122.81 256.192ZM132.185 253.712C132.26 253.243 132.42 252.837 132.665 252.496C132.911 252.155 133.257 251.781 133.705 251.376C134.089 251.184 134.585 251.088 135.193 251.088C135.94 251.088 136.553 251.216 137.033 251.472C137.94 252.037 138.585 252.512 138.969 252.896C138.969 252.928 138.975 253.008 138.985 253.136C138.996 253.264 138.991 253.371 138.969 253.456C138.959 253.541 138.921 253.589 138.857 253.6C138.516 253.653 138.169 253.6 137.817 253.44C137.732 253.387 137.593 253.307 137.401 253.2C137.209 253.083 137.065 252.997 136.969 252.944C136.873 252.891 136.745 252.837 136.585 252.784C136.425 252.731 136.271 252.699 136.121 252.688C136.036 252.688 135.897 252.688 135.705 252.688C135.513 252.677 135.359 252.677 135.241 252.688C135.135 252.688 135.001 252.704 134.841 252.736C134.681 252.768 134.537 252.821 134.409 252.896L134.313 252.992C133.929 253.504 133.689 253.899 133.593 254.176C133.615 254.496 133.615 254.784 133.593 255.04C133.572 255.285 133.567 255.568 133.577 255.888C133.599 256.208 133.641 256.491 133.705 256.736C133.78 256.864 133.823 256.992 133.833 257.12C133.844 257.237 133.817 257.376 133.753 257.536C133.689 257.696 133.641 257.808 133.609 257.872C133.588 257.925 133.519 258.048 133.401 258.24C133.305 258.368 133.188 258.432 133.049 258.432C132.9 258.432 132.745 258.368 132.585 258.24C132.329 258.08 132.127 257.781 131.977 257.344C131.977 255.659 132.047 254.448 132.185 253.712ZM138.74 254.88C138.815 254.379 138.959 253.957 139.172 253.616C139.396 253.275 139.727 252.917 140.164 252.544C140.527 252.128 140.964 251.813 141.476 251.6C141.988 251.387 142.495 251.328 142.996 251.424C143.22 251.413 143.45 251.472 143.684 251.6C143.93 251.728 144.1 251.84 144.196 251.936C144.303 252.032 144.479 252.203 144.724 252.448C144.97 252.779 145.071 253.285 145.028 253.968C144.89 254.224 144.751 254.357 144.612 254.368C144.58 254.368 144.49 254.379 144.34 254.4C144.191 254.411 144.074 254.4 143.988 254.368C143.914 254.336 143.855 254.267 143.812 254.16C143.599 253.595 143.434 253.28 143.316 253.216C143.156 253.109 142.97 253.051 142.756 253.04C142.543 253.029 142.351 253.035 142.18 253.056C141.924 253.12 141.674 253.253 141.428 253.456C141.183 253.648 140.996 253.824 140.868 253.984C140.751 254.133 140.58 254.363 140.356 254.672C140.356 254.704 140.335 254.811 140.292 254.992C140.26 255.173 140.25 255.339 140.26 255.488C140.282 255.637 140.351 255.739 140.468 255.792C140.81 256.208 141.172 256.485 141.556 256.624C142.015 256.805 142.831 256.997 144.004 257.2L145.94 257.616C146.015 257.68 146.084 257.781 146.148 257.92C146.223 258.048 146.255 258.144 146.244 258.208C146.202 258.347 146.095 258.485 145.924 258.624C145.764 258.763 145.599 258.859 145.428 258.912C145.012 258.955 144.474 258.885 143.812 258.704C142.65 258.491 141.871 258.325 141.476 258.208C140.431 257.867 139.652 257.365 139.14 256.704C138.799 256.245 138.666 255.637 138.74 254.88ZM151.556 254.192C151.257 254.32 150.969 254.496 150.692 254.72C150.425 254.944 150.228 255.131 150.1 255.28C149.982 255.429 149.78 255.701 149.492 256.096C149.214 256.491 149.038 256.736 148.964 256.832C148.782 257.323 148.516 257.723 148.164 258.032C148.014 258.107 147.881 258.144 147.764 258.144C147.529 258.144 147.358 258.043 147.252 257.84C147.23 257.808 147.193 257.76 147.14 257.696C147.086 257.632 147.038 257.573 146.996 257.52L146.948 257.44C146.948 257.408 146.942 257.339 146.932 257.232C146.932 257.115 146.932 257.024 146.932 256.96C146.932 256.885 146.937 256.805 146.948 256.72C146.969 256.635 147.001 256.571 147.044 256.528C147.086 256.176 147.113 255.797 147.124 255.392C147.145 254.987 147.15 254.651 147.14 254.384C147.129 254.107 147.113 253.723 147.092 253.232C147.07 252.741 147.054 252.395 147.044 252.192C147.065 251.915 147.049 251.472 146.996 250.864C146.942 250.256 146.926 249.819 146.948 249.552V248.64C146.937 248.512 146.996 248.437 147.124 248.416C147.262 248.395 147.374 248.4 147.46 248.432C147.47 248.443 147.518 248.491 147.604 248.576C147.689 248.661 147.764 248.747 147.828 248.832C147.902 248.907 147.945 248.976 147.956 249.04C148.244 250.416 148.382 251.328 148.372 251.776C148.372 251.883 148.388 252.373 148.42 253.248C148.452 254.123 148.468 254.608 148.468 254.704V255.008H148.564C148.649 254.933 149.006 254.576 149.636 253.936C150.265 253.285 150.788 252.837 151.204 252.592C151.396 252.517 151.609 252.48 151.844 252.48C152.196 252.48 152.484 252.613 152.708 252.88C153.07 253.275 153.337 253.712 153.508 254.192C153.678 254.661 153.817 255.237 153.924 255.92C154.233 256.869 154.372 257.573 154.34 258.032L154.292 258.128C154.27 258.181 154.249 258.219 154.228 258.24C154.164 258.315 154.073 258.352 153.956 258.352C153.87 258.352 153.726 258.315 153.524 258.24C153.204 257.845 152.932 257.344 152.708 256.736C152.452 255.979 152.318 255.541 152.308 255.424C152.137 254.699 151.886 254.288 151.556 254.192ZM162.838 255.792C162.838 255.749 162.838 255.691 162.838 255.616C162.849 255.531 162.859 255.456 162.87 255.392V255.296C162.902 255.136 163.014 255.003 163.206 254.896C163.409 254.779 163.606 254.725 163.798 254.736C163.883 254.747 163.958 254.763 164.022 254.784C164.097 254.795 164.171 254.827 164.246 254.88C164.331 254.923 164.39 254.96 164.422 254.992C164.465 255.013 164.539 255.067 164.646 255.152C164.753 255.227 164.827 255.28 164.87 255.312L164.982 255.376C165.174 255.472 165.494 255.637 165.942 255.872C166.39 256.096 166.731 256.261 166.966 256.368C166.998 256.368 167.083 256.373 167.222 256.384C167.361 256.395 167.462 256.4 167.526 256.4C167.59 256.389 167.659 256.357 167.734 256.304C167.809 256.251 167.857 256.176 167.878 256.08C167.91 255.845 167.926 255.547 167.926 255.184L167.942 255.088C167.921 254.651 167.899 253.84 167.878 252.656C167.867 251.472 167.873 250.763 167.894 250.528C167.83 249.963 167.809 249.584 167.83 249.392C167.777 249.328 167.745 249.296 167.734 249.296C167.702 249.285 167.665 249.275 167.622 249.264C167.59 249.253 167.569 249.248 167.558 249.248C167.185 249.248 166.545 249.259 165.638 249.28C164.731 249.291 164.257 249.296 164.214 249.296C164.001 249.317 163.835 249.312 163.718 249.28C163.27 248.949 163.046 248.64 163.046 248.352C163.057 248.267 163.067 248.197 163.078 248.144C163.099 248.08 163.121 248.027 163.142 247.984C163.174 247.931 163.195 247.893 163.206 247.872C163.227 247.851 163.265 247.808 163.318 247.744C163.371 247.68 163.419 247.621 163.462 247.568L163.574 247.456H163.83C164.033 247.467 164.587 247.589 165.494 247.824L166.006 247.84C166.23 247.851 166.481 247.856 166.758 247.856C166.854 247.845 167.041 247.845 167.318 247.856C168.843 247.888 169.755 247.915 170.054 247.936L171.878 248C172.113 248 172.31 248.101 172.47 248.304C172.641 248.496 172.705 248.704 172.662 248.928C172.63 249.077 172.55 249.2 172.422 249.296C172.305 249.392 172.182 249.461 172.054 249.504C171.937 249.536 171.777 249.568 171.574 249.6C170.326 249.419 169.617 249.307 169.446 249.264C169.35 249.285 169.286 249.312 169.254 249.344L169.142 249.44C169.11 250.08 169.094 250.581 169.094 250.944C169.105 251.296 169.121 251.824 169.142 252.528C169.174 253.232 169.19 253.723 169.19 254C169.222 254.213 169.265 254.693 169.318 255.44C169.382 256.187 169.441 256.693 169.494 256.96C169.462 257.152 169.387 257.307 169.27 257.424C169.153 257.541 168.961 257.664 168.694 257.792C168.427 257.92 168.273 257.995 168.23 258.016C167.579 258.08 166.811 257.92 165.926 257.536C165.435 257.237 164.753 257.008 163.878 256.848C163.825 256.837 163.739 256.837 163.622 256.848C163.515 256.859 163.419 256.859 163.334 256.848C163.249 256.827 163.174 256.784 163.11 256.72C162.865 256.485 162.774 256.176 162.838 255.792ZM173.027 255.872V254.144C172.952 254.027 172.915 253.856 172.915 253.632C172.915 253.408 172.952 253.243 173.027 253.136C173.187 253.019 173.373 252.896 173.587 252.768C173.8 252.64 174.035 252.501 174.291 252.352C174.547 252.203 174.733 252.091 174.851 252.016C175.299 251.749 175.859 251.616 176.531 251.616C177.32 251.616 178.077 251.787 178.803 252.128C179.539 252.469 180.147 252.939 180.627 253.536C181.181 254.293 181.315 255.003 181.027 255.664C180.344 256.837 179.331 257.579 177.987 257.888C177.816 257.952 177.624 258 177.411 258.032C177.208 258.064 177.043 258.08 176.915 258.08C176.787 258.091 176.584 258.091 176.307 258.08C176.029 258.08 175.848 258.08 175.763 258.08C175.219 257.963 174.84 257.877 174.627 257.824C174.424 257.771 174.205 257.664 173.971 257.504C173.736 257.333 173.56 257.136 173.443 256.912C173.336 256.688 173.197 256.341 173.027 255.872ZM174.547 255.872C174.621 256.021 174.744 256.187 174.914 256.368C175.085 256.539 175.235 256.64 175.363 256.672C175.608 256.8 175.96 256.864 176.419 256.864C176.845 256.864 177.288 256.805 177.747 256.688C178.216 256.56 178.648 256.347 179.043 256.048C179.437 255.739 179.661 255.376 179.715 254.96C179.725 254.832 179.731 254.731 179.731 254.656C179.731 254.581 179.693 254.496 179.619 254.4C179.555 254.293 179.496 254.213 179.443 254.16C179.389 254.107 179.315 254.037 179.219 253.952C179.123 253.867 179.053 253.797 179.011 253.744C178.104 253.243 177.416 252.992 176.947 252.992C176.712 252.992 176.488 253.04 176.275 253.136C176.179 253.168 176.077 253.237 175.971 253.344C175.661 253.632 175.459 253.797 175.363 253.84C175.331 253.872 175.267 253.931 175.171 254.016C175.085 254.101 175.011 254.176 174.947 254.24C174.883 254.293 174.819 254.363 174.755 254.448C174.701 254.523 174.669 254.592 174.659 254.656C174.595 254.773 174.557 254.907 174.547 255.056C174.536 255.205 174.536 255.344 174.547 255.472C174.568 255.589 174.568 255.723 174.547 255.872ZM181.806 253.024C181.934 252.405 182.003 252.037 182.014 251.92C182.035 251.621 182.105 250.837 182.222 249.568C182.339 248.288 182.403 247.317 182.414 246.656C182.435 246.592 182.462 246.533 182.494 246.48C182.537 246.416 182.595 246.352 182.67 246.288C182.745 246.213 182.793 246.165 182.814 246.144C182.921 246.059 183.027 246.016 183.134 246.016C183.433 246.016 183.667 246.192 183.838 246.544C183.827 246.949 183.779 247.515 183.694 248.24C183.609 248.965 183.555 249.483 183.534 249.792C183.353 251.275 183.31 252.373 183.406 253.088L183.438 253.072C183.449 253.072 183.465 253.072 183.486 253.072C183.507 253.072 183.529 253.072 183.55 253.072L184.062 252.976C184.115 252.965 184.163 252.96 184.206 252.96C185.081 252.885 185.609 252.848 185.79 252.848C186.558 252.848 187.251 252.992 187.87 253.28C188.233 253.451 188.537 253.755 188.782 254.192C189.038 254.619 189.15 255.019 189.118 255.392C189.161 255.659 189.118 255.925 188.99 256.192C188.862 256.448 188.729 256.645 188.59 256.784C188.462 256.923 188.259 257.12 187.982 257.376C187.161 257.941 186.233 258.213 185.198 258.192C184.611 258.245 183.934 258.048 183.166 257.6C182.366 257.099 181.913 256.352 181.806 255.36C181.785 254.581 181.785 253.803 181.806 253.024ZM183.518 255.232C183.529 255.339 183.523 255.419 183.502 255.472C183.481 255.515 183.502 255.589 183.566 255.696C183.63 255.792 183.667 255.861 183.678 255.904C183.699 255.936 183.753 256 183.838 256.096C183.923 256.181 183.977 256.24 183.998 256.272C184.03 256.304 184.089 256.363 184.174 256.448C184.27 256.523 184.323 256.565 184.334 256.576C184.846 256.693 185.385 256.725 185.95 256.672C186.835 256.48 187.342 256.107 187.47 255.552C187.555 255.275 187.481 254.997 187.246 254.72C187.011 254.432 186.75 254.24 186.462 254.144C186.27 254.091 186.073 254.064 185.87 254.064C185.155 254.064 184.478 254.256 183.838 254.64C183.731 254.725 183.657 254.784 183.614 254.816C183.582 254.848 183.55 254.901 183.518 254.976C183.497 255.051 183.497 255.136 183.518 255.232Z" fill="#1E1E1E"/>
</svg>
