<svg width="218" height="384" viewBox="0 0 218 384" fill="none" xmlns="http://www.w3.org/2000/svg">
<path d="M43.0167 10.9714C75.8467 12.7114 101.707 10.0714 175.487 10.9714C195.907 13.3514 205.877 19.1914 207.487 42.9714C211.227 108.671 210.857 173.761 207.487 341.221C208.017 365.821 197.357 370.231 175.487 373.221C125.487 370.761 75.8667 375.421 43.0167 373.221C24.8867 375.481 7.96665 363.501 11.0167 341.221C10.6767 268.391 13.2767 196.541 11.0167 42.9714C13.1567 24.2914 24.6667 9.15143 43.0167 10.9714Z" fill="#EADDD7"/>
<path d="M43.0167 10.9715C89.7267 12.4815 132.217 10.1315 175.487 10.9715M43.0167 10.9715C85.9367 11.0515 127.837 11.0815 175.487 10.9715M43.0167 10.9715C21.9967 11.8915 10.1567 19.8715 11.0167 42.9715M43.0167 10.9715C22.6967 12.6115 12.4367 21.5115 11.0167 42.9715M175.487 10.9715C198.587 11.8115 207.677 21.7315 207.487 42.9715M175.487 10.9715C194.867 10.0115 209.007 20.1915 207.487 42.9715M207.487 42.9715C208.577 123.452 208.957 204.822 207.487 341.221M207.487 42.9715C209.317 102.822 208.747 161.992 207.487 341.221M207.487 341.221C208.867 361.691 196.787 375.141 175.487 373.221M207.487 341.221C207.507 363.951 197.677 374.181 175.487 373.221M175.487 373.221C146.207 371.491 120.097 375.231 43.0167 373.221M175.487 373.221C126.577 374.491 75.5867 373.281 43.0167 373.221M43.0167 373.221C22.4167 372.761 11.1067 360.791 11.0167 341.221M43.0167 373.221C20.5467 371.141 10.9767 363.791 11.0167 341.221M11.0167 341.221C12.6467 222.111 11.1667 104.422 11.0167 42.9715M11.0167 341.221C10.0267 267.011 10.6767 193.112 11.0167 42.9715" stroke="#1E1E1E" stroke-width="2" stroke-linecap="round"/>
<path d="M26.01 11C72.99 7.74004 123.11 8.80004 191.57 11C200.28 10.49 209.02 15.47 207.57 27.01C210.6 31.11 206.92 38.03 207.57 59.02C205.44 67.92 205.14 71.51 191.57 75.03C135.28 71.77 83.49 76.4 26.01 75.03C14.21 76.83 7.17003 66.32 10 59.02C12.91 51.75 10.74 40.23 10 27.01C7.96003 18.83 13.13 11.27 26.01 11Z" fill="#FFEC99"/>
<path d="M26.0101 9.99992C82.6401 12.2699 138.38 11.2899 191.57 9.99992M26.0101 9.99992C87.9501 9.92992 148.63 8.38992 191.57 9.99992M26.0101 9.99992C17.0101 11.4899 8.48006 15.4999 10.0001 26.0099M26.0101 9.99992C14.7001 8.24992 11.5501 14.0799 10.0001 26.0099M191.57 9.99992C202.64 9.63992 209.35 15.3499 207.57 26.0099M191.57 9.99992C203.98 12.0599 208.67 16.5299 207.57 26.0099M207.57 26.0099C209.28 33.4299 206.36 43.1199 207.57 58.0199M207.57 26.0099C207.65 34.6599 207.23 42.6299 207.57 58.0199M207.57 58.0199C207.7 66.8699 202.33 74.4699 191.57 74.0299M207.57 58.0199C206.79 67.7399 201.43 73.0799 191.57 74.0299M191.57 74.0299C148.26 72.9399 105.53 73.8099 26.0101 74.0299M191.57 74.0299C136.62 74.4799 80.7601 74.2999 26.0101 74.0299M26.0101 74.0299C15.9401 74.1199 10.9401 66.9699 10.0001 58.0199M26.0101 74.0299C15.9301 72.3799 9.60006 68.4399 10.0001 58.0199M10.0001 58.0199C9.24006 45.5999 10.2601 36.1399 10.0001 26.0099M10.0001 58.0199C9.86006 51.7799 9.58006 44.1199 10.0001 26.0099" stroke="#1E1E1E" stroke-width="2" stroke-linecap="round"/>
<path d="M174.291 42.9397V43.8499H168.995V42.9397H174.291Z" fill="#1E1E1E"/>
<path d="M173.392 37.9514V38.8616H168.096V37.9514H173.392ZM178.66 37.9514V38.8616H173.364V37.9514H178.66Z" fill="#1E1E1E"/>
<path d="M174.562 47.9905V48.9007H169.266V47.9905H174.562ZM179.83 47.9905V48.9007H174.534V47.9905H179.83Z" fill="#1E1E1E"/>
<path d="M25.0217 47.0432C25.0217 47.0324 25.0379 46.9351 25.0703 46.7513C25.1027 46.5675 25.119 46.4594 25.119 46.427C25.0325 45.9729 24.9676 45.2215 24.9244 44.1728C24.9244 43.935 24.8865 43.5674 24.8108 43.0701C24.746 42.5619 24.7135 42.1781 24.7135 41.9187C24.6703 41.7889 24.5676 41.5133 24.4054 41.0916V39.551C24.4703 39.3132 24.6054 39.0861 24.8108 38.8699C25.0163 38.6537 25.2379 38.5726 25.4757 38.6267C25.6703 38.5402 25.9622 38.7131 26.3514 39.1456V43.4593C26.4271 43.6323 26.4812 43.9782 26.5136 44.4972C26.5569 45.0161 26.6055 45.3512 26.6596 45.5026C26.692 45.6648 26.7352 45.7729 26.7893 45.8269C26.8217 45.8269 26.8542 45.8215 26.8866 45.8107C26.919 45.7891 26.9515 45.7567 26.9839 45.7134C27.0271 45.6594 27.0596 45.6269 27.0812 45.6161C27.1028 45.5729 27.319 45.2485 27.7299 44.6431C28.1407 44.0377 28.3677 43.6431 28.411 43.4593C28.5083 43.2863 28.611 43.0268 28.7191 42.6809C28.8272 42.3349 28.9299 42.0808 29.0272 41.9187C29.157 41.7025 29.3624 41.5943 29.6435 41.5943C29.8597 41.5943 30.0273 41.67 30.1462 41.8214L30.357 42.016C30.4219 42.1025 30.4705 42.1998 30.503 42.3079C30.5462 42.4052 30.5678 42.4917 30.5678 42.5674C30.5678 42.6322 30.5678 42.7295 30.5678 42.8593C30.5678 42.989 30.5678 43.0863 30.5678 43.1512C30.5138 43.4214 30.4759 43.7133 30.4543 44.0269C30.4435 44.3296 30.4435 44.6107 30.4543 44.8701C30.4651 45.1188 30.4651 45.3999 30.4543 45.7134C30.5192 45.9188 30.5894 46.0215 30.6651 46.0215C30.8057 46.0107 30.9516 45.8864 31.103 45.6486C31.2111 45.3675 31.4435 44.8972 31.8003 44.2377C32.1571 43.5674 32.3949 43.0701 32.5138 42.7457C32.6003 42.3998 32.703 42.0646 32.822 41.7403C32.9517 41.416 33.1139 41.0376 33.3085 40.6051C33.5139 40.1727 33.6598 39.8537 33.7463 39.6483L34.022 38.7402C34.0112 38.7294 34.022 38.6375 34.0544 38.4645L34.1193 38.205L34.3788 37.8645C34.5734 37.7023 34.8058 37.6212 35.0761 37.6212C35.3248 37.6212 35.5464 37.7023 35.741 37.8645C35.8275 37.9185 35.8815 37.9888 35.9032 38.0753C35.9356 38.151 35.9572 38.2483 35.968 38.3672C35.9788 38.4861 35.9951 38.578 36.0167 38.6429C35.941 38.9132 35.7464 39.3078 35.4329 39.8267C35.1302 40.3456 34.941 40.7619 34.8653 41.0754C34.6923 41.4322 34.4653 41.9835 34.1842 42.7295C33.9139 43.4647 33.7247 43.9566 33.6166 44.2053C32.8166 45.8161 32.2219 46.8918 31.8327 47.4324C31.6706 47.627 31.4165 47.8486 31.0705 48.0973C30.9841 48.1297 30.9084 48.1405 30.8435 48.1297C30.7895 48.1189 30.703 48.0919 30.584 48.0487C30.4651 48.0054 30.3894 47.9784 30.357 47.9676C30.2813 47.9459 30.2111 47.9243 30.1462 47.9027C30.0813 47.8703 30.011 47.827 29.9354 47.773C29.8705 47.7081 29.8219 47.6649 29.7894 47.6432C29.757 47.6108 29.6921 47.5459 29.5948 47.4486C29.5083 47.3513 29.4543 47.2865 29.4326 47.254C29.3462 47.1351 29.2705 47.0054 29.2056 46.8648C29.1407 46.7243 29.0975 46.5999 29.0759 46.4918C29.0543 46.3837 29.0272 46.2378 28.9948 46.054C28.9624 45.8594 28.9353 45.7134 28.9137 45.6161C28.9137 45.5621 28.8813 45.5242 28.8164 45.5026C28.6002 45.7405 28.3137 46.0918 27.9569 46.5567C27.611 47.0216 27.3515 47.3567 27.1785 47.5621C27.0163 47.7243 26.8974 47.8432 26.8217 47.9189C26.7461 47.9838 26.6217 48.0487 26.4487 48.1135C26.2866 48.1892 26.1244 48.2162 25.9622 48.1946C25.8649 48.227 25.7676 48.2216 25.6703 48.1784C25.5838 48.1351 25.5136 48.0865 25.4595 48.0324C25.4163 47.9784 25.3568 47.8973 25.2811 47.7892C25.2055 47.6703 25.1514 47.5946 25.119 47.5621C25.0541 47.454 25.0217 47.2811 25.0217 47.0432ZM37.7696 43.3782C38.548 42.3836 39.4021 41.7349 40.3319 41.4322C40.9265 41.3565 41.24 41.3187 41.2725 41.3187C41.9428 41.3403 42.5266 41.5457 43.0239 41.9349C43.5212 42.3133 43.7861 42.8322 43.8185 43.4917C43.8293 44.0647 43.5969 44.5891 43.1212 45.0647C42.6563 45.5404 42.1374 45.7999 41.5644 45.8432C41.3481 45.9188 41.1157 45.9567 40.867 45.9567C40.3049 45.9567 39.6832 45.7513 39.0021 45.3404C38.7967 45.135 38.6616 45.0323 38.5967 45.0323C38.5534 45.0107 38.5156 45.0107 38.4832 45.0323C38.1264 45.5729 37.9534 45.9837 37.9642 46.2648C38.0832 46.9675 38.4615 47.5621 39.0994 48.0487C39.7373 48.546 40.413 48.773 41.1265 48.7298C41.2346 48.773 41.4238 48.773 41.6941 48.7298C41.9644 48.6973 42.1428 48.6703 42.2293 48.6487C42.3266 48.6271 42.5104 48.573 42.7806 48.4865C43.0617 48.4108 43.2563 48.3568 43.3644 48.3243C43.7428 48.173 44.2456 48.0757 44.8726 48.0324H44.9861C45.0618 48.0108 45.1321 48.027 45.1969 48.0811C45.2618 48.1351 45.2997 48.2162 45.3105 48.3243V48.9244C44.9213 49.3676 44.4402 49.6055 43.8672 49.6379C43.7482 49.6703 43.532 49.7298 43.2185 49.8163C42.9158 49.9028 42.6833 49.9622 42.5212 49.9947C42.3698 50.0379 42.1644 50.0758 41.9049 50.1082C41.6563 50.1514 41.4292 50.1677 41.2238 50.1568C40.2724 50.2001 39.3589 49.9568 38.4832 49.4271C37.6831 49.0163 37.0669 48.3027 36.6344 47.2865C36.4723 46.6486 36.4993 46.0269 36.7155 45.4215C36.9318 44.8161 37.2831 44.135 37.7696 43.3782ZM39.0345 44.1566C39.2616 44.1566 39.4562 44.1728 39.6184 44.2053C39.7157 44.2593 39.8075 44.3026 39.894 44.335C39.9913 44.3566 40.1049 44.3782 40.2346 44.3999C40.3751 44.4107 40.467 44.4161 40.5103 44.4161C40.5535 44.4161 40.667 44.4161 40.8508 44.4161C41.0454 44.4161 41.1481 44.4161 41.159 44.4161C41.7211 44.2431 42.0941 43.9998 42.2779 43.6863C42.3103 43.5674 42.3103 43.4647 42.2779 43.3782C42.2563 43.2809 42.1968 43.1998 42.0995 43.1349C42.0022 43.0701 41.9103 43.0214 41.8238 42.989C41.7374 42.9566 41.6184 42.9187 41.4671 42.8755C41.3265 42.8214 41.2238 42.7836 41.159 42.762C40.8995 42.762 40.6346 42.8376 40.3643 42.989C40.094 43.1295 39.8778 43.2701 39.7157 43.4106C39.5535 43.5512 39.3481 43.7458 39.0994 43.9944C39.0994 44.0052 39.0886 44.0323 39.067 44.0755C39.0454 44.108 39.0345 44.135 39.0345 44.1566ZM45.3571 42.9566C45.4868 42.3295 45.5571 41.9565 45.5679 41.8376C45.5895 41.5349 45.6598 40.7403 45.7787 39.4537C45.8977 38.1564 45.9625 37.1725 45.9733 36.5022C45.995 36.4374 46.022 36.3779 46.0544 36.3239C46.0977 36.259 46.1571 36.1941 46.2328 36.1293C46.3085 36.0536 46.3571 36.0049 46.3788 35.9833C46.4869 35.8968 46.595 35.8536 46.7031 35.8536C47.0058 35.8536 47.2437 36.032 47.4166 36.3887C47.4058 36.7996 47.3572 37.3726 47.2707 38.1077C47.1842 38.8429 47.1301 39.3672 47.1085 39.6808C46.9247 41.1835 46.8815 42.2971 46.9788 43.0214L47.0112 43.0052C47.022 43.0052 47.0382 43.0052 47.0599 43.0052C47.0815 43.0052 47.1031 43.0052 47.1247 43.0052L47.6437 42.9079C47.6977 42.8971 47.7464 42.8917 47.7896 42.8917C48.6761 42.816 49.2113 42.7782 49.3951 42.7782C50.1735 42.7782 50.8762 42.9241 51.5033 43.216C51.8709 43.389 52.179 43.6971 52.4276 44.1404C52.6871 44.5728 52.8006 44.9783 52.7682 45.3567C52.8114 45.6269 52.7682 45.8972 52.6385 46.1675C52.5087 46.427 52.3736 46.627 52.233 46.7675C52.1033 46.9081 51.8979 47.1081 51.6168 47.3675C50.7843 47.9405 49.8438 48.2162 48.7951 48.1946C48.2004 48.2487 47.5139 48.0487 46.7355 47.5946C45.9247 47.0865 45.4652 46.3297 45.3571 45.3242C45.3355 44.535 45.3355 43.7458 45.3571 42.9566ZM47.0923 45.1945C47.1031 45.3026 47.0977 45.3837 47.0761 45.4377C47.0545 45.481 47.0761 45.5567 47.1409 45.6648C47.2058 45.7621 47.2437 45.8323 47.2545 45.8756C47.2761 45.908 47.3301 45.9729 47.4166 46.0702C47.5031 46.1567 47.5572 46.2161 47.5788 46.2486C47.6112 46.281 47.6707 46.3405 47.7572 46.427C47.8545 46.5026 47.9085 46.5459 47.9194 46.5567C48.4383 46.6756 48.9843 46.7081 49.5573 46.654C50.4546 46.4594 50.9681 46.081 51.0979 45.5188C51.1843 45.2377 51.1087 44.9566 50.8708 44.6755C50.633 44.3836 50.3681 44.189 50.0762 44.0917C49.8816 44.0377 49.6816 44.0107 49.4762 44.0107C48.7518 44.0107 48.0653 44.2053 47.4166 44.5945C47.3085 44.681 47.2328 44.7404 47.1896 44.7728C47.1572 44.8053 47.1247 44.8593 47.0923 44.935C47.0707 45.0107 47.0707 45.0972 47.0923 45.1945ZM53.9814 47.3838C53.9814 47.3513 53.9814 47.2756 53.9814 47.1567C53.9922 47.027 53.9976 46.9459 53.9976 46.9135C54.0084 46.8702 54.0193 46.8054 54.0301 46.7189C54.0517 46.6324 54.0733 46.5729 54.0949 46.5405C54.1274 46.4972 54.1652 46.454 54.2085 46.4107C54.2625 46.3567 54.3274 46.3134 54.4031 46.281C54.6733 46.3134 55.0571 46.427 55.5545 46.6216C56.0518 46.8054 56.3869 46.9189 56.5599 46.9621C57.4464 47.1892 58.2897 47.3027 59.0897 47.3027C59.7816 47.3027 60.4141 47.227 60.9871 47.0756C61.0195 47.054 61.106 47 61.2466 46.9135C61.3979 46.827 61.506 46.7621 61.5709 46.7189C61.6466 46.6648 61.7385 46.5945 61.8466 46.508C61.9655 46.4216 62.0574 46.3405 62.1223 46.2648C62.1871 46.1783 62.2412 46.0864 62.2844 45.9891C62.3277 45.6864 62.2574 45.3783 62.0736 45.0647C61.9006 44.7512 61.7439 44.5296 61.6033 44.3999C61.4628 44.2701 61.2303 44.0701 60.906 43.7998C60.6033 43.5944 60.2411 43.4214 59.8195 43.2809C59.4087 43.1403 59.0411 43.0376 58.7167 42.9728C58.4032 42.9079 57.9978 42.8376 57.5005 42.762C57.0032 42.6863 56.6302 42.6214 56.3815 42.5674C56.3058 42.5457 56.2085 42.5187 56.0896 42.4863C55.9815 42.4538 55.9058 42.4322 55.8626 42.4214C55.8301 42.3998 55.7869 42.3619 55.7328 42.3079C55.6788 42.243 55.6247 42.1511 55.5707 42.0322C55.4301 41.8376 55.3653 41.5889 55.3761 41.2862C55.3977 40.9835 55.495 40.7619 55.668 40.6213C55.7977 40.5781 56.0788 40.497 56.5112 40.3781C56.9545 40.2483 57.3491 40.124 57.6951 40.0051C58.0518 39.8862 58.3167 39.7781 58.4897 39.6808C58.5762 39.7132 58.6357 39.6862 58.6681 39.5997C58.7005 39.5132 58.7113 39.4159 58.7005 39.3078C58.5384 39.2861 58.241 39.2213 57.8086 39.1132C57.387 38.9942 57.068 38.9348 56.8518 38.9348C56.6031 38.9023 56.3437 38.8861 56.0734 38.8861C55.2734 38.8861 54.5652 39.0537 53.949 39.3889L53.6246 39.1456C53.3544 38.6591 53.3814 38.3077 53.7057 38.0915C53.8571 37.8861 54.122 37.7023 54.5004 37.5401C54.576 37.5293 54.7814 37.4969 55.1166 37.4428C55.4626 37.3888 55.7436 37.3509 55.9599 37.3293C56.1869 37.3077 56.3869 37.3077 56.5599 37.3293C58.387 37.5239 59.8195 37.9564 60.8574 38.6267C60.8574 38.6699 60.8736 38.7564 60.906 38.8861C60.9493 39.0159 60.9655 39.1294 60.9547 39.2267C60.9547 39.3132 60.9276 39.3943 60.8736 39.4699C60.8303 39.7835 60.706 40.0483 60.5006 40.2646C60.2952 40.47 60.0303 40.67 59.706 40.8646C59.3924 41.0484 59.1762 41.1997 59.0573 41.3187C59.0465 41.3727 59.0897 41.4376 59.187 41.5133C59.9654 41.5889 60.9439 42.1403 62.1223 43.1674C62.1331 43.1782 62.2034 43.2593 62.3331 43.4106C62.4628 43.5512 62.5385 43.6377 62.5601 43.6701C62.5818 43.7025 62.6466 43.789 62.7547 43.9296C62.8737 44.0593 62.9493 44.1512 62.9818 44.2053C63.0142 44.2593 63.0683 44.3512 63.1439 44.4809C63.2304 44.6107 63.2899 44.7188 63.3223 44.8053C63.3548 44.8918 63.3926 44.9999 63.4358 45.1296C63.4899 45.2485 63.5277 45.3675 63.5494 45.4864C63.571 45.6053 63.5872 45.7296 63.598 45.8594C63.6521 46.6054 63.225 47.3513 62.3169 48.0973C61.679 48.4108 60.7763 48.6108 59.6087 48.6973C59.4897 48.6865 59.2573 48.6703 58.9113 48.6487C58.5654 48.6379 58.3059 48.6271 58.1329 48.6162C57.9708 48.6054 57.7329 48.5838 57.4194 48.5514C57.1059 48.5298 56.841 48.5027 56.6248 48.4703C56.4193 48.4379 56.1869 48.3946 55.9274 48.3406C55.668 48.2973 55.4247 48.2433 55.1977 48.1784C54.5166 48.2 54.1112 47.9351 53.9814 47.3838ZM64.6629 45.7621C64.6629 45.7188 64.6629 45.6594 64.6629 45.5837C64.6737 45.4972 64.6845 45.4215 64.6953 45.3567V45.2594C64.7277 45.0972 64.8413 44.962 65.0359 44.8539C65.2413 44.735 65.4413 44.681 65.6359 44.6918C65.7224 44.7026 65.7981 44.7188 65.8629 44.7404C65.9386 44.7512 66.0143 44.7837 66.09 44.8377C66.1764 44.881 66.2359 44.9188 66.2683 44.9512C66.3116 44.9729 66.3873 45.0269 66.4954 45.1134C66.6035 45.1891 66.6792 45.2431 66.7224 45.2756L66.8359 45.3404C67.0305 45.4377 67.3549 45.6053 67.8089 45.8432C68.263 46.0702 68.609 46.2378 68.8468 46.3459C68.8793 46.3459 68.9657 46.3513 69.1063 46.3621C69.2468 46.3729 69.3495 46.3783 69.4144 46.3783C69.4793 46.3675 69.5496 46.3351 69.6252 46.281C69.7009 46.227 69.7496 46.1513 69.7712 46.054C69.8036 45.8161 69.8198 45.5134 69.8198 45.1458L69.8361 45.0485C69.8144 44.6053 69.7928 43.7836 69.7712 42.5836C69.7604 41.3835 69.7658 40.6646 69.7874 40.4267C69.7225 39.8537 69.7009 39.4699 69.7225 39.2753C69.6685 39.2105 69.636 39.178 69.6252 39.178C69.5928 39.1672 69.555 39.1564 69.5117 39.1456C69.4793 39.1348 69.4577 39.1294 69.4468 39.1294C69.0685 39.1294 68.4198 39.1402 67.5008 39.1618C66.5819 39.1726 66.1008 39.178 66.0575 39.178C65.8413 39.1997 65.6737 39.1942 65.5548 39.1618C65.1007 38.8267 64.8737 38.5131 64.8737 38.2212C64.8845 38.1347 64.8953 38.0645 64.9061 38.0104C64.9278 37.9455 64.9494 37.8915 64.971 37.8482C65.0034 37.7942 65.0251 37.7564 65.0359 37.7347C65.0575 37.7131 65.0953 37.6699 65.1494 37.605C65.2034 37.5401 65.2521 37.4807 65.2953 37.4266L65.4089 37.3131H65.6683C65.8737 37.3239 66.4359 37.4482 67.3549 37.6861L67.8738 37.7023C68.1008 37.7131 68.3549 37.7185 68.636 37.7185C68.7333 37.7077 68.9225 37.7077 69.2036 37.7185C70.7496 37.7509 71.674 37.778 71.9767 37.7996L73.8254 37.8645C74.0632 37.8645 74.2633 37.9672 74.4254 38.1726C74.5984 38.3672 74.6633 38.578 74.62 38.805C74.5876 38.9564 74.5065 39.0807 74.3768 39.178C74.2578 39.2753 74.1335 39.3456 74.0038 39.3889C73.8849 39.4213 73.7227 39.4537 73.5173 39.4862C72.2524 39.3024 71.5334 39.1888 71.3604 39.1456C71.2631 39.1672 71.1983 39.1942 71.1658 39.2267L71.0523 39.324C71.0199 39.9727 71.0037 40.4808 71.0037 40.8484C71.0145 41.2051 71.0307 41.7403 71.0523 42.4538C71.0848 43.1674 71.101 43.6647 71.101 43.9458C71.1334 44.162 71.1766 44.6485 71.2307 45.4053C71.2956 46.1621 71.355 46.6756 71.4091 46.9459C71.3767 47.1405 71.301 47.2973 71.1821 47.4162C71.0631 47.5351 70.8685 47.6594 70.5982 47.7892C70.328 47.9189 70.1712 47.9946 70.128 48.0162C69.4685 48.0811 68.6901 47.9189 67.7927 47.5297C67.2954 47.227 66.6035 46.9946 65.717 46.8324C65.6629 46.8216 65.5764 46.8216 65.4575 46.8324C65.3494 46.8432 65.2521 46.8432 65.1656 46.8324C65.0791 46.8108 65.0034 46.7675 64.9386 46.7027C64.6899 46.4648 64.598 46.1513 64.6629 45.7621ZM74.9896 45.8432V44.0917C74.9139 43.9728 74.8761 43.7998 74.8761 43.5728C74.8761 43.3458 74.9139 43.1782 74.9896 43.0701C75.1518 42.9512 75.341 42.8268 75.5572 42.6971C75.7734 42.5674 76.0113 42.4268 76.2707 42.2755C76.5302 42.1241 76.7194 42.0106 76.8383 41.9349C77.2924 41.6646 77.86 41.5295 78.5411 41.5295C79.3411 41.5295 80.1087 41.7025 80.8439 42.0484C81.5899 42.3944 82.2061 42.8701 82.6926 43.4755C83.2548 44.2431 83.3899 44.962 83.098 45.6323C82.4061 46.8216 81.379 47.573 80.0168 47.8865C79.8438 47.9513 79.6492 48 79.433 48.0324C79.2276 48.0649 79.06 48.0811 78.9303 48.0811C78.8006 48.0919 78.5951 48.0919 78.314 48.0811C78.033 48.0811 77.8492 48.0811 77.7627 48.0811C77.2113 47.9622 76.8275 47.8757 76.6113 47.8216C76.4059 47.7676 76.1842 47.6594 75.9464 47.4973C75.7085 47.3243 75.5302 47.1243 75.4112 46.8973C75.3031 46.6702 75.1626 46.3189 74.9896 45.8432ZM76.5302 45.8432C76.6059 45.9945 76.7302 46.1621 76.9032 46.3459C77.0762 46.5189 77.2275 46.6216 77.3573 46.654C77.6059 46.7837 77.9627 46.8486 78.4276 46.8486C78.86 46.8486 79.3087 46.7891 79.7736 46.6702C80.2493 46.5405 80.6871 46.3243 81.0871 46.0215C81.4871 45.708 81.7142 45.3404 81.7682 44.9188C81.779 44.7891 81.7845 44.6864 81.7845 44.6107C81.7845 44.535 81.7466 44.4485 81.6709 44.3512C81.6061 44.2431 81.5466 44.162 81.4925 44.108C81.4385 44.0539 81.3628 43.9836 81.2655 43.8971C81.1682 43.8106 81.0979 43.7404 81.0547 43.6863C80.1357 43.1782 79.4384 42.9241 78.9627 42.9241C78.7249 42.9241 78.4978 42.9728 78.2816 43.0701C78.1843 43.1025 78.0816 43.1728 77.9735 43.2809C77.66 43.5728 77.4546 43.7404 77.3573 43.7836C77.3248 43.8161 77.26 43.8755 77.1626 43.962C77.0762 44.0485 77.0005 44.1242 76.9356 44.189C76.8707 44.2431 76.8059 44.3134 76.741 44.3999C76.687 44.4755 76.6545 44.5458 76.6437 44.6107C76.5788 44.7296 76.541 44.8647 76.5302 45.0161C76.5194 45.1675 76.5194 45.308 76.5302 45.4377C76.5518 45.5567 76.5518 45.6918 76.5302 45.8432ZM83.888 42.9566C84.0177 42.3295 84.088 41.9565 84.0988 41.8376C84.1204 41.5349 84.1907 40.7403 84.3096 39.4537C84.4285 38.1564 84.4934 37.1725 84.5042 36.5022C84.5258 36.4374 84.5528 36.3779 84.5853 36.3239C84.6285 36.259 84.688 36.1941 84.7637 36.1293C84.8393 36.0536 84.888 36.0049 84.9096 35.9833C85.0177 35.8968 85.1258 35.8536 85.234 35.8536C85.5367 35.8536 85.7745 36.032 85.9475 36.3887C85.9367 36.7996 85.888 37.3726 85.8015 38.1077C85.7151 38.8429 85.661 39.3672 85.6394 39.6808C85.4556 41.1835 85.4123 42.2971 85.5096 43.0214L85.5421 43.0052C85.5529 43.0052 85.5691 43.0052 85.5907 43.0052C85.6123 43.0052 85.634 43.0052 85.6556 43.0052L86.1745 42.9079C86.2286 42.8971 86.2772 42.8917 86.3205 42.8917C87.207 42.816 87.7422 42.7782 87.9259 42.7782C88.7044 42.7782 89.4071 42.9241 90.0341 43.216C90.4017 43.389 90.7098 43.6971 90.9585 44.1404C91.218 44.5728 91.3315 44.9783 91.2991 45.3567C91.3423 45.6269 91.2991 45.8972 91.1693 46.1675C91.0396 46.427 90.9044 46.627 90.7639 46.7675C90.6342 46.9081 90.4288 47.1081 90.1477 47.3675C89.3152 47.9405 88.3746 48.2162 87.3259 48.1946C86.7313 48.2487 86.0448 48.0487 85.2664 47.5946C84.4555 47.0865 83.9961 46.3297 83.888 45.3242C83.8663 44.535 83.8663 43.7458 83.888 42.9566ZM85.6232 45.1945C85.634 45.3026 85.6286 45.3837 85.6069 45.4377C85.5853 45.481 85.6069 45.5567 85.6718 45.6648C85.7367 45.7621 85.7745 45.8323 85.7853 45.8756C85.8069 45.908 85.861 45.9729 85.9475 46.0702C86.034 46.1567 86.088 46.2161 86.1097 46.2486C86.1421 46.281 86.2016 46.3405 86.288 46.427C86.3853 46.5026 86.4394 46.5459 86.4502 46.5567C86.9692 46.6756 87.5151 46.7081 88.0881 46.654C88.9855 46.4594 89.499 46.081 89.6287 45.5188C89.7152 45.2377 89.6395 44.9566 89.4017 44.6755C89.1638 44.3836 88.899 44.189 88.6071 44.0917C88.4125 44.0377 88.2124 44.0107 88.007 44.0107C87.2827 44.0107 86.5962 44.2053 85.9475 44.5945C85.8394 44.681 85.7637 44.7404 85.7205 44.7728C85.688 44.8053 85.6556 44.8593 85.6232 44.935C85.6015 45.0107 85.6015 45.0972 85.6232 45.1945ZM92.8042 46.8648C92.8258 46.8216 92.8745 46.7405 92.9501 46.6216C93.0258 46.5026 93.0799 46.4107 93.1123 46.3459C93.6745 46.4432 94.1502 46.681 94.5394 47.0594C94.7448 47.2108 94.9881 47.3297 95.2691 47.4162C95.561 47.5027 95.7773 47.5567 95.9178 47.5784C96.0692 47.5892 96.3611 47.5946 96.7935 47.5946C97.226 47.5838 97.4692 47.5784 97.5233 47.5784C97.7611 47.5784 98.0693 47.5081 98.4476 47.3675C98.5558 47.3243 98.6206 47.2486 98.6423 47.1405C98.6639 47.0324 98.6314 46.9405 98.545 46.8648C98.3395 46.7135 97.8044 46.427 96.9395 46.0053C96.0854 45.5837 95.6313 45.3567 95.5773 45.3242C94.4745 44.9891 93.5123 44.508 92.6907 43.8809C92.6366 43.8052 92.5447 43.7188 92.415 43.6214C92.2961 43.5133 92.1988 43.4106 92.1231 43.3133C92.0474 43.2052 91.9987 43.0863 91.9771 42.9566C91.9663 42.5349 92.1717 42.1619 92.5934 41.8376C92.6474 41.816 92.8582 41.7511 93.2258 41.643C93.5934 41.5349 93.8637 41.4268 94.0367 41.3187C95.0421 40.9186 95.9989 40.6862 96.907 40.6213C96.9287 40.6213 96.9881 40.6267 97.0854 40.6375C97.1935 40.6484 97.253 40.6538 97.2638 40.6538C97.2854 40.6538 97.3395 40.6592 97.426 40.67C97.5125 40.6808 97.5665 40.6916 97.5882 40.7024C97.6098 40.7132 97.653 40.7294 97.7179 40.7511C97.7828 40.7727 97.826 40.7997 97.8476 40.8321C97.8801 40.8538 97.9179 40.8862 97.9611 40.9295C98.0044 40.9619 98.0368 41.0051 98.0584 41.0592C98.0909 41.1024 98.1179 41.1565 98.1395 41.2214C98.2044 41.5997 98.1017 41.9079 97.8314 42.1457C97.7774 42.1457 97.6044 42.1511 97.3125 42.1619C97.0206 42.1727 96.8314 42.1836 96.7449 42.1944C96.6584 42.1944 96.4962 42.2106 96.2584 42.243C96.0205 42.2646 95.8367 42.2917 95.707 42.3241C95.5773 42.3565 95.4259 42.4052 95.2529 42.4701C95.0799 42.5349 94.9178 42.6106 94.7664 42.6971C94.6151 42.7511 94.5124 42.8376 94.4583 42.9566C94.4151 43.0755 94.4799 43.1782 94.6529 43.2647C95.1502 43.6106 95.8854 44.0052 96.8584 44.4485C97.8314 44.8918 98.4963 45.2161 98.8531 45.4215C99.2098 45.6486 99.518 45.9242 99.7774 46.2486C100.048 46.5621 100.215 46.9189 100.28 47.3189C100.356 47.7189 100.188 48.0757 99.7774 48.3892C99.518 48.5946 99.1774 48.7514 98.7558 48.8595C98.3449 48.9676 98.0152 49.0325 97.7665 49.0541C97.5179 49.0757 97.1341 49.0919 96.6151 49.1027C96.0746 49.1244 95.4962 49.0433 94.8799 48.8595C94.2637 48.6757 93.7394 48.4162 93.3069 48.0811C92.8745 47.9189 92.7069 47.5135 92.8042 46.8648ZM105.647 44.1404C105.345 44.2701 105.053 44.4485 104.772 44.6755C104.501 44.9026 104.301 45.0918 104.172 45.2431C104.053 45.3945 103.847 45.6702 103.555 46.0702C103.274 46.4702 103.096 46.7189 103.02 46.8162C102.837 47.3135 102.566 47.7189 102.209 48.0324C102.058 48.1081 101.923 48.146 101.804 48.146C101.566 48.146 101.393 48.0432 101.285 47.8378C101.263 47.8054 101.226 47.7567 101.172 47.6919C101.118 47.627 101.069 47.5676 101.026 47.5135L100.977 47.4324C100.977 47.4 100.972 47.3297 100.961 47.2216C100.961 47.1027 100.961 47.0108 100.961 46.9459C100.961 46.8702 100.966 46.7891 100.977 46.7027C100.999 46.6162 101.031 46.5513 101.074 46.508C101.118 46.1513 101.145 45.7675 101.155 45.3567C101.177 44.9458 101.182 44.6053 101.172 44.335C101.161 44.0539 101.145 43.6647 101.123 43.1674C101.101 42.6701 101.085 42.3187 101.074 42.1133C101.096 41.8322 101.08 41.3835 101.026 40.7673C100.972 40.151 100.955 39.7078 100.977 39.4375V38.5131C100.966 38.3834 101.026 38.3077 101.155 38.2861C101.296 38.2645 101.409 38.2699 101.496 38.3023C101.507 38.3131 101.555 38.3618 101.642 38.4483C101.728 38.5348 101.804 38.6213 101.869 38.7077C101.945 38.7834 101.988 38.8537 101.999 38.9186C102.291 40.3132 102.431 41.2376 102.42 41.6916C102.42 41.7998 102.436 42.2971 102.469 43.1836C102.501 44.0701 102.518 44.562 102.518 44.6593V44.9674H102.615C102.701 44.8918 103.064 44.5296 103.701 43.8809C104.339 43.2214 104.869 42.7674 105.291 42.5187C105.485 42.443 105.701 42.4052 105.939 42.4052C106.296 42.4052 106.588 42.5403 106.815 42.8106C107.183 43.2106 107.453 43.6539 107.626 44.1404C107.799 44.6161 107.939 45.1999 108.048 45.8918C108.361 46.854 108.502 47.5676 108.469 48.0324L108.421 48.1297C108.399 48.1838 108.377 48.2216 108.356 48.2433C108.291 48.3189 108.199 48.3568 108.08 48.3568C107.993 48.3568 107.848 48.3189 107.642 48.2433C107.318 47.8432 107.042 47.3351 106.815 46.7189C106.556 45.9513 106.42 45.508 106.41 45.3891C106.237 44.6539 105.983 44.2377 105.647 44.1404ZM115.331 43.4268L115.412 43.4431C115.455 42.9998 115.547 42.7025 115.688 42.5511C115.807 42.3998 115.904 42.3241 115.98 42.3241C116.012 42.3241 116.05 42.3241 116.093 42.3241C116.169 42.3133 116.234 42.3187 116.288 42.3403C116.353 42.3619 116.429 42.416 116.515 42.5025C116.612 42.5782 116.677 42.6268 116.71 42.6484C116.883 42.9295 116.953 43.2701 116.92 43.6701C116.92 43.6917 116.818 43.9458 116.612 44.4323C116.537 44.8323 116.526 45.2431 116.58 45.6648C116.634 46.0756 116.785 46.4486 117.034 46.7837C117.239 47.2594 117.256 47.6054 117.083 47.8216C117.039 47.9297 116.958 47.9838 116.839 47.9838C116.774 47.9838 116.693 47.9676 116.596 47.9351C116.51 47.9027 116.407 47.8595 116.288 47.8054C116.169 47.7513 116.088 47.7189 116.045 47.7081C115.656 47.4486 115.407 47.0216 115.299 46.427C114.866 46.8918 114.45 47.2324 114.05 47.4486C113.661 47.654 113.131 47.8324 112.461 47.9838C112.104 48.027 111.753 47.9838 111.407 47.854C111.072 47.7243 110.823 47.5946 110.661 47.4648C110.499 47.3351 110.223 47.0973 109.834 46.7513C109.682 46.5459 109.558 46.3513 109.461 46.1675C109.374 45.9837 109.309 45.7837 109.266 45.5675C109.234 45.3512 109.212 45.1945 109.201 45.0972C109.19 44.9891 109.19 44.7891 109.201 44.4972C109.212 44.1944 109.217 43.989 109.217 43.8809C109.282 43.8161 109.315 43.7133 109.315 43.5728V43.4755C109.282 43.3133 109.353 42.9349 109.526 42.3403C109.547 42.2971 109.607 42.2268 109.704 42.1295C109.812 42.0214 109.888 41.9565 109.931 41.9349C110.028 41.9133 110.201 41.9241 110.45 41.9673C110.699 42.0106 110.834 42.0322 110.855 42.0322C110.942 42.0538 111.007 42.0917 111.05 42.1457C111.104 42.1998 111.136 42.27 111.147 42.3565C111.169 42.4322 111.18 42.5025 111.18 42.5674C111.18 42.6322 111.174 42.7187 111.163 42.8268C111.163 42.9349 111.163 43.0106 111.163 43.0539C111.163 43.0755 111.147 43.1133 111.115 43.1674L111.066 43.2647C110.85 43.7296 110.742 44.2161 110.742 44.7242C110.709 45.0053 110.78 45.2972 110.953 45.5999C111.126 45.8918 111.336 46.1405 111.585 46.3459C112.104 46.4648 112.423 46.5243 112.542 46.5243C112.769 46.5243 112.996 46.4648 113.223 46.3459C113.396 46.281 113.558 46.1945 113.709 46.0864C113.872 45.9675 114.001 45.8594 114.099 45.7621C114.207 45.654 114.326 45.5026 114.455 45.308C114.596 45.1134 114.693 44.9729 114.747 44.8864C114.801 44.7891 114.899 44.6161 115.039 44.3674C115.18 44.1188 115.272 43.962 115.315 43.8971C115.315 43.8431 115.315 43.762 115.315 43.6539C115.326 43.5458 115.331 43.4701 115.331 43.4268ZM122.245 43.589C121.532 44.1944 120.883 44.9458 120.299 45.8432C120.278 45.8864 120.137 46.1243 119.878 46.5567C119.629 46.9783 119.461 47.2865 119.375 47.4811C119.256 47.6757 119.083 47.7459 118.856 47.6919L118.143 46.9621V46.4594C118.197 46.1783 118.256 45.6323 118.321 44.8215C118.386 44.0107 118.429 43.5296 118.451 43.3782C118.451 43.3241 118.445 43.2755 118.434 43.2322L118.37 42.8106C118.359 42.7674 118.353 42.7187 118.353 42.6647V42.5998C118.353 42.4268 118.407 42.2863 118.515 42.1781C118.634 42.07 118.78 42.0214 118.953 42.0322C119.299 42.0322 119.543 42.1403 119.683 42.3565C119.759 42.6484 119.797 43.0268 119.797 43.4917C119.797 43.589 119.791 43.7133 119.78 43.8647C119.78 44.0052 119.78 44.0809 119.78 44.0917C119.867 44.0269 120.04 43.8647 120.299 43.6052C120.57 43.335 120.737 43.1566 120.802 43.0701C120.878 42.9728 120.97 42.843 121.078 42.6809C121.197 42.5079 121.31 42.3619 121.418 42.243C121.526 42.1133 121.656 41.989 121.808 41.87C121.862 41.7944 121.926 41.7403 122.002 41.7079C122.078 41.6646 122.148 41.643 122.213 41.643C122.289 41.6322 122.37 41.6268 122.456 41.6268C122.543 41.6268 122.629 41.6268 122.716 41.6268C122.835 41.5835 122.954 41.5943 123.072 41.6592C123.202 41.7133 123.337 41.8322 123.478 42.016C123.618 42.189 123.705 42.3079 123.737 42.3728C123.781 42.4376 123.867 42.5728 123.997 42.7782C124.332 43.5566 124.5 44.4053 124.5 45.3242L124.808 46.654C124.808 46.6864 124.84 46.7945 124.905 46.9783C124.981 47.1621 125.018 47.2594 125.018 47.2702C125.04 47.5621 124.97 47.7676 124.808 47.8865C124.775 47.8973 124.694 47.9297 124.564 47.9838C124.445 48.027 124.354 48.0487 124.289 48.0487C124.181 48.0487 124.116 47.9946 124.094 47.8865C124.072 47.854 123.997 47.7351 123.867 47.5297C123.748 47.3135 123.651 47.1621 123.575 47.0756C123.37 46.3621 123.235 45.6756 123.17 45.0161C123.137 44.9404 123.089 44.7783 123.024 44.5296C122.97 44.2701 122.916 44.0917 122.862 43.9944C122.635 43.735 122.483 43.5944 122.408 43.5728C122.321 43.5728 122.267 43.5782 122.245 43.589ZM128.064 44.9512L128.096 43.6214C128.096 43.3079 128.069 42.8268 128.015 42.1781C127.95 41.9295 127.891 41.7835 127.837 41.7403C127.123 41.7944 126.577 41.9133 126.199 42.0971C126.102 42.0971 125.961 42.1349 125.777 42.2106C125.594 42.2863 125.437 42.3133 125.307 42.2917C125.231 42.2592 125.156 42.2106 125.08 42.1457C125.004 42.0808 124.929 42.0052 124.853 41.9187C124.767 41.8214 124.696 41.7511 124.642 41.7079C124.599 41.5997 124.583 41.4484 124.594 41.2538C124.604 41.0592 124.642 40.9132 124.707 40.8159L125.242 40.3456C125.804 40.3348 126.642 40.2267 127.756 40.0213L127.869 39.8916L127.902 37.3455C128.15 37.0752 128.459 36.9779 128.826 37.0536C129.118 37.2807 129.28 37.5618 129.313 37.8969C129.345 37.9618 129.367 38.232 129.377 38.7077C129.388 39.1834 129.432 39.4591 129.507 39.5348C129.518 39.5348 129.567 39.551 129.653 39.5835C129.75 39.6051 129.805 39.6213 129.815 39.6321C130.032 39.6105 130.307 39.5726 130.642 39.5186C130.978 39.4537 131.221 39.4159 131.372 39.4051C131.524 39.3943 131.799 39.3997 132.199 39.4213L132.945 39.4537C133.41 39.5186 133.583 39.7889 133.464 40.2646C133.28 40.4484 133.14 40.5511 133.043 40.5727C132.794 40.5943 132.54 40.6267 132.28 40.67C132.021 40.7132 131.697 40.7835 131.307 40.8808C130.929 40.9673 130.675 41.0213 130.545 41.043L130.513 41.0592C130.232 41.07 129.913 41.1403 129.556 41.27L129.475 41.3835C129.475 41.5133 129.464 41.7295 129.442 42.0322C129.432 42.3241 129.432 42.5782 129.442 42.7944C129.453 42.9998 129.486 43.2106 129.54 43.4268C129.54 45.3188 129.637 46.4972 129.832 46.9621C130.048 47.1567 130.242 47.2594 130.415 47.2702C130.513 47.2702 130.637 47.254 130.788 47.2216C130.832 47.2108 130.896 47.1946 130.983 47.1729C131.069 47.1513 131.129 47.1405 131.161 47.1405C131.194 47.1297 131.242 47.1135 131.307 47.0919C131.372 47.0702 131.415 47.054 131.437 47.0432C131.469 47.0324 131.507 47.0162 131.551 46.9946C131.605 46.9621 131.642 46.9297 131.664 46.8973C131.697 46.8648 131.734 46.827 131.778 46.7837C131.821 46.7405 131.859 46.6918 131.891 46.6378C131.934 46.5837 131.978 46.5243 132.021 46.4594C132.064 46.3837 132.113 46.3026 132.167 46.2161C132.156 46.1621 132.172 46.0324 132.215 45.8269C132.259 45.6215 132.291 45.4918 132.313 45.4377C132.432 45.1026 132.648 44.9404 132.961 44.9512C133.113 44.9296 133.226 44.9566 133.302 45.0323C133.378 45.108 133.448 45.2431 133.513 45.4377L133.594 45.7134C133.518 46.2432 133.437 46.5729 133.351 46.7027C133.134 47.1351 132.967 47.4324 132.848 47.5946C132.74 47.7567 132.54 47.9243 132.248 48.0973C131.956 48.2811 131.507 48.4703 130.902 48.6649C130.869 48.6757 130.745 48.7189 130.529 48.7946C130.313 48.8811 130.145 48.9244 130.026 48.9244C129.529 48.9027 129.161 48.7406 128.923 48.4379C128.891 48.373 128.794 48.2054 128.632 47.9351C128.469 47.654 128.356 47.4108 128.291 47.2054C128.226 46.9891 128.21 46.7621 128.242 46.5243C128.232 46.3297 128.204 46.0486 128.161 45.681C128.118 45.3134 128.091 45.081 128.08 44.9837C128.069 44.9729 128.064 44.962 128.064 44.9512Z" fill="#1E1E1E"/>
<path d="M55.9837 98.956C94.6637 96.046 131.834 95.546 160.414 98.956C177.224 95.716 184.724 105.176 183.744 122.296C184.014 136.436 182.474 158.086 183.744 168.966C184.034 183.456 178.154 191.566 160.414 192.306C125.484 195.736 88.7337 195.446 55.9837 192.306C40.0037 193.526 32.7537 186.356 32.6437 168.966C29.3237 150.466 35.5737 138.686 32.6437 122.296C33.5237 105.886 40.5637 102.406 55.9837 98.956Z" fill="#E9ECEF"/>
<path d="M41.3343 212.124C79.9643 215.254 113.314 216.204 183.764 212.124C187.914 210.544 194.984 216.784 192.394 220.744C191.504 221.944 191.884 228.854 192.394 237.994C193.544 247.044 188.134 249.734 183.764 246.624C135.304 248.584 79.7743 249.704 41.3343 246.624C38.0843 249.734 29.1943 246.734 32.7143 237.994C35.6143 232.564 30.5943 228.794 32.7143 220.744C34.2243 217.374 33.5043 212.554 41.3343 212.124Z" fill="#A5D8FF"/>
<path d="M41.3343 212.124C79.0543 213.964 120.454 210.834 183.764 212.124M41.3343 212.124C76.8943 212.774 111.204 213.464 183.764 212.124M41.3343 212.124C36.6343 211.874 34.5143 213.964 32.7143 220.744M41.3343 212.124C36.4743 209.984 32.4143 214.334 32.7143 220.744M183.764 212.124C188.154 212.204 194.364 213.214 192.394 220.744M183.764 212.124C191.464 210.414 190.194 216.254 192.394 220.744M192.394 220.744C193.584 225.724 192.894 230.074 192.394 237.994M192.394 220.744C192.234 226.484 192.734 230.854 192.394 237.994M192.394 237.994C192.784 245.284 189.754 245.864 183.764 246.624M192.394 237.994C192.054 244.704 190.884 248.014 183.764 246.624M183.764 246.624C150.524 245.964 117.594 246.854 41.3343 246.624M183.764 246.624C151.874 245.504 120.234 245.634 41.3343 246.624M41.3343 246.624C36.8843 245.124 31.5943 245.104 32.7143 237.994M41.3343 246.624C36.0043 244.814 33.8643 244.464 32.7143 237.994M32.7143 237.994C33.5043 233.624 32.5843 227.024 32.7143 220.744M32.7143 237.994C31.7543 232.294 31.9143 227.934 32.7143 220.744" stroke="#1E1E1E" stroke-width="2" stroke-linecap="round"/>
<path d="M69.6291 232.128C69.6078 231.947 69.6451 231.776 69.7411 231.616C69.8478 231.445 69.9811 231.349 70.1411 231.328C70.5145 231.253 70.8398 231.344 71.1171 231.6C71.1598 231.621 71.2718 231.728 71.4531 231.92C71.9118 232.208 72.4825 232.379 73.1651 232.432C73.5705 232.432 73.9438 232.437 74.2851 232.448C74.6371 232.459 75.0105 232.437 75.4051 232.384C75.8105 232.331 76.1785 232.245 76.5091 232.128C76.9571 231.776 77.1278 231.472 77.0211 231.216C76.9571 231.003 76.7385 230.763 76.3651 230.496C75.9918 230.229 75.7731 230.064 75.7091 230C74.5358 229.573 73.2878 229.035 71.9651 228.384C71.6131 228.213 71.3571 228.064 71.1971 227.936C71.0371 227.808 70.8185 227.584 70.5411 227.264C70.4131 227.083 70.3918 226.725 70.4771 226.192C70.5411 226.011 70.7651 225.829 71.1491 225.648C71.1598 225.648 71.2718 225.616 71.4851 225.552C71.6985 225.488 71.8211 225.456 71.8531 225.456C71.9811 225.36 72.1251 225.269 72.2851 225.184C72.4558 225.088 72.6051 225.008 72.7331 224.944C72.8718 224.88 73.0478 224.805 73.2611 224.72C73.4851 224.624 73.6505 224.555 73.7571 224.512C73.8745 224.469 74.0611 224.405 74.3171 224.32C74.5838 224.224 74.7598 224.16 74.8451 224.128C74.9518 224.096 75.1758 224.011 75.5171 223.872C75.8585 223.723 76.1678 223.6 76.4451 223.504C76.7331 223.397 76.9465 223.333 77.0851 223.312L78.0131 223.216L78.6371 223.52C78.7331 223.595 78.7918 223.68 78.8131 223.776C78.8451 223.861 78.8558 223.979 78.8451 224.128C78.8451 224.277 78.8451 224.379 78.8451 224.432C78.5678 224.784 78.2958 224.923 78.0291 224.848C78.0078 224.848 77.9385 224.816 77.8211 224.752C77.7038 224.677 77.6398 224.64 77.6291 224.64C77.5651 224.629 77.4851 224.635 77.3891 224.656C77.2931 224.677 77.1811 224.715 77.0531 224.768C76.9358 224.811 76.8558 224.837 76.8131 224.848C76.5251 225.008 76.0451 225.232 75.3731 225.52C74.7118 225.797 74.3171 225.968 74.1891 226.032C73.3571 226.341 72.8505 226.555 72.6691 226.672V226.768C72.8078 226.96 72.9891 227.131 73.2131 227.28C73.4371 227.429 73.7518 227.589 74.1571 227.76C74.5625 227.931 74.8078 228.037 74.8931 228.08C76.4398 228.656 77.5545 229.365 78.2371 230.208C78.5038 230.784 78.6051 231.323 78.5411 231.824C78.3705 232.229 78.1091 232.597 77.7571 232.928C77.4051 233.248 77.0211 233.483 76.6051 233.632C76.0185 233.867 75.1385 233.973 73.9651 233.952C72.7278 233.984 71.6878 233.813 70.8451 233.44C70.5571 233.355 70.3545 233.253 70.2371 233.136C69.8318 232.837 69.6291 232.501 69.6291 232.128ZM80.8355 229.44C81.6035 228.459 82.4462 227.819 83.3635 227.52C83.9502 227.445 84.2595 227.408 84.2915 227.408C84.9528 227.429 85.5288 227.632 86.0195 228.016C86.5102 228.389 86.7715 228.901 86.8035 229.552C86.8142 230.117 86.5848 230.635 86.1155 231.104C85.6568 231.573 85.1448 231.829 84.5795 231.872C84.3662 231.947 84.1368 231.984 83.8915 231.984C83.3368 231.984 82.7235 231.781 82.0515 231.376C81.8488 231.173 81.7155 231.072 81.6515 231.072C81.6088 231.051 81.5715 231.051 81.5395 231.072C81.1875 231.605 81.0168 232.011 81.0275 232.288C81.1448 232.981 81.5182 233.568 82.1475 234.048C82.7768 234.539 83.4435 234.763 84.1475 234.72C84.2542 234.763 84.4408 234.763 84.7075 234.72C84.9742 234.688 85.1502 234.661 85.2355 234.64C85.3315 234.619 85.5128 234.565 85.7795 234.48C86.0568 234.405 86.2488 234.352 86.3555 234.32C86.7288 234.171 87.2248 234.075 87.8435 234.032H87.9555C88.0302 234.011 88.0995 234.027 88.1635 234.08C88.2275 234.133 88.2648 234.213 88.2755 234.32V234.912C87.8915 235.349 87.4168 235.584 86.8515 235.616C86.7342 235.648 86.5208 235.707 86.2115 235.792C85.9128 235.877 85.6835 235.936 85.5235 235.968C85.3742 236.011 85.1715 236.048 84.9155 236.08C84.6702 236.123 84.4462 236.139 84.2435 236.128C83.3048 236.171 82.4035 235.931 81.5395 235.408C80.7502 235.003 80.1422 234.299 79.7155 233.296C79.5555 232.667 79.5822 232.053 79.7955 231.456C80.0088 230.859 80.3555 230.187 80.8355 229.44ZM82.0835 230.208C82.3075 230.208 82.4995 230.224 82.6595 230.256C82.7555 230.309 82.8462 230.352 82.9315 230.384C83.0275 230.405 83.1395 230.427 83.2675 230.448C83.4062 230.459 83.4968 230.464 83.5395 230.464C83.5822 230.464 83.6942 230.464 83.8755 230.464C84.0675 230.464 84.1688 230.464 84.1795 230.464C84.7342 230.293 85.1022 230.053 85.2835 229.744C85.3155 229.627 85.3155 229.525 85.2835 229.44C85.2622 229.344 85.2035 229.264 85.1075 229.2C85.0115 229.136 84.9208 229.088 84.8355 229.056C84.7502 229.024 84.6328 228.987 84.4835 228.944C84.3448 228.891 84.2435 228.853 84.1795 228.832C83.9235 228.832 83.6622 228.907 83.3955 229.056C83.1288 229.195 82.9155 229.333 82.7555 229.472C82.5955 229.611 82.3928 229.803 82.1475 230.048C82.1475 230.059 82.1368 230.085 82.1155 230.128C82.0942 230.16 82.0835 230.187 82.0835 230.208ZM94.4655 231.696C94.3802 231.76 94.2788 231.893 94.1615 232.096C93.5962 232.715 93.0415 233.211 92.4975 233.584C91.9642 233.947 91.3828 234.123 90.7535 234.112C90.4228 234.155 90.0815 234.112 89.7295 233.984C89.3775 233.845 89.1002 233.653 88.8975 233.408C88.8015 233.259 88.7322 233.157 88.6895 233.104C88.6575 233.04 88.6042 232.944 88.5295 232.816C88.4548 232.677 88.4015 232.565 88.3695 232.48C88.3482 232.395 88.3215 232.293 88.2895 232.176C88.2575 232.059 88.2415 231.947 88.2415 231.84C88.2415 231.723 88.2575 231.605 88.2895 231.488C88.3002 231.125 88.4175 230.757 88.6415 230.384C88.8762 230.011 89.1108 229.712 89.3455 229.488C89.5802 229.264 89.8842 228.997 90.2575 228.688C90.3322 228.635 90.3855 228.592 90.4175 228.56C90.8655 228.197 91.4735 228.016 92.2415 228.016C92.4015 228.016 92.9082 228.059 93.7615 228.144C93.7828 228.165 93.8522 228.203 93.9695 228.256C94.0975 228.309 94.1882 228.368 94.2415 228.432C94.2948 228.485 94.3002 228.56 94.2575 228.656L94.4655 228.864C94.7855 229.003 94.9882 229.136 95.0735 229.264C95.6068 230.352 96.0762 231.227 96.4815 231.888C96.5242 231.941 96.6575 232.064 96.8815 232.256C97.1162 232.437 97.2548 232.555 97.2975 232.608C97.3828 232.672 97.4842 232.763 97.6015 232.88C97.7295 232.987 97.8362 233.067 97.9215 233.12C98.0068 233.173 98.1028 233.205 98.2095 233.216C98.2202 233.227 98.2895 233.291 98.4175 233.408C98.4282 233.44 98.4228 233.483 98.4015 233.536C98.3908 233.579 98.3748 233.632 98.3535 233.696C98.3322 233.76 98.3162 233.803 98.3055 233.824C98.1988 233.984 97.9642 234.112 97.6015 234.208C97.4735 234.208 97.3828 234.213 97.3295 234.224C97.2868 234.245 97.2122 234.235 97.1055 234.192C97.0095 234.16 96.9402 234.133 96.8975 234.112C96.8655 234.101 96.7962 234.064 96.6895 234C96.5828 233.936 96.5028 233.888 96.4495 233.856L96.3855 233.824C96.1188 233.6 95.7508 233.216 95.2815 232.672C94.8228 232.117 94.5508 231.792 94.4655 231.696ZM89.8095 232.192C90.0015 232.48 90.2895 232.624 90.6735 232.624C90.8548 232.624 91.1055 232.581 91.4255 232.496C91.9482 232.304 92.4228 231.968 92.8495 231.488C93.2655 230.912 93.5002 230.405 93.5535 229.968C93.5535 229.936 93.5748 229.813 93.6175 229.6C93.6602 229.376 93.6762 229.221 93.6655 229.136C93.4522 229.189 93.1428 229.232 92.7375 229.264C92.3428 229.285 92.0388 229.317 91.8255 229.36C91.5482 229.403 91.2655 229.536 90.9775 229.76C90.6895 229.973 90.4708 230.176 90.3215 230.368C90.1722 230.56 89.9695 230.832 89.7135 231.184C89.5322 231.408 89.5642 231.744 89.8095 232.192ZM99.1854 229.712C99.26 229.243 99.42 228.837 99.6654 228.496C99.9107 228.155 100.257 227.781 100.705 227.376C101.089 227.184 101.585 227.088 102.193 227.088C102.94 227.088 103.553 227.216 104.033 227.472C104.94 228.037 105.585 228.512 105.969 228.896C105.969 228.928 105.975 229.008 105.985 229.136C105.996 229.264 105.991 229.371 105.969 229.456C105.959 229.541 105.921 229.589 105.857 229.6C105.516 229.653 105.169 229.6 104.817 229.44C104.732 229.387 104.593 229.307 104.401 229.2C104.209 229.083 104.065 228.997 103.969 228.944C103.873 228.891 103.745 228.837 103.585 228.784C103.425 228.731 103.271 228.699 103.121 228.688C103.036 228.688 102.897 228.688 102.705 228.688C102.513 228.677 102.359 228.677 102.241 228.688C102.135 228.688 102.001 228.704 101.841 228.736C101.681 228.768 101.537 228.821 101.409 228.896L101.313 228.992C100.929 229.504 100.689 229.899 100.593 230.176C100.615 230.496 100.615 230.784 100.593 231.04C100.572 231.285 100.567 231.568 100.577 231.888C100.599 232.208 100.641 232.491 100.705 232.736C100.78 232.864 100.823 232.992 100.833 233.12C100.844 233.237 100.817 233.376 100.753 233.536C100.689 233.696 100.641 233.808 100.609 233.872C100.588 233.925 100.519 234.048 100.401 234.24C100.305 234.368 100.188 234.432 100.049 234.432C99.9 234.432 99.7454 234.368 99.5854 234.24C99.3294 234.08 99.1267 233.781 98.9774 233.344C98.9774 231.659 99.0467 230.448 99.1854 229.712ZM105.74 230.88C105.815 230.379 105.959 229.957 106.172 229.616C106.396 229.275 106.727 228.917 107.164 228.544C107.527 228.128 107.964 227.813 108.476 227.6C108.988 227.387 109.495 227.328 109.996 227.424C110.22 227.413 110.45 227.472 110.684 227.6C110.93 227.728 111.1 227.84 111.196 227.936C111.303 228.032 111.479 228.203 111.724 228.448C111.97 228.779 112.071 229.285 112.028 229.968C111.89 230.224 111.751 230.357 111.612 230.368C111.58 230.368 111.49 230.379 111.34 230.4C111.191 230.411 111.074 230.4 110.988 230.368C110.914 230.336 110.855 230.267 110.812 230.16C110.599 229.595 110.434 229.28 110.316 229.216C110.156 229.109 109.97 229.051 109.756 229.04C109.543 229.029 109.351 229.035 109.18 229.056C108.924 229.12 108.674 229.253 108.428 229.456C108.183 229.648 107.996 229.824 107.868 229.984C107.751 230.133 107.58 230.363 107.356 230.672C107.356 230.704 107.335 230.811 107.292 230.992C107.26 231.173 107.25 231.339 107.26 231.488C107.282 231.637 107.351 231.739 107.468 231.792C107.81 232.208 108.172 232.485 108.556 232.624C109.015 232.805 109.831 232.997 111.004 233.2L112.94 233.616C113.015 233.68 113.084 233.781 113.148 233.92C113.223 234.048 113.255 234.144 113.244 234.208C113.202 234.347 113.095 234.485 112.924 234.624C112.764 234.763 112.599 234.859 112.428 234.912C112.012 234.955 111.474 234.885 110.812 234.704C109.65 234.491 108.871 234.325 108.476 234.208C107.431 233.867 106.652 233.365 106.14 232.704C105.799 232.245 105.666 231.637 105.74 230.88ZM118.556 230.192C118.257 230.32 117.969 230.496 117.692 230.72C117.425 230.944 117.228 231.131 117.1 231.28C116.982 231.429 116.78 231.701 116.492 232.096C116.214 232.491 116.038 232.736 115.964 232.832C115.782 233.323 115.516 233.723 115.164 234.032C115.014 234.107 114.881 234.144 114.764 234.144C114.529 234.144 114.358 234.043 114.252 233.84C114.23 233.808 114.193 233.76 114.14 233.696C114.086 233.632 114.038 233.573 113.996 233.52L113.948 233.44C113.948 233.408 113.942 233.339 113.932 233.232C113.932 233.115 113.932 233.024 113.932 232.96C113.932 232.885 113.937 232.805 113.948 232.72C113.969 232.635 114.001 232.571 114.044 232.528C114.086 232.176 114.113 231.797 114.124 231.392C114.145 230.987 114.15 230.651 114.14 230.384C114.129 230.107 114.113 229.723 114.092 229.232C114.07 228.741 114.054 228.395 114.044 228.192C114.065 227.915 114.049 227.472 113.996 226.864C113.942 226.256 113.926 225.819 113.948 225.552V224.64C113.937 224.512 113.996 224.437 114.124 224.416C114.262 224.395 114.374 224.4 114.46 224.432C114.47 224.443 114.518 224.491 114.604 224.576C114.689 224.661 114.764 224.747 114.828 224.832C114.902 224.907 114.945 224.976 114.956 225.04C115.244 226.416 115.382 227.328 115.372 227.776C115.372 227.883 115.388 228.373 115.42 229.248C115.452 230.123 115.468 230.608 115.468 230.704V231.008H115.564C115.649 230.933 116.006 230.576 116.636 229.936C117.265 229.285 117.788 228.837 118.204 228.592C118.396 228.517 118.609 228.48 118.844 228.48C119.196 228.48 119.484 228.613 119.708 228.88C120.07 229.275 120.337 229.712 120.508 230.192C120.678 230.661 120.817 231.237 120.924 231.92C121.233 232.869 121.372 233.573 121.34 234.032L121.292 234.128C121.27 234.181 121.249 234.219 121.228 234.24C121.164 234.315 121.073 234.352 120.956 234.352C120.87 234.352 120.726 234.315 120.524 234.24C120.204 233.845 119.932 233.344 119.708 232.736C119.452 231.979 119.318 231.541 119.308 231.424C119.137 230.699 118.886 230.288 118.556 230.192ZM129.838 231.792C129.838 231.749 129.838 231.691 129.838 231.616C129.849 231.531 129.859 231.456 129.87 231.392V231.296C129.902 231.136 130.014 231.003 130.206 230.896C130.409 230.779 130.606 230.725 130.798 230.736C130.883 230.747 130.958 230.763 131.022 230.784C131.097 230.795 131.171 230.827 131.246 230.88C131.331 230.923 131.39 230.96 131.422 230.992C131.465 231.013 131.539 231.067 131.646 231.152C131.753 231.227 131.827 231.28 131.87 231.312L131.982 231.376C132.174 231.472 132.494 231.637 132.942 231.872C133.39 232.096 133.731 232.261 133.966 232.368C133.998 232.368 134.083 232.373 134.222 232.384C134.361 232.395 134.462 232.4 134.526 232.4C134.59 232.389 134.659 232.357 134.734 232.304C134.809 232.251 134.857 232.176 134.878 232.08C134.91 231.845 134.926 231.547 134.926 231.184L134.942 231.088C134.921 230.651 134.899 229.84 134.878 228.656C134.867 227.472 134.873 226.763 134.894 226.528C134.83 225.963 134.809 225.584 134.83 225.392C134.777 225.328 134.745 225.296 134.734 225.296C134.702 225.285 134.665 225.275 134.622 225.264C134.59 225.253 134.569 225.248 134.558 225.248C134.185 225.248 133.545 225.259 132.638 225.28C131.731 225.291 131.257 225.296 131.214 225.296C131.001 225.317 130.835 225.312 130.718 225.28C130.27 224.949 130.046 224.64 130.046 224.352C130.057 224.267 130.067 224.197 130.078 224.144C130.099 224.08 130.121 224.027 130.142 223.984C130.174 223.931 130.195 223.893 130.206 223.872C130.227 223.851 130.265 223.808 130.318 223.744C130.371 223.68 130.419 223.621 130.462 223.568L130.574 223.456H130.83C131.033 223.467 131.587 223.589 132.494 223.824L133.006 223.84C133.23 223.851 133.481 223.856 133.758 223.856C133.854 223.845 134.041 223.845 134.318 223.856C135.843 223.888 136.755 223.915 137.054 223.936L138.878 224C139.113 224 139.31 224.101 139.47 224.304C139.641 224.496 139.705 224.704 139.662 224.928C139.63 225.077 139.55 225.2 139.422 225.296C139.305 225.392 139.182 225.461 139.054 225.504C138.937 225.536 138.777 225.568 138.574 225.6C137.326 225.419 136.617 225.307 136.446 225.264C136.35 225.285 136.286 225.312 136.254 225.344L136.142 225.44C136.11 226.08 136.094 226.581 136.094 226.944C136.105 227.296 136.121 227.824 136.142 228.528C136.174 229.232 136.19 229.723 136.19 230C136.222 230.213 136.265 230.693 136.318 231.44C136.382 232.187 136.441 232.693 136.494 232.96C136.462 233.152 136.387 233.307 136.27 233.424C136.153 233.541 135.961 233.664 135.694 233.792C135.427 233.92 135.273 233.995 135.23 234.016C134.579 234.08 133.811 233.92 132.926 233.536C132.435 233.237 131.753 233.008 130.878 232.848C130.825 232.837 130.739 232.837 130.622 232.848C130.515 232.859 130.419 232.859 130.334 232.848C130.249 232.827 130.174 232.784 130.11 232.72C129.865 232.485 129.774 232.176 129.838 231.792ZM140.027 231.872V230.144C139.952 230.027 139.915 229.856 139.915 229.632C139.915 229.408 139.952 229.243 140.027 229.136C140.187 229.019 140.373 228.896 140.587 228.768C140.8 228.64 141.035 228.501 141.291 228.352C141.547 228.203 141.733 228.091 141.851 228.016C142.299 227.749 142.859 227.616 143.531 227.616C144.32 227.616 145.077 227.787 145.803 228.128C146.539 228.469 147.147 228.939 147.627 229.536C148.181 230.293 148.315 231.003 148.027 231.664C147.344 232.837 146.331 233.579 144.987 233.888C144.816 233.952 144.624 234 144.411 234.032C144.208 234.064 144.043 234.08 143.915 234.08C143.787 234.091 143.584 234.091 143.307 234.08C143.029 234.08 142.848 234.08 142.763 234.08C142.219 233.963 141.84 233.877 141.627 233.824C141.424 233.771 141.205 233.664 140.971 233.504C140.736 233.333 140.56 233.136 140.443 232.912C140.336 232.688 140.197 232.341 140.027 231.872ZM141.547 231.872C141.621 232.021 141.744 232.187 141.914 232.368C142.085 232.539 142.235 232.64 142.363 232.672C142.608 232.8 142.96 232.864 143.419 232.864C143.845 232.864 144.288 232.805 144.747 232.688C145.216 232.56 145.648 232.347 146.043 232.048C146.437 231.739 146.661 231.376 146.715 230.96C146.725 230.832 146.731 230.731 146.731 230.656C146.731 230.581 146.693 230.496 146.619 230.4C146.555 230.293 146.496 230.213 146.443 230.16C146.389 230.107 146.315 230.037 146.219 229.952C146.123 229.867 146.053 229.797 146.011 229.744C145.104 229.243 144.416 228.992 143.947 228.992C143.712 228.992 143.488 229.04 143.275 229.136C143.179 229.168 143.077 229.237 142.971 229.344C142.661 229.632 142.459 229.797 142.363 229.84C142.331 229.872 142.267 229.931 142.171 230.016C142.085 230.101 142.011 230.176 141.947 230.24C141.883 230.293 141.819 230.363 141.755 230.448C141.701 230.523 141.669 230.592 141.659 230.656C141.595 230.773 141.557 230.907 141.547 231.056C141.536 231.205 141.536 231.344 141.547 231.472C141.568 231.589 141.568 231.723 141.547 231.872ZM148.806 229.024C148.934 228.405 149.003 228.037 149.014 227.92C149.035 227.621 149.105 226.837 149.222 225.568C149.339 224.288 149.403 223.317 149.414 222.656C149.435 222.592 149.462 222.533 149.494 222.48C149.537 222.416 149.595 222.352 149.67 222.288C149.745 222.213 149.793 222.165 149.814 222.144C149.921 222.059 150.027 222.016 150.134 222.016C150.433 222.016 150.667 222.192 150.838 222.544C150.827 222.949 150.779 223.515 150.694 224.24C150.609 224.965 150.555 225.483 150.534 225.792C150.353 227.275 150.31 228.373 150.406 229.088L150.438 229.072C150.449 229.072 150.465 229.072 150.486 229.072C150.507 229.072 150.529 229.072 150.55 229.072L151.062 228.976C151.115 228.965 151.163 228.96 151.206 228.96C152.081 228.885 152.609 228.848 152.79 228.848C153.558 228.848 154.251 228.992 154.87 229.28C155.233 229.451 155.537 229.755 155.782 230.192C156.038 230.619 156.15 231.019 156.118 231.392C156.161 231.659 156.118 231.925 155.99 232.192C155.862 232.448 155.729 232.645 155.59 232.784C155.462 232.923 155.259 233.12 154.982 233.376C154.161 233.941 153.233 234.213 152.198 234.192C151.611 234.245 150.934 234.048 150.166 233.6C149.366 233.099 148.913 232.352 148.806 231.36C148.785 230.581 148.785 229.803 148.806 229.024ZM150.518 231.232C150.529 231.339 150.523 231.419 150.502 231.472C150.481 231.515 150.502 231.589 150.566 231.696C150.63 231.792 150.667 231.861 150.678 231.904C150.699 231.936 150.753 232 150.838 232.096C150.923 232.181 150.977 232.24 150.998 232.272C151.03 232.304 151.089 232.363 151.174 232.448C151.27 232.523 151.323 232.565 151.334 232.576C151.846 232.693 152.385 232.725 152.95 232.672C153.835 232.48 154.342 232.107 154.47 231.552C154.555 231.275 154.481 230.997 154.246 230.72C154.011 230.432 153.75 230.24 153.462 230.144C153.27 230.091 153.073 230.064 152.87 230.064C152.155 230.064 151.478 230.256 150.838 230.64C150.731 230.725 150.657 230.784 150.614 230.816C150.582 230.848 150.55 230.901 150.518 230.976C150.497 231.051 150.497 231.136 150.518 231.232Z" fill="#1E1E1E"/>
</svg>
